%TF.GenerationSoftware,KiCad,Pcbnew,6.99.0-unknown-f8b157a1fb~149~ubuntu22.04.1*%
%TF.CreationDate,2022-10-15T12:14:30+11:00*%
%TF.ProjectId,STSPIN32G4,53545350-494e-4333-9247-342e6b696361,rev?*%
%TF.SameCoordinates,Original*%
%TF.FileFunction,Soldermask,Top*%
%TF.FilePolarity,Negative*%
%FSLAX46Y46*%
G04 Gerber Fmt 4.6, Leading zero omitted, Abs format (unit mm)*
G04 Created by KiCad (PCBNEW 6.99.0-unknown-f8b157a1fb~149~ubuntu22.04.1) date 2022-10-15 12:14:30*
%MOMM*%
%LPD*%
G01*
G04 APERTURE LIST*
G04 Aperture macros list*
%AMRoundRect*
0 Rectangle with rounded corners*
0 $1 Rounding radius*
0 $2 $3 $4 $5 $6 $7 $8 $9 X,Y pos of 4 corners*
0 Add a 4 corners polygon primitive as box body*
4,1,4,$2,$3,$4,$5,$6,$7,$8,$9,$2,$3,0*
0 Add four circle primitives for the rounded corners*
1,1,$1+$1,$2,$3*
1,1,$1+$1,$4,$5*
1,1,$1+$1,$6,$7*
1,1,$1+$1,$8,$9*
0 Add four rect primitives between the rounded corners*
20,1,$1+$1,$2,$3,$4,$5,0*
20,1,$1+$1,$4,$5,$6,$7,0*
20,1,$1+$1,$6,$7,$8,$9,0*
20,1,$1+$1,$8,$9,$2,$3,0*%
G04 Aperture macros list end*
%ADD10R,1.700000X1.700000*%
%ADD11O,1.700000X1.700000*%
%ADD12RoundRect,0.125000X0.125000X-0.762500X0.125000X0.762500X-0.125000X0.762500X-0.125000X-0.762500X0*%
%ADD13C,1.000000*%
%ADD14RoundRect,0.237500X-0.300000X-0.237500X0.300000X-0.237500X0.300000X0.237500X-0.300000X0.237500X0*%
%ADD15RoundRect,0.200000X0.200000X0.275000X-0.200000X0.275000X-0.200000X-0.275000X0.200000X-0.275000X0*%
%ADD16RoundRect,0.200000X-0.200000X-0.275000X0.200000X-0.275000X0.200000X0.275000X-0.200000X0.275000X0*%
%ADD17C,7.000000*%
%ADD18RoundRect,0.250000X0.362500X1.425000X-0.362500X1.425000X-0.362500X-1.425000X0.362500X-1.425000X0*%
%ADD19RoundRect,0.200000X-0.275000X0.200000X-0.275000X-0.200000X0.275000X-0.200000X0.275000X0.200000X0*%
%ADD20RoundRect,0.200000X0.275000X-0.200000X0.275000X0.200000X-0.275000X0.200000X-0.275000X-0.200000X0*%
%ADD21R,1.100000X0.500000*%
%ADD22R,4.000000X4.000000*%
%ADD23R,0.600000X0.450000*%
%ADD24RoundRect,0.225000X-0.250000X0.225000X-0.250000X-0.225000X0.250000X-0.225000X0.250000X0.225000X0*%
%ADD25RoundRect,0.250000X-0.475000X0.250000X-0.475000X-0.250000X0.475000X-0.250000X0.475000X0.250000X0*%
%ADD26RoundRect,0.250000X-0.250000X-0.475000X0.250000X-0.475000X0.250000X0.475000X-0.250000X0.475000X0*%
%ADD27RoundRect,1.500000X1.500000X1.500000X-1.500000X1.500000X-1.500000X-1.500000X1.500000X-1.500000X0*%
%ADD28C,6.000000*%
%ADD29RoundRect,0.250000X1.500000X1.000000X-1.500000X1.000000X-1.500000X-1.000000X1.500000X-1.000000X0*%
%ADD30R,1.800000X2.500000*%
%ADD31RoundRect,0.225000X0.250000X-0.225000X0.250000X0.225000X-0.250000X0.225000X-0.250000X-0.225000X0*%
%ADD32RoundRect,0.225000X0.225000X0.250000X-0.225000X0.250000X-0.225000X-0.250000X0.225000X-0.250000X0*%
%ADD33RoundRect,0.250000X0.325000X0.650000X-0.325000X0.650000X-0.325000X-0.650000X0.325000X-0.650000X0*%
%ADD34R,0.600000X0.700000*%
%ADD35RoundRect,0.250000X0.475000X-0.250000X0.475000X0.250000X-0.475000X0.250000X-0.475000X-0.250000X0*%
%ADD36RoundRect,0.225000X-0.225000X-0.250000X0.225000X-0.250000X0.225000X0.250000X-0.225000X0.250000X0*%
%ADD37RoundRect,0.243750X0.243750X0.456250X-0.243750X0.456250X-0.243750X-0.456250X0.243750X-0.456250X0*%
%ADD38R,0.650000X1.050000*%
%ADD39RoundRect,0.250000X0.650000X-0.325000X0.650000X0.325000X-0.650000X0.325000X-0.650000X-0.325000X0*%
%ADD40R,1.200000X1.400000*%
%ADD41R,5.700000X1.600000*%
G04 APERTURE END LIST*
D10*
%TO.C,J7*%
X-52064999Y10667999D03*
D11*
X-54604999Y10667999D03*
%TD*%
D12*
%TO.C,U3*%
X-58155000Y-2142500D03*
X-57505000Y-2142500D03*
X-56855000Y-2142500D03*
X-56205000Y-2142500D03*
X-55555000Y-2142500D03*
X-54905000Y-2142500D03*
X-54255000Y-2142500D03*
X-53605000Y-2142500D03*
X-53605000Y4682500D03*
X-54255000Y4682500D03*
X-54905000Y4682500D03*
X-55555000Y4682500D03*
X-56205000Y4682500D03*
X-56855000Y4682500D03*
X-57505000Y4682500D03*
X-58155000Y4682500D03*
%TD*%
D13*
%TO.C,TP4*%
X-55880000Y-6350000D03*
%TD*%
%TO.C,TP3*%
X-58420000Y-6350000D03*
%TD*%
D14*
%TO.C,C14*%
X-59028500Y7620000D03*
X-57303500Y7620000D03*
%TD*%
D15*
%TO.C,R3*%
X-41847000Y11684000D03*
X-43497000Y11684000D03*
%TD*%
D16*
%TO.C,R2*%
X-43497000Y9652000D03*
X-41847000Y9652000D03*
%TD*%
D10*
%TO.C,J6*%
X-37083999Y-14731999D03*
D11*
X-34543999Y-14731999D03*
X-32003999Y-14731999D03*
X-29463999Y-14731999D03*
%TD*%
D17*
%TO.C,J8*%
X18542000Y10160000D03*
%TD*%
%TO.C,J9*%
X18288000Y-10414000D03*
%TD*%
%TO.C,J3*%
X18796000Y-254000D03*
%TD*%
D18*
%TO.C,R15*%
X7197500Y-2238000D03*
X13122500Y-2238000D03*
%TD*%
%TO.C,R14*%
X13122500Y1905000D03*
X7197500Y1905000D03*
%TD*%
D19*
%TO.C,R29*%
X-27940000Y-5525000D03*
X-27940000Y-7175000D03*
%TD*%
D20*
%TO.C,R27*%
X-26416000Y-4127000D03*
X-26416000Y-2477000D03*
%TD*%
D19*
%TO.C,R26*%
X-27940000Y-2477000D03*
X-27940000Y-4127000D03*
%TD*%
D20*
%TO.C,R24*%
X-24892000Y-5525000D03*
X-24892000Y-7175000D03*
%TD*%
%TO.C,R23*%
X-24892000Y-4127000D03*
X-24892000Y-2477000D03*
%TD*%
D16*
%TO.C,R20*%
X6921000Y13970000D03*
X5271000Y13970000D03*
%TD*%
%TO.C,R19*%
X-4445000Y13970000D03*
X-2795000Y13970000D03*
%TD*%
D15*
%TO.C,R18*%
X3301000Y13970000D03*
X1651000Y13970000D03*
%TD*%
%TO.C,R17*%
X-6160000Y13970000D03*
X-7810000Y13970000D03*
%TD*%
D16*
%TO.C,R12*%
X4635000Y3810000D03*
X2985000Y3810000D03*
%TD*%
%TO.C,R11*%
X-4825000Y3810000D03*
X-3175000Y3810000D03*
%TD*%
D15*
%TO.C,R4*%
X-190000Y3810000D03*
X1460000Y3810000D03*
%TD*%
%TO.C,R1*%
X-6795000Y3810000D03*
X-8445000Y3810000D03*
%TD*%
D21*
%TO.C,Q6*%
X5439999Y11929999D03*
D22*
X2007999Y10024999D03*
D21*
X-359999Y8119999D03*
X-359999Y9389999D03*
X-359999Y10659999D03*
X-359999Y11929999D03*
X5439999Y8119999D03*
X5439999Y9389999D03*
X5439999Y10659999D03*
%TD*%
%TO.C,Q5*%
X-4703999Y10659999D03*
X-4703999Y9389999D03*
X-4703999Y8119999D03*
X-10503999Y11929999D03*
X-10503999Y10659999D03*
X-10503999Y9389999D03*
X-10503999Y8119999D03*
D22*
X-8135999Y10024999D03*
D21*
X-4703999Y11929999D03*
%TD*%
%TO.C,Q4*%
X5471999Y1674999D03*
D22*
X2039999Y-229999D03*
D21*
X-327999Y-2134999D03*
X-327999Y-864999D03*
X-327999Y404999D03*
X-327999Y1674999D03*
X5471999Y-2134999D03*
X5471999Y-864999D03*
X5471999Y404999D03*
%TD*%
%TO.C,Q3*%
X-4687999Y499999D03*
X-4687999Y-769999D03*
X-4687999Y-2039999D03*
X-10487999Y1769999D03*
X-10487999Y499999D03*
X-10487999Y-769999D03*
X-10487999Y-2039999D03*
D22*
X-8119999Y-134999D03*
D21*
X-4687999Y1769999D03*
%TD*%
D23*
%TO.C,D12*%
X1425999Y15874999D03*
X3525999Y15874999D03*
%TD*%
%TO.C,D11*%
X-8034999Y15874999D03*
X-5934999Y15874999D03*
%TD*%
%TO.C,D10*%
X1684999Y5714999D03*
X-414999Y5714999D03*
%TD*%
%TO.C,D1*%
X-8669999Y5714999D03*
X-6569999Y5714999D03*
%TD*%
D24*
%TO.C,C29*%
X-26416000Y-5575000D03*
X-26416000Y-7125000D03*
%TD*%
D25*
%TO.C,C28*%
X4064000Y21016000D03*
X4064000Y19116000D03*
%TD*%
D26*
%TO.C,C27*%
X-45654000Y-508000D03*
X-43754000Y-508000D03*
%TD*%
D25*
%TO.C,C26*%
X2032000Y21016000D03*
X2032000Y19116000D03*
%TD*%
D26*
%TO.C,C24*%
X-45654000Y2540000D03*
X-43754000Y2540000D03*
%TD*%
D18*
%TO.C,R10*%
X12945500Y-12169000D03*
X7020500Y-12169000D03*
%TD*%
D27*
%TO.C,J4*%
X-12700000Y19327000D03*
D28*
X-19900000Y19327000D03*
%TD*%
D21*
%TO.C,Q1*%
X-4719999Y-8556999D03*
D22*
X-8151999Y-10461999D03*
D21*
X-10519999Y-12366999D03*
X-10519999Y-11096999D03*
X-10519999Y-9826999D03*
X-10519999Y-8556999D03*
X-4719999Y-12366999D03*
X-4719999Y-11096999D03*
X-4719999Y-9826999D03*
%TD*%
D15*
%TO.C,R13*%
X-5893000Y-6327000D03*
X-7543000Y-6327000D03*
%TD*%
D20*
%TO.C,R50*%
X-24892000Y-1066000D03*
X-24892000Y584000D03*
%TD*%
D29*
%TO.C,C31*%
X-13970000Y9652000D03*
X-20470000Y9652000D03*
%TD*%
D30*
%TO.C,D5*%
X-39115999Y11969999D03*
X-39115999Y15969999D03*
%TD*%
D10*
%TO.C,J2*%
X-44424999Y21614999D03*
D11*
X-41884999Y21614999D03*
X-39344999Y21614999D03*
X-36804999Y21614999D03*
X-34264999Y21614999D03*
X-31724999Y21614999D03*
%TD*%
D31*
%TO.C,C18*%
X-24130000Y5829000D03*
X-24130000Y7379000D03*
%TD*%
D24*
%TO.C,C1*%
X-29210000Y7506000D03*
X-29210000Y5956000D03*
%TD*%
D32*
%TO.C,C15*%
X-46342000Y9525000D03*
X-47892000Y9525000D03*
%TD*%
D26*
%TO.C,C6*%
X-30795000Y10160000D03*
X-28895000Y10160000D03*
%TD*%
D25*
%TO.C,C13*%
X0Y21016000D03*
X0Y19116000D03*
%TD*%
D20*
%TO.C,R47*%
X-26416000Y1982000D03*
X-26416000Y3632000D03*
%TD*%
D33*
%TO.C,C23*%
X-14986000Y-14224000D03*
X-17936000Y-14224000D03*
%TD*%
D16*
%TO.C,R8*%
X-48196000Y17272000D03*
X-46546000Y17272000D03*
%TD*%
D15*
%TO.C,R25*%
X2031000Y-6350000D03*
X381000Y-6350000D03*
%TD*%
D34*
%TO.C,D8*%
X-30909999Y-10667999D03*
X-32309999Y-10667999D03*
%TD*%
D24*
%TO.C,C9*%
X-33528000Y-3149000D03*
X-33528000Y-4699000D03*
%TD*%
D25*
%TO.C,C2*%
X-34290000Y6411000D03*
X-34290000Y4511000D03*
%TD*%
D24*
%TO.C,C12*%
X-32512000Y7887000D03*
X-32512000Y6337000D03*
%TD*%
D35*
%TO.C,C$1*%
X-28702000Y14544000D03*
X-28702000Y16444000D03*
%TD*%
D23*
%TO.C,D7*%
X-7830999Y-4548999D03*
X-5730999Y-4548999D03*
%TD*%
D21*
%TO.C,Q2*%
X5287999Y-8556999D03*
D22*
X1855999Y-10461999D03*
D21*
X-511999Y-12366999D03*
X-511999Y-11096999D03*
X-511999Y-9826999D03*
X-511999Y-8556999D03*
X5287999Y-12366999D03*
X5287999Y-11096999D03*
X5287999Y-9826999D03*
%TD*%
D36*
%TO.C,C19*%
X-32271000Y-12192000D03*
X-30721000Y-12192000D03*
%TD*%
D37*
%TO.C,D4*%
X-46560500Y-12979000D03*
X-48435500Y-12979000D03*
%TD*%
D24*
%TO.C,C7*%
X-30988000Y6337000D03*
X-30988000Y7887000D03*
%TD*%
%TO.C,C10*%
X-39243000Y-3149000D03*
X-39243000Y-4699000D03*
%TD*%
D38*
%TO.C,SW1*%
X-48318999Y11386999D03*
X-48318999Y15536999D03*
X-46168999Y11386999D03*
X-46168999Y15536999D03*
%TD*%
D37*
%TO.C,D3*%
X-46560500Y-15011000D03*
X-48435500Y-15011000D03*
%TD*%
D19*
%TO.C,R41*%
X-27940000Y3632000D03*
X-27940000Y1982000D03*
%TD*%
D16*
%TO.C,R6*%
X-45021000Y-12979000D03*
X-43371000Y-12979000D03*
%TD*%
%TO.C,R37*%
X-35356000Y-10668000D03*
X-33706000Y-10668000D03*
%TD*%
D20*
%TO.C,R44*%
X-24892000Y1982000D03*
X-24892000Y3632000D03*
%TD*%
D24*
%TO.C,C22*%
X-27940000Y534000D03*
X-27940000Y-1016000D03*
%TD*%
D39*
%TO.C,C21*%
X-5080000Y19099000D03*
X-5080000Y22049000D03*
%TD*%
D40*
%TO.C,Y3*%
X-25819999Y5630999D03*
X-25819999Y7830999D03*
X-27519999Y7830999D03*
X-27519999Y5630999D03*
%TD*%
D15*
%TO.C,R39*%
X-33706000Y-12192000D03*
X-35356000Y-12192000D03*
%TD*%
D29*
%TO.C,C5*%
X-13895000Y762000D03*
X-20395000Y762000D03*
%TD*%
D24*
%TO.C,C8*%
X-35179000Y-3149000D03*
X-35179000Y-4699000D03*
%TD*%
D16*
%TO.C,R7*%
X-45021000Y-10947000D03*
X-43371000Y-10947000D03*
%TD*%
D19*
%TO.C,R53*%
X-26416000Y584000D03*
X-26416000Y-1066000D03*
%TD*%
D41*
%TO.C,L2*%
X-33527999Y12699999D03*
X-33527999Y17399999D03*
%TD*%
D18*
%TO.C,R9*%
X12945500Y-8105000D03*
X7020500Y-8105000D03*
%TD*%
D26*
%TO.C,C16*%
X-45654000Y5588000D03*
X-43754000Y5588000D03*
%TD*%
D37*
%TO.C,D6*%
X-46560500Y-10922000D03*
X-48435500Y-10922000D03*
%TD*%
D24*
%TO.C,C11*%
X-37719000Y-3149000D03*
X-37719000Y-4699000D03*
%TD*%
D23*
%TO.C,D2*%
X155999Y-4571999D03*
X2255999Y-4571999D03*
%TD*%
D16*
%TO.C,R16*%
X-4304000Y-6327000D03*
X-2654000Y-6327000D03*
%TD*%
D39*
%TO.C,C20*%
X-2540000Y19099000D03*
X-2540000Y22049000D03*
%TD*%
D16*
%TO.C,R28*%
X3620000Y-6350000D03*
X5270000Y-6350000D03*
%TD*%
D29*
%TO.C,C4*%
X-13970000Y-8128000D03*
X-20470000Y-8128000D03*
%TD*%
D16*
%TO.C,R5*%
X-45021000Y-15011000D03*
X-43371000Y-15011000D03*
%TD*%
M02*
