%TF.GenerationSoftware,KiCad,Pcbnew,6.99.0-unknown-f8b157a1fb~149~ubuntu22.04.1*%
%TF.CreationDate,2022-10-15T12:14:30+11:00*%
%TF.ProjectId,STSPIN32G4,53545350-494e-4333-9247-342e6b696361,rev?*%
%TF.SameCoordinates,Original*%
%TF.FileFunction,Copper,L2,Inr*%
%TF.FilePolarity,Positive*%
%FSLAX46Y46*%
G04 Gerber Fmt 4.6, Leading zero omitted, Abs format (unit mm)*
G04 Created by KiCad (PCBNEW 6.99.0-unknown-f8b157a1fb~149~ubuntu22.04.1) date 2022-10-15 12:14:30*
%MOMM*%
%LPD*%
G01*
G04 APERTURE LIST*
G04 Aperture macros list*
%AMRoundRect*
0 Rectangle with rounded corners*
0 $1 Rounding radius*
0 $2 $3 $4 $5 $6 $7 $8 $9 X,Y pos of 4 corners*
0 Add a 4 corners polygon primitive as box body*
4,1,4,$2,$3,$4,$5,$6,$7,$8,$9,$2,$3,0*
0 Add four circle primitives for the rounded corners*
1,1,$1+$1,$2,$3*
1,1,$1+$1,$4,$5*
1,1,$1+$1,$6,$7*
1,1,$1+$1,$8,$9*
0 Add four rect primitives between the rounded corners*
20,1,$1+$1,$2,$3,$4,$5,0*
20,1,$1+$1,$4,$5,$6,$7,0*
20,1,$1+$1,$6,$7,$8,$9,0*
20,1,$1+$1,$8,$9,$2,$3,0*%
G04 Aperture macros list end*
%TA.AperFunction,ComponentPad*%
%ADD10R,1.700000X1.700000*%
%TD*%
%TA.AperFunction,ComponentPad*%
%ADD11O,1.700000X1.700000*%
%TD*%
%TA.AperFunction,ComponentPad*%
%ADD12C,7.000000*%
%TD*%
%TA.AperFunction,ComponentPad*%
%ADD13RoundRect,1.500000X1.500000X1.500000X-1.500000X1.500000X-1.500000X-1.500000X1.500000X-1.500000X0*%
%TD*%
%TA.AperFunction,ComponentPad*%
%ADD14C,6.000000*%
%TD*%
%TA.AperFunction,ViaPad*%
%ADD15C,0.800000*%
%TD*%
%TA.AperFunction,Conductor*%
%ADD16C,0.250000*%
%TD*%
G04 APERTURE END LIST*
D10*
%TO.N,SPI1_MISO*%
%TO.C,J7*%
X-52064999Y10667999D03*
D11*
%TO.N,SPI1_SCK*%
X-54604999Y10667999D03*
%TD*%
D10*
%TO.N,I2C1_SCL*%
%TO.C,J6*%
X-37083999Y-14731999D03*
D11*
%TO.N,I2C1_SDA*%
X-34543999Y-14731999D03*
%TO.N,VDD*%
X-32003999Y-14731999D03*
%TO.N,GND*%
X-29463999Y-14731999D03*
%TD*%
D12*
%TO.N,OUT3*%
%TO.C,J8*%
X18542000Y10160000D03*
%TD*%
%TO.N,OUT1*%
%TO.C,J9*%
X18288000Y-10414000D03*
%TD*%
%TO.N,OUT2*%
%TO.C,J3*%
X18796000Y-254000D03*
%TD*%
D13*
%TO.N,VM*%
%TO.C,J4*%
X-12700000Y19327000D03*
D14*
%TO.N,GND*%
X-19900000Y19327000D03*
%TD*%
D10*
%TO.N,VDD*%
%TO.C,J2*%
X-44424999Y21614999D03*
D11*
%TO.N,SWCLK*%
X-41884999Y21614999D03*
%TO.N,GND*%
X-39344999Y21614999D03*
%TO.N,SWDIO*%
X-36804999Y21614999D03*
%TO.N,nRST*%
X-34264999Y21614999D03*
%TO.N,SPI1_SCK*%
X-31724999Y21614999D03*
%TD*%
D15*
%TO.N,SPI1_MISO*%
X-36068000Y14986000D03*
%TO.N,VDD*%
X-53594000Y-4572000D03*
X-59182000Y4572000D03*
%TO.N,GND*%
X10922000Y5080000D03*
X13208000Y5080000D03*
X21844000Y-5334000D03*
X17272000Y-15494000D03*
X14732000Y-5334000D03*
X12192000Y-15494000D03*
X14732000Y-15494000D03*
X12446000Y-5334000D03*
X-19050000Y-12700000D03*
X-21336000Y-10414000D03*
X-21336000Y-12700000D03*
X-19050000Y-10414000D03*
%TO.N,SCREF*%
X-41656000Y10668000D03*
X-37092952Y10676952D03*
%TO.N,VDD*%
X-44704000Y9652000D03*
%TO.N,I2C1_SCL*%
X-37616498Y11846500D03*
%TO.N,I2C1_SDA*%
X-33365500Y10668000D03*
%TO.N,GND*%
X17780000Y16510000D03*
X15240000Y16510000D03*
X10160000Y16510000D03*
X12700000Y16510000D03*
X20320000Y16510000D03*
X17780000Y19050000D03*
X15240000Y19050000D03*
X13970000Y17780000D03*
X21336000Y17780000D03*
X19050000Y17780000D03*
X16256000Y17780000D03*
X8890000Y17780000D03*
X10160000Y19050000D03*
X12700000Y19050000D03*
X11176000Y17780000D03*
X20320000Y19050000D03*
X20320000Y21590000D03*
X19050000Y20320000D03*
X21336000Y20320000D03*
X21336000Y22860000D03*
X19050000Y22860000D03*
X13970000Y20320000D03*
X15240000Y21590000D03*
X17780000Y21590000D03*
X16256000Y22860000D03*
X13970000Y22860000D03*
X16256000Y20320000D03*
%TO.N,Net-(JP8-A)*%
X-29210000Y13462000D03*
%TO.N,GND*%
X-25146000Y20066000D03*
X-42926000Y14986000D03*
X-39624000Y-10668000D03*
X-40386000Y-15494000D03*
X11176000Y22860000D03*
X8890000Y22860000D03*
X8890000Y20320000D03*
X10160000Y21590000D03*
X11176000Y20320000D03*
X12700000Y21590000D03*
X-20320000Y14732000D03*
X-18288000Y13462000D03*
X-17780000Y4572000D03*
X-20320000Y7366000D03*
X-20320000Y5080000D03*
X-20320000Y12192000D03*
X-19558000Y13462000D03*
X-18796000Y14732000D03*
X-18288000Y7620000D03*
X-18796000Y12192000D03*
X-21336000Y13462000D03*
X-29718000Y-7112000D03*
%TO.N,VREF+*%
X-35814000Y-6096000D03*
%TO.N,GND*%
X-39370000Y-7620000D03*
%TO.N,USER2*%
X-40894000Y-9906000D03*
%TO.N,USER1*%
X-28956000Y-12192000D03*
X-26993636Y9952424D03*
%TO.N,GND*%
X-43434000Y-2794000D03*
%TO.N,VDD*%
X-48006000Y19050000D03*
%TO.N,Net-(IC1-VM)*%
X-32220500Y-7888994D03*
%TO.N,nRST*%
X-25400000Y9652000D03*
%TO.N,OPN1*%
X-27178000Y-599500D03*
%TO.N,nRST*%
X-29972000Y4101500D03*
%TO.N,OSC_IN*%
X-27432000Y7874000D03*
%TO.N,VM*%
X-15240000Y-12192000D03*
X-37338000Y-11176000D03*
%TO.N,GND*%
X-37338000Y2286000D03*
%TO.N,OSC_OUT*%
X-25908000Y5334000D03*
%TO.N,OUT2*%
X-12700000Y6604000D03*
%TO.N,OUT1*%
X-44450000Y-8128000D03*
%TO.N,GHS1*%
X-41402000Y6604000D03*
X-24130000Y8636000D03*
X-23368500Y-4572000D03*
%TO.N,VSHUNT1N*%
X-23622000Y1107500D03*
X-23622000Y-14224000D03*
X6096000Y-15240000D03*
%TO.N,GHS2*%
X-10668000Y5588000D03*
%TO.N,VSHUNT2N*%
X-23368000Y-7112000D03*
X6604000Y-5080000D03*
%TO.N,GHS1*%
X-10414000Y-4572000D03*
%TO.N,VSHUNT1P*%
X-22606000Y4064000D03*
X-22098000Y-6096000D03*
X4826000Y-4826000D03*
%TO.N,VSHUNT2P*%
X-23292497Y-762000D03*
X-4572000Y6604000D03*
%TO.N,GHS3*%
X-44704000Y1524000D03*
%TO.N,GLS2*%
X-1270000Y3810000D03*
%TO.N,GLS1*%
X-1016000Y-4318000D03*
%TO.N,GLS3*%
X-41482850Y-2703544D03*
%TO.N,GLS2*%
X-40724875Y-3355065D03*
%TO.N,GLS1*%
X-41148000Y-4318000D03*
%TO.N,GHS2*%
X-43942000Y4064000D03*
%TO.N,OUT1*%
X-45466000Y7112000D03*
%TO.N,BOOT1*%
X-42418000Y4826000D03*
%TO.N,OUT2*%
X-45466000Y3810000D03*
%TO.N,BOOT2*%
X-42672000Y2248500D03*
%TO.N,BOOT3*%
X-42672000Y-508000D03*
%TO.N,OUT3*%
X-47244000Y1016000D03*
%TO.N,GLS3*%
X0Y14224000D03*
%TO.N,GHS3*%
X-9652000Y14224000D03*
%TO.N,OUT3*%
X-1905000Y12065000D03*
X-1905000Y8255000D03*
X-1905000Y10795000D03*
X-1905000Y9525000D03*
X-2540000Y10160000D03*
X-2540000Y8890000D03*
X-3175000Y9525000D03*
X-3175000Y10795000D03*
X-2540000Y11430000D03*
X-3175000Y12065000D03*
X-3175000Y8255000D03*
%TO.N,OUT2*%
X-1905000Y-1905000D03*
X-1905000Y-635000D03*
X-2540000Y0D03*
X-2540000Y-1270000D03*
X-3175000Y-635000D03*
X-3175000Y635000D03*
X-2540000Y1270000D03*
X-3175000Y1905000D03*
X-3175000Y-1905000D03*
X-1905000Y635000D03*
X-1905000Y1905000D03*
%TO.N,OUT1*%
X-2540000Y-10795000D03*
X-3175000Y-12700000D03*
X-2540000Y-12065000D03*
X-3175000Y-11430000D03*
X-1905000Y-12700000D03*
X-1905000Y-11430000D03*
X-1905000Y-10160000D03*
X-3175000Y-10160000D03*
X-2540000Y-9525000D03*
X-3175000Y-8890000D03*
X-1905000Y-8890000D03*
%TO.N,VDD*%
X-47565420Y-14191857D03*
X-39116000Y-6096000D03*
%TO.N,VDDA*%
X-34798000Y-7874000D03*
%TO.N,OPN2*%
X-33274000Y-7620000D03*
%TO.N,OPO2*%
X-29972000Y-5334000D03*
%TO.N,OPP2*%
X-30696500Y-4155500D03*
%TO.N,OPO1*%
X-29718000Y0D03*
%TO.N,OPP1*%
X-29163576Y831636D03*
%TO.N,SW*%
X-33160681Y9525000D03*
%TO.N,Net-(IC1-VM)*%
X-34163000Y7515500D03*
%TO.N,SWDIO*%
X-38213319Y18161000D03*
X-39662319Y18161000D03*
%TO.N,VDD*%
X-30988000Y8054321D03*
%TO.N,VBAT*%
X-32512000Y7386500D03*
%TD*%
D16*
%TO.N,I2C1_SDA*%
X-33365500Y10668000D02*
X-35560000Y8473500D01*
X-35560000Y8473500D02*
X-35560000Y-5080000D01*
X-35560000Y-5080000D02*
X-34073000Y-6567000D01*
X-34073000Y-6567000D02*
X-34073000Y-14261000D01*
X-34073000Y-14261000D02*
X-34544000Y-14732000D01*
%TO.N,I2C1_SCL*%
X-37616498Y11846500D02*
X-38100000Y11362998D01*
X-38100000Y11362998D02*
X-38100000Y-13716000D01*
X-38100000Y-13716000D02*
X-37084000Y-14732000D01*
%TO.N,USER1*%
X-28956000Y-10729799D02*
X-31496000Y-8189799D01*
X-31496000Y5450060D02*
X-26993636Y9952424D01*
X-28956000Y-12192000D02*
X-28956000Y-10729799D01*
X-31496000Y-8189799D02*
X-31496000Y5450060D01*
%TO.N,Net-(IC1-VM)*%
X-32220500Y-7888994D02*
X-32220500Y-7149500D01*
X-32220500Y-7149500D02*
X-34163000Y-5207000D01*
X-34163000Y-5207000D02*
X-34163000Y7515500D01*
%TO.N,nRST*%
X-25400000Y9652000D02*
X-25400000Y8673500D01*
X-25400000Y8673500D02*
X-29972000Y4101500D01*
%TD*%
%TA.AperFunction,Conductor*%
%TO.N,VM*%
G36*
X-9630489Y19791998D02*
G01*
X-9616613Y19781668D01*
X-6140464Y16802112D01*
X-6101760Y16742593D01*
X-6096468Y16705441D01*
X-6272150Y-5254749D01*
X-6349000Y-14861008D01*
X-6369546Y-14928967D01*
X-6423572Y-14975029D01*
X-6474996Y-14986000D01*
X-15748539Y-14986000D01*
X-15816660Y-14965998D01*
X-15863153Y-14912342D01*
X-15874538Y-14859540D01*
X-15836992Y-4572000D01*
X-11327504Y-4572000D01*
X-11307542Y-4761928D01*
X-11248527Y-4943556D01*
X-11153040Y-5108944D01*
X-11025253Y-5250866D01*
X-10870752Y-5363118D01*
X-10864724Y-5365802D01*
X-10864722Y-5365803D01*
X-10702319Y-5438109D01*
X-10696288Y-5440794D01*
X-10602888Y-5460647D01*
X-10515944Y-5479128D01*
X-10515939Y-5479128D01*
X-10509487Y-5480500D01*
X-10318513Y-5480500D01*
X-10312061Y-5479128D01*
X-10312056Y-5479128D01*
X-10225112Y-5460647D01*
X-10131712Y-5440794D01*
X-10125681Y-5438109D01*
X-9963278Y-5365803D01*
X-9963276Y-5365802D01*
X-9957248Y-5363118D01*
X-9802747Y-5250866D01*
X-9674960Y-5108944D01*
X-9579473Y-4943556D01*
X-9520458Y-4761928D01*
X-9500496Y-4572000D01*
X-9520458Y-4382072D01*
X-9579473Y-4200444D01*
X-9674960Y-4035056D01*
X-9802747Y-3893134D01*
X-9957248Y-3780882D01*
X-9963276Y-3778198D01*
X-9963278Y-3778197D01*
X-10125681Y-3705891D01*
X-10125682Y-3705891D01*
X-10131712Y-3703206D01*
X-10225112Y-3683353D01*
X-10312056Y-3664872D01*
X-10312061Y-3664872D01*
X-10318513Y-3663500D01*
X-10509487Y-3663500D01*
X-10515939Y-3664872D01*
X-10515944Y-3664872D01*
X-10602888Y-3683353D01*
X-10696288Y-3703206D01*
X-10702318Y-3705891D01*
X-10702319Y-3705891D01*
X-10864722Y-3778197D01*
X-10864724Y-3778198D01*
X-10870752Y-3780882D01*
X-11025253Y-3893134D01*
X-11153040Y-4035056D01*
X-11248527Y-4200444D01*
X-11307542Y-4382072D01*
X-11327504Y-4572000D01*
X-15836992Y-4572000D01*
X-15799912Y5588000D01*
X-11581504Y5588000D01*
X-11561542Y5398072D01*
X-11502527Y5216444D01*
X-11407040Y5051056D01*
X-11279253Y4909134D01*
X-11124752Y4796882D01*
X-11118724Y4794198D01*
X-11118722Y4794197D01*
X-10956319Y4721891D01*
X-10950288Y4719206D01*
X-10856887Y4699353D01*
X-10769944Y4680872D01*
X-10769939Y4680872D01*
X-10763487Y4679500D01*
X-10572513Y4679500D01*
X-10566061Y4680872D01*
X-10566056Y4680872D01*
X-10479113Y4699353D01*
X-10385712Y4719206D01*
X-10379681Y4721891D01*
X-10217278Y4794197D01*
X-10217276Y4794198D01*
X-10211248Y4796882D01*
X-10056747Y4909134D01*
X-9928960Y5051056D01*
X-9833473Y5216444D01*
X-9774458Y5398072D01*
X-9754496Y5588000D01*
X-9755186Y5594565D01*
X-9773768Y5771365D01*
X-9773768Y5771367D01*
X-9774458Y5777928D01*
X-9833473Y5959556D01*
X-9928960Y6124944D01*
X-10056747Y6266866D01*
X-10211248Y6379118D01*
X-10217276Y6381802D01*
X-10217278Y6381803D01*
X-10379681Y6454109D01*
X-10379682Y6454109D01*
X-10385712Y6456794D01*
X-10479113Y6476647D01*
X-10566056Y6495128D01*
X-10566061Y6495128D01*
X-10572513Y6496500D01*
X-10763487Y6496500D01*
X-10769939Y6495128D01*
X-10769944Y6495128D01*
X-10856888Y6476647D01*
X-10950288Y6456794D01*
X-10956318Y6454109D01*
X-10956319Y6454109D01*
X-11118722Y6381803D01*
X-11118724Y6381802D01*
X-11124752Y6379118D01*
X-11279253Y6266866D01*
X-11407040Y6124944D01*
X-11502527Y5959556D01*
X-11561542Y5777928D01*
X-11562232Y5771367D01*
X-11562232Y5771365D01*
X-11580814Y5594565D01*
X-11581504Y5588000D01*
X-15799912Y5588000D01*
X-15796204Y6604000D01*
X-13613504Y6604000D01*
X-13612814Y6597435D01*
X-13598176Y6458166D01*
X-13593542Y6414072D01*
X-13534527Y6232444D01*
X-13439040Y6067056D01*
X-13311253Y5925134D01*
X-13156752Y5812882D01*
X-13150724Y5810198D01*
X-13150722Y5810197D01*
X-13078244Y5777928D01*
X-12982288Y5735206D01*
X-12888887Y5715353D01*
X-12801944Y5696872D01*
X-12801939Y5696872D01*
X-12795487Y5695500D01*
X-12604513Y5695500D01*
X-12598061Y5696872D01*
X-12598056Y5696872D01*
X-12511113Y5715353D01*
X-12417712Y5735206D01*
X-12321756Y5777928D01*
X-12249278Y5810197D01*
X-12249276Y5810198D01*
X-12243248Y5812882D01*
X-12088747Y5925134D01*
X-11960960Y6067056D01*
X-11865473Y6232444D01*
X-11806458Y6414072D01*
X-11801823Y6458166D01*
X-11787186Y6597435D01*
X-11786496Y6604000D01*
X-11806458Y6793928D01*
X-11865473Y6975556D01*
X-11960960Y7140944D01*
X-12088747Y7282866D01*
X-12243248Y7395118D01*
X-12249276Y7397802D01*
X-12249278Y7397803D01*
X-12411681Y7470109D01*
X-12411682Y7470109D01*
X-12417712Y7472794D01*
X-12511113Y7492647D01*
X-12598056Y7511128D01*
X-12598061Y7511128D01*
X-12604513Y7512500D01*
X-12795487Y7512500D01*
X-12801939Y7511128D01*
X-12801944Y7511128D01*
X-12888887Y7492647D01*
X-12982288Y7472794D01*
X-12988318Y7470109D01*
X-12988319Y7470109D01*
X-13150722Y7397803D01*
X-13150724Y7397802D01*
X-13156752Y7395118D01*
X-13311253Y7282866D01*
X-13439040Y7140944D01*
X-13534527Y6975556D01*
X-13593542Y6793928D01*
X-13613504Y6604000D01*
X-15796204Y6604000D01*
X-15768394Y14224000D01*
X-10565504Y14224000D01*
X-10545542Y14034072D01*
X-10486527Y13852444D01*
X-10391040Y13687056D01*
X-10263253Y13545134D01*
X-10108752Y13432882D01*
X-10102724Y13430198D01*
X-10102722Y13430197D01*
X-9940319Y13357891D01*
X-9934288Y13355206D01*
X-9840887Y13335353D01*
X-9753944Y13316872D01*
X-9753939Y13316872D01*
X-9747487Y13315500D01*
X-9556513Y13315500D01*
X-9550061Y13316872D01*
X-9550056Y13316872D01*
X-9463112Y13335353D01*
X-9369712Y13355206D01*
X-9363681Y13357891D01*
X-9201278Y13430197D01*
X-9201276Y13430198D01*
X-9195248Y13432882D01*
X-9040747Y13545134D01*
X-8912960Y13687056D01*
X-8817473Y13852444D01*
X-8758458Y14034072D01*
X-8738496Y14224000D01*
X-8758458Y14413928D01*
X-8817473Y14595556D01*
X-8912960Y14760944D01*
X-9040747Y14902866D01*
X-9195248Y15015118D01*
X-9201276Y15017802D01*
X-9201278Y15017803D01*
X-9363681Y15090109D01*
X-9363682Y15090109D01*
X-9369712Y15092794D01*
X-9463113Y15112647D01*
X-9550056Y15131128D01*
X-9550061Y15131128D01*
X-9556513Y15132500D01*
X-9747487Y15132500D01*
X-9753939Y15131128D01*
X-9753944Y15131128D01*
X-9840887Y15112647D01*
X-9934288Y15092794D01*
X-9940318Y15090109D01*
X-9940319Y15090109D01*
X-10102722Y15017803D01*
X-10102724Y15017802D01*
X-10108752Y15015118D01*
X-10263253Y14902866D01*
X-10391040Y14760944D01*
X-10486527Y14595556D01*
X-10545542Y14413928D01*
X-10565504Y14224000D01*
X-15768394Y14224000D01*
X-15748458Y19686460D01*
X-15728208Y19754507D01*
X-15674383Y19800804D01*
X-15622459Y19812000D01*
X-9698610Y19812000D01*
X-9630489Y19791998D01*
G37*
%TD.AperFunction*%
%TD*%
%TA.AperFunction,Conductor*%
%TO.N,GND*%
G36*
X-22917879Y24099498D02*
G01*
X-22871386Y24045842D01*
X-22860000Y23993500D01*
X-22860000Y21247285D01*
X-22880327Y21178660D01*
X-22940395Y21086163D01*
X-22943683Y21080468D01*
X-23107620Y20758725D01*
X-23110296Y20752714D01*
X-23239700Y20415605D01*
X-23241740Y20409328D01*
X-23335198Y20060537D01*
X-23336567Y20054099D01*
X-23393055Y19697440D01*
X-23393743Y19690896D01*
X-23412641Y19330301D01*
X-23412641Y19323699D01*
X-23393743Y18963104D01*
X-23393055Y18956560D01*
X-23336567Y18599901D01*
X-23335198Y18593463D01*
X-23241740Y18244672D01*
X-23239700Y18238395D01*
X-23110296Y17901286D01*
X-23107620Y17895275D01*
X-22943683Y17573532D01*
X-22940395Y17567837D01*
X-22880327Y17475340D01*
X-22860000Y17406715D01*
X-22860000Y5027214D01*
X-22880002Y4959093D01*
X-22934752Y4912107D01*
X-23056719Y4857805D01*
X-23056726Y4857801D01*
X-23062752Y4855118D01*
X-23068093Y4851238D01*
X-23068094Y4851237D01*
X-23102829Y4826000D01*
X-23217253Y4742866D01*
X-23221674Y4737956D01*
X-23221675Y4737955D01*
X-23319063Y4629794D01*
X-23345040Y4600944D01*
X-23440527Y4435556D01*
X-23499542Y4253928D01*
X-23500232Y4247367D01*
X-23500232Y4247365D01*
X-23511259Y4142450D01*
X-23519504Y4064000D01*
X-23518814Y4057435D01*
X-23501137Y3889251D01*
X-23499542Y3874072D01*
X-23440527Y3692444D01*
X-23345040Y3527056D01*
X-23340622Y3522149D01*
X-23340621Y3522148D01*
X-23255440Y3427545D01*
X-23217253Y3385134D01*
X-23062752Y3272882D01*
X-23056726Y3270199D01*
X-23056719Y3270195D01*
X-22934752Y3215893D01*
X-22880656Y3169913D01*
X-22860000Y3100786D01*
X-22860000Y1924131D01*
X-22880002Y1856010D01*
X-22933658Y1809517D01*
X-23003932Y1799413D01*
X-23060061Y1822195D01*
X-23159906Y1894737D01*
X-23159907Y1894738D01*
X-23165248Y1898618D01*
X-23171276Y1901302D01*
X-23171278Y1901303D01*
X-23333681Y1973609D01*
X-23333682Y1973609D01*
X-23339712Y1976294D01*
X-23433112Y1996147D01*
X-23520056Y2014628D01*
X-23520061Y2014628D01*
X-23526513Y2016000D01*
X-23717487Y2016000D01*
X-23723939Y2014628D01*
X-23723944Y2014628D01*
X-23810888Y1996147D01*
X-23904288Y1976294D01*
X-23910318Y1973609D01*
X-23910319Y1973609D01*
X-24072722Y1901303D01*
X-24072724Y1901302D01*
X-24078752Y1898618D01*
X-24233253Y1786366D01*
X-24237674Y1781456D01*
X-24237675Y1781455D01*
X-24298476Y1713928D01*
X-24361040Y1644444D01*
X-24456527Y1479056D01*
X-24515542Y1297428D01*
X-24516232Y1290867D01*
X-24516232Y1290865D01*
X-24525849Y1199365D01*
X-24535504Y1107500D01*
X-24515542Y917572D01*
X-24456527Y735944D01*
X-24361040Y570556D01*
X-24233253Y428634D01*
X-24078752Y316382D01*
X-24072724Y313698D01*
X-24072722Y313697D01*
X-23910319Y241391D01*
X-23904288Y238706D01*
X-23857510Y228763D01*
X-23837977Y224611D01*
X-23775503Y190882D01*
X-23741182Y128733D01*
X-23745910Y57894D01*
X-23790112Y-571D01*
X-23903750Y-83134D01*
X-23908171Y-88044D01*
X-23908172Y-88045D01*
X-24005560Y-196206D01*
X-24031537Y-225056D01*
X-24127024Y-390444D01*
X-24186039Y-572072D01*
X-24186729Y-578633D01*
X-24186729Y-578635D01*
X-24198577Y-691365D01*
X-24206001Y-762000D01*
X-24205311Y-768565D01*
X-24190603Y-908500D01*
X-24186039Y-951928D01*
X-24127024Y-1133556D01*
X-24031537Y-1298944D01*
X-24027119Y-1303851D01*
X-24027118Y-1303852D01*
X-23946576Y-1393303D01*
X-23903750Y-1440866D01*
X-23749249Y-1553118D01*
X-23743221Y-1555802D01*
X-23743219Y-1555803D01*
X-23580816Y-1628109D01*
X-23574785Y-1630794D01*
X-23481384Y-1650647D01*
X-23394441Y-1669128D01*
X-23394436Y-1669128D01*
X-23387984Y-1670500D01*
X-23197010Y-1670500D01*
X-23190558Y-1669128D01*
X-23190553Y-1669128D01*
X-23012197Y-1631217D01*
X-22941406Y-1636619D01*
X-22884773Y-1679436D01*
X-22860280Y-1746074D01*
X-22860000Y-1754464D01*
X-22860000Y-3609899D01*
X-22880002Y-3678020D01*
X-22933658Y-3724513D01*
X-23003932Y-3734617D01*
X-23037249Y-3725005D01*
X-23080173Y-3705894D01*
X-23080179Y-3705892D01*
X-23086212Y-3703206D01*
X-23179612Y-3683353D01*
X-23266556Y-3664872D01*
X-23266561Y-3664872D01*
X-23273013Y-3663500D01*
X-23463987Y-3663500D01*
X-23470439Y-3664872D01*
X-23470444Y-3664872D01*
X-23557388Y-3683353D01*
X-23650788Y-3703206D01*
X-23656818Y-3705891D01*
X-23656819Y-3705891D01*
X-23819222Y-3778197D01*
X-23819224Y-3778198D01*
X-23825252Y-3780882D01*
X-23979753Y-3893134D01*
X-23984174Y-3898044D01*
X-23984175Y-3898045D01*
X-24044976Y-3965572D01*
X-24107540Y-4035056D01*
X-24203027Y-4200444D01*
X-24262042Y-4382072D01*
X-24282004Y-4572000D01*
X-24281314Y-4578565D01*
X-24273674Y-4651251D01*
X-24262042Y-4761928D01*
X-24203027Y-4943556D01*
X-24107540Y-5108944D01*
X-24103122Y-5113851D01*
X-24103121Y-5113852D01*
X-24002928Y-5225128D01*
X-23979753Y-5250866D01*
X-23950908Y-5271823D01*
X-23856293Y-5340565D01*
X-23825252Y-5363118D01*
X-23819224Y-5365802D01*
X-23819222Y-5365803D01*
X-23656819Y-5438109D01*
X-23650788Y-5440794D01*
X-23557388Y-5460647D01*
X-23470444Y-5479128D01*
X-23470439Y-5479128D01*
X-23463987Y-5480500D01*
X-23273013Y-5480500D01*
X-23266561Y-5479128D01*
X-23266556Y-5479128D01*
X-23179612Y-5460647D01*
X-23086212Y-5440794D01*
X-23080179Y-5438108D01*
X-23080173Y-5438106D01*
X-23037249Y-5418995D01*
X-22966882Y-5409560D01*
X-22902585Y-5439666D01*
X-22864772Y-5499755D01*
X-22860000Y-5534101D01*
X-22860000Y-5565063D01*
X-22876881Y-5628062D01*
X-22932527Y-5724444D01*
X-22991542Y-5906072D01*
X-22992232Y-5912633D01*
X-22992232Y-5912635D01*
X-23004669Y-6030971D01*
X-23011504Y-6096000D01*
X-23010814Y-6102565D01*
X-23010814Y-6103528D01*
X-23030816Y-6171649D01*
X-23084472Y-6218142D01*
X-23154746Y-6228246D01*
X-23163010Y-6226775D01*
X-23266054Y-6204873D01*
X-23266053Y-6204873D01*
X-23272513Y-6203500D01*
X-23463487Y-6203500D01*
X-23469939Y-6204872D01*
X-23469944Y-6204872D01*
X-23532372Y-6218142D01*
X-23650288Y-6243206D01*
X-23656318Y-6245891D01*
X-23656319Y-6245891D01*
X-23818722Y-6318197D01*
X-23818724Y-6318198D01*
X-23824752Y-6320882D01*
X-23830093Y-6324762D01*
X-23830094Y-6324763D01*
X-23880157Y-6361136D01*
X-23979253Y-6433134D01*
X-24107040Y-6575056D01*
X-24202527Y-6740444D01*
X-24261542Y-6922072D01*
X-24262232Y-6928633D01*
X-24262232Y-6928635D01*
X-24278444Y-7082882D01*
X-24281504Y-7112000D01*
X-24280814Y-7118565D01*
X-24266176Y-7257834D01*
X-24261542Y-7301928D01*
X-24202527Y-7483556D01*
X-24107040Y-7648944D01*
X-24102622Y-7653851D01*
X-24102621Y-7653852D01*
X-24075411Y-7684072D01*
X-23979253Y-7790866D01*
X-23880157Y-7862864D01*
X-23855793Y-7880565D01*
X-23824752Y-7903118D01*
X-23818724Y-7905802D01*
X-23818722Y-7905803D01*
X-23698751Y-7959217D01*
X-23650288Y-7980794D01*
X-23556888Y-8000647D01*
X-23469944Y-8019128D01*
X-23469939Y-8019128D01*
X-23463487Y-8020500D01*
X-23272513Y-8020500D01*
X-23266061Y-8019128D01*
X-23266056Y-8019128D01*
X-23179112Y-8000647D01*
X-23085712Y-7980794D01*
X-23037249Y-7959217D01*
X-22966882Y-7949783D01*
X-22902585Y-7979890D01*
X-22864771Y-8039978D01*
X-22860000Y-8074324D01*
X-22860000Y-13407369D01*
X-22880002Y-13475490D01*
X-22933658Y-13521983D01*
X-23003932Y-13532087D01*
X-23060061Y-13509305D01*
X-23159906Y-13436763D01*
X-23159907Y-13436762D01*
X-23165248Y-13432882D01*
X-23171276Y-13430198D01*
X-23171278Y-13430197D01*
X-23333681Y-13357891D01*
X-23333682Y-13357891D01*
X-23339712Y-13355206D01*
X-23433112Y-13335353D01*
X-23520056Y-13316872D01*
X-23520061Y-13316872D01*
X-23526513Y-13315500D01*
X-23717487Y-13315500D01*
X-23723939Y-13316872D01*
X-23723944Y-13316872D01*
X-23810887Y-13335353D01*
X-23904288Y-13355206D01*
X-23910318Y-13357891D01*
X-23910319Y-13357891D01*
X-24072722Y-13430197D01*
X-24072724Y-13430198D01*
X-24078752Y-13432882D01*
X-24233253Y-13545134D01*
X-24237674Y-13550044D01*
X-24237675Y-13550045D01*
X-24332098Y-13654913D01*
X-24361040Y-13687056D01*
X-24400762Y-13755856D01*
X-24446651Y-13835339D01*
X-24456527Y-13852444D01*
X-24515542Y-14034072D01*
X-24516232Y-14040633D01*
X-24516232Y-14040635D01*
X-24523245Y-14107362D01*
X-24535504Y-14224000D01*
X-24534814Y-14230565D01*
X-24518260Y-14388063D01*
X-24515542Y-14413928D01*
X-24456527Y-14595556D01*
X-24361040Y-14760944D01*
X-24356622Y-14765851D01*
X-24356621Y-14765852D01*
X-24237675Y-14897955D01*
X-24233253Y-14902866D01*
X-24078752Y-15015118D01*
X-24072724Y-15017802D01*
X-24072722Y-15017803D01*
X-23910319Y-15090109D01*
X-23904288Y-15092794D01*
X-23810887Y-15112647D01*
X-23723944Y-15131128D01*
X-23723939Y-15131128D01*
X-23717487Y-15132500D01*
X-23526513Y-15132500D01*
X-23520061Y-15131128D01*
X-23520056Y-15131128D01*
X-23433113Y-15112647D01*
X-23339712Y-15092794D01*
X-23333681Y-15090109D01*
X-23171278Y-15017803D01*
X-23171276Y-15017802D01*
X-23165248Y-15015118D01*
X-23129946Y-14989470D01*
X-23060061Y-14938695D01*
X-22993193Y-14914837D01*
X-22924042Y-14930917D01*
X-22874562Y-14981831D01*
X-22860000Y-15040631D01*
X-22860000Y-16373500D01*
X-22880002Y-16441621D01*
X-22933658Y-16488114D01*
X-22986000Y-16499500D01*
X-60823500Y-16499500D01*
X-60891621Y-16479498D01*
X-60938114Y-16425842D01*
X-60949500Y-16373500D01*
X-60949500Y-14191857D01*
X-48478924Y-14191857D01*
X-48458962Y-14381785D01*
X-48399947Y-14563413D01*
X-48304460Y-14728801D01*
X-48300042Y-14733708D01*
X-48300041Y-14733709D01*
X-48271099Y-14765852D01*
X-48176673Y-14870723D01*
X-48022172Y-14982975D01*
X-48016144Y-14985659D01*
X-48016142Y-14985660D01*
X-47943947Y-15017803D01*
X-47847708Y-15060651D01*
X-47754307Y-15080504D01*
X-47667364Y-15098985D01*
X-47667359Y-15098985D01*
X-47660907Y-15100357D01*
X-47469933Y-15100357D01*
X-47463481Y-15098985D01*
X-47463476Y-15098985D01*
X-47376533Y-15080504D01*
X-47283132Y-15060651D01*
X-47186893Y-15017803D01*
X-47114698Y-14985660D01*
X-47114696Y-14985659D01*
X-47108668Y-14982975D01*
X-46954167Y-14870723D01*
X-46859741Y-14765852D01*
X-46830799Y-14733709D01*
X-46830798Y-14733708D01*
X-46826380Y-14728801D01*
X-46730893Y-14563413D01*
X-46671878Y-14381785D01*
X-46651916Y-14191857D01*
X-46662808Y-14088222D01*
X-46671188Y-14008492D01*
X-46671188Y-14008490D01*
X-46671878Y-14001929D01*
X-46730893Y-13820301D01*
X-46745291Y-13795362D01*
X-46781336Y-13732931D01*
X-46826380Y-13654913D01*
X-46850088Y-13628582D01*
X-46949745Y-13517902D01*
X-46949746Y-13517901D01*
X-46954167Y-13512991D01*
X-47068123Y-13430197D01*
X-47103326Y-13404620D01*
X-47103327Y-13404619D01*
X-47108668Y-13400739D01*
X-47114696Y-13398055D01*
X-47114698Y-13398054D01*
X-47277101Y-13325748D01*
X-47277102Y-13325748D01*
X-47283132Y-13323063D01*
X-47376532Y-13303210D01*
X-47463476Y-13284729D01*
X-47463481Y-13284729D01*
X-47469933Y-13283357D01*
X-47660907Y-13283357D01*
X-47667359Y-13284729D01*
X-47667364Y-13284729D01*
X-47754307Y-13303210D01*
X-47847708Y-13323063D01*
X-47853738Y-13325748D01*
X-47853739Y-13325748D01*
X-48016142Y-13398054D01*
X-48016144Y-13398055D01*
X-48022172Y-13400739D01*
X-48027513Y-13404619D01*
X-48027514Y-13404620D01*
X-48062717Y-13430197D01*
X-48176673Y-13512991D01*
X-48181094Y-13517901D01*
X-48181095Y-13517902D01*
X-48280751Y-13628582D01*
X-48304460Y-13654913D01*
X-48349504Y-13732931D01*
X-48385548Y-13795362D01*
X-48399947Y-13820301D01*
X-48458962Y-14001929D01*
X-48459652Y-14008490D01*
X-48459652Y-14008492D01*
X-48468032Y-14088222D01*
X-48478924Y-14191857D01*
X-60949500Y-14191857D01*
X-60949500Y-9906000D01*
X-41807504Y-9906000D01*
X-41787542Y-10095928D01*
X-41728527Y-10277556D01*
X-41725224Y-10283278D01*
X-41725223Y-10283279D01*
X-41693378Y-10338436D01*
X-41633040Y-10442944D01*
X-41628622Y-10447851D01*
X-41628621Y-10447852D01*
X-41524372Y-10563632D01*
X-41505253Y-10584866D01*
X-41350752Y-10697118D01*
X-41344724Y-10699802D01*
X-41344722Y-10699803D01*
X-41182319Y-10772109D01*
X-41176288Y-10774794D01*
X-41105267Y-10789890D01*
X-40995944Y-10813128D01*
X-40995939Y-10813128D01*
X-40989487Y-10814500D01*
X-40798513Y-10814500D01*
X-40792061Y-10813128D01*
X-40792056Y-10813128D01*
X-40682733Y-10789890D01*
X-40611712Y-10774794D01*
X-40605681Y-10772109D01*
X-40443278Y-10699803D01*
X-40443276Y-10699802D01*
X-40437248Y-10697118D01*
X-40282747Y-10584866D01*
X-40263628Y-10563632D01*
X-40159379Y-10447852D01*
X-40159378Y-10447851D01*
X-40154960Y-10442944D01*
X-40094622Y-10338436D01*
X-40062777Y-10283279D01*
X-40062776Y-10283278D01*
X-40059473Y-10277556D01*
X-40000458Y-10095928D01*
X-39980496Y-9906000D01*
X-40000458Y-9716072D01*
X-40059473Y-9534444D01*
X-40154960Y-9369056D01*
X-40282747Y-9227134D01*
X-40437248Y-9114882D01*
X-40443276Y-9112198D01*
X-40443278Y-9112197D01*
X-40605681Y-9039891D01*
X-40605682Y-9039891D01*
X-40611712Y-9037206D01*
X-40705113Y-9017353D01*
X-40792056Y-8998872D01*
X-40792061Y-8998872D01*
X-40798513Y-8997500D01*
X-40989487Y-8997500D01*
X-40995939Y-8998872D01*
X-40995944Y-8998872D01*
X-41082888Y-9017353D01*
X-41176288Y-9037206D01*
X-41182318Y-9039891D01*
X-41182319Y-9039891D01*
X-41344722Y-9112197D01*
X-41344724Y-9112198D01*
X-41350752Y-9114882D01*
X-41505253Y-9227134D01*
X-41633040Y-9369056D01*
X-41728527Y-9534444D01*
X-41787542Y-9716072D01*
X-41807504Y-9906000D01*
X-60949500Y-9906000D01*
X-60949500Y-8128000D01*
X-45363504Y-8128000D01*
X-45343542Y-8317928D01*
X-45284527Y-8499556D01*
X-45189040Y-8664944D01*
X-45184622Y-8669851D01*
X-45184621Y-8669852D01*
X-45070927Y-8796122D01*
X-45061253Y-8806866D01*
X-44962157Y-8878864D01*
X-44921366Y-8908500D01*
X-44906752Y-8919118D01*
X-44900724Y-8921802D01*
X-44900722Y-8921803D01*
X-44738319Y-8994109D01*
X-44732288Y-8996794D01*
X-44638888Y-9016647D01*
X-44551944Y-9035128D01*
X-44551939Y-9035128D01*
X-44545487Y-9036500D01*
X-44354513Y-9036500D01*
X-44348061Y-9035128D01*
X-44348056Y-9035128D01*
X-44261112Y-9016647D01*
X-44167712Y-8996794D01*
X-44161681Y-8994109D01*
X-43999278Y-8921803D01*
X-43999276Y-8921802D01*
X-43993248Y-8919118D01*
X-43978633Y-8908500D01*
X-43937843Y-8878864D01*
X-43838747Y-8806866D01*
X-43829073Y-8796122D01*
X-43715379Y-8669852D01*
X-43715378Y-8669851D01*
X-43710960Y-8664944D01*
X-43615473Y-8499556D01*
X-43556458Y-8317928D01*
X-43536496Y-8128000D01*
X-43537186Y-8121435D01*
X-43555768Y-7944635D01*
X-43555768Y-7944633D01*
X-43556458Y-7938072D01*
X-43615473Y-7756444D01*
X-43710960Y-7591056D01*
X-43790746Y-7502444D01*
X-43834325Y-7454045D01*
X-43834326Y-7454044D01*
X-43838747Y-7449134D01*
X-43993248Y-7336882D01*
X-43999276Y-7334198D01*
X-43999278Y-7334197D01*
X-44161681Y-7261891D01*
X-44161682Y-7261891D01*
X-44167712Y-7259206D01*
X-44261113Y-7239353D01*
X-44348056Y-7220872D01*
X-44348061Y-7220872D01*
X-44354513Y-7219500D01*
X-44545487Y-7219500D01*
X-44551939Y-7220872D01*
X-44551944Y-7220872D01*
X-44638888Y-7239353D01*
X-44732288Y-7259206D01*
X-44738318Y-7261891D01*
X-44738319Y-7261891D01*
X-44900722Y-7334197D01*
X-44900724Y-7334198D01*
X-44906752Y-7336882D01*
X-45061253Y-7449134D01*
X-45065674Y-7454044D01*
X-45065675Y-7454045D01*
X-45109253Y-7502444D01*
X-45189040Y-7591056D01*
X-45284527Y-7756444D01*
X-45343542Y-7938072D01*
X-45344232Y-7944633D01*
X-45344232Y-7944635D01*
X-45362814Y-8121435D01*
X-45363504Y-8128000D01*
X-60949500Y-8128000D01*
X-60949500Y-6096000D01*
X-40029504Y-6096000D01*
X-40028814Y-6102565D01*
X-40014106Y-6242500D01*
X-40009542Y-6285928D01*
X-39950527Y-6467556D01*
X-39855040Y-6632944D01*
X-39727253Y-6774866D01*
X-39572752Y-6887118D01*
X-39566724Y-6889802D01*
X-39566722Y-6889803D01*
X-39404321Y-6962108D01*
X-39398288Y-6964794D01*
X-39304887Y-6984647D01*
X-39217944Y-7003128D01*
X-39217939Y-7003128D01*
X-39211487Y-7004500D01*
X-39020513Y-7004500D01*
X-39014061Y-7003128D01*
X-39014056Y-7003128D01*
X-38885697Y-6975844D01*
X-38814906Y-6981246D01*
X-38758274Y-7024063D01*
X-38733780Y-7090701D01*
X-38733500Y-7099091D01*
X-38733500Y-13637233D01*
X-38734027Y-13648416D01*
X-38735702Y-13655909D01*
X-38735453Y-13663835D01*
X-38735453Y-13663836D01*
X-38733562Y-13723986D01*
X-38733500Y-13727945D01*
X-38733500Y-13755856D01*
X-38733003Y-13759790D01*
X-38733003Y-13759791D01*
X-38732995Y-13759856D01*
X-38732062Y-13771693D01*
X-38730673Y-13815889D01*
X-38725022Y-13835339D01*
X-38721013Y-13854700D01*
X-38718474Y-13874797D01*
X-38715555Y-13882168D01*
X-38715555Y-13882170D01*
X-38702196Y-13915912D01*
X-38698351Y-13927142D01*
X-38686018Y-13969593D01*
X-38681985Y-13976412D01*
X-38681983Y-13976417D01*
X-38675707Y-13987028D01*
X-38667012Y-14004776D01*
X-38659552Y-14023617D01*
X-38654890Y-14030033D01*
X-38654890Y-14030034D01*
X-38633564Y-14059387D01*
X-38627048Y-14069307D01*
X-38622386Y-14077189D01*
X-38604542Y-14107362D01*
X-38590221Y-14121683D01*
X-38577381Y-14136716D01*
X-38565472Y-14153107D01*
X-38559366Y-14158158D01*
X-38531395Y-14181298D01*
X-38522616Y-14189288D01*
X-38479405Y-14232499D01*
X-38445379Y-14294811D01*
X-38442500Y-14321594D01*
X-38442500Y-15630638D01*
X-38435989Y-15691201D01*
X-38384889Y-15828204D01*
X-38379490Y-15835416D01*
X-38379489Y-15835418D01*
X-38353610Y-15869988D01*
X-38297261Y-15945261D01*
X-38180204Y-16032889D01*
X-38043201Y-16083989D01*
X-38006295Y-16087957D01*
X-37985988Y-16090140D01*
X-37985985Y-16090140D01*
X-37982638Y-16090500D01*
X-36185362Y-16090500D01*
X-36182015Y-16090140D01*
X-36182012Y-16090140D01*
X-36161705Y-16087957D01*
X-36124799Y-16083989D01*
X-35987796Y-16032889D01*
X-35870739Y-15945261D01*
X-35814390Y-15869988D01*
X-35788511Y-15835418D01*
X-35788510Y-15835416D01*
X-35783111Y-15828204D01*
X-35739002Y-15709944D01*
X-35696455Y-15653108D01*
X-35629935Y-15628297D01*
X-35560561Y-15643388D01*
X-35528245Y-15668638D01*
X-35507474Y-15691201D01*
X-35467240Y-15734906D01*
X-35289576Y-15873189D01*
X-35091574Y-15980342D01*
X-34878635Y-16053444D01*
X-34873501Y-16054301D01*
X-34873496Y-16054302D01*
X-34661706Y-16089643D01*
X-34661704Y-16089643D01*
X-34656569Y-16090500D01*
X-34431431Y-16090500D01*
X-34426296Y-16089643D01*
X-34426294Y-16089643D01*
X-34214504Y-16054302D01*
X-34214499Y-16054301D01*
X-34209365Y-16053444D01*
X-33996426Y-15980342D01*
X-33798424Y-15873189D01*
X-33620760Y-15734906D01*
X-33536511Y-15643388D01*
X-33471806Y-15573101D01*
X-33471803Y-15573097D01*
X-33468278Y-15569268D01*
X-33379483Y-15433357D01*
X-33325479Y-15387268D01*
X-33255132Y-15377693D01*
X-33190774Y-15407670D01*
X-33168517Y-15433357D01*
X-33079722Y-15569268D01*
X-33076197Y-15573097D01*
X-33076194Y-15573101D01*
X-33011489Y-15643388D01*
X-32927240Y-15734906D01*
X-32749576Y-15873189D01*
X-32551574Y-15980342D01*
X-32338635Y-16053444D01*
X-32333501Y-16054301D01*
X-32333496Y-16054302D01*
X-32121706Y-16089643D01*
X-32121704Y-16089643D01*
X-32116569Y-16090500D01*
X-31891431Y-16090500D01*
X-31886296Y-16089643D01*
X-31886294Y-16089643D01*
X-31674504Y-16054302D01*
X-31674499Y-16054301D01*
X-31669365Y-16053444D01*
X-31456426Y-15980342D01*
X-31258424Y-15873189D01*
X-31080760Y-15734906D01*
X-30996511Y-15643388D01*
X-30931806Y-15573101D01*
X-30931803Y-15573097D01*
X-30928278Y-15569268D01*
X-30839184Y-15432899D01*
X-30785180Y-15386811D01*
X-30714832Y-15377236D01*
X-30650475Y-15407214D01*
X-30628218Y-15432899D01*
X-30542177Y-15564593D01*
X-30535790Y-15572799D01*
X-30390432Y-15730700D01*
X-30382789Y-15737737D01*
X-30213411Y-15869569D01*
X-30204718Y-15875248D01*
X-30015957Y-15977401D01*
X-30006440Y-15981575D01*
X-29803443Y-16051264D01*
X-29793373Y-16053815D01*
X-29735867Y-16063411D01*
X-29722352Y-16061777D01*
X-29718222Y-16048277D01*
X-29210000Y-16048277D01*
X-29206164Y-16061340D01*
X-29191416Y-16063291D01*
X-29134627Y-16053815D01*
X-29124557Y-16051264D01*
X-28921560Y-15981575D01*
X-28912043Y-15977401D01*
X-28723282Y-15875248D01*
X-28714589Y-15869569D01*
X-28545211Y-15737737D01*
X-28537568Y-15730700D01*
X-28392210Y-15572799D01*
X-28385823Y-15564593D01*
X-28268431Y-15384913D01*
X-28263488Y-15375778D01*
X-28177270Y-15179223D01*
X-28173900Y-15169408D01*
X-28131903Y-15003561D01*
X-28132433Y-14989470D01*
X-28140855Y-14986000D01*
X-29191885Y-14986000D01*
X-29207124Y-14990475D01*
X-29208329Y-14991865D01*
X-29210000Y-14999548D01*
X-29210000Y-16048277D01*
X-29718222Y-16048277D01*
X-29718000Y-16047551D01*
X-29718000Y-14459885D01*
X-29210000Y-14459885D01*
X-29205525Y-14475124D01*
X-29204135Y-14476329D01*
X-29196452Y-14478000D01*
X-28145571Y-14478000D01*
X-28132040Y-14474027D01*
X-28130744Y-14465014D01*
X-28173900Y-14294592D01*
X-28177270Y-14284777D01*
X-28263488Y-14088222D01*
X-28268431Y-14079087D01*
X-28385823Y-13899407D01*
X-28392210Y-13891201D01*
X-28537568Y-13733300D01*
X-28545211Y-13726263D01*
X-28714589Y-13594431D01*
X-28723282Y-13588752D01*
X-28912043Y-13486599D01*
X-28921560Y-13482425D01*
X-29124557Y-13412736D01*
X-29134627Y-13410185D01*
X-29192133Y-13400589D01*
X-29205648Y-13402223D01*
X-29210000Y-13416449D01*
X-29210000Y-14459885D01*
X-29718000Y-14459885D01*
X-29718000Y-13415723D01*
X-29721836Y-13402660D01*
X-29736584Y-13400709D01*
X-29793373Y-13410185D01*
X-29803443Y-13412736D01*
X-30006440Y-13482425D01*
X-30015957Y-13486599D01*
X-30204718Y-13588752D01*
X-30213411Y-13594431D01*
X-30382789Y-13726263D01*
X-30390432Y-13733300D01*
X-30535790Y-13891201D01*
X-30542177Y-13899407D01*
X-30628218Y-14031101D01*
X-30682222Y-14077189D01*
X-30752570Y-14086764D01*
X-30816927Y-14056786D01*
X-30839184Y-14031101D01*
X-30928278Y-13894732D01*
X-30931803Y-13890903D01*
X-30931806Y-13890899D01*
X-31077228Y-13732931D01*
X-31080760Y-13729094D01*
X-31134770Y-13687056D01*
X-31254311Y-13594012D01*
X-31254313Y-13594010D01*
X-31258424Y-13590811D01*
X-31456426Y-13483658D01*
X-31669365Y-13410556D01*
X-31674499Y-13409699D01*
X-31674504Y-13409698D01*
X-31886294Y-13374357D01*
X-31886296Y-13374357D01*
X-31891431Y-13373500D01*
X-32116569Y-13373500D01*
X-32121704Y-13374357D01*
X-32121706Y-13374357D01*
X-32333496Y-13409698D01*
X-32333501Y-13409699D01*
X-32338635Y-13410556D01*
X-32551574Y-13483658D01*
X-32749576Y-13590811D01*
X-32753687Y-13594010D01*
X-32753689Y-13594012D01*
X-32873230Y-13687056D01*
X-32927240Y-13729094D01*
X-32930772Y-13732931D01*
X-33076194Y-13890899D01*
X-33076197Y-13890903D01*
X-33079722Y-13894732D01*
X-33097165Y-13921431D01*
X-33168517Y-14030643D01*
X-33222521Y-14076732D01*
X-33292868Y-14086307D01*
X-33357226Y-14056330D01*
X-33379480Y-14030647D01*
X-33418984Y-13970183D01*
X-33439500Y-13901269D01*
X-33439500Y-8654500D01*
X-33419498Y-8586379D01*
X-33365842Y-8539886D01*
X-33313500Y-8528500D01*
X-33178513Y-8528500D01*
X-33172061Y-8527128D01*
X-33172056Y-8527128D01*
X-32991712Y-8488794D01*
X-32991261Y-8490916D01*
X-32930393Y-8489177D01*
X-32868790Y-8526725D01*
X-32831753Y-8567860D01*
X-32732657Y-8639858D01*
X-32697889Y-8665118D01*
X-32677252Y-8680112D01*
X-32671224Y-8682796D01*
X-32671222Y-8682797D01*
X-32533384Y-8744166D01*
X-32502788Y-8757788D01*
X-32409387Y-8777641D01*
X-32322444Y-8796122D01*
X-32322439Y-8796122D01*
X-32315987Y-8797494D01*
X-32125013Y-8797494D01*
X-32118561Y-8796122D01*
X-32118556Y-8796122D01*
X-31944670Y-8759161D01*
X-31944667Y-8759160D01*
X-31938212Y-8757788D01*
X-31932177Y-8755101D01*
X-31925930Y-8753071D01*
X-31854962Y-8751041D01*
X-31797895Y-8783808D01*
X-29626405Y-10955298D01*
X-29592379Y-11017610D01*
X-29589500Y-11044393D01*
X-29589500Y-11489476D01*
X-29609502Y-11557597D01*
X-29621858Y-11573779D01*
X-29695040Y-11655056D01*
X-29790527Y-11820444D01*
X-29849542Y-12002072D01*
X-29850232Y-12008633D01*
X-29850232Y-12008635D01*
X-29859402Y-12095886D01*
X-29869504Y-12192000D01*
X-29849542Y-12381928D01*
X-29790527Y-12563556D01*
X-29695040Y-12728944D01*
X-29567253Y-12870866D01*
X-29412752Y-12983118D01*
X-29406724Y-12985802D01*
X-29406722Y-12985803D01*
X-29244319Y-13058109D01*
X-29238288Y-13060794D01*
X-29144887Y-13080647D01*
X-29057944Y-13099128D01*
X-29057939Y-13099128D01*
X-29051487Y-13100500D01*
X-28860513Y-13100500D01*
X-28854061Y-13099128D01*
X-28854056Y-13099128D01*
X-28767113Y-13080647D01*
X-28673712Y-13060794D01*
X-28667681Y-13058109D01*
X-28505278Y-12985803D01*
X-28505276Y-12985802D01*
X-28499248Y-12983118D01*
X-28344747Y-12870866D01*
X-28216960Y-12728944D01*
X-28121473Y-12563556D01*
X-28062458Y-12381928D01*
X-28042496Y-12192000D01*
X-28052598Y-12095886D01*
X-28061768Y-12008635D01*
X-28061768Y-12008633D01*
X-28062458Y-12002072D01*
X-28121473Y-11820444D01*
X-28216960Y-11655056D01*
X-28290137Y-11573785D01*
X-28320853Y-11509779D01*
X-28322500Y-11489476D01*
X-28322500Y-10808562D01*
X-28321973Y-10797378D01*
X-28320299Y-10789890D01*
X-28322438Y-10721831D01*
X-28322500Y-10717874D01*
X-28322500Y-10689943D01*
X-28323006Y-10685937D01*
X-28323939Y-10674091D01*
X-28325078Y-10637836D01*
X-28325327Y-10629909D01*
X-28330978Y-10610457D01*
X-28334986Y-10591105D01*
X-28336532Y-10578867D01*
X-28336533Y-10578865D01*
X-28337526Y-10571002D01*
X-28353806Y-10529885D01*
X-28357641Y-10518684D01*
X-28369982Y-10476205D01*
X-28374015Y-10469386D01*
X-28374017Y-10469381D01*
X-28380293Y-10458770D01*
X-28388990Y-10441020D01*
X-28396448Y-10422182D01*
X-28422429Y-10386422D01*
X-28428947Y-10376500D01*
X-28447422Y-10345259D01*
X-28447426Y-10345254D01*
X-28451458Y-10338436D01*
X-28465782Y-10324112D01*
X-28478624Y-10309077D01*
X-28480980Y-10305834D01*
X-28490528Y-10292692D01*
X-28524594Y-10264510D01*
X-28533373Y-10256521D01*
X-30825595Y-7964299D01*
X-30859621Y-7901987D01*
X-30862500Y-7875204D01*
X-30862500Y-6030971D01*
X-30842498Y-5962850D01*
X-30788842Y-5916357D01*
X-30718568Y-5906253D01*
X-30653988Y-5935747D01*
X-30642866Y-5946659D01*
X-30583253Y-6012866D01*
X-30484157Y-6084864D01*
X-30451587Y-6108527D01*
X-30428752Y-6125118D01*
X-30422724Y-6127802D01*
X-30422722Y-6127803D01*
X-30260319Y-6200109D01*
X-30254288Y-6202794D01*
X-30160888Y-6222647D01*
X-30073944Y-6241128D01*
X-30073939Y-6241128D01*
X-30067487Y-6242500D01*
X-29876513Y-6242500D01*
X-29870061Y-6241128D01*
X-29870056Y-6241128D01*
X-29783112Y-6222647D01*
X-29689712Y-6202794D01*
X-29683681Y-6200109D01*
X-29521278Y-6127803D01*
X-29521276Y-6127802D01*
X-29515248Y-6125118D01*
X-29492412Y-6108527D01*
X-29459843Y-6084864D01*
X-29360747Y-6012866D01*
X-29264589Y-5906072D01*
X-29237379Y-5875852D01*
X-29237378Y-5875851D01*
X-29232960Y-5870944D01*
X-29137473Y-5705556D01*
X-29078458Y-5523928D01*
X-29073893Y-5480500D01*
X-29059186Y-5340565D01*
X-29058496Y-5334000D01*
X-29066268Y-5260051D01*
X-29077768Y-5150635D01*
X-29077768Y-5150633D01*
X-29078458Y-5144072D01*
X-29137473Y-4962444D01*
X-29232960Y-4797056D01*
X-29258936Y-4768206D01*
X-29356325Y-4660045D01*
X-29356326Y-4660044D01*
X-29360747Y-4655134D01*
X-29475171Y-4572000D01*
X-29509906Y-4546763D01*
X-29509907Y-4546762D01*
X-29515248Y-4542882D01*
X-29521276Y-4540198D01*
X-29521278Y-4540197D01*
X-29683681Y-4467891D01*
X-29683682Y-4467891D01*
X-29689712Y-4465206D01*
X-29696167Y-4463834D01*
X-29696176Y-4463831D01*
X-29701827Y-4462630D01*
X-29764300Y-4428902D01*
X-29798621Y-4366752D01*
X-29800939Y-4326216D01*
X-29782996Y-4155500D01*
X-29802958Y-3965572D01*
X-29861973Y-3783944D01*
X-29866470Y-3776154D01*
X-29909379Y-3701834D01*
X-29957460Y-3618556D01*
X-30018043Y-3551271D01*
X-30080825Y-3481545D01*
X-30080826Y-3481544D01*
X-30085247Y-3476634D01*
X-30239748Y-3364382D01*
X-30245776Y-3361698D01*
X-30245778Y-3361697D01*
X-30408181Y-3289391D01*
X-30408182Y-3289391D01*
X-30414212Y-3286706D01*
X-30530500Y-3261988D01*
X-30594556Y-3248372D01*
X-30594561Y-3248372D01*
X-30601013Y-3247000D01*
X-30736500Y-3247000D01*
X-30804621Y-3226998D01*
X-30851114Y-3173342D01*
X-30862500Y-3121000D01*
X-30862500Y-204754D01*
X-30842498Y-136633D01*
X-30788842Y-90140D01*
X-30718568Y-80036D01*
X-30653988Y-109530D01*
X-30615604Y-169256D01*
X-30613254Y-178556D01*
X-30612232Y-183364D01*
X-30611542Y-189928D01*
X-30552527Y-371556D01*
X-30457040Y-536944D01*
X-30452622Y-541851D01*
X-30452621Y-541852D01*
X-30394803Y-606065D01*
X-30329253Y-678866D01*
X-30230157Y-750864D01*
X-30205793Y-768565D01*
X-30174752Y-791118D01*
X-30168724Y-793802D01*
X-30168722Y-793803D01*
X-30006319Y-866109D01*
X-30000288Y-868794D01*
X-29906888Y-888647D01*
X-29819944Y-907128D01*
X-29819939Y-907128D01*
X-29813487Y-908500D01*
X-29622513Y-908500D01*
X-29616061Y-907128D01*
X-29616056Y-907128D01*
X-29529112Y-888647D01*
X-29435712Y-868794D01*
X-29429681Y-866109D01*
X-29267278Y-793803D01*
X-29267276Y-793802D01*
X-29261248Y-791118D01*
X-29230206Y-768565D01*
X-29205843Y-750864D01*
X-29106747Y-678866D01*
X-29041197Y-606065D01*
X-29035286Y-599500D01*
X-28091504Y-599500D01*
X-28071542Y-789428D01*
X-28012527Y-971056D01*
X-27917040Y-1136444D01*
X-27789253Y-1278366D01*
X-27634752Y-1390618D01*
X-27628724Y-1393302D01*
X-27628722Y-1393303D01*
X-27466319Y-1465609D01*
X-27460288Y-1468294D01*
X-27366887Y-1488147D01*
X-27279944Y-1506628D01*
X-27279939Y-1506628D01*
X-27273487Y-1508000D01*
X-27082513Y-1508000D01*
X-27076061Y-1506628D01*
X-27076056Y-1506628D01*
X-26989112Y-1488147D01*
X-26895712Y-1468294D01*
X-26889681Y-1465609D01*
X-26727278Y-1393303D01*
X-26727276Y-1393302D01*
X-26721248Y-1390618D01*
X-26566747Y-1278366D01*
X-26438960Y-1136444D01*
X-26343473Y-971056D01*
X-26284458Y-789428D01*
X-26264496Y-599500D01*
X-26284458Y-409572D01*
X-26343473Y-227944D01*
X-26438960Y-62556D01*
X-26494770Y-572D01*
X-26562325Y74455D01*
X-26562326Y74456D01*
X-26566747Y79366D01*
X-26721248Y191618D01*
X-26727276Y194302D01*
X-26727278Y194303D01*
X-26889681Y266609D01*
X-26889682Y266609D01*
X-26895712Y269294D01*
X-26992109Y289784D01*
X-27076056Y307628D01*
X-27076061Y307628D01*
X-27082513Y309000D01*
X-27273487Y309000D01*
X-27279939Y307628D01*
X-27279944Y307628D01*
X-27363891Y289784D01*
X-27460288Y269294D01*
X-27466318Y266609D01*
X-27466319Y266609D01*
X-27628722Y194303D01*
X-27628724Y194302D01*
X-27634752Y191618D01*
X-27789253Y79366D01*
X-27793674Y74456D01*
X-27793675Y74455D01*
X-27861229Y-572D01*
X-27917040Y-62556D01*
X-28012527Y-227944D01*
X-28071542Y-409572D01*
X-28091504Y-599500D01*
X-29035286Y-599500D01*
X-28983379Y-541852D01*
X-28983378Y-541851D01*
X-28978960Y-536944D01*
X-28883473Y-371556D01*
X-28824458Y-189928D01*
X-28812427Y-75461D01*
X-28785414Y-9805D01*
X-28738365Y26475D01*
X-28712857Y37832D01*
X-28712858Y37832D01*
X-28706824Y40518D01*
X-28552323Y152770D01*
X-28529105Y178556D01*
X-28428955Y289784D01*
X-28428954Y289785D01*
X-28424536Y294692D01*
X-28329049Y460080D01*
X-28270034Y641708D01*
X-28268759Y653834D01*
X-28250762Y825071D01*
X-28250072Y831636D01*
X-28270034Y1021564D01*
X-28329049Y1203192D01*
X-28424536Y1368580D01*
X-28433318Y1378334D01*
X-28547901Y1505591D01*
X-28547902Y1505592D01*
X-28552323Y1510502D01*
X-28706824Y1622754D01*
X-28712852Y1625438D01*
X-28712854Y1625439D01*
X-28875257Y1697745D01*
X-28875258Y1697745D01*
X-28881288Y1700430D01*
X-28974689Y1720283D01*
X-29061632Y1738764D01*
X-29061637Y1738764D01*
X-29068089Y1740136D01*
X-29259063Y1740136D01*
X-29265515Y1738764D01*
X-29265520Y1738764D01*
X-29352463Y1720283D01*
X-29445864Y1700430D01*
X-29451894Y1697745D01*
X-29451895Y1697745D01*
X-29614298Y1625439D01*
X-29614300Y1625438D01*
X-29620328Y1622754D01*
X-29774829Y1510502D01*
X-29779250Y1505592D01*
X-29779251Y1505591D01*
X-29893833Y1378334D01*
X-29902616Y1368580D01*
X-29998103Y1203192D01*
X-30000145Y1196907D01*
X-30029195Y1107500D01*
X-30057118Y1021564D01*
X-30057808Y1015001D01*
X-30057808Y1015000D01*
X-30069149Y907097D01*
X-30096162Y841441D01*
X-30143211Y805161D01*
X-30174752Y791118D01*
X-30329253Y678866D01*
X-30457040Y536944D01*
X-30552527Y371556D01*
X-30611542Y189928D01*
X-30612232Y183364D01*
X-30613254Y178556D01*
X-30646982Y116083D01*
X-30709132Y81762D01*
X-30779971Y86491D01*
X-30837008Y128767D01*
X-30862135Y195168D01*
X-30862500Y204754D01*
X-30862500Y3404529D01*
X-30842498Y3472650D01*
X-30788842Y3519143D01*
X-30718568Y3529247D01*
X-30653988Y3499753D01*
X-30642866Y3488841D01*
X-30583253Y3422634D01*
X-30428752Y3310382D01*
X-30422724Y3307698D01*
X-30422722Y3307697D01*
X-30260319Y3235391D01*
X-30254288Y3232706D01*
X-30175189Y3215893D01*
X-30073944Y3194372D01*
X-30073939Y3194372D01*
X-30067487Y3193000D01*
X-29876513Y3193000D01*
X-29870061Y3194372D01*
X-29870056Y3194372D01*
X-29768811Y3215893D01*
X-29689712Y3232706D01*
X-29683681Y3235391D01*
X-29521278Y3307697D01*
X-29521276Y3307698D01*
X-29515248Y3310382D01*
X-29360747Y3422634D01*
X-29346512Y3438444D01*
X-29237379Y3559648D01*
X-29237378Y3559649D01*
X-29232960Y3564556D01*
X-29137473Y3729944D01*
X-29078458Y3911572D01*
X-29076615Y3929101D01*
X-29065498Y4034882D01*
X-29061093Y4076794D01*
X-29034080Y4142450D01*
X-29024878Y4152718D01*
X-27843596Y5334000D01*
X-26821504Y5334000D01*
X-26820814Y5327435D01*
X-26813174Y5254749D01*
X-26801542Y5144072D01*
X-26742527Y4962444D01*
X-26647040Y4797056D01*
X-26642622Y4792149D01*
X-26642621Y4792148D01*
X-26538870Y4676921D01*
X-26519253Y4655134D01*
X-26451422Y4605852D01*
X-26380419Y4554265D01*
X-26364752Y4542882D01*
X-26358724Y4540198D01*
X-26358722Y4540197D01*
X-26196319Y4467891D01*
X-26190288Y4465206D01*
X-26096887Y4445353D01*
X-26009944Y4426872D01*
X-26009939Y4426872D01*
X-26003487Y4425500D01*
X-25812513Y4425500D01*
X-25806061Y4426872D01*
X-25806056Y4426872D01*
X-25719113Y4445353D01*
X-25625712Y4465206D01*
X-25619681Y4467891D01*
X-25457278Y4540197D01*
X-25457276Y4540198D01*
X-25451248Y4542882D01*
X-25435580Y4554265D01*
X-25364578Y4605852D01*
X-25296747Y4655134D01*
X-25277130Y4676921D01*
X-25173379Y4792148D01*
X-25173378Y4792149D01*
X-25168960Y4797056D01*
X-25073473Y4962444D01*
X-25014458Y5144072D01*
X-25002825Y5254749D01*
X-24995186Y5327435D01*
X-24994496Y5334000D01*
X-24998054Y5367852D01*
X-25013768Y5517365D01*
X-25013768Y5517367D01*
X-25014458Y5523928D01*
X-25073473Y5705556D01*
X-25102907Y5756538D01*
X-25165659Y5865226D01*
X-25168960Y5870944D01*
X-25189784Y5894072D01*
X-25292325Y6007955D01*
X-25292326Y6007956D01*
X-25296747Y6012866D01*
X-25451248Y6125118D01*
X-25457276Y6127802D01*
X-25457278Y6127803D01*
X-25619681Y6200109D01*
X-25619682Y6200109D01*
X-25625712Y6202794D01*
X-25738279Y6226721D01*
X-25806056Y6241128D01*
X-25806061Y6241128D01*
X-25812513Y6242500D01*
X-26003487Y6242500D01*
X-26009939Y6241128D01*
X-26009944Y6241128D01*
X-26077721Y6226721D01*
X-26190288Y6202794D01*
X-26196318Y6200109D01*
X-26196319Y6200109D01*
X-26358722Y6127803D01*
X-26358724Y6127802D01*
X-26364752Y6125118D01*
X-26519253Y6012866D01*
X-26523674Y6007956D01*
X-26523675Y6007955D01*
X-26626215Y5894072D01*
X-26647040Y5870944D01*
X-26650341Y5865226D01*
X-26713092Y5756538D01*
X-26742527Y5705556D01*
X-26801542Y5523928D01*
X-26802232Y5517367D01*
X-26802232Y5517365D01*
X-26817946Y5367852D01*
X-26821504Y5334000D01*
X-27843596Y5334000D01*
X-25061022Y8116574D01*
X-24998710Y8150600D01*
X-24927895Y8145535D01*
X-24870852Y8102194D01*
X-24869040Y8099056D01*
X-24741253Y7957134D01*
X-24728016Y7947517D01*
X-24613606Y7864393D01*
X-24586752Y7844882D01*
X-24580724Y7842198D01*
X-24580722Y7842197D01*
X-24418319Y7769891D01*
X-24412288Y7767206D01*
X-24318887Y7747353D01*
X-24231944Y7728872D01*
X-24231939Y7728872D01*
X-24225487Y7727500D01*
X-24034513Y7727500D01*
X-24028061Y7728872D01*
X-24028056Y7728872D01*
X-23941113Y7747353D01*
X-23847712Y7767206D01*
X-23841681Y7769891D01*
X-23679278Y7842197D01*
X-23679276Y7842198D01*
X-23673248Y7844882D01*
X-23646393Y7864393D01*
X-23531984Y7947517D01*
X-23518747Y7957134D01*
X-23438075Y8046729D01*
X-23395379Y8094148D01*
X-23395378Y8094149D01*
X-23390960Y8099056D01*
X-23310922Y8237686D01*
X-23298777Y8258721D01*
X-23298776Y8258722D01*
X-23295473Y8264444D01*
X-23236458Y8446072D01*
X-23232296Y8485665D01*
X-23217186Y8629435D01*
X-23216496Y8636000D01*
X-23218140Y8651645D01*
X-23235768Y8819365D01*
X-23235768Y8819367D01*
X-23236458Y8825928D01*
X-23295473Y9007556D01*
X-23390960Y9172944D01*
X-23484469Y9276797D01*
X-23514325Y9309955D01*
X-23514326Y9309956D01*
X-23518747Y9314866D01*
X-23673248Y9427118D01*
X-23679276Y9429802D01*
X-23679278Y9429803D01*
X-23841681Y9502109D01*
X-23841682Y9502109D01*
X-23847712Y9504794D01*
X-23942773Y9525000D01*
X-24028056Y9543128D01*
X-24028061Y9543128D01*
X-24034513Y9544500D01*
X-24225487Y9544500D01*
X-24231947Y9543127D01*
X-24231946Y9543127D01*
X-24334990Y9521225D01*
X-24405780Y9526627D01*
X-24462413Y9569444D01*
X-24486906Y9636082D01*
X-24487186Y9644472D01*
X-24487186Y9645435D01*
X-24486496Y9652000D01*
X-24495753Y9740079D01*
X-24505768Y9835365D01*
X-24505768Y9835367D01*
X-24506458Y9841928D01*
X-24565473Y10023556D01*
X-24590466Y10066846D01*
X-24657659Y10183226D01*
X-24660960Y10188944D01*
X-24689468Y10220606D01*
X-24784325Y10325955D01*
X-24784326Y10325956D01*
X-24788747Y10330866D01*
X-24943248Y10443118D01*
X-24949276Y10445802D01*
X-24949278Y10445803D01*
X-25111681Y10518109D01*
X-25111682Y10518109D01*
X-25117712Y10520794D01*
X-25211113Y10540647D01*
X-25298056Y10559128D01*
X-25298061Y10559128D01*
X-25304513Y10560500D01*
X-25495487Y10560500D01*
X-25501939Y10559128D01*
X-25501944Y10559128D01*
X-25588888Y10540647D01*
X-25682288Y10520794D01*
X-25688318Y10518109D01*
X-25688319Y10518109D01*
X-25850722Y10445803D01*
X-25850724Y10445802D01*
X-25856752Y10443118D01*
X-26005006Y10335405D01*
X-26071872Y10311547D01*
X-26141024Y10327627D01*
X-26188185Y10374341D01*
X-26254596Y10489368D01*
X-26382383Y10631290D01*
X-26536884Y10743542D01*
X-26542912Y10746226D01*
X-26542914Y10746227D01*
X-26705317Y10818533D01*
X-26705318Y10818533D01*
X-26711348Y10821218D01*
X-26804748Y10841071D01*
X-26891692Y10859552D01*
X-26891697Y10859552D01*
X-26898149Y10860924D01*
X-27089123Y10860924D01*
X-27095575Y10859552D01*
X-27095580Y10859552D01*
X-27182524Y10841071D01*
X-27275924Y10821218D01*
X-27281954Y10818533D01*
X-27281955Y10818533D01*
X-27444358Y10746227D01*
X-27444360Y10746226D01*
X-27450388Y10743542D01*
X-27604889Y10631290D01*
X-27732676Y10489368D01*
X-27790950Y10388434D01*
X-27824187Y10330866D01*
X-27828163Y10323980D01*
X-27887178Y10142352D01*
X-27902765Y9994045D01*
X-27904543Y9977132D01*
X-27931556Y9911475D01*
X-27940758Y9901207D01*
X-29860422Y7981543D01*
X-29922734Y7947517D01*
X-29993549Y7952582D01*
X-30050385Y7995129D01*
X-30074827Y8057468D01*
X-30093768Y8237686D01*
X-30093768Y8237688D01*
X-30094458Y8244249D01*
X-30153473Y8425877D01*
X-30165132Y8446072D01*
X-30245659Y8585547D01*
X-30248960Y8591265D01*
X-30258564Y8601932D01*
X-30372325Y8728276D01*
X-30372326Y8728277D01*
X-30376747Y8733187D01*
X-30499514Y8822383D01*
X-30525906Y8841558D01*
X-30525907Y8841559D01*
X-30531248Y8845439D01*
X-30537276Y8848123D01*
X-30537278Y8848124D01*
X-30699681Y8920430D01*
X-30699682Y8920430D01*
X-30705712Y8923115D01*
X-30799113Y8942968D01*
X-30886056Y8961449D01*
X-30886061Y8961449D01*
X-30892513Y8962821D01*
X-31083487Y8962821D01*
X-31089939Y8961449D01*
X-31089944Y8961449D01*
X-31176887Y8942968D01*
X-31270288Y8923115D01*
X-31276318Y8920430D01*
X-31276319Y8920430D01*
X-31438722Y8848124D01*
X-31438724Y8848123D01*
X-31444752Y8845439D01*
X-31450093Y8841559D01*
X-31450094Y8841558D01*
X-31476486Y8822383D01*
X-31599253Y8733187D01*
X-31603674Y8728277D01*
X-31603675Y8728276D01*
X-31717435Y8601932D01*
X-31727040Y8591265D01*
X-31730341Y8585547D01*
X-31810867Y8446072D01*
X-31822527Y8425877D01*
X-31878825Y8252609D01*
X-31879346Y8251006D01*
X-31919419Y8192400D01*
X-31984816Y8164763D01*
X-32054045Y8176744D01*
X-32055248Y8177618D01*
X-32177044Y8231845D01*
X-32223681Y8252609D01*
X-32223682Y8252609D01*
X-32229712Y8255294D01*
X-32323113Y8275147D01*
X-32410056Y8293628D01*
X-32410061Y8293628D01*
X-32416513Y8295000D01*
X-32607487Y8295000D01*
X-32613939Y8293628D01*
X-32613944Y8293628D01*
X-32700888Y8275147D01*
X-32794288Y8255294D01*
X-32800318Y8252609D01*
X-32800319Y8252609D01*
X-32962722Y8180303D01*
X-32962724Y8180302D01*
X-32968752Y8177618D01*
X-32974093Y8173738D01*
X-32974094Y8173737D01*
X-33005939Y8150600D01*
X-33123253Y8065366D01*
X-33186494Y7995129D01*
X-33194978Y7985707D01*
X-33255424Y7948467D01*
X-33326407Y7949819D01*
X-33385392Y7989332D01*
X-33397730Y8007012D01*
X-33423960Y8052444D01*
X-33428483Y8057468D01*
X-33547325Y8189455D01*
X-33547326Y8189456D01*
X-33551747Y8194366D01*
X-33706248Y8306618D01*
X-33712276Y8309302D01*
X-33712278Y8309303D01*
X-33874681Y8381609D01*
X-33874682Y8381609D01*
X-33880712Y8384294D01*
X-33978577Y8405096D01*
X-34061056Y8422628D01*
X-34061061Y8422628D01*
X-34067513Y8424000D01*
X-34258487Y8424000D01*
X-34264939Y8422628D01*
X-34264944Y8422628D01*
X-34420372Y8389590D01*
X-34491163Y8394992D01*
X-34547795Y8437809D01*
X-34572289Y8504446D01*
X-34556868Y8573748D01*
X-34535664Y8601932D01*
X-34107272Y9030324D01*
X-34044960Y9064350D01*
X-33974145Y9059285D01*
X-33917309Y9016738D01*
X-33909067Y9004243D01*
X-33899721Y8988056D01*
X-33895303Y8983149D01*
X-33895302Y8983148D01*
X-33803059Y8880702D01*
X-33771934Y8846134D01*
X-33728458Y8814547D01*
X-33629699Y8742794D01*
X-33617433Y8733882D01*
X-33611405Y8731198D01*
X-33611403Y8731197D01*
X-33462986Y8665118D01*
X-33442969Y8656206D01*
X-33378793Y8642565D01*
X-33262625Y8617872D01*
X-33262620Y8617872D01*
X-33256168Y8616500D01*
X-33065194Y8616500D01*
X-33058742Y8617872D01*
X-33058737Y8617872D01*
X-32942569Y8642565D01*
X-32878393Y8656206D01*
X-32858376Y8665118D01*
X-32709959Y8731197D01*
X-32709957Y8731198D01*
X-32703929Y8733882D01*
X-32691662Y8742794D01*
X-32592904Y8814547D01*
X-32549428Y8846134D01*
X-32518303Y8880702D01*
X-32426060Y8983148D01*
X-32426059Y8983149D01*
X-32421641Y8988056D01*
X-32351151Y9110148D01*
X-32329458Y9147721D01*
X-32329457Y9147722D01*
X-32326154Y9153444D01*
X-32267139Y9335072D01*
X-32263771Y9367111D01*
X-32247867Y9518435D01*
X-32247177Y9525000D01*
X-32249082Y9543128D01*
X-32266449Y9708365D01*
X-32266449Y9708367D01*
X-32267139Y9714928D01*
X-32326154Y9896556D01*
X-32334767Y9911475D01*
X-32381627Y9992638D01*
X-32421641Y10061944D01*
X-32510415Y10160537D01*
X-32541131Y10224544D01*
X-32532089Y10294511D01*
X-32530973Y10296444D01*
X-32471958Y10478072D01*
X-32467323Y10522166D01*
X-32452686Y10661435D01*
X-32451996Y10668000D01*
X-32467817Y10818533D01*
X-32471268Y10851365D01*
X-32471268Y10851367D01*
X-32471958Y10857928D01*
X-32530973Y11039556D01*
X-32539445Y11054231D01*
X-32623159Y11199226D01*
X-32626460Y11204944D01*
X-32638939Y11218804D01*
X-32749825Y11341955D01*
X-32749826Y11341956D01*
X-32754247Y11346866D01*
X-32908748Y11459118D01*
X-32914776Y11461802D01*
X-32914778Y11461803D01*
X-33077181Y11534109D01*
X-33077182Y11534109D01*
X-33083212Y11536794D01*
X-33207766Y11563269D01*
X-33263556Y11575128D01*
X-33263561Y11575128D01*
X-33270013Y11576500D01*
X-33460987Y11576500D01*
X-33467439Y11575128D01*
X-33467444Y11575128D01*
X-33523234Y11563269D01*
X-33647788Y11536794D01*
X-33653818Y11534109D01*
X-33653819Y11534109D01*
X-33816222Y11461803D01*
X-33816224Y11461802D01*
X-33822252Y11459118D01*
X-33976753Y11346866D01*
X-33981174Y11341956D01*
X-33981175Y11341955D01*
X-34092060Y11218804D01*
X-34104540Y11204944D01*
X-34107841Y11199226D01*
X-34191554Y11054231D01*
X-34200027Y11039556D01*
X-34259042Y10857928D01*
X-34259732Y10851367D01*
X-34259732Y10851365D01*
X-34276407Y10692707D01*
X-34303420Y10627050D01*
X-34312622Y10616782D01*
X-35132729Y9796676D01*
X-35952253Y8977152D01*
X-35960539Y8969612D01*
X-35967018Y8965500D01*
X-35972443Y8959723D01*
X-36013643Y8915849D01*
X-36016398Y8913007D01*
X-36036135Y8893270D01*
X-36038615Y8890073D01*
X-36046318Y8881053D01*
X-36076586Y8848821D01*
X-36080405Y8841875D01*
X-36080407Y8841872D01*
X-36086348Y8831066D01*
X-36097199Y8814547D01*
X-36109614Y8798541D01*
X-36112759Y8791272D01*
X-36112762Y8791268D01*
X-36127174Y8757963D01*
X-36132391Y8747313D01*
X-36153695Y8708560D01*
X-36155666Y8700885D01*
X-36155666Y8700884D01*
X-36158733Y8688938D01*
X-36165137Y8670234D01*
X-36173181Y8651645D01*
X-36174420Y8643822D01*
X-36174423Y8643812D01*
X-36180099Y8607976D01*
X-36182505Y8596356D01*
X-36193500Y8553530D01*
X-36193500Y8533276D01*
X-36195051Y8513566D01*
X-36198220Y8493557D01*
X-36197474Y8485665D01*
X-36194059Y8449539D01*
X-36193500Y8437681D01*
X-36193500Y-5001233D01*
X-36194027Y-5012416D01*
X-36195702Y-5019909D01*
X-36195453Y-5027835D01*
X-36195453Y-5027836D01*
X-36193562Y-5087986D01*
X-36193500Y-5091945D01*
X-36193500Y-5119856D01*
X-36193003Y-5123790D01*
X-36193003Y-5123791D01*
X-36192995Y-5123856D01*
X-36192062Y-5135699D01*
X-36190673Y-5179890D01*
X-36193262Y-5179971D01*
X-36200738Y-5237839D01*
X-36246458Y-5292155D01*
X-36264289Y-5301948D01*
X-36264717Y-5302195D01*
X-36270752Y-5304882D01*
X-36276093Y-5308762D01*
X-36276094Y-5308763D01*
X-36310829Y-5334000D01*
X-36425253Y-5417134D01*
X-36429674Y-5422044D01*
X-36429675Y-5422045D01*
X-36530570Y-5534101D01*
X-36553040Y-5559056D01*
X-36648527Y-5724444D01*
X-36707542Y-5906072D01*
X-36708232Y-5912633D01*
X-36708232Y-5912635D01*
X-36720669Y-6030971D01*
X-36727504Y-6096000D01*
X-36726814Y-6102565D01*
X-36712106Y-6242500D01*
X-36707542Y-6285928D01*
X-36648527Y-6467556D01*
X-36553040Y-6632944D01*
X-36425253Y-6774866D01*
X-36270752Y-6887118D01*
X-36264724Y-6889802D01*
X-36264722Y-6889803D01*
X-36102321Y-6962108D01*
X-36096288Y-6964794D01*
X-36002887Y-6984647D01*
X-35915944Y-7003128D01*
X-35915939Y-7003128D01*
X-35909487Y-7004500D01*
X-35718513Y-7004500D01*
X-35712061Y-7003128D01*
X-35712056Y-7003128D01*
X-35625113Y-6984647D01*
X-35531712Y-6964794D01*
X-35525685Y-6962111D01*
X-35525677Y-6962108D01*
X-35491807Y-6947028D01*
X-35421440Y-6937594D01*
X-35357143Y-6967701D01*
X-35319330Y-7027790D01*
X-35320007Y-7098784D01*
X-35358958Y-7158141D01*
X-35366487Y-7164062D01*
X-35409253Y-7195134D01*
X-35413674Y-7200044D01*
X-35413675Y-7200045D01*
X-35511063Y-7308206D01*
X-35537040Y-7337056D01*
X-35632527Y-7502444D01*
X-35691542Y-7684072D01*
X-35692232Y-7690633D01*
X-35692232Y-7690635D01*
X-35710814Y-7867435D01*
X-35711504Y-7874000D01*
X-35710814Y-7880565D01*
X-35696106Y-8020500D01*
X-35691542Y-8063928D01*
X-35632527Y-8245556D01*
X-35537040Y-8410944D01*
X-35532622Y-8415851D01*
X-35532621Y-8415852D01*
X-35444592Y-8513618D01*
X-35409253Y-8552866D01*
X-35383271Y-8571743D01*
X-35269366Y-8654500D01*
X-35254752Y-8665118D01*
X-35248724Y-8667802D01*
X-35248722Y-8667803D01*
X-35086319Y-8740109D01*
X-35080288Y-8742794D01*
X-34986887Y-8762647D01*
X-34899944Y-8781128D01*
X-34899939Y-8781128D01*
X-34893487Y-8782500D01*
X-34832500Y-8782500D01*
X-34764379Y-8802502D01*
X-34717886Y-8856158D01*
X-34706500Y-8908500D01*
X-34706500Y-13275115D01*
X-34726502Y-13343236D01*
X-34780158Y-13389729D01*
X-34811762Y-13399397D01*
X-34819625Y-13400709D01*
X-34873494Y-13409698D01*
X-34873495Y-13409698D01*
X-34878635Y-13410556D01*
X-35091574Y-13483658D01*
X-35289576Y-13590811D01*
X-35293687Y-13594010D01*
X-35293689Y-13594012D01*
X-35413230Y-13687056D01*
X-35467240Y-13729094D01*
X-35470772Y-13732931D01*
X-35528245Y-13795362D01*
X-35589099Y-13831933D01*
X-35660063Y-13829798D01*
X-35718608Y-13789636D01*
X-35739002Y-13754056D01*
X-35750217Y-13723986D01*
X-35783111Y-13635796D01*
X-35814076Y-13594431D01*
X-35865341Y-13525950D01*
X-35870739Y-13518739D01*
X-35928513Y-13475490D01*
X-35980582Y-13436511D01*
X-35980584Y-13436510D01*
X-35987796Y-13431111D01*
X-36124799Y-13380011D01*
X-36161705Y-13376043D01*
X-36182012Y-13373860D01*
X-36182015Y-13373860D01*
X-36185362Y-13373500D01*
X-37340500Y-13373500D01*
X-37408621Y-13353498D01*
X-37455114Y-13299842D01*
X-37466500Y-13247500D01*
X-37466500Y-12210500D01*
X-37446498Y-12142379D01*
X-37392842Y-12095886D01*
X-37340500Y-12084500D01*
X-37242513Y-12084500D01*
X-37236061Y-12083128D01*
X-37236056Y-12083128D01*
X-37149113Y-12064647D01*
X-37055712Y-12044794D01*
X-36959756Y-12002072D01*
X-36887278Y-11969803D01*
X-36887276Y-11969802D01*
X-36881248Y-11967118D01*
X-36726747Y-11854866D01*
X-36598960Y-11712944D01*
X-36540686Y-11612010D01*
X-36506777Y-11553279D01*
X-36506776Y-11553278D01*
X-36503473Y-11547556D01*
X-36444458Y-11365928D01*
X-36424496Y-11176000D01*
X-36444458Y-10986072D01*
X-36503473Y-10804444D01*
X-36598960Y-10639056D01*
X-36624710Y-10610457D01*
X-36722325Y-10502045D01*
X-36722326Y-10502044D01*
X-36726747Y-10497134D01*
X-36881248Y-10384882D01*
X-36887276Y-10382198D01*
X-36887278Y-10382197D01*
X-37049681Y-10309891D01*
X-37049682Y-10309891D01*
X-37055712Y-10307206D01*
X-37168279Y-10283279D01*
X-37236056Y-10268872D01*
X-37236061Y-10268872D01*
X-37242513Y-10267500D01*
X-37340500Y-10267500D01*
X-37408621Y-10247498D01*
X-37455114Y-10193842D01*
X-37466500Y-10141500D01*
X-37466500Y9671958D01*
X-37446498Y9740079D01*
X-37392842Y9786572D01*
X-37322568Y9796676D01*
X-37314303Y9795205D01*
X-37194896Y9769824D01*
X-37194891Y9769824D01*
X-37188439Y9768452D01*
X-36997465Y9768452D01*
X-36991013Y9769824D01*
X-36991008Y9769824D01*
X-36904064Y9788305D01*
X-36810664Y9808158D01*
X-36804633Y9810843D01*
X-36642230Y9883149D01*
X-36642228Y9883150D01*
X-36636200Y9885834D01*
X-36481699Y9998086D01*
X-36453613Y10029279D01*
X-36358331Y10135100D01*
X-36358330Y10135101D01*
X-36353912Y10140008D01*
X-36295638Y10240942D01*
X-36261729Y10299673D01*
X-36261728Y10299674D01*
X-36258425Y10305396D01*
X-36199410Y10487024D01*
X-36195860Y10520794D01*
X-36180138Y10670387D01*
X-36179448Y10676952D01*
X-36186729Y10746227D01*
X-36198720Y10860317D01*
X-36198720Y10860319D01*
X-36199410Y10866880D01*
X-36258425Y11048508D01*
X-36353912Y11213896D01*
X-36470483Y11343362D01*
X-36477277Y11350907D01*
X-36477278Y11350908D01*
X-36481699Y11355818D01*
X-36618537Y11455237D01*
X-36630858Y11464189D01*
X-36630859Y11464190D01*
X-36636200Y11468070D01*
X-36642226Y11470753D01*
X-36642233Y11470757D01*
X-36661856Y11479493D01*
X-36715952Y11525472D01*
X-36736602Y11593400D01*
X-36730440Y11633538D01*
X-36724999Y11650284D01*
X-36724999Y11650285D01*
X-36722956Y11656572D01*
X-36721852Y11667069D01*
X-36703684Y11839935D01*
X-36702994Y11846500D01*
X-36710335Y11916342D01*
X-36722266Y12029865D01*
X-36722266Y12029867D01*
X-36722956Y12036428D01*
X-36781971Y12218056D01*
X-36877458Y12383444D01*
X-37005245Y12525366D01*
X-37159746Y12637618D01*
X-37165774Y12640302D01*
X-37165776Y12640303D01*
X-37328179Y12712609D01*
X-37328180Y12712609D01*
X-37334210Y12715294D01*
X-37427611Y12735147D01*
X-37514554Y12753628D01*
X-37514559Y12753628D01*
X-37521011Y12755000D01*
X-37711985Y12755000D01*
X-37718437Y12753628D01*
X-37718442Y12753628D01*
X-37805386Y12735147D01*
X-37898786Y12715294D01*
X-37904816Y12712609D01*
X-37904817Y12712609D01*
X-38067220Y12640303D01*
X-38067222Y12640302D01*
X-38073250Y12637618D01*
X-38227751Y12525366D01*
X-38355538Y12383444D01*
X-38451025Y12218056D01*
X-38510040Y12036428D01*
X-38510730Y12029867D01*
X-38510730Y12029865D01*
X-38511174Y12025643D01*
X-38526348Y11881261D01*
X-38527405Y11871208D01*
X-38554418Y11805551D01*
X-38563620Y11795283D01*
X-38576135Y11782768D01*
X-38578615Y11779571D01*
X-38586318Y11770551D01*
X-38616586Y11738319D01*
X-38620405Y11731373D01*
X-38620407Y11731370D01*
X-38626348Y11720564D01*
X-38637199Y11704045D01*
X-38649614Y11688039D01*
X-38652759Y11680770D01*
X-38652762Y11680766D01*
X-38667174Y11647461D01*
X-38672391Y11636811D01*
X-38693695Y11598058D01*
X-38695666Y11590383D01*
X-38695666Y11590382D01*
X-38698733Y11578436D01*
X-38705137Y11559732D01*
X-38713181Y11541143D01*
X-38714420Y11533320D01*
X-38714423Y11533310D01*
X-38720099Y11497474D01*
X-38722505Y11485854D01*
X-38733500Y11443028D01*
X-38733500Y11422774D01*
X-38735051Y11403064D01*
X-38738220Y11383055D01*
X-38737474Y11375163D01*
X-38734059Y11339037D01*
X-38733500Y11327179D01*
X-38733500Y-5092909D01*
X-38753502Y-5161030D01*
X-38807158Y-5207523D01*
X-38877432Y-5217627D01*
X-38885697Y-5216156D01*
X-39014056Y-5188872D01*
X-39014061Y-5188872D01*
X-39020513Y-5187500D01*
X-39211487Y-5187500D01*
X-39217939Y-5188872D01*
X-39217944Y-5188872D01*
X-39304888Y-5207353D01*
X-39398288Y-5227206D01*
X-39404318Y-5229891D01*
X-39404319Y-5229891D01*
X-39566722Y-5302197D01*
X-39566724Y-5302198D01*
X-39572752Y-5304882D01*
X-39578093Y-5308762D01*
X-39578094Y-5308763D01*
X-39612829Y-5334000D01*
X-39727253Y-5417134D01*
X-39731674Y-5422044D01*
X-39731675Y-5422045D01*
X-39832570Y-5534101D01*
X-39855040Y-5559056D01*
X-39950527Y-5724444D01*
X-40009542Y-5906072D01*
X-40010232Y-5912633D01*
X-40010232Y-5912635D01*
X-40022669Y-6030971D01*
X-40029504Y-6096000D01*
X-60949500Y-6096000D01*
X-60949500Y-4572000D01*
X-54507504Y-4572000D01*
X-54506814Y-4578565D01*
X-54499174Y-4651251D01*
X-54487542Y-4761928D01*
X-54428527Y-4943556D01*
X-54333040Y-5108944D01*
X-54328622Y-5113851D01*
X-54328621Y-5113852D01*
X-54228428Y-5225128D01*
X-54205253Y-5250866D01*
X-54176408Y-5271823D01*
X-54081793Y-5340565D01*
X-54050752Y-5363118D01*
X-54044724Y-5365802D01*
X-54044722Y-5365803D01*
X-53882319Y-5438109D01*
X-53876288Y-5440794D01*
X-53782888Y-5460647D01*
X-53695944Y-5479128D01*
X-53695939Y-5479128D01*
X-53689487Y-5480500D01*
X-53498513Y-5480500D01*
X-53492061Y-5479128D01*
X-53492056Y-5479128D01*
X-53405112Y-5460647D01*
X-53311712Y-5440794D01*
X-53305681Y-5438109D01*
X-53143278Y-5365803D01*
X-53143276Y-5365802D01*
X-53137248Y-5363118D01*
X-53106206Y-5340565D01*
X-53011592Y-5271823D01*
X-52982747Y-5250866D01*
X-52959572Y-5225128D01*
X-52859379Y-5113852D01*
X-52859378Y-5113851D01*
X-52854960Y-5108944D01*
X-52759473Y-4943556D01*
X-52700458Y-4761928D01*
X-52688825Y-4651251D01*
X-52681186Y-4578565D01*
X-52680496Y-4572000D01*
X-52700458Y-4382072D01*
X-52759473Y-4200444D01*
X-52854960Y-4035056D01*
X-52917523Y-3965572D01*
X-52978325Y-3898045D01*
X-52978326Y-3898044D01*
X-52982747Y-3893134D01*
X-53137248Y-3780882D01*
X-53143276Y-3778198D01*
X-53143278Y-3778197D01*
X-53305681Y-3705891D01*
X-53305682Y-3705891D01*
X-53311712Y-3703206D01*
X-53405112Y-3683353D01*
X-53492056Y-3664872D01*
X-53492061Y-3664872D01*
X-53498513Y-3663500D01*
X-53689487Y-3663500D01*
X-53695939Y-3664872D01*
X-53695944Y-3664872D01*
X-53782888Y-3683353D01*
X-53876288Y-3703206D01*
X-53882318Y-3705891D01*
X-53882319Y-3705891D01*
X-54044722Y-3778197D01*
X-54044724Y-3778198D01*
X-54050752Y-3780882D01*
X-54205253Y-3893134D01*
X-54209674Y-3898044D01*
X-54209675Y-3898045D01*
X-54270476Y-3965572D01*
X-54333040Y-4035056D01*
X-54428527Y-4200444D01*
X-54487542Y-4382072D01*
X-54507504Y-4572000D01*
X-60949500Y-4572000D01*
X-60949500Y-2703544D01*
X-42396354Y-2703544D01*
X-42395664Y-2710109D01*
X-42384827Y-2813213D01*
X-42376392Y-2893472D01*
X-42317377Y-3075100D01*
X-42221890Y-3240488D01*
X-42217472Y-3245395D01*
X-42217471Y-3245396D01*
X-42106841Y-3368263D01*
X-42094103Y-3382410D01*
X-41939602Y-3494662D01*
X-41933574Y-3497346D01*
X-41933572Y-3497347D01*
X-41876435Y-3522786D01*
X-41822339Y-3568767D01*
X-41801690Y-3636694D01*
X-41821043Y-3705002D01*
X-41834040Y-3722194D01*
X-41887040Y-3781056D01*
X-41982527Y-3946444D01*
X-42041542Y-4128072D01*
X-42061504Y-4318000D01*
X-42041542Y-4507928D01*
X-41982527Y-4689556D01*
X-41887040Y-4854944D01*
X-41882622Y-4859851D01*
X-41882621Y-4859852D01*
X-41795400Y-4956721D01*
X-41759253Y-4996866D01*
X-41687480Y-5049012D01*
X-41631123Y-5089958D01*
X-41604752Y-5109118D01*
X-41598724Y-5111802D01*
X-41598722Y-5111803D01*
X-41445797Y-5179889D01*
X-41430288Y-5186794D01*
X-41336888Y-5206647D01*
X-41249944Y-5225128D01*
X-41249939Y-5225128D01*
X-41243487Y-5226500D01*
X-41052513Y-5226500D01*
X-41046061Y-5225128D01*
X-41046056Y-5225128D01*
X-40959112Y-5206647D01*
X-40865712Y-5186794D01*
X-40850203Y-5179889D01*
X-40697278Y-5111803D01*
X-40697276Y-5111802D01*
X-40691248Y-5109118D01*
X-40664876Y-5089958D01*
X-40608520Y-5049012D01*
X-40536747Y-4996866D01*
X-40500600Y-4956721D01*
X-40413379Y-4859852D01*
X-40413378Y-4859851D01*
X-40408960Y-4854944D01*
X-40313473Y-4689556D01*
X-40254458Y-4507928D01*
X-40234496Y-4318000D01*
X-40246055Y-4208021D01*
X-40233283Y-4138183D01*
X-40194806Y-4092915D01*
X-40123041Y-4040774D01*
X-40113622Y-4033931D01*
X-40052071Y-3965572D01*
X-39990254Y-3896917D01*
X-39990253Y-3896916D01*
X-39985835Y-3892009D01*
X-39923916Y-3784763D01*
X-39893652Y-3732344D01*
X-39893651Y-3732343D01*
X-39890348Y-3726621D01*
X-39831333Y-3544993D01*
X-39811371Y-3355065D01*
X-39812061Y-3348500D01*
X-39830643Y-3171700D01*
X-39830643Y-3171698D01*
X-39831333Y-3165137D01*
X-39890348Y-2983509D01*
X-39985835Y-2818121D01*
X-40094911Y-2696979D01*
X-40109200Y-2681110D01*
X-40109201Y-2681109D01*
X-40113622Y-2676199D01*
X-40268123Y-2563947D01*
X-40274151Y-2561263D01*
X-40274153Y-2561262D01*
X-40436556Y-2488956D01*
X-40436557Y-2488956D01*
X-40442587Y-2486271D01*
X-40538582Y-2465867D01*
X-40601054Y-2432139D01*
X-40632217Y-2381556D01*
X-40646281Y-2338272D01*
X-40646282Y-2338271D01*
X-40648323Y-2331988D01*
X-40743810Y-2166600D01*
X-40871597Y-2024678D01*
X-41026098Y-1912426D01*
X-41032126Y-1909742D01*
X-41032128Y-1909741D01*
X-41194531Y-1837435D01*
X-41194532Y-1837435D01*
X-41200562Y-1834750D01*
X-41293962Y-1814897D01*
X-41380906Y-1796416D01*
X-41380911Y-1796416D01*
X-41387363Y-1795044D01*
X-41578337Y-1795044D01*
X-41584789Y-1796416D01*
X-41584794Y-1796416D01*
X-41671738Y-1814897D01*
X-41765138Y-1834750D01*
X-41771168Y-1837435D01*
X-41771169Y-1837435D01*
X-41933572Y-1909741D01*
X-41933574Y-1909742D01*
X-41939602Y-1912426D01*
X-42094103Y-2024678D01*
X-42221890Y-2166600D01*
X-42317377Y-2331988D01*
X-42376392Y-2513616D01*
X-42396354Y-2703544D01*
X-60949500Y-2703544D01*
X-60949500Y-508000D01*
X-43585504Y-508000D01*
X-43584814Y-514565D01*
X-43567137Y-682749D01*
X-43565542Y-697928D01*
X-43506527Y-879556D01*
X-43411040Y-1044944D01*
X-43406622Y-1049851D01*
X-43406621Y-1049852D01*
X-43324234Y-1141352D01*
X-43283253Y-1186866D01*
X-43128752Y-1299118D01*
X-43122724Y-1301802D01*
X-43122722Y-1301803D01*
X-42960319Y-1374109D01*
X-42954288Y-1376794D01*
X-42860887Y-1396647D01*
X-42773944Y-1415128D01*
X-42773939Y-1415128D01*
X-42767487Y-1416500D01*
X-42576513Y-1416500D01*
X-42570061Y-1415128D01*
X-42570056Y-1415128D01*
X-42483113Y-1396647D01*
X-42389712Y-1376794D01*
X-42383681Y-1374109D01*
X-42221278Y-1301803D01*
X-42221276Y-1301802D01*
X-42215248Y-1299118D01*
X-42060747Y-1186866D01*
X-42019766Y-1141352D01*
X-41937379Y-1049852D01*
X-41937378Y-1049851D01*
X-41932960Y-1044944D01*
X-41837473Y-879556D01*
X-41778458Y-697928D01*
X-41776862Y-682749D01*
X-41759186Y-514565D01*
X-41758496Y-508000D01*
X-41778458Y-318072D01*
X-41837473Y-136444D01*
X-41932960Y28944D01*
X-42060747Y170866D01*
X-42215248Y283118D01*
X-42221276Y285802D01*
X-42221278Y285803D01*
X-42383681Y358109D01*
X-42383682Y358109D01*
X-42389712Y360794D01*
X-42483112Y380647D01*
X-42570056Y399128D01*
X-42570061Y399128D01*
X-42576513Y400500D01*
X-42767487Y400500D01*
X-42773939Y399128D01*
X-42773944Y399128D01*
X-42860888Y380647D01*
X-42954288Y360794D01*
X-42960318Y358109D01*
X-42960319Y358109D01*
X-43122722Y285803D01*
X-43122724Y285802D01*
X-43128752Y283118D01*
X-43283253Y170866D01*
X-43411040Y28944D01*
X-43506527Y-136444D01*
X-43565542Y-318072D01*
X-43585504Y-508000D01*
X-60949500Y-508000D01*
X-60949500Y1016000D01*
X-48157504Y1016000D01*
X-48156814Y1009435D01*
X-48139137Y841251D01*
X-48137542Y826072D01*
X-48078527Y644444D01*
X-47983040Y479056D01*
X-47855253Y337134D01*
X-47700752Y224882D01*
X-47694724Y222198D01*
X-47694722Y222197D01*
X-47538785Y152770D01*
X-47526288Y147206D01*
X-47439540Y128767D01*
X-47345944Y108872D01*
X-47345939Y108872D01*
X-47339487Y107500D01*
X-47148513Y107500D01*
X-47142061Y108872D01*
X-47142056Y108872D01*
X-47048460Y128767D01*
X-46961712Y147206D01*
X-46949215Y152770D01*
X-46793278Y222197D01*
X-46793276Y222198D01*
X-46787248Y224882D01*
X-46632747Y337134D01*
X-46504960Y479056D01*
X-46409473Y644444D01*
X-46350458Y826072D01*
X-46348862Y841251D01*
X-46331186Y1009435D01*
X-46330496Y1016000D01*
X-46350458Y1205928D01*
X-46409473Y1387556D01*
X-46488249Y1524000D01*
X-45617504Y1524000D01*
X-45616814Y1517435D01*
X-45602620Y1382391D01*
X-45597542Y1334072D01*
X-45538527Y1152444D01*
X-45443040Y987056D01*
X-45438622Y982149D01*
X-45438621Y982148D01*
X-45374824Y911294D01*
X-45315253Y845134D01*
X-45160752Y732882D01*
X-45154724Y730198D01*
X-45154722Y730197D01*
X-44992319Y657891D01*
X-44986288Y655206D01*
X-44893250Y635430D01*
X-44805944Y616872D01*
X-44805939Y616872D01*
X-44799487Y615500D01*
X-44608513Y615500D01*
X-44602061Y616872D01*
X-44602056Y616872D01*
X-44514750Y635430D01*
X-44421712Y655206D01*
X-44415681Y657891D01*
X-44253278Y730197D01*
X-44253276Y730198D01*
X-44247248Y732882D01*
X-44092747Y845134D01*
X-44033176Y911294D01*
X-43969379Y982148D01*
X-43969378Y982149D01*
X-43964960Y987056D01*
X-43869473Y1152444D01*
X-43810458Y1334072D01*
X-43805379Y1382391D01*
X-43791186Y1517435D01*
X-43790496Y1524000D01*
X-43800875Y1622754D01*
X-43809768Y1707365D01*
X-43809768Y1707367D01*
X-43810458Y1713928D01*
X-43869473Y1895556D01*
X-43964960Y2060944D01*
X-44092747Y2202866D01*
X-44155557Y2248500D01*
X-43585504Y2248500D01*
X-43565542Y2058572D01*
X-43506527Y1876944D01*
X-43411040Y1711556D01*
X-43406622Y1706649D01*
X-43406621Y1706648D01*
X-43327588Y1618873D01*
X-43283253Y1569634D01*
X-43128752Y1457382D01*
X-43122724Y1454698D01*
X-43122722Y1454697D01*
X-42960319Y1382391D01*
X-42954288Y1379706D01*
X-42860887Y1359853D01*
X-42773944Y1341372D01*
X-42773939Y1341372D01*
X-42767487Y1340000D01*
X-42576513Y1340000D01*
X-42570061Y1341372D01*
X-42570056Y1341372D01*
X-42483113Y1359853D01*
X-42389712Y1379706D01*
X-42383681Y1382391D01*
X-42221278Y1454697D01*
X-42221276Y1454698D01*
X-42215248Y1457382D01*
X-42060747Y1569634D01*
X-42016412Y1618873D01*
X-41937379Y1706648D01*
X-41937378Y1706649D01*
X-41932960Y1711556D01*
X-41837473Y1876944D01*
X-41778458Y2058572D01*
X-41758496Y2248500D01*
X-41765780Y2317803D01*
X-41777768Y2431865D01*
X-41777768Y2431867D01*
X-41778458Y2438428D01*
X-41837473Y2620056D01*
X-41932960Y2785444D01*
X-42038692Y2902872D01*
X-42056325Y2922455D01*
X-42056326Y2922456D01*
X-42060747Y2927366D01*
X-42215248Y3039618D01*
X-42221276Y3042302D01*
X-42221278Y3042303D01*
X-42383681Y3114609D01*
X-42383682Y3114609D01*
X-42389712Y3117294D01*
X-42483113Y3137147D01*
X-42570056Y3155628D01*
X-42570061Y3155628D01*
X-42576513Y3157000D01*
X-42767487Y3157000D01*
X-42773939Y3155628D01*
X-42773944Y3155628D01*
X-42860887Y3137147D01*
X-42954288Y3117294D01*
X-42960318Y3114609D01*
X-42960319Y3114609D01*
X-43122722Y3042303D01*
X-43122724Y3042302D01*
X-43128752Y3039618D01*
X-43283253Y2927366D01*
X-43287674Y2922456D01*
X-43287675Y2922455D01*
X-43305307Y2902872D01*
X-43411040Y2785444D01*
X-43506527Y2620056D01*
X-43565542Y2438428D01*
X-43566232Y2431867D01*
X-43566232Y2431865D01*
X-43578220Y2317803D01*
X-43585504Y2248500D01*
X-44155557Y2248500D01*
X-44247248Y2315118D01*
X-44253276Y2317802D01*
X-44253278Y2317803D01*
X-44415681Y2390109D01*
X-44415682Y2390109D01*
X-44421712Y2392794D01*
X-44515113Y2412647D01*
X-44602056Y2431128D01*
X-44602061Y2431128D01*
X-44608513Y2432500D01*
X-44799487Y2432500D01*
X-44805939Y2431128D01*
X-44805944Y2431128D01*
X-44892887Y2412647D01*
X-44986288Y2392794D01*
X-44992318Y2390109D01*
X-44992319Y2390109D01*
X-45154722Y2317803D01*
X-45154724Y2317802D01*
X-45160752Y2315118D01*
X-45315253Y2202866D01*
X-45443040Y2060944D01*
X-45538527Y1895556D01*
X-45597542Y1713928D01*
X-45598232Y1707367D01*
X-45598232Y1707365D01*
X-45607125Y1622754D01*
X-45617504Y1524000D01*
X-46488249Y1524000D01*
X-46504960Y1552944D01*
X-46524409Y1574545D01*
X-46628325Y1689955D01*
X-46628326Y1689956D01*
X-46632747Y1694866D01*
X-46787248Y1807118D01*
X-46793276Y1809802D01*
X-46793278Y1809803D01*
X-46955681Y1882109D01*
X-46955682Y1882109D01*
X-46961712Y1884794D01*
X-47055113Y1904647D01*
X-47142056Y1923128D01*
X-47142061Y1923128D01*
X-47148513Y1924500D01*
X-47339487Y1924500D01*
X-47345939Y1923128D01*
X-47345944Y1923128D01*
X-47432887Y1904647D01*
X-47526288Y1884794D01*
X-47532318Y1882109D01*
X-47532319Y1882109D01*
X-47694722Y1809803D01*
X-47694724Y1809802D01*
X-47700752Y1807118D01*
X-47855253Y1694866D01*
X-47859674Y1689956D01*
X-47859675Y1689955D01*
X-47963590Y1574545D01*
X-47983040Y1552944D01*
X-48078527Y1387556D01*
X-48137542Y1205928D01*
X-48157504Y1016000D01*
X-60949500Y1016000D01*
X-60949500Y4572000D01*
X-60095504Y4572000D01*
X-60094814Y4565435D01*
X-60080106Y4425500D01*
X-60075542Y4382072D01*
X-60016527Y4200444D01*
X-59921040Y4035056D01*
X-59916622Y4030149D01*
X-59916621Y4030148D01*
X-59889411Y3999928D01*
X-59793253Y3893134D01*
X-59694157Y3821136D01*
X-59669793Y3803435D01*
X-59638752Y3780882D01*
X-59632724Y3778198D01*
X-59632722Y3778197D01*
X-59524343Y3729944D01*
X-59464288Y3703206D01*
X-59370888Y3683353D01*
X-59283944Y3664872D01*
X-59283939Y3664872D01*
X-59277487Y3663500D01*
X-59086513Y3663500D01*
X-59080061Y3664872D01*
X-59080056Y3664872D01*
X-58993112Y3683353D01*
X-58899712Y3703206D01*
X-58839657Y3729944D01*
X-58731278Y3778197D01*
X-58731276Y3778198D01*
X-58725248Y3780882D01*
X-58694206Y3803435D01*
X-58685170Y3810000D01*
X-46379504Y3810000D01*
X-46378814Y3803435D01*
X-46364106Y3663500D01*
X-46359542Y3620072D01*
X-46300527Y3438444D01*
X-46297224Y3432722D01*
X-46297223Y3432721D01*
X-46291399Y3422634D01*
X-46205040Y3273056D01*
X-46200622Y3268149D01*
X-46200621Y3268148D01*
X-46099192Y3155500D01*
X-46077253Y3131134D01*
X-45922752Y3018882D01*
X-45916724Y3016198D01*
X-45916722Y3016197D01*
X-45754319Y2943891D01*
X-45748288Y2941206D01*
X-45683176Y2927366D01*
X-45567944Y2902872D01*
X-45567939Y2902872D01*
X-45561487Y2901500D01*
X-45370513Y2901500D01*
X-45364061Y2902872D01*
X-45364056Y2902872D01*
X-45248824Y2927366D01*
X-45183712Y2941206D01*
X-45177681Y2943891D01*
X-45015278Y3016197D01*
X-45015276Y3016198D01*
X-45009248Y3018882D01*
X-44854747Y3131134D01*
X-44832808Y3155500D01*
X-44731379Y3268148D01*
X-44731378Y3268149D01*
X-44726960Y3273056D01*
X-44700010Y3319735D01*
X-44648628Y3368728D01*
X-44578914Y3382164D01*
X-44516830Y3358671D01*
X-44463239Y3319735D01*
X-44398752Y3272882D01*
X-44392724Y3270198D01*
X-44392722Y3270197D01*
X-44270752Y3215893D01*
X-44224288Y3195206D01*
X-44130888Y3175353D01*
X-44043944Y3156872D01*
X-44043939Y3156872D01*
X-44037487Y3155500D01*
X-43846513Y3155500D01*
X-43840061Y3156872D01*
X-43840056Y3156872D01*
X-43753113Y3175353D01*
X-43659712Y3195206D01*
X-43613248Y3215893D01*
X-43491278Y3270197D01*
X-43491276Y3270198D01*
X-43485248Y3272882D01*
X-43330747Y3385134D01*
X-43292560Y3427545D01*
X-43207379Y3522148D01*
X-43207378Y3522149D01*
X-43202960Y3527056D01*
X-43107473Y3692444D01*
X-43048458Y3874072D01*
X-43047768Y3880635D01*
X-43042674Y3929101D01*
X-43015660Y3994758D01*
X-42957438Y4035387D01*
X-42886493Y4038090D01*
X-42866119Y4031038D01*
X-42700288Y3957206D01*
X-42606888Y3937353D01*
X-42519944Y3918872D01*
X-42519939Y3918872D01*
X-42513487Y3917500D01*
X-42322513Y3917500D01*
X-42316061Y3918872D01*
X-42316056Y3918872D01*
X-42229112Y3937353D01*
X-42135712Y3957206D01*
X-42039756Y3999928D01*
X-41967278Y4032197D01*
X-41967276Y4032198D01*
X-41961248Y4034882D01*
X-41930206Y4057435D01*
X-41869557Y4101500D01*
X-41806747Y4147134D01*
X-41770600Y4187279D01*
X-41683379Y4284148D01*
X-41683378Y4284149D01*
X-41678960Y4289056D01*
X-41583473Y4454444D01*
X-41524458Y4636072D01*
X-41522862Y4651251D01*
X-41505186Y4819435D01*
X-41504496Y4826000D01*
X-41507839Y4857805D01*
X-41523768Y5009365D01*
X-41523768Y5009367D01*
X-41524458Y5015928D01*
X-41583473Y5197556D01*
X-41678960Y5362944D01*
X-41806747Y5504866D01*
X-41849502Y5535930D01*
X-41892856Y5592151D01*
X-41898932Y5662887D01*
X-41865800Y5725679D01*
X-41803980Y5760590D01*
X-41733099Y5756538D01*
X-41724193Y5752972D01*
X-41690323Y5737892D01*
X-41690315Y5737889D01*
X-41684288Y5735206D01*
X-41590887Y5715353D01*
X-41503944Y5696872D01*
X-41503939Y5696872D01*
X-41497487Y5695500D01*
X-41306513Y5695500D01*
X-41300061Y5696872D01*
X-41300056Y5696872D01*
X-41213113Y5715353D01*
X-41119712Y5735206D01*
X-41113679Y5737892D01*
X-40951278Y5810197D01*
X-40951276Y5810198D01*
X-40945248Y5812882D01*
X-40928044Y5825381D01*
X-40839701Y5889567D01*
X-40790747Y5925134D01*
X-40775507Y5942060D01*
X-40667379Y6062148D01*
X-40667378Y6062149D01*
X-40662960Y6067056D01*
X-40567473Y6232444D01*
X-40508458Y6414072D01*
X-40506862Y6429251D01*
X-40489186Y6597435D01*
X-40488496Y6604000D01*
X-40508458Y6793928D01*
X-40567473Y6975556D01*
X-40586909Y7009221D01*
X-40646501Y7112436D01*
X-40662960Y7140944D01*
X-40668586Y7147193D01*
X-40786325Y7277955D01*
X-40786326Y7277956D01*
X-40790747Y7282866D01*
X-40918184Y7375455D01*
X-40939906Y7391237D01*
X-40939907Y7391238D01*
X-40945248Y7395118D01*
X-40951276Y7397802D01*
X-40951278Y7397803D01*
X-41113681Y7470109D01*
X-41113682Y7470109D01*
X-41119712Y7472794D01*
X-41232279Y7496721D01*
X-41300056Y7511128D01*
X-41300061Y7511128D01*
X-41306513Y7512500D01*
X-41497487Y7512500D01*
X-41503939Y7511128D01*
X-41503944Y7511128D01*
X-41571721Y7496721D01*
X-41684288Y7472794D01*
X-41690318Y7470109D01*
X-41690319Y7470109D01*
X-41852722Y7397803D01*
X-41852724Y7397802D01*
X-41858752Y7395118D01*
X-41864093Y7391238D01*
X-41864094Y7391237D01*
X-41885816Y7375455D01*
X-42013253Y7282866D01*
X-42017674Y7277956D01*
X-42017675Y7277955D01*
X-42135413Y7147193D01*
X-42141040Y7140944D01*
X-42157499Y7112436D01*
X-42217090Y7009221D01*
X-42236527Y6975556D01*
X-42295542Y6793928D01*
X-42315504Y6604000D01*
X-42314814Y6597435D01*
X-42297137Y6429251D01*
X-42295542Y6414072D01*
X-42236527Y6232444D01*
X-42141040Y6067056D01*
X-42136622Y6062149D01*
X-42136621Y6062148D01*
X-42028493Y5942060D01*
X-42013253Y5925134D01*
X-41970498Y5894070D01*
X-41927144Y5837849D01*
X-41921068Y5767113D01*
X-41954200Y5704321D01*
X-42016020Y5669410D01*
X-42086901Y5673462D01*
X-42095807Y5677028D01*
X-42129677Y5692108D01*
X-42129685Y5692111D01*
X-42135712Y5694794D01*
X-42229112Y5714647D01*
X-42316056Y5733128D01*
X-42316061Y5733128D01*
X-42322513Y5734500D01*
X-42513487Y5734500D01*
X-42519939Y5733128D01*
X-42519944Y5733128D01*
X-42606888Y5714647D01*
X-42700288Y5694794D01*
X-42706318Y5692109D01*
X-42706319Y5692109D01*
X-42868722Y5619803D01*
X-42868724Y5619802D01*
X-42874752Y5617118D01*
X-43029253Y5504866D01*
X-43157040Y5362944D01*
X-43252527Y5197556D01*
X-43311542Y5015928D01*
X-43312232Y5009367D01*
X-43312232Y5009365D01*
X-43317326Y4960899D01*
X-43344340Y4895242D01*
X-43402562Y4854613D01*
X-43473507Y4851910D01*
X-43493881Y4858962D01*
X-43659712Y4932794D01*
X-43783438Y4959093D01*
X-43840056Y4971128D01*
X-43840061Y4971128D01*
X-43846513Y4972500D01*
X-44037487Y4972500D01*
X-44043939Y4971128D01*
X-44043944Y4971128D01*
X-44100562Y4959093D01*
X-44224288Y4932794D01*
X-44230318Y4930109D01*
X-44230319Y4930109D01*
X-44392722Y4857803D01*
X-44392724Y4857802D01*
X-44398752Y4855118D01*
X-44404093Y4851238D01*
X-44404094Y4851237D01*
X-44438829Y4826000D01*
X-44553253Y4742866D01*
X-44557674Y4737956D01*
X-44557675Y4737955D01*
X-44655063Y4629794D01*
X-44681040Y4600944D01*
X-44697751Y4572000D01*
X-44707990Y4554265D01*
X-44759372Y4505272D01*
X-44829086Y4491836D01*
X-44891170Y4515329D01*
X-45003906Y4597237D01*
X-45003907Y4597238D01*
X-45009248Y4601118D01*
X-45015276Y4603802D01*
X-45015278Y4603803D01*
X-45177681Y4676109D01*
X-45177682Y4676109D01*
X-45183712Y4678794D01*
X-45277113Y4698647D01*
X-45364056Y4717128D01*
X-45364061Y4717128D01*
X-45370513Y4718500D01*
X-45561487Y4718500D01*
X-45567939Y4717128D01*
X-45567944Y4717128D01*
X-45654887Y4698647D01*
X-45748288Y4678794D01*
X-45754318Y4676109D01*
X-45754319Y4676109D01*
X-45916722Y4603803D01*
X-45916724Y4603802D01*
X-45922752Y4601118D01*
X-45928093Y4597238D01*
X-45928094Y4597237D01*
X-45962829Y4572000D01*
X-46077253Y4488866D01*
X-46081674Y4483956D01*
X-46081675Y4483955D01*
X-46179063Y4375794D01*
X-46205040Y4346944D01*
X-46300527Y4181556D01*
X-46359542Y3999928D01*
X-46360232Y3993367D01*
X-46360232Y3993365D01*
X-46372080Y3880635D01*
X-46379504Y3810000D01*
X-58685170Y3810000D01*
X-58669843Y3821136D01*
X-58570747Y3893134D01*
X-58474589Y3999928D01*
X-58447379Y4030148D01*
X-58447378Y4030149D01*
X-58442960Y4035056D01*
X-58347473Y4200444D01*
X-58288458Y4382072D01*
X-58283893Y4425500D01*
X-58269186Y4565435D01*
X-58268496Y4572000D01*
X-58275920Y4642635D01*
X-58287768Y4755365D01*
X-58287768Y4755367D01*
X-58288458Y4761928D01*
X-58347473Y4943556D01*
X-58442960Y5108944D01*
X-58468936Y5137794D01*
X-58566325Y5245955D01*
X-58566326Y5245956D01*
X-58570747Y5250866D01*
X-58685171Y5334000D01*
X-58719906Y5359237D01*
X-58719907Y5359238D01*
X-58725248Y5363118D01*
X-58731276Y5365802D01*
X-58731278Y5365803D01*
X-58893681Y5438109D01*
X-58893682Y5438109D01*
X-58899712Y5440794D01*
X-59000536Y5462225D01*
X-59080056Y5479128D01*
X-59080061Y5479128D01*
X-59086513Y5480500D01*
X-59277487Y5480500D01*
X-59283939Y5479128D01*
X-59283944Y5479128D01*
X-59363464Y5462225D01*
X-59464288Y5440794D01*
X-59470318Y5438109D01*
X-59470319Y5438109D01*
X-59632722Y5365803D01*
X-59632724Y5365802D01*
X-59638752Y5363118D01*
X-59644093Y5359238D01*
X-59644094Y5359237D01*
X-59678829Y5334000D01*
X-59793253Y5250866D01*
X-59797674Y5245956D01*
X-59797675Y5245955D01*
X-59895063Y5137794D01*
X-59921040Y5108944D01*
X-60016527Y4943556D01*
X-60075542Y4761928D01*
X-60076232Y4755367D01*
X-60076232Y4755365D01*
X-60088080Y4642635D01*
X-60095504Y4572000D01*
X-60949500Y4572000D01*
X-60949500Y7112000D01*
X-46379504Y7112000D01*
X-46378814Y7105435D01*
X-46361143Y6937309D01*
X-46359542Y6922072D01*
X-46300527Y6740444D01*
X-46297224Y6734722D01*
X-46297223Y6734721D01*
X-46281584Y6707634D01*
X-46205040Y6575056D01*
X-46200622Y6570149D01*
X-46200621Y6570148D01*
X-46081675Y6438045D01*
X-46077253Y6433134D01*
X-45922752Y6320882D01*
X-45916724Y6318198D01*
X-45916722Y6318197D01*
X-45754319Y6245891D01*
X-45748288Y6243206D01*
X-45654887Y6223353D01*
X-45567944Y6204872D01*
X-45567939Y6204872D01*
X-45561487Y6203500D01*
X-45370513Y6203500D01*
X-45364061Y6204872D01*
X-45364056Y6204872D01*
X-45277112Y6223353D01*
X-45183712Y6243206D01*
X-45177681Y6245891D01*
X-45015278Y6318197D01*
X-45015276Y6318198D01*
X-45009248Y6320882D01*
X-44854747Y6433134D01*
X-44850325Y6438045D01*
X-44731379Y6570148D01*
X-44731378Y6570149D01*
X-44726960Y6575056D01*
X-44650416Y6707634D01*
X-44634777Y6734721D01*
X-44634776Y6734722D01*
X-44631473Y6740444D01*
X-44572458Y6922072D01*
X-44570856Y6937309D01*
X-44553186Y7105435D01*
X-44552496Y7112000D01*
X-44560675Y7189815D01*
X-44571768Y7295365D01*
X-44571768Y7295367D01*
X-44572458Y7301928D01*
X-44631473Y7483556D01*
X-44652006Y7519121D01*
X-44723659Y7643226D01*
X-44726960Y7648944D01*
X-44765050Y7691248D01*
X-44850325Y7785955D01*
X-44850326Y7785956D01*
X-44854747Y7790866D01*
X-44955948Y7864393D01*
X-45003906Y7899237D01*
X-45003907Y7899238D01*
X-45009248Y7903118D01*
X-45015276Y7905802D01*
X-45015278Y7905803D01*
X-45177681Y7978109D01*
X-45177682Y7978109D01*
X-45183712Y7980794D01*
X-45277112Y8000647D01*
X-45364056Y8019128D01*
X-45364061Y8019128D01*
X-45370513Y8020500D01*
X-45561487Y8020500D01*
X-45567939Y8019128D01*
X-45567944Y8019128D01*
X-45654888Y8000647D01*
X-45748288Y7980794D01*
X-45754318Y7978109D01*
X-45754319Y7978109D01*
X-45916722Y7905803D01*
X-45916724Y7905802D01*
X-45922752Y7903118D01*
X-45928093Y7899238D01*
X-45928094Y7899237D01*
X-45976052Y7864393D01*
X-46077253Y7790866D01*
X-46081674Y7785956D01*
X-46081675Y7785955D01*
X-46166949Y7691248D01*
X-46205040Y7648944D01*
X-46208341Y7643226D01*
X-46279993Y7519121D01*
X-46300527Y7483556D01*
X-46359542Y7301928D01*
X-46360232Y7295367D01*
X-46360232Y7295365D01*
X-46371325Y7189815D01*
X-46379504Y7112000D01*
X-60949500Y7112000D01*
X-60949500Y10668000D01*
X-55968156Y10668000D01*
X-55967726Y10662811D01*
X-55952639Y10480746D01*
X-55949564Y10443632D01*
X-55948283Y10438574D01*
X-55948283Y10438573D01*
X-55912201Y10296091D01*
X-55894296Y10225384D01*
X-55892200Y10220606D01*
X-55824755Y10066846D01*
X-55803860Y10019209D01*
X-55801010Y10014847D01*
X-55801008Y10014843D01*
X-55716722Y9885834D01*
X-55680722Y9830732D01*
X-55677197Y9826903D01*
X-55677194Y9826899D01*
X-55616411Y9760872D01*
X-55528240Y9665094D01*
X-55524121Y9661888D01*
X-55405350Y9569444D01*
X-55350576Y9526811D01*
X-55345995Y9524332D01*
X-55159187Y9423237D01*
X-55152574Y9419658D01*
X-54939635Y9346556D01*
X-54934501Y9345699D01*
X-54934496Y9345698D01*
X-54722706Y9310357D01*
X-54722704Y9310357D01*
X-54717569Y9309500D01*
X-54492431Y9309500D01*
X-54487296Y9310357D01*
X-54487294Y9310357D01*
X-54275504Y9345698D01*
X-54275499Y9345699D01*
X-54270365Y9346556D01*
X-54057426Y9419658D01*
X-54050812Y9423237D01*
X-53864005Y9524332D01*
X-53859424Y9526811D01*
X-53804649Y9569444D01*
X-53685879Y9661888D01*
X-53681760Y9665094D01*
X-53635884Y9714928D01*
X-53620755Y9731362D01*
X-53559901Y9767933D01*
X-53488937Y9765798D01*
X-53430392Y9725636D01*
X-53409998Y9690057D01*
X-53365889Y9571796D01*
X-53360490Y9564584D01*
X-53360489Y9564582D01*
X-53334610Y9530012D01*
X-53278261Y9454739D01*
X-53271050Y9449341D01*
X-53244950Y9429803D01*
X-53161204Y9367111D01*
X-53024201Y9316011D01*
X-52987295Y9312043D01*
X-52966988Y9309860D01*
X-52966985Y9309860D01*
X-52963638Y9309500D01*
X-51166362Y9309500D01*
X-51163015Y9309860D01*
X-51163012Y9309860D01*
X-51142705Y9312043D01*
X-51105799Y9316011D01*
X-50968796Y9367111D01*
X-50885049Y9429803D01*
X-50858950Y9449341D01*
X-50851739Y9454739D01*
X-50795390Y9530012D01*
X-50769511Y9564582D01*
X-50769510Y9564584D01*
X-50764111Y9571796D01*
X-50734196Y9652000D01*
X-45617504Y9652000D01*
X-45616814Y9645435D01*
X-45602176Y9506166D01*
X-45597542Y9462072D01*
X-45538527Y9280444D01*
X-45535224Y9274722D01*
X-45535223Y9274721D01*
X-45531931Y9269019D01*
X-45443040Y9115056D01*
X-45315253Y8973134D01*
X-45301058Y8962821D01*
X-45194470Y8885380D01*
X-45160752Y8860882D01*
X-45154724Y8858198D01*
X-45154722Y8858197D01*
X-45004396Y8791268D01*
X-44986288Y8783206D01*
X-44892888Y8763353D01*
X-44805944Y8744872D01*
X-44805939Y8744872D01*
X-44799487Y8743500D01*
X-44608513Y8743500D01*
X-44602061Y8744872D01*
X-44602056Y8744872D01*
X-44515113Y8763353D01*
X-44421712Y8783206D01*
X-44403604Y8791268D01*
X-44253278Y8858197D01*
X-44253276Y8858198D01*
X-44247248Y8860882D01*
X-44213529Y8885380D01*
X-44106942Y8962821D01*
X-44092747Y8973134D01*
X-43964960Y9115056D01*
X-43876069Y9269019D01*
X-43872777Y9274721D01*
X-43872776Y9274722D01*
X-43869473Y9280444D01*
X-43810458Y9462072D01*
X-43805823Y9506166D01*
X-43791186Y9645435D01*
X-43790496Y9652000D01*
X-43799753Y9740079D01*
X-43809768Y9835365D01*
X-43809768Y9835367D01*
X-43810458Y9841928D01*
X-43869473Y10023556D01*
X-43894466Y10066846D01*
X-43961659Y10183226D01*
X-43964960Y10188944D01*
X-43993468Y10220606D01*
X-44088325Y10325955D01*
X-44088326Y10325956D01*
X-44092747Y10330866D01*
X-44247248Y10443118D01*
X-44253276Y10445802D01*
X-44253278Y10445803D01*
X-44415681Y10518109D01*
X-44415682Y10518109D01*
X-44421712Y10520794D01*
X-44515113Y10540647D01*
X-44602056Y10559128D01*
X-44602061Y10559128D01*
X-44608513Y10560500D01*
X-44799487Y10560500D01*
X-44805939Y10559128D01*
X-44805944Y10559128D01*
X-44892888Y10540647D01*
X-44986288Y10520794D01*
X-44992318Y10518109D01*
X-44992319Y10518109D01*
X-45154722Y10445803D01*
X-45154724Y10445802D01*
X-45160752Y10443118D01*
X-45315253Y10330866D01*
X-45319674Y10325956D01*
X-45319675Y10325955D01*
X-45414531Y10220606D01*
X-45443040Y10188944D01*
X-45446341Y10183226D01*
X-45513533Y10066846D01*
X-45538527Y10023556D01*
X-45597542Y9841928D01*
X-45598232Y9835367D01*
X-45598232Y9835365D01*
X-45608247Y9740079D01*
X-45617504Y9652000D01*
X-50734196Y9652000D01*
X-50713011Y9708799D01*
X-50706500Y9769362D01*
X-50706500Y10668000D01*
X-42569504Y10668000D01*
X-42568814Y10661435D01*
X-42554176Y10522166D01*
X-42549542Y10478072D01*
X-42490527Y10296444D01*
X-42395040Y10131056D01*
X-42390622Y10126149D01*
X-42390621Y10126148D01*
X-42271817Y9994203D01*
X-42267253Y9989134D01*
X-42216726Y9952424D01*
X-42125073Y9885834D01*
X-42112752Y9876882D01*
X-42106724Y9874198D01*
X-42106722Y9874197D01*
X-41958395Y9808158D01*
X-41938288Y9799206D01*
X-41844887Y9779353D01*
X-41757944Y9760872D01*
X-41757939Y9760872D01*
X-41751487Y9759500D01*
X-41560513Y9759500D01*
X-41554061Y9760872D01*
X-41554056Y9760872D01*
X-41467113Y9779353D01*
X-41373712Y9799206D01*
X-41353605Y9808158D01*
X-41205278Y9874197D01*
X-41205276Y9874198D01*
X-41199248Y9876882D01*
X-41186926Y9885834D01*
X-41095274Y9952424D01*
X-41044747Y9989134D01*
X-41040183Y9994203D01*
X-40921379Y10126148D01*
X-40921378Y10126149D01*
X-40916960Y10131056D01*
X-40821473Y10296444D01*
X-40762458Y10478072D01*
X-40757823Y10522166D01*
X-40743186Y10661435D01*
X-40742496Y10668000D01*
X-40758317Y10818533D01*
X-40761768Y10851365D01*
X-40761768Y10851367D01*
X-40762458Y10857928D01*
X-40821473Y11039556D01*
X-40829945Y11054231D01*
X-40913659Y11199226D01*
X-40916960Y11204944D01*
X-40929439Y11218804D01*
X-41040325Y11341955D01*
X-41040326Y11341956D01*
X-41044747Y11346866D01*
X-41199248Y11459118D01*
X-41205276Y11461802D01*
X-41205278Y11461803D01*
X-41367681Y11534109D01*
X-41367682Y11534109D01*
X-41373712Y11536794D01*
X-41498266Y11563269D01*
X-41554056Y11575128D01*
X-41554061Y11575128D01*
X-41560513Y11576500D01*
X-41751487Y11576500D01*
X-41757939Y11575128D01*
X-41757944Y11575128D01*
X-41813734Y11563269D01*
X-41938288Y11536794D01*
X-41944318Y11534109D01*
X-41944319Y11534109D01*
X-42106722Y11461803D01*
X-42106724Y11461802D01*
X-42112752Y11459118D01*
X-42267253Y11346866D01*
X-42271674Y11341956D01*
X-42271675Y11341955D01*
X-42382560Y11218804D01*
X-42395040Y11204944D01*
X-42398341Y11199226D01*
X-42482054Y11054231D01*
X-42490527Y11039556D01*
X-42549542Y10857928D01*
X-42550232Y10851367D01*
X-42550232Y10851365D01*
X-42553683Y10818533D01*
X-42569504Y10668000D01*
X-50706500Y10668000D01*
X-50706500Y11566638D01*
X-50713011Y11627201D01*
X-50764111Y11764204D01*
X-50775620Y11779579D01*
X-50846341Y11874050D01*
X-50851739Y11881261D01*
X-50968796Y11968889D01*
X-51105799Y12019989D01*
X-51142705Y12023957D01*
X-51163012Y12026140D01*
X-51163015Y12026140D01*
X-51166362Y12026500D01*
X-52963638Y12026500D01*
X-52966985Y12026140D01*
X-52966988Y12026140D01*
X-52987295Y12023957D01*
X-53024201Y12019989D01*
X-53161204Y11968889D01*
X-53278261Y11881261D01*
X-53283659Y11874050D01*
X-53354379Y11779579D01*
X-53365889Y11764204D01*
X-53403583Y11663142D01*
X-53409998Y11645944D01*
X-53452545Y11589108D01*
X-53519065Y11564297D01*
X-53588439Y11579388D01*
X-53620755Y11604638D01*
X-53662776Y11650284D01*
X-53681760Y11670906D01*
X-53711815Y11694299D01*
X-53855311Y11805988D01*
X-53855313Y11805990D01*
X-53859424Y11809189D01*
X-54057426Y11916342D01*
X-54270365Y11989444D01*
X-54275499Y11990301D01*
X-54275504Y11990302D01*
X-54487294Y12025643D01*
X-54487296Y12025643D01*
X-54492431Y12026500D01*
X-54717569Y12026500D01*
X-54722704Y12025643D01*
X-54722706Y12025643D01*
X-54934496Y11990302D01*
X-54934501Y11990301D01*
X-54939635Y11989444D01*
X-55152574Y11916342D01*
X-55350576Y11809189D01*
X-55354687Y11805990D01*
X-55354689Y11805988D01*
X-55498185Y11694299D01*
X-55528240Y11670906D01*
X-55547224Y11650284D01*
X-55677194Y11509101D01*
X-55677197Y11509097D01*
X-55680722Y11505268D01*
X-55683573Y11500904D01*
X-55797073Y11327179D01*
X-55803860Y11316791D01*
X-55894296Y11110616D01*
X-55895578Y11105555D01*
X-55895578Y11105554D01*
X-55948283Y10897427D01*
X-55949564Y10892368D01*
X-55949994Y10887177D01*
X-55949995Y10887172D01*
X-55961674Y10746227D01*
X-55968156Y10668000D01*
X-60949500Y10668000D01*
X-60949500Y13462000D01*
X-30123504Y13462000D01*
X-30103542Y13272072D01*
X-30044527Y13090444D01*
X-29949040Y12925056D01*
X-29821253Y12783134D01*
X-29666752Y12670882D01*
X-29660724Y12668198D01*
X-29660722Y12668197D01*
X-29583323Y12633737D01*
X-29492288Y12593206D01*
X-29398887Y12573353D01*
X-29311944Y12554872D01*
X-29311939Y12554872D01*
X-29305487Y12553500D01*
X-29114513Y12553500D01*
X-29108061Y12554872D01*
X-29108056Y12554872D01*
X-29021112Y12573353D01*
X-28927712Y12593206D01*
X-28836677Y12633737D01*
X-28759278Y12668197D01*
X-28759276Y12668198D01*
X-28753248Y12670882D01*
X-28598747Y12783134D01*
X-28470960Y12925056D01*
X-28375473Y13090444D01*
X-28316458Y13272072D01*
X-28296496Y13462000D01*
X-28316458Y13651928D01*
X-28375473Y13833556D01*
X-28470960Y13998944D01*
X-28598747Y14140866D01*
X-28753248Y14253118D01*
X-28759276Y14255802D01*
X-28759278Y14255803D01*
X-28921681Y14328109D01*
X-28921682Y14328109D01*
X-28927712Y14330794D01*
X-29021112Y14350647D01*
X-29108056Y14369128D01*
X-29108061Y14369128D01*
X-29114513Y14370500D01*
X-29305487Y14370500D01*
X-29311939Y14369128D01*
X-29311944Y14369128D01*
X-29398888Y14350647D01*
X-29492288Y14330794D01*
X-29498318Y14328109D01*
X-29498319Y14328109D01*
X-29660722Y14255803D01*
X-29660724Y14255802D01*
X-29666752Y14253118D01*
X-29821253Y14140866D01*
X-29949040Y13998944D01*
X-30044527Y13833556D01*
X-30103542Y13651928D01*
X-30123504Y13462000D01*
X-60949500Y13462000D01*
X-60949500Y14986000D01*
X-36981504Y14986000D01*
X-36961542Y14796072D01*
X-36902527Y14614444D01*
X-36807040Y14449056D01*
X-36679253Y14307134D01*
X-36524752Y14194882D01*
X-36518724Y14192198D01*
X-36518722Y14192197D01*
X-36356319Y14119891D01*
X-36350288Y14117206D01*
X-36256887Y14097353D01*
X-36169944Y14078872D01*
X-36169939Y14078872D01*
X-36163487Y14077500D01*
X-35972513Y14077500D01*
X-35966061Y14078872D01*
X-35966056Y14078872D01*
X-35879112Y14097353D01*
X-35785712Y14117206D01*
X-35779681Y14119891D01*
X-35617278Y14192197D01*
X-35617276Y14192198D01*
X-35611248Y14194882D01*
X-35456747Y14307134D01*
X-35328960Y14449056D01*
X-35233473Y14614444D01*
X-35174458Y14796072D01*
X-35154496Y14986000D01*
X-35174458Y15175928D01*
X-35233473Y15357556D01*
X-35328960Y15522944D01*
X-35456747Y15664866D01*
X-35611248Y15777118D01*
X-35617276Y15779802D01*
X-35617278Y15779803D01*
X-35779681Y15852109D01*
X-35779682Y15852109D01*
X-35785712Y15854794D01*
X-35879113Y15874647D01*
X-35966056Y15893128D01*
X-35966061Y15893128D01*
X-35972513Y15894500D01*
X-36163487Y15894500D01*
X-36169939Y15893128D01*
X-36169944Y15893128D01*
X-36256887Y15874647D01*
X-36350288Y15854794D01*
X-36356318Y15852109D01*
X-36356319Y15852109D01*
X-36518722Y15779803D01*
X-36518724Y15779802D01*
X-36524752Y15777118D01*
X-36679253Y15664866D01*
X-36807040Y15522944D01*
X-36902527Y15357556D01*
X-36961542Y15175928D01*
X-36981504Y14986000D01*
X-60949500Y14986000D01*
X-60949500Y19050000D01*
X-48919504Y19050000D01*
X-48918814Y19043435D01*
X-48908808Y18948237D01*
X-48899542Y18860072D01*
X-48840527Y18678444D01*
X-48745040Y18513056D01*
X-48617253Y18371134D01*
X-48462752Y18258882D01*
X-48456724Y18256198D01*
X-48456722Y18256197D01*
X-48294319Y18183891D01*
X-48288288Y18181206D01*
X-48224112Y18167565D01*
X-48107944Y18142872D01*
X-48107939Y18142872D01*
X-48101487Y18141500D01*
X-47910513Y18141500D01*
X-47904061Y18142872D01*
X-47904056Y18142872D01*
X-47818773Y18161000D01*
X-40575823Y18161000D01*
X-40575133Y18154435D01*
X-40573773Y18141500D01*
X-40555861Y17971072D01*
X-40496846Y17789444D01*
X-40401359Y17624056D01*
X-40396941Y17619149D01*
X-40396940Y17619148D01*
X-40293184Y17503915D01*
X-40273572Y17482134D01*
X-40119071Y17369882D01*
X-40113043Y17367198D01*
X-40113041Y17367197D01*
X-39950638Y17294891D01*
X-39944607Y17292206D01*
X-39851206Y17272353D01*
X-39764263Y17253872D01*
X-39764258Y17253872D01*
X-39757806Y17252500D01*
X-39566832Y17252500D01*
X-39560380Y17253872D01*
X-39560375Y17253872D01*
X-39473432Y17272353D01*
X-39380031Y17292206D01*
X-39374000Y17294891D01*
X-39211597Y17367197D01*
X-39211595Y17367198D01*
X-39205567Y17369882D01*
X-39051066Y17482134D01*
X-39031454Y17503916D01*
X-38971009Y17541154D01*
X-38900025Y17539802D01*
X-38844184Y17503916D01*
X-38824572Y17482134D01*
X-38670071Y17369882D01*
X-38664043Y17367198D01*
X-38664041Y17367197D01*
X-38501638Y17294891D01*
X-38495607Y17292206D01*
X-38402206Y17272353D01*
X-38315263Y17253872D01*
X-38315258Y17253872D01*
X-38308806Y17252500D01*
X-38117832Y17252500D01*
X-38111380Y17253872D01*
X-38111375Y17253872D01*
X-38024432Y17272353D01*
X-37931031Y17292206D01*
X-37925000Y17294891D01*
X-37762597Y17367197D01*
X-37762595Y17367198D01*
X-37756567Y17369882D01*
X-37602066Y17482134D01*
X-37582454Y17503915D01*
X-37478698Y17619148D01*
X-37478697Y17619149D01*
X-37474279Y17624056D01*
X-37378792Y17789444D01*
X-37319777Y17971072D01*
X-37301864Y18141500D01*
X-37300505Y18154435D01*
X-37299815Y18161000D01*
X-37300505Y18167565D01*
X-37319087Y18344365D01*
X-37319087Y18344367D01*
X-37319777Y18350928D01*
X-37378792Y18532556D01*
X-37474279Y18697944D01*
X-37550141Y18782198D01*
X-37597644Y18834955D01*
X-37597648Y18834959D01*
X-37602066Y18839866D01*
X-37756567Y18952118D01*
X-37762595Y18954802D01*
X-37762597Y18954803D01*
X-37925000Y19027109D01*
X-37925001Y19027109D01*
X-37931031Y19029794D01*
X-38026092Y19050000D01*
X-38111375Y19068128D01*
X-38111380Y19068128D01*
X-38117832Y19069500D01*
X-38308806Y19069500D01*
X-38315258Y19068128D01*
X-38315263Y19068128D01*
X-38400546Y19050000D01*
X-38495607Y19029794D01*
X-38501637Y19027109D01*
X-38501638Y19027109D01*
X-38664041Y18954803D01*
X-38664043Y18954802D01*
X-38670071Y18952118D01*
X-38824572Y18839866D01*
X-38844184Y18818084D01*
X-38904629Y18780846D01*
X-38975613Y18782198D01*
X-39031454Y18818084D01*
X-39051066Y18839866D01*
X-39205567Y18952118D01*
X-39211595Y18954802D01*
X-39211597Y18954803D01*
X-39374000Y19027109D01*
X-39374001Y19027109D01*
X-39380031Y19029794D01*
X-39475092Y19050000D01*
X-39560375Y19068128D01*
X-39560380Y19068128D01*
X-39566832Y19069500D01*
X-39757806Y19069500D01*
X-39764258Y19068128D01*
X-39764263Y19068128D01*
X-39849546Y19050000D01*
X-39944607Y19029794D01*
X-39950637Y19027109D01*
X-39950638Y19027109D01*
X-40113041Y18954803D01*
X-40113043Y18954802D01*
X-40119071Y18952118D01*
X-40273572Y18839866D01*
X-40277990Y18834959D01*
X-40277994Y18834955D01*
X-40325496Y18782198D01*
X-40401359Y18697944D01*
X-40496846Y18532556D01*
X-40555861Y18350928D01*
X-40556551Y18344367D01*
X-40556551Y18344365D01*
X-40575133Y18167565D01*
X-40575823Y18161000D01*
X-47818773Y18161000D01*
X-47787888Y18167565D01*
X-47723712Y18181206D01*
X-47717681Y18183891D01*
X-47555278Y18256197D01*
X-47555276Y18256198D01*
X-47549248Y18258882D01*
X-47394747Y18371134D01*
X-47266960Y18513056D01*
X-47171473Y18678444D01*
X-47112458Y18860072D01*
X-47103191Y18948237D01*
X-47093186Y19043435D01*
X-47092496Y19050000D01*
X-47094401Y19068128D01*
X-47111768Y19233365D01*
X-47111768Y19233367D01*
X-47112458Y19239928D01*
X-47171473Y19421556D01*
X-47266960Y19586944D01*
X-47394747Y19728866D01*
X-47549248Y19841118D01*
X-47555276Y19843802D01*
X-47555278Y19843803D01*
X-47717681Y19916109D01*
X-47717682Y19916109D01*
X-47723712Y19918794D01*
X-47817113Y19938647D01*
X-47904056Y19957128D01*
X-47904061Y19957128D01*
X-47910513Y19958500D01*
X-48101487Y19958500D01*
X-48107939Y19957128D01*
X-48107944Y19957128D01*
X-48194887Y19938647D01*
X-48288288Y19918794D01*
X-48294318Y19916109D01*
X-48294319Y19916109D01*
X-48456722Y19843803D01*
X-48456724Y19843802D01*
X-48462752Y19841118D01*
X-48617253Y19728866D01*
X-48745040Y19586944D01*
X-48840527Y19421556D01*
X-48899542Y19239928D01*
X-48900232Y19233367D01*
X-48900232Y19233365D01*
X-48917599Y19068128D01*
X-48919504Y19050000D01*
X-60949500Y19050000D01*
X-60949500Y20716362D01*
X-45783500Y20716362D01*
X-45776989Y20655799D01*
X-45725889Y20518796D01*
X-45720490Y20511584D01*
X-45720489Y20511582D01*
X-45694610Y20477012D01*
X-45638261Y20401739D01*
X-45521204Y20314111D01*
X-45384201Y20263011D01*
X-45347295Y20259043D01*
X-45326988Y20256860D01*
X-45326985Y20256860D01*
X-45323638Y20256500D01*
X-43526362Y20256500D01*
X-43523015Y20256860D01*
X-43523012Y20256860D01*
X-43502705Y20259043D01*
X-43465799Y20263011D01*
X-43328796Y20314111D01*
X-43211739Y20401739D01*
X-43155390Y20477012D01*
X-43129511Y20511582D01*
X-43129510Y20511584D01*
X-43124111Y20518796D01*
X-43080002Y20637056D01*
X-43037455Y20693892D01*
X-42970935Y20718703D01*
X-42901561Y20703612D01*
X-42869245Y20678362D01*
X-42848474Y20655799D01*
X-42808240Y20612094D01*
X-42630576Y20473811D01*
X-42625995Y20471332D01*
X-42511421Y20409328D01*
X-42432574Y20366658D01*
X-42219635Y20293556D01*
X-42214501Y20292699D01*
X-42214496Y20292698D01*
X-42002706Y20257357D01*
X-42002704Y20257357D01*
X-41997569Y20256500D01*
X-41772431Y20256500D01*
X-41767296Y20257357D01*
X-41767294Y20257357D01*
X-41555504Y20292698D01*
X-41555499Y20292699D01*
X-41550365Y20293556D01*
X-41337426Y20366658D01*
X-41258578Y20409328D01*
X-41144005Y20471332D01*
X-41139424Y20473811D01*
X-40961760Y20612094D01*
X-40877511Y20703612D01*
X-40812806Y20773899D01*
X-40812803Y20773903D01*
X-40809278Y20777732D01*
X-40720184Y20914101D01*
X-40666180Y20960189D01*
X-40595832Y20969764D01*
X-40531475Y20939786D01*
X-40509218Y20914101D01*
X-40423177Y20782407D01*
X-40416790Y20774201D01*
X-40271432Y20616300D01*
X-40263789Y20609263D01*
X-40094411Y20477431D01*
X-40085718Y20471752D01*
X-39896957Y20369599D01*
X-39887440Y20365425D01*
X-39684443Y20295736D01*
X-39674373Y20293185D01*
X-39616867Y20283589D01*
X-39603352Y20285223D01*
X-39599222Y20298723D01*
X-39091000Y20298723D01*
X-39087164Y20285660D01*
X-39072416Y20283709D01*
X-39015627Y20293185D01*
X-39005557Y20295736D01*
X-38802560Y20365425D01*
X-38793043Y20369599D01*
X-38604282Y20471752D01*
X-38595589Y20477431D01*
X-38426211Y20609263D01*
X-38418568Y20616300D01*
X-38273210Y20774201D01*
X-38266823Y20782407D01*
X-38180782Y20914101D01*
X-38126778Y20960189D01*
X-38056430Y20969764D01*
X-37992073Y20939786D01*
X-37969817Y20914102D01*
X-37880722Y20777732D01*
X-37877197Y20773903D01*
X-37877194Y20773899D01*
X-37812489Y20703612D01*
X-37728240Y20612094D01*
X-37550576Y20473811D01*
X-37545995Y20471332D01*
X-37431421Y20409328D01*
X-37352574Y20366658D01*
X-37139635Y20293556D01*
X-37134501Y20292699D01*
X-37134496Y20292698D01*
X-36922706Y20257357D01*
X-36922704Y20257357D01*
X-36917569Y20256500D01*
X-36692431Y20256500D01*
X-36687296Y20257357D01*
X-36687294Y20257357D01*
X-36475504Y20292698D01*
X-36475499Y20292699D01*
X-36470365Y20293556D01*
X-36257426Y20366658D01*
X-36178578Y20409328D01*
X-36064005Y20471332D01*
X-36059424Y20473811D01*
X-35881760Y20612094D01*
X-35797511Y20703612D01*
X-35732806Y20773899D01*
X-35732803Y20773903D01*
X-35729278Y20777732D01*
X-35640483Y20913643D01*
X-35586479Y20959732D01*
X-35516132Y20969307D01*
X-35451774Y20939330D01*
X-35429517Y20913643D01*
X-35340722Y20777732D01*
X-35337197Y20773903D01*
X-35337194Y20773899D01*
X-35272489Y20703612D01*
X-35188240Y20612094D01*
X-35010576Y20473811D01*
X-35005995Y20471332D01*
X-34891421Y20409328D01*
X-34812574Y20366658D01*
X-34599635Y20293556D01*
X-34594501Y20292699D01*
X-34594496Y20292698D01*
X-34382706Y20257357D01*
X-34382704Y20257357D01*
X-34377569Y20256500D01*
X-34152431Y20256500D01*
X-34147296Y20257357D01*
X-34147294Y20257357D01*
X-33935504Y20292698D01*
X-33935499Y20292699D01*
X-33930365Y20293556D01*
X-33717426Y20366658D01*
X-33638578Y20409328D01*
X-33524005Y20471332D01*
X-33519424Y20473811D01*
X-33341760Y20612094D01*
X-33257511Y20703612D01*
X-33192806Y20773899D01*
X-33192803Y20773903D01*
X-33189278Y20777732D01*
X-33100483Y20913643D01*
X-33046479Y20959732D01*
X-32976132Y20969307D01*
X-32911774Y20939330D01*
X-32889517Y20913643D01*
X-32800722Y20777732D01*
X-32797197Y20773903D01*
X-32797194Y20773899D01*
X-32732489Y20703612D01*
X-32648240Y20612094D01*
X-32470576Y20473811D01*
X-32465995Y20471332D01*
X-32351421Y20409328D01*
X-32272574Y20366658D01*
X-32059635Y20293556D01*
X-32054501Y20292699D01*
X-32054496Y20292698D01*
X-31842706Y20257357D01*
X-31842704Y20257357D01*
X-31837569Y20256500D01*
X-31612431Y20256500D01*
X-31607296Y20257357D01*
X-31607294Y20257357D01*
X-31395504Y20292698D01*
X-31395499Y20292699D01*
X-31390365Y20293556D01*
X-31177426Y20366658D01*
X-31098578Y20409328D01*
X-30984005Y20471332D01*
X-30979424Y20473811D01*
X-30801760Y20612094D01*
X-30717511Y20703612D01*
X-30652806Y20773899D01*
X-30652803Y20773903D01*
X-30649278Y20777732D01*
X-30543701Y20939330D01*
X-30528992Y20961843D01*
X-30528990Y20961847D01*
X-30526140Y20966209D01*
X-30435704Y21172384D01*
X-30380436Y21390632D01*
X-30361844Y21615000D01*
X-30380436Y21839368D01*
X-30435704Y22057616D01*
X-30526140Y22263791D01*
X-30530371Y22270268D01*
X-30646427Y22447904D01*
X-30649278Y22452268D01*
X-30652803Y22456097D01*
X-30652806Y22456101D01*
X-30798228Y22614069D01*
X-30801760Y22617906D01*
X-30979424Y22756189D01*
X-31177426Y22863342D01*
X-31390365Y22936444D01*
X-31395499Y22937301D01*
X-31395504Y22937302D01*
X-31607294Y22972643D01*
X-31607296Y22972643D01*
X-31612431Y22973500D01*
X-31837569Y22973500D01*
X-31842704Y22972643D01*
X-31842706Y22972643D01*
X-32054496Y22937302D01*
X-32054501Y22937301D01*
X-32059635Y22936444D01*
X-32272574Y22863342D01*
X-32470576Y22756189D01*
X-32648240Y22617906D01*
X-32651772Y22614069D01*
X-32797194Y22456101D01*
X-32797197Y22456097D01*
X-32800722Y22452268D01*
X-32803573Y22447904D01*
X-32889517Y22316357D01*
X-32943521Y22270268D01*
X-33013868Y22260693D01*
X-33078226Y22290670D01*
X-33100483Y22316357D01*
X-33186427Y22447904D01*
X-33189278Y22452268D01*
X-33192803Y22456097D01*
X-33192806Y22456101D01*
X-33338228Y22614069D01*
X-33341760Y22617906D01*
X-33519424Y22756189D01*
X-33717426Y22863342D01*
X-33930365Y22936444D01*
X-33935499Y22937301D01*
X-33935504Y22937302D01*
X-34147294Y22972643D01*
X-34147296Y22972643D01*
X-34152431Y22973500D01*
X-34377569Y22973500D01*
X-34382704Y22972643D01*
X-34382706Y22972643D01*
X-34594496Y22937302D01*
X-34594501Y22937301D01*
X-34599635Y22936444D01*
X-34812574Y22863342D01*
X-35010576Y22756189D01*
X-35188240Y22617906D01*
X-35191772Y22614069D01*
X-35337194Y22456101D01*
X-35337197Y22456097D01*
X-35340722Y22452268D01*
X-35343573Y22447904D01*
X-35429517Y22316357D01*
X-35483521Y22270268D01*
X-35553868Y22260693D01*
X-35618226Y22290670D01*
X-35640483Y22316357D01*
X-35726427Y22447904D01*
X-35729278Y22452268D01*
X-35732803Y22456097D01*
X-35732806Y22456101D01*
X-35878228Y22614069D01*
X-35881760Y22617906D01*
X-36059424Y22756189D01*
X-36257426Y22863342D01*
X-36470365Y22936444D01*
X-36475499Y22937301D01*
X-36475504Y22937302D01*
X-36687294Y22972643D01*
X-36687296Y22972643D01*
X-36692431Y22973500D01*
X-36917569Y22973500D01*
X-36922704Y22972643D01*
X-36922706Y22972643D01*
X-37134496Y22937302D01*
X-37134501Y22937301D01*
X-37139635Y22936444D01*
X-37352574Y22863342D01*
X-37550576Y22756189D01*
X-37728240Y22617906D01*
X-37731772Y22614069D01*
X-37877194Y22456101D01*
X-37877197Y22456097D01*
X-37880722Y22452268D01*
X-37883569Y22447910D01*
X-37969816Y22315899D01*
X-38023820Y22269811D01*
X-38094168Y22260236D01*
X-38158525Y22290214D01*
X-38180782Y22315899D01*
X-38266823Y22447593D01*
X-38273210Y22455799D01*
X-38418568Y22613700D01*
X-38426211Y22620737D01*
X-38595589Y22752569D01*
X-38604282Y22758248D01*
X-38793043Y22860401D01*
X-38802560Y22864575D01*
X-39005557Y22934264D01*
X-39015627Y22936815D01*
X-39073133Y22946411D01*
X-39086648Y22944777D01*
X-39091000Y22930551D01*
X-39091000Y20298723D01*
X-39599222Y20298723D01*
X-39599000Y20299449D01*
X-39599000Y22931277D01*
X-39602836Y22944340D01*
X-39617584Y22946291D01*
X-39674373Y22936815D01*
X-39684443Y22934264D01*
X-39887440Y22864575D01*
X-39896957Y22860401D01*
X-40085718Y22758248D01*
X-40094411Y22752569D01*
X-40263789Y22620737D01*
X-40271432Y22613700D01*
X-40416790Y22455799D01*
X-40423177Y22447593D01*
X-40509218Y22315899D01*
X-40563222Y22269811D01*
X-40633570Y22260236D01*
X-40697927Y22290214D01*
X-40720184Y22315899D01*
X-40806431Y22447910D01*
X-40809278Y22452268D01*
X-40812803Y22456097D01*
X-40812806Y22456101D01*
X-40958228Y22614069D01*
X-40961760Y22617906D01*
X-41139424Y22756189D01*
X-41337426Y22863342D01*
X-41550365Y22936444D01*
X-41555499Y22937301D01*
X-41555504Y22937302D01*
X-41767294Y22972643D01*
X-41767296Y22972643D01*
X-41772431Y22973500D01*
X-41997569Y22973500D01*
X-42002704Y22972643D01*
X-42002706Y22972643D01*
X-42214496Y22937302D01*
X-42214501Y22937301D01*
X-42219635Y22936444D01*
X-42432574Y22863342D01*
X-42630576Y22756189D01*
X-42808240Y22617906D01*
X-42811772Y22614069D01*
X-42869245Y22551638D01*
X-42930099Y22515067D01*
X-43001063Y22517202D01*
X-43059608Y22557364D01*
X-43080002Y22592944D01*
X-43120962Y22702761D01*
X-43120963Y22702763D01*
X-43124111Y22711204D01*
X-43155076Y22752569D01*
X-43206341Y22821050D01*
X-43211739Y22828261D01*
X-43328796Y22915889D01*
X-43465799Y22966989D01*
X-43502705Y22970957D01*
X-43523012Y22973140D01*
X-43523015Y22973140D01*
X-43526362Y22973500D01*
X-45323638Y22973500D01*
X-45326985Y22973140D01*
X-45326988Y22973140D01*
X-45347295Y22970957D01*
X-45384201Y22966989D01*
X-45521204Y22915889D01*
X-45638261Y22828261D01*
X-45643659Y22821050D01*
X-45694923Y22752569D01*
X-45725889Y22711204D01*
X-45776989Y22574201D01*
X-45783500Y22513638D01*
X-45783500Y20716362D01*
X-60949500Y20716362D01*
X-60949500Y23993500D01*
X-60929498Y24061621D01*
X-60875842Y24108114D01*
X-60823500Y24119500D01*
X-22986000Y24119500D01*
X-22917879Y24099498D01*
G37*
%TD.AperFunction*%
%TA.AperFunction,Conductor*%
G36*
X-31445955Y7264077D02*
G01*
X-31444752Y7263203D01*
X-31359106Y7225071D01*
X-31283144Y7191251D01*
X-31270288Y7185527D01*
X-31190926Y7168658D01*
X-31089944Y7147193D01*
X-31089939Y7147193D01*
X-31083487Y7145821D01*
X-31000334Y7145821D01*
X-30932213Y7125819D01*
X-30885720Y7072163D01*
X-30875616Y7001889D01*
X-30905110Y6937309D01*
X-30911239Y6930726D01*
X-31888253Y5953712D01*
X-31896539Y5946172D01*
X-31903018Y5942060D01*
X-31908443Y5936283D01*
X-31949643Y5892409D01*
X-31952398Y5889567D01*
X-31972135Y5869830D01*
X-31974615Y5866633D01*
X-31982318Y5857613D01*
X-32012586Y5825381D01*
X-32016405Y5818435D01*
X-32016407Y5818432D01*
X-32022348Y5807626D01*
X-32033199Y5791107D01*
X-32045614Y5775101D01*
X-32048759Y5767832D01*
X-32048762Y5767828D01*
X-32063174Y5734523D01*
X-32068391Y5723873D01*
X-32089695Y5685120D01*
X-32091666Y5677445D01*
X-32091666Y5677444D01*
X-32094733Y5665498D01*
X-32101137Y5646794D01*
X-32109181Y5628205D01*
X-32110420Y5620382D01*
X-32110423Y5620372D01*
X-32116099Y5584536D01*
X-32118505Y5572916D01*
X-32129500Y5530090D01*
X-32129500Y5509836D01*
X-32131051Y5490126D01*
X-32134220Y5470117D01*
X-32133474Y5462225D01*
X-32130059Y5426099D01*
X-32129500Y5414241D01*
X-32129500Y-6040406D01*
X-32149502Y-6108527D01*
X-32203158Y-6155020D01*
X-32273432Y-6165124D01*
X-32338012Y-6135630D01*
X-32344595Y-6129501D01*
X-32846032Y-5628063D01*
X-33492595Y-4981500D01*
X-33526621Y-4919188D01*
X-33529500Y-4892405D01*
X-33529500Y6812976D01*
X-33509498Y6881097D01*
X-33497142Y6897279D01*
X-33480020Y6916295D01*
X-33419576Y6953533D01*
X-33348592Y6952181D01*
X-33289608Y6912667D01*
X-33277270Y6894988D01*
X-33251040Y6849556D01*
X-33246622Y6844649D01*
X-33246621Y6844648D01*
X-33195043Y6787365D01*
X-33123253Y6707634D01*
X-32968752Y6595382D01*
X-32962724Y6592698D01*
X-32962722Y6592697D01*
X-32800319Y6520391D01*
X-32794288Y6517706D01*
X-32700887Y6497853D01*
X-32613944Y6479372D01*
X-32613939Y6479372D01*
X-32607487Y6478000D01*
X-32416513Y6478000D01*
X-32410061Y6479372D01*
X-32410056Y6479372D01*
X-32323113Y6497853D01*
X-32229712Y6517706D01*
X-32223681Y6520391D01*
X-32061278Y6592697D01*
X-32061276Y6592698D01*
X-32055248Y6595382D01*
X-31900747Y6707634D01*
X-31828957Y6787365D01*
X-31777379Y6844648D01*
X-31777378Y6844649D01*
X-31772960Y6849556D01*
X-31698482Y6978556D01*
X-31680777Y7009221D01*
X-31680776Y7009222D01*
X-31677473Y7014944D01*
X-31620653Y7189816D01*
X-31580581Y7248421D01*
X-31515184Y7276058D01*
X-31445955Y7264077D01*
G37*
%TD.AperFunction*%
%TD*%
%TA.AperFunction,Conductor*%
%TO.N,GND*%
G36*
X23299621Y24099498D02*
G01*
X23346114Y24045842D01*
X23357500Y23993500D01*
X23357500Y1120904D01*
X23337498Y1052783D01*
X23283842Y1006290D01*
X23213568Y996186D01*
X23148988Y1025680D01*
X23112032Y1080862D01*
X23012937Y1376523D01*
X23012935Y1376528D01*
X23012009Y1379291D01*
X22843323Y1761328D01*
X22830701Y1783990D01*
X22641529Y2123617D01*
X22640107Y2126170D01*
X22404094Y2470706D01*
X22195587Y2721802D01*
X22139156Y2789760D01*
X22139153Y2789763D01*
X22137299Y2791996D01*
X21841996Y3087299D01*
X21780595Y3138286D01*
X21618842Y3272603D01*
X21520706Y3354094D01*
X21176170Y3590107D01*
X20811328Y3793323D01*
X20429291Y3962009D01*
X20426528Y3962935D01*
X20426523Y3962937D01*
X20109508Y4069189D01*
X20033319Y4094725D01*
X20030485Y4095391D01*
X20030480Y4095393D01*
X19849867Y4137873D01*
X19626791Y4190340D01*
X19623906Y4190742D01*
X19623903Y4190743D01*
X19351825Y4228696D01*
X19213175Y4248037D01*
X19210291Y4248170D01*
X19210284Y4248171D01*
X18798898Y4267190D01*
X18796000Y4267324D01*
X18793102Y4267190D01*
X18381716Y4248171D01*
X18381709Y4248170D01*
X18378825Y4248037D01*
X18240175Y4228696D01*
X17968097Y4190743D01*
X17968094Y4190742D01*
X17965209Y4190340D01*
X17742133Y4137873D01*
X17561520Y4095393D01*
X17561515Y4095391D01*
X17558681Y4094725D01*
X17482492Y4069189D01*
X17165477Y3962937D01*
X17165472Y3962935D01*
X17162709Y3962009D01*
X16780672Y3793323D01*
X16415830Y3590107D01*
X16071294Y3354094D01*
X15973158Y3272603D01*
X15811406Y3138286D01*
X15750004Y3087299D01*
X15454701Y2791996D01*
X15452847Y2789763D01*
X15452844Y2789760D01*
X15396413Y2721802D01*
X15187906Y2470706D01*
X14951893Y2126170D01*
X14950471Y2123617D01*
X14761300Y1783990D01*
X14748677Y1761328D01*
X14579991Y1379291D01*
X14579065Y1376528D01*
X14579063Y1376523D01*
X14549998Y1289804D01*
X14447275Y983319D01*
X14351660Y576791D01*
X14293963Y163175D01*
X14293830Y160291D01*
X14293829Y160284D01*
X14282466Y-85510D01*
X14274676Y-254000D01*
X14274810Y-256898D01*
X14292291Y-635000D01*
X14293963Y-671175D01*
X14351660Y-1084791D01*
X14383099Y-1218460D01*
X14435877Y-1442856D01*
X14447275Y-1491319D01*
X14579991Y-1887291D01*
X14748677Y-2269328D01*
X14951893Y-2634170D01*
X15187906Y-2978706D01*
X15309892Y-3125609D01*
X15441876Y-3284551D01*
X15454701Y-3299996D01*
X15750004Y-3595299D01*
X15752237Y-3597153D01*
X15752240Y-3597156D01*
X15910649Y-3728696D01*
X16071294Y-3862094D01*
X16415830Y-4098107D01*
X16780672Y-4301323D01*
X17162709Y-4470009D01*
X17165472Y-4470935D01*
X17165477Y-4470937D01*
X17358678Y-4535691D01*
X17558681Y-4602725D01*
X17561515Y-4603391D01*
X17561520Y-4603393D01*
X17742133Y-4645873D01*
X17965209Y-4698340D01*
X17968094Y-4698742D01*
X17968097Y-4698743D01*
X18240175Y-4736696D01*
X18378825Y-4756037D01*
X18381709Y-4756170D01*
X18381716Y-4756171D01*
X18793102Y-4775190D01*
X18796000Y-4775324D01*
X18798898Y-4775190D01*
X19210284Y-4756171D01*
X19210291Y-4756170D01*
X19213175Y-4756037D01*
X19351825Y-4736696D01*
X19623903Y-4698743D01*
X19623906Y-4698742D01*
X19626791Y-4698340D01*
X19849867Y-4645873D01*
X20030480Y-4603393D01*
X20030485Y-4603391D01*
X20033319Y-4602725D01*
X20233322Y-4535691D01*
X20426523Y-4470937D01*
X20426528Y-4470935D01*
X20429291Y-4470009D01*
X20811328Y-4301323D01*
X21176170Y-4098107D01*
X21520706Y-3862094D01*
X21681351Y-3728696D01*
X21839760Y-3597156D01*
X21839763Y-3597153D01*
X21841996Y-3595299D01*
X22137299Y-3299996D01*
X22150125Y-3284551D01*
X22282108Y-3125609D01*
X22404094Y-2978706D01*
X22640107Y-2634170D01*
X22843323Y-2269328D01*
X23012009Y-1887291D01*
X23084485Y-1671053D01*
X23112032Y-1588862D01*
X23152645Y-1530629D01*
X23218294Y-1503598D01*
X23288136Y-1516350D01*
X23339997Y-1564838D01*
X23357500Y-1628904D01*
X23357500Y-16373500D01*
X23337498Y-16441621D01*
X23283842Y-16488114D01*
X23231500Y-16499500D01*
X7148711Y-16499500D01*
X7080590Y-16479498D01*
X7034097Y-16425842D01*
X7023993Y-16355568D01*
X7053487Y-16290988D01*
X7058395Y-16285930D01*
X7058658Y-16285725D01*
X7217649Y-16113014D01*
X7220503Y-16108646D01*
X7343192Y-15920856D01*
X7343194Y-15920852D01*
X7346044Y-15916490D01*
X7366793Y-15869188D01*
X7438249Y-15706285D01*
X7438250Y-15706283D01*
X7440342Y-15701513D01*
X7457202Y-15634937D01*
X7496689Y-15479006D01*
X7496689Y-15479005D01*
X7497970Y-15473947D01*
X7502203Y-15422871D01*
X7516925Y-15245189D01*
X7517355Y-15240000D01*
X7510446Y-15156623D01*
X7498401Y-15011249D01*
X7498400Y-15011244D01*
X7497970Y-15006053D01*
X7475175Y-14916037D01*
X7441622Y-14783540D01*
X7441620Y-14783536D01*
X7440342Y-14778487D01*
X7433022Y-14761798D01*
X7348139Y-14568286D01*
X7346044Y-14563510D01*
X7279283Y-14461323D01*
X7220503Y-14371354D01*
X7220501Y-14371352D01*
X7217649Y-14366986D01*
X7058658Y-14194275D01*
X6873407Y-14050089D01*
X6777517Y-13998196D01*
X6671537Y-13940842D01*
X6671534Y-13940841D01*
X6666952Y-13938361D01*
X6444922Y-13862138D01*
X6439788Y-13861281D01*
X6439783Y-13861280D01*
X6218512Y-13824357D01*
X6218510Y-13824357D01*
X6213375Y-13823500D01*
X5978625Y-13823500D01*
X5973490Y-13824357D01*
X5973488Y-13824357D01*
X5752217Y-13861280D01*
X5752212Y-13861281D01*
X5747078Y-13862138D01*
X5525048Y-13938361D01*
X5520466Y-13940841D01*
X5520463Y-13940842D01*
X5414483Y-13998196D01*
X5318593Y-14050089D01*
X5133342Y-14194275D01*
X4974351Y-14366986D01*
X4971499Y-14371352D01*
X4971497Y-14371354D01*
X4912718Y-14461323D01*
X4845956Y-14563510D01*
X4843861Y-14568286D01*
X4758979Y-14761798D01*
X4751658Y-14778487D01*
X4750380Y-14783536D01*
X4750378Y-14783540D01*
X4716825Y-14916037D01*
X4694030Y-15006053D01*
X4693600Y-15011244D01*
X4693599Y-15011249D01*
X4681554Y-15156623D01*
X4674645Y-15240000D01*
X4675075Y-15245189D01*
X4689798Y-15422871D01*
X4694030Y-15473947D01*
X4695311Y-15479005D01*
X4695311Y-15479006D01*
X4734799Y-15634937D01*
X4751658Y-15701513D01*
X4753750Y-15706283D01*
X4753751Y-15706285D01*
X4825207Y-15869188D01*
X4845956Y-15916490D01*
X4848806Y-15920852D01*
X4848808Y-15920856D01*
X4971497Y-16108646D01*
X4974351Y-16113014D01*
X4977886Y-16116854D01*
X5133342Y-16285725D01*
X5132214Y-16286764D01*
X5165200Y-16341660D01*
X5163061Y-16412625D01*
X5122895Y-16471167D01*
X5057455Y-16498701D01*
X5043289Y-16499500D01*
X-22099000Y-16499500D01*
X-22167121Y-16479498D01*
X-22213614Y-16425842D01*
X-22225000Y-16373500D01*
X-22225000Y-14855812D01*
X-16896031Y-14855812D01*
X-16895907Y-14875900D01*
X-16873090Y-15074845D01*
X-16861705Y-15127647D01*
X-16861249Y-15129314D01*
X-16835207Y-15224582D01*
X-16832379Y-15234929D01*
X-16830419Y-15239324D01*
X-16830418Y-15239327D01*
X-16753344Y-15412163D01*
X-16750822Y-15417818D01*
X-16747249Y-15422867D01*
X-16747247Y-15422871D01*
X-16674526Y-15525639D01*
X-16635153Y-15581281D01*
X-16588660Y-15634937D01*
X-16457618Y-15761381D01*
X-16452681Y-15764617D01*
X-16452679Y-15764618D01*
X-16295309Y-15867750D01*
X-16295306Y-15867752D01*
X-16290131Y-15871143D01*
X-16284393Y-15873460D01*
X-16284391Y-15873461D01*
X-16107319Y-15944962D01*
X-16107314Y-15944964D01*
X-16104448Y-15946121D01*
X-16101475Y-15946994D01*
X-16101472Y-15946995D01*
X-16065056Y-15957688D01*
X-16036327Y-15966123D01*
X-15969493Y-15982547D01*
X-15952195Y-15986798D01*
X-15952193Y-15986798D01*
X-15947824Y-15987872D01*
X-15943343Y-15988313D01*
X-15943339Y-15988314D01*
X-15751619Y-16007197D01*
X-15751612Y-16007197D01*
X-15748539Y-16007500D01*
X-6474996Y-16007500D01*
X-6377068Y-15997170D01*
X-6265158Y-15985366D01*
X-6265152Y-15985365D01*
X-6261862Y-15985018D01*
X-6229842Y-15978187D01*
X-6212026Y-15974386D01*
X-6212018Y-15974384D01*
X-6210438Y-15974047D01*
X-6208859Y-15973624D01*
X-6113307Y-15948026D01*
X-6113305Y-15948025D01*
X-6108750Y-15946805D01*
X-5925215Y-15866714D01*
X-5920142Y-15863185D01*
X-5920137Y-15863182D01*
X-5763371Y-15754123D01*
X-5760831Y-15752356D01*
X-5706805Y-15706294D01*
X-5579312Y-15576264D01*
X-5545554Y-15525639D01*
X-5471648Y-15414808D01*
X-5471646Y-15414804D01*
X-5468215Y-15409659D01*
X-5391756Y-15224582D01*
X-5371210Y-15156623D01*
X-5370863Y-15155260D01*
X-5349861Y-15072657D01*
X-5349860Y-15072650D01*
X-5348754Y-15068301D01*
X-5327533Y-14869180D01*
X-5327508Y-14866095D01*
X-5310179Y-12700000D01*
X-4596355Y-12700000D01*
X-4595925Y-12705189D01*
X-4587447Y-12807500D01*
X-4576970Y-12933947D01*
X-4575689Y-12939005D01*
X-4575689Y-12939006D01*
X-4524551Y-13140942D01*
X-4519342Y-13161513D01*
X-4517250Y-13166283D01*
X-4517249Y-13166285D01*
X-4436231Y-13350986D01*
X-4425044Y-13376490D01*
X-4296649Y-13573014D01*
X-4137658Y-13745725D01*
X-4133549Y-13748923D01*
X-4133547Y-13748925D01*
X-4116122Y-13762487D01*
X-3952407Y-13889911D01*
X-3947824Y-13892391D01*
X-3750537Y-13999158D01*
X-3750534Y-13999159D01*
X-3745952Y-14001639D01*
X-3523922Y-14077862D01*
X-3518788Y-14078719D01*
X-3518783Y-14078720D01*
X-3297512Y-14115643D01*
X-3297510Y-14115643D01*
X-3292375Y-14116500D01*
X-3057625Y-14116500D01*
X-3052490Y-14115643D01*
X-3052488Y-14115643D01*
X-2831217Y-14078720D01*
X-2831212Y-14078719D01*
X-2826078Y-14077862D01*
X-2604048Y-14001639D01*
X-2599462Y-13999157D01*
X-2594692Y-13997065D01*
X-2594196Y-13998196D01*
X-2530528Y-13984602D01*
X-2485625Y-13997787D01*
X-2485308Y-13997065D01*
X-2480538Y-13999157D01*
X-2475952Y-14001639D01*
X-2253922Y-14077862D01*
X-2248788Y-14078719D01*
X-2248783Y-14078720D01*
X-2027512Y-14115643D01*
X-2027510Y-14115643D01*
X-2022375Y-14116500D01*
X-1787625Y-14116500D01*
X-1782490Y-14115643D01*
X-1782488Y-14115643D01*
X-1561217Y-14078720D01*
X-1561212Y-14078719D01*
X-1556078Y-14077862D01*
X-1334048Y-14001639D01*
X-1329466Y-13999159D01*
X-1329463Y-13999158D01*
X-1132176Y-13892391D01*
X-1127593Y-13889911D01*
X-963878Y-13762487D01*
X-946453Y-13748925D01*
X-946451Y-13748923D01*
X-942342Y-13745725D01*
X-783351Y-13573014D01*
X-654956Y-13376490D01*
X-643769Y-13350986D01*
X-562751Y-13166285D01*
X-562750Y-13166283D01*
X-560658Y-13161513D01*
X-555448Y-13140942D01*
X-504311Y-12939006D01*
X-504311Y-12939005D01*
X-503030Y-12933947D01*
X-492552Y-12807500D01*
X-484075Y-12705189D01*
X-483645Y-12700000D01*
X-503030Y-12466053D01*
X-504311Y-12460994D01*
X-559378Y-12243540D01*
X-559380Y-12243536D01*
X-560658Y-12238487D01*
X-614555Y-12115614D01*
X-623602Y-12045196D01*
X-614555Y-12014386D01*
X-562751Y-11896285D01*
X-562750Y-11896283D01*
X-560658Y-11891513D01*
X-503030Y-11663947D01*
X-502212Y-11654084D01*
X-484075Y-11435189D01*
X-483645Y-11430000D01*
X-498756Y-11247634D01*
X-502599Y-11201249D01*
X-502600Y-11201244D01*
X-503030Y-11196053D01*
X-560658Y-10968487D01*
X-614555Y-10845614D01*
X-623602Y-10775196D01*
X-614555Y-10744386D01*
X-562751Y-10626285D01*
X-562750Y-10626283D01*
X-560658Y-10621513D01*
X-508108Y-10414000D01*
X13766676Y-10414000D01*
X13766810Y-10416898D01*
X13784291Y-10795000D01*
X13785963Y-10831175D01*
X13843660Y-11244791D01*
X13939275Y-11651319D01*
X14071991Y-12047291D01*
X14240677Y-12429328D01*
X14443893Y-12794170D01*
X14679906Y-13138706D01*
X14681763Y-13140942D01*
X14856181Y-13350986D01*
X14946701Y-13459996D01*
X15242004Y-13755299D01*
X15244237Y-13757153D01*
X15244240Y-13757156D01*
X15400259Y-13886712D01*
X15563294Y-14022094D01*
X15907830Y-14258107D01*
X15910383Y-14259529D01*
X16266611Y-14457947D01*
X16272672Y-14461323D01*
X16654709Y-14630009D01*
X16657472Y-14630935D01*
X16657477Y-14630937D01*
X16820311Y-14685513D01*
X17050681Y-14762725D01*
X17053515Y-14763391D01*
X17053520Y-14763393D01*
X17234133Y-14805873D01*
X17457209Y-14858340D01*
X17460094Y-14858742D01*
X17460097Y-14858743D01*
X17558783Y-14872509D01*
X17870825Y-14916037D01*
X17873709Y-14916170D01*
X17873716Y-14916171D01*
X18285102Y-14935190D01*
X18288000Y-14935324D01*
X18290898Y-14935190D01*
X18702284Y-14916171D01*
X18702291Y-14916170D01*
X18705175Y-14916037D01*
X19017217Y-14872509D01*
X19115903Y-14858743D01*
X19115906Y-14858742D01*
X19118791Y-14858340D01*
X19341867Y-14805873D01*
X19522480Y-14763393D01*
X19522485Y-14763391D01*
X19525319Y-14762725D01*
X19755689Y-14685513D01*
X19918523Y-14630937D01*
X19918528Y-14630935D01*
X19921291Y-14630009D01*
X20303328Y-14461323D01*
X20309390Y-14457947D01*
X20665617Y-14259529D01*
X20668170Y-14258107D01*
X21012706Y-14022094D01*
X21175741Y-13886712D01*
X21331760Y-13757156D01*
X21331763Y-13757153D01*
X21333996Y-13755299D01*
X21629299Y-13459996D01*
X21719820Y-13350986D01*
X21894237Y-13140942D01*
X21896094Y-13138706D01*
X22132107Y-12794170D01*
X22335323Y-12429328D01*
X22504009Y-12047291D01*
X22636725Y-11651319D01*
X22732340Y-11244791D01*
X22790037Y-10831175D01*
X22791710Y-10795000D01*
X22809190Y-10416898D01*
X22809324Y-10414000D01*
X22790037Y-9996825D01*
X22770696Y-9858175D01*
X22732743Y-9586097D01*
X22732742Y-9586094D01*
X22732340Y-9583209D01*
X22636725Y-9176681D01*
X22504009Y-8780709D01*
X22335323Y-8398672D01*
X22281428Y-8301911D01*
X22133529Y-8036383D01*
X22132107Y-8033830D01*
X21896094Y-7689294D01*
X21717202Y-7473862D01*
X21631156Y-7370240D01*
X21631153Y-7370237D01*
X21629299Y-7368004D01*
X21333996Y-7072701D01*
X21213755Y-6972854D01*
X21173351Y-6939304D01*
X21012706Y-6805906D01*
X20668170Y-6569893D01*
X20426907Y-6435510D01*
X20305885Y-6368101D01*
X20305881Y-6368099D01*
X20303328Y-6366677D01*
X19921291Y-6197991D01*
X19918528Y-6197065D01*
X19918523Y-6197063D01*
X19601508Y-6090811D01*
X19525319Y-6065275D01*
X19522485Y-6064609D01*
X19522480Y-6064607D01*
X19301836Y-6012712D01*
X19118791Y-5969660D01*
X19115906Y-5969258D01*
X19115903Y-5969257D01*
X18777766Y-5922089D01*
X18705175Y-5911963D01*
X18702291Y-5911830D01*
X18702284Y-5911829D01*
X18290898Y-5892810D01*
X18288000Y-5892676D01*
X18285102Y-5892810D01*
X17873716Y-5911829D01*
X17873709Y-5911830D01*
X17870825Y-5911963D01*
X17798234Y-5922089D01*
X17460097Y-5969257D01*
X17460094Y-5969258D01*
X17457209Y-5969660D01*
X17274164Y-6012712D01*
X17053520Y-6064607D01*
X17053515Y-6064609D01*
X17050681Y-6065275D01*
X16974492Y-6090811D01*
X16657477Y-6197063D01*
X16657472Y-6197065D01*
X16654709Y-6197991D01*
X16272672Y-6366677D01*
X16270119Y-6368099D01*
X16270115Y-6368101D01*
X16149093Y-6435510D01*
X15907830Y-6569893D01*
X15563294Y-6805906D01*
X15402649Y-6939304D01*
X15362246Y-6972854D01*
X15242004Y-7072701D01*
X14946701Y-7368004D01*
X14944847Y-7370237D01*
X14944844Y-7370240D01*
X14858798Y-7473862D01*
X14679906Y-7689294D01*
X14443893Y-8033830D01*
X14442471Y-8036383D01*
X14294573Y-8301911D01*
X14240677Y-8398672D01*
X14071991Y-8780709D01*
X13939275Y-9176681D01*
X13843660Y-9583209D01*
X13843258Y-9586094D01*
X13843257Y-9586097D01*
X13805304Y-9858175D01*
X13785963Y-9996825D01*
X13766676Y-10414000D01*
X-508108Y-10414000D01*
X-503030Y-10393947D01*
X-483645Y-10160000D01*
X-496926Y-9999716D01*
X-502599Y-9931249D01*
X-502600Y-9931244D01*
X-503030Y-9926053D01*
X-560658Y-9698487D01*
X-614555Y-9575614D01*
X-623602Y-9505196D01*
X-614555Y-9474386D01*
X-562751Y-9356285D01*
X-562750Y-9356283D01*
X-560658Y-9351513D01*
X-503030Y-9123947D01*
X-483645Y-8890000D01*
X-485434Y-8868414D01*
X-502599Y-8661249D01*
X-502600Y-8661244D01*
X-503030Y-8656053D01*
X-535331Y-8528500D01*
X-559378Y-8433540D01*
X-559380Y-8433536D01*
X-560658Y-8428487D01*
X-572563Y-8401345D01*
X-652861Y-8218286D01*
X-654956Y-8213510D01*
X-773917Y-8031425D01*
X-780497Y-8021354D01*
X-780499Y-8021352D01*
X-783351Y-8016986D01*
X-942342Y-7844275D01*
X-1127593Y-7700089D01*
X-1302566Y-7605398D01*
X-1329463Y-7590842D01*
X-1329466Y-7590841D01*
X-1334048Y-7588361D01*
X-1556078Y-7512138D01*
X-1561212Y-7511281D01*
X-1561217Y-7511280D01*
X-1782488Y-7474357D01*
X-1782490Y-7474357D01*
X-1787625Y-7473500D01*
X-2022375Y-7473500D01*
X-2027510Y-7474357D01*
X-2027512Y-7474357D01*
X-2248783Y-7511280D01*
X-2248788Y-7511281D01*
X-2253922Y-7512138D01*
X-2475952Y-7588361D01*
X-2480536Y-7590842D01*
X-2485308Y-7592935D01*
X-2485804Y-7591804D01*
X-2549472Y-7605398D01*
X-2594375Y-7592213D01*
X-2594692Y-7592935D01*
X-2599464Y-7590842D01*
X-2604048Y-7588361D01*
X-2826078Y-7512138D01*
X-2831212Y-7511281D01*
X-2831217Y-7511280D01*
X-3052488Y-7474357D01*
X-3052490Y-7474357D01*
X-3057625Y-7473500D01*
X-3292375Y-7473500D01*
X-3297510Y-7474357D01*
X-3297512Y-7474357D01*
X-3518783Y-7511280D01*
X-3518788Y-7511281D01*
X-3523922Y-7512138D01*
X-3745952Y-7588361D01*
X-3750534Y-7590841D01*
X-3750537Y-7590842D01*
X-3777434Y-7605398D01*
X-3952407Y-7700089D01*
X-4137658Y-7844275D01*
X-4296649Y-8016986D01*
X-4299501Y-8021352D01*
X-4299503Y-8021354D01*
X-4306082Y-8031425D01*
X-4425044Y-8213510D01*
X-4427139Y-8218286D01*
X-4507436Y-8401345D01*
X-4519342Y-8428487D01*
X-4520620Y-8433536D01*
X-4520622Y-8433540D01*
X-4544669Y-8528500D01*
X-4576970Y-8656053D01*
X-4577400Y-8661244D01*
X-4577401Y-8661249D01*
X-4594566Y-8868414D01*
X-4596355Y-8890000D01*
X-4576970Y-9123947D01*
X-4519342Y-9351513D01*
X-4517250Y-9356283D01*
X-4517249Y-9356285D01*
X-4465445Y-9474386D01*
X-4456398Y-9544804D01*
X-4465445Y-9575614D01*
X-4519342Y-9698487D01*
X-4576970Y-9926053D01*
X-4577400Y-9931244D01*
X-4577401Y-9931249D01*
X-4583074Y-9999716D01*
X-4596355Y-10160000D01*
X-4576970Y-10393947D01*
X-4519342Y-10621513D01*
X-4517250Y-10626283D01*
X-4517249Y-10626285D01*
X-4465445Y-10744386D01*
X-4456398Y-10814804D01*
X-4465445Y-10845614D01*
X-4519342Y-10968487D01*
X-4576970Y-11196053D01*
X-4577400Y-11201244D01*
X-4577401Y-11201249D01*
X-4581244Y-11247634D01*
X-4596355Y-11430000D01*
X-4595925Y-11435189D01*
X-4577787Y-11654084D01*
X-4576970Y-11663947D01*
X-4519342Y-11891513D01*
X-4517250Y-11896283D01*
X-4517249Y-11896285D01*
X-4465445Y-12014386D01*
X-4456398Y-12084804D01*
X-4465445Y-12115614D01*
X-4519342Y-12238487D01*
X-4520620Y-12243536D01*
X-4520622Y-12243540D01*
X-4575689Y-12460994D01*
X-4576970Y-12466053D01*
X-4596355Y-12700000D01*
X-5310179Y-12700000D01*
X-5223819Y-1905000D01*
X-4596355Y-1905000D01*
X-4576970Y-2138947D01*
X-4575689Y-2144005D01*
X-4575689Y-2144006D01*
X-4543305Y-2271885D01*
X-4519342Y-2366513D01*
X-4425044Y-2581490D01*
X-4422194Y-2585852D01*
X-4422192Y-2585856D01*
X-4299503Y-2773646D01*
X-4296649Y-2778014D01*
X-4137658Y-2950725D01*
X-4133549Y-2953923D01*
X-4133547Y-2953925D01*
X-4050141Y-3018842D01*
X-3952407Y-3094911D01*
X-3885188Y-3131288D01*
X-3750537Y-3204158D01*
X-3750534Y-3204159D01*
X-3745952Y-3206639D01*
X-3523922Y-3282862D01*
X-3518788Y-3283719D01*
X-3518783Y-3283720D01*
X-3297512Y-3320643D01*
X-3297510Y-3320643D01*
X-3292375Y-3321500D01*
X-3057625Y-3321500D01*
X-3052490Y-3320643D01*
X-3052488Y-3320643D01*
X-2831217Y-3283720D01*
X-2831212Y-3283719D01*
X-2826078Y-3282862D01*
X-2604048Y-3206639D01*
X-2599462Y-3204157D01*
X-2594692Y-3202065D01*
X-2594196Y-3203196D01*
X-2530528Y-3189602D01*
X-2485625Y-3202787D01*
X-2485308Y-3202065D01*
X-2480538Y-3204157D01*
X-2475952Y-3206639D01*
X-2253922Y-3282862D01*
X-2248776Y-3283721D01*
X-2248775Y-3283721D01*
X-2243803Y-3284551D01*
X-2179902Y-3315490D01*
X-2142873Y-3376065D01*
X-2144470Y-3447043D01*
X-2159054Y-3477748D01*
X-2263192Y-3637144D01*
X-2266044Y-3641510D01*
X-2268139Y-3646286D01*
X-2344600Y-3820600D01*
X-2360342Y-3856487D01*
X-2361620Y-3861536D01*
X-2361622Y-3861540D01*
X-2406336Y-4038112D01*
X-2417970Y-4084053D01*
X-2418400Y-4089244D01*
X-2418401Y-4089249D01*
X-2428518Y-4211354D01*
X-2437355Y-4318000D01*
X-2436925Y-4323189D01*
X-2424759Y-4470009D01*
X-2417970Y-4551947D01*
X-2416689Y-4557005D01*
X-2416689Y-4557006D01*
X-2366388Y-4755637D01*
X-2360342Y-4779513D01*
X-2358250Y-4784283D01*
X-2358249Y-4784285D01*
X-2303417Y-4909288D01*
X-2266044Y-4994490D01*
X-2263194Y-4998852D01*
X-2263192Y-4998856D01*
X-2226674Y-5054751D01*
X-2137649Y-5191014D01*
X-1978658Y-5363725D01*
X-1974549Y-5366923D01*
X-1974547Y-5366925D01*
X-1832612Y-5477397D01*
X-1793407Y-5507911D01*
X-1788824Y-5510391D01*
X-1591537Y-5617158D01*
X-1591534Y-5617159D01*
X-1586952Y-5619639D01*
X-1364922Y-5695862D01*
X-1359788Y-5696719D01*
X-1359783Y-5696720D01*
X-1138512Y-5733643D01*
X-1138510Y-5733643D01*
X-1133375Y-5734500D01*
X-898625Y-5734500D01*
X-893490Y-5733643D01*
X-893488Y-5733643D01*
X-672217Y-5696720D01*
X-672212Y-5696719D01*
X-667078Y-5695862D01*
X-445048Y-5619639D01*
X-440466Y-5617159D01*
X-440463Y-5617158D01*
X-243176Y-5510391D01*
X-238593Y-5507911D01*
X-199388Y-5477397D01*
X-57453Y-5366925D01*
X-57451Y-5366923D01*
X-53342Y-5363725D01*
X105649Y-5191014D01*
X194674Y-5054751D01*
X231192Y-4998856D01*
X231194Y-4998852D01*
X234044Y-4994490D01*
X271417Y-4909288D01*
X307951Y-4826000D01*
X3404645Y-4826000D01*
X3405075Y-4831189D01*
X3423547Y-5054112D01*
X3424030Y-5059947D01*
X3425311Y-5065005D01*
X3425311Y-5065006D01*
X3466424Y-5227354D01*
X3481658Y-5287513D01*
X3575956Y-5502490D01*
X3578806Y-5506852D01*
X3578808Y-5506856D01*
X3701497Y-5694646D01*
X3704351Y-5699014D01*
X3863342Y-5871725D01*
X3867451Y-5874923D01*
X3867453Y-5874925D01*
X3972716Y-5956854D01*
X4048593Y-6015911D01*
X4053176Y-6018391D01*
X4250463Y-6125158D01*
X4250466Y-6125159D01*
X4255048Y-6127639D01*
X4477078Y-6203862D01*
X4482212Y-6204719D01*
X4482217Y-6204720D01*
X4703488Y-6241643D01*
X4703490Y-6241643D01*
X4708625Y-6242500D01*
X4943375Y-6242500D01*
X4948510Y-6241643D01*
X4948512Y-6241643D01*
X5169783Y-6204720D01*
X5169788Y-6204719D01*
X5174922Y-6203862D01*
X5396952Y-6127639D01*
X5427924Y-6110878D01*
X5475004Y-6085400D01*
X5544434Y-6070570D01*
X5610861Y-6095630D01*
X5627666Y-6110869D01*
X5641342Y-6125725D01*
X5645451Y-6128923D01*
X5645453Y-6128925D01*
X5739558Y-6202169D01*
X5826593Y-6269911D01*
X5831176Y-6272391D01*
X6028463Y-6379158D01*
X6028466Y-6379159D01*
X6033048Y-6381639D01*
X6255078Y-6457862D01*
X6260212Y-6458719D01*
X6260217Y-6458720D01*
X6481488Y-6495643D01*
X6481490Y-6495643D01*
X6486625Y-6496500D01*
X6721375Y-6496500D01*
X6726510Y-6495643D01*
X6726512Y-6495643D01*
X6947783Y-6458720D01*
X6947788Y-6458719D01*
X6952922Y-6457862D01*
X7174952Y-6381639D01*
X7179534Y-6379159D01*
X7179537Y-6379158D01*
X7376824Y-6272391D01*
X7381407Y-6269911D01*
X7468442Y-6202169D01*
X7562547Y-6128925D01*
X7562549Y-6128923D01*
X7566658Y-6125725D01*
X7725649Y-5953014D01*
X7728503Y-5948646D01*
X7851192Y-5760856D01*
X7851194Y-5760852D01*
X7854044Y-5756490D01*
X7948342Y-5541513D01*
X7956224Y-5510391D01*
X8004689Y-5319006D01*
X8004689Y-5319005D01*
X8005970Y-5313947D01*
X8008161Y-5287513D01*
X8024925Y-5085189D01*
X8025355Y-5080000D01*
X8005970Y-4846053D01*
X7983175Y-4756037D01*
X7949622Y-4623540D01*
X7949620Y-4623536D01*
X7948342Y-4618487D01*
X7941022Y-4601798D01*
X7856139Y-4408286D01*
X7854044Y-4403510D01*
X7831851Y-4369540D01*
X7728503Y-4211354D01*
X7728501Y-4211352D01*
X7725649Y-4206986D01*
X7566658Y-4034275D01*
X7467830Y-3957354D01*
X7385517Y-3893288D01*
X7385518Y-3893288D01*
X7381407Y-3890089D01*
X7253003Y-3820600D01*
X7179537Y-3780842D01*
X7179534Y-3780841D01*
X7174952Y-3778361D01*
X6952922Y-3702138D01*
X6947788Y-3701281D01*
X6947783Y-3701280D01*
X6726512Y-3664357D01*
X6726510Y-3664357D01*
X6721375Y-3663500D01*
X6486625Y-3663500D01*
X6481490Y-3664357D01*
X6481488Y-3664357D01*
X6260217Y-3701280D01*
X6260212Y-3701281D01*
X6255078Y-3702138D01*
X6033048Y-3778361D01*
X6028459Y-3780844D01*
X6028460Y-3780844D01*
X5954996Y-3820600D01*
X5885566Y-3835430D01*
X5819139Y-3810370D01*
X5802334Y-3795131D01*
X5788658Y-3780275D01*
X5767539Y-3763837D01*
X5607517Y-3639288D01*
X5607518Y-3639288D01*
X5603407Y-3636089D01*
X5517112Y-3589388D01*
X5401537Y-3526842D01*
X5401534Y-3526841D01*
X5396952Y-3524361D01*
X5174922Y-3448138D01*
X5169788Y-3447281D01*
X5169783Y-3447280D01*
X4948512Y-3410357D01*
X4948510Y-3410357D01*
X4943375Y-3409500D01*
X4708625Y-3409500D01*
X4703490Y-3410357D01*
X4703488Y-3410357D01*
X4482217Y-3447280D01*
X4482212Y-3447281D01*
X4477078Y-3448138D01*
X4255048Y-3524361D01*
X4250466Y-3526841D01*
X4250463Y-3526842D01*
X4134888Y-3589388D01*
X4048593Y-3636089D01*
X4044482Y-3639288D01*
X4044483Y-3639288D01*
X3884462Y-3763837D01*
X3863342Y-3780275D01*
X3704351Y-3952986D01*
X3701499Y-3957352D01*
X3701497Y-3957354D01*
X3598150Y-4115540D01*
X3575956Y-4149510D01*
X3481658Y-4364487D01*
X3480380Y-4369536D01*
X3480378Y-4369540D01*
X3454936Y-4470009D01*
X3424030Y-4592053D01*
X3423600Y-4597244D01*
X3423599Y-4597249D01*
X3407407Y-4792668D01*
X3404645Y-4826000D01*
X307951Y-4826000D01*
X326249Y-4784285D01*
X326250Y-4784283D01*
X328342Y-4779513D01*
X334389Y-4755637D01*
X384689Y-4557006D01*
X384689Y-4557005D01*
X385970Y-4551947D01*
X392760Y-4470009D01*
X404925Y-4323189D01*
X405355Y-4318000D01*
X396518Y-4211354D01*
X386401Y-4089249D01*
X386400Y-4089244D01*
X385970Y-4084053D01*
X374336Y-4038112D01*
X329622Y-3861540D01*
X329620Y-3861536D01*
X328342Y-3856487D01*
X312601Y-3820600D01*
X236139Y-3646286D01*
X234044Y-3641510D01*
X230503Y-3636089D01*
X108503Y-3449354D01*
X108501Y-3449352D01*
X105649Y-3444986D01*
X-53342Y-3272275D01*
X-137671Y-3206639D01*
X-234483Y-3131288D01*
X-234482Y-3131288D01*
X-238593Y-3128089D01*
X-324888Y-3081388D01*
X-440463Y-3018842D01*
X-440466Y-3018841D01*
X-445048Y-3016361D01*
X-667078Y-2940138D01*
X-672224Y-2939279D01*
X-672225Y-2939279D01*
X-677197Y-2938449D01*
X-741098Y-2907510D01*
X-778127Y-2846935D01*
X-776530Y-2775957D01*
X-761946Y-2745252D01*
X-657808Y-2585856D01*
X-657806Y-2585852D01*
X-654956Y-2581490D01*
X-560658Y-2366513D01*
X-536694Y-2271885D01*
X-504311Y-2144006D01*
X-504311Y-2144005D01*
X-503030Y-2138947D01*
X-483645Y-1905000D01*
X-503030Y-1671053D01*
X-512156Y-1635014D01*
X-559378Y-1448540D01*
X-559380Y-1448536D01*
X-560658Y-1443487D01*
X-614555Y-1320614D01*
X-623602Y-1250196D01*
X-614555Y-1219386D01*
X-562751Y-1101285D01*
X-562750Y-1101283D01*
X-560658Y-1096513D01*
X-558409Y-1087634D01*
X-504311Y-874006D01*
X-504311Y-874005D01*
X-503030Y-868947D01*
X-483645Y-635000D01*
X-503030Y-401053D01*
X-560658Y-173487D01*
X-562751Y-168715D01*
X-614555Y-50614D01*
X-623602Y19804D01*
X-614555Y50614D01*
X-562751Y168715D01*
X-562750Y168717D01*
X-560658Y173487D01*
X-549131Y219003D01*
X-504311Y395994D01*
X-504311Y395995D01*
X-503030Y401053D01*
X-500547Y431010D01*
X-484075Y629811D01*
X-483645Y635000D01*
X-502563Y863317D01*
X-502599Y863751D01*
X-502600Y863756D01*
X-503030Y868947D01*
X-532693Y986084D01*
X-559378Y1091460D01*
X-559380Y1091464D01*
X-560658Y1096513D01*
X-565477Y1107500D01*
X-614555Y1219386D01*
X-623602Y1289804D01*
X-614555Y1320614D01*
X-562751Y1438715D01*
X-562750Y1438717D01*
X-560658Y1443487D01*
X-503030Y1671053D01*
X-495549Y1761328D01*
X-484075Y1899811D01*
X-483645Y1905000D01*
X-489902Y1980514D01*
X-502599Y2133751D01*
X-502600Y2133756D01*
X-503030Y2138947D01*
X-560658Y2366513D01*
X-590898Y2435453D01*
X-599945Y2505869D01*
X-569485Y2570000D01*
X-535481Y2596879D01*
X-516432Y2607188D01*
X-497175Y2617609D01*
X-497172Y2617611D01*
X-492593Y2620089D01*
X-407733Y2686138D01*
X-311453Y2761075D01*
X-311451Y2761077D01*
X-307342Y2764275D01*
X-148351Y2936986D01*
X-145497Y2941354D01*
X-22808Y3129144D01*
X-22806Y3129148D01*
X-19956Y3133510D01*
X11033Y3204158D01*
X72249Y3343715D01*
X72250Y3343717D01*
X74342Y3348487D01*
X83119Y3383144D01*
X130689Y3570994D01*
X130689Y3570995D01*
X131970Y3576053D01*
X133253Y3591529D01*
X150925Y3804811D01*
X151355Y3810000D01*
X138857Y3960830D01*
X132401Y4038751D01*
X132400Y4038756D01*
X131970Y4043947D01*
X118942Y4095393D01*
X75622Y4266460D01*
X75620Y4266464D01*
X74342Y4271513D01*
X-19956Y4486490D01*
X-42149Y4520460D01*
X-145497Y4678646D01*
X-145499Y4678648D01*
X-148351Y4683014D01*
X-307342Y4855725D01*
X-406170Y4932646D01*
X-488483Y4996712D01*
X-488482Y4996712D01*
X-492593Y4999911D01*
X-688421Y5105888D01*
X-694463Y5109158D01*
X-694466Y5109159D01*
X-699048Y5111639D01*
X-921078Y5187862D01*
X-926212Y5188719D01*
X-926217Y5188720D01*
X-1147488Y5225643D01*
X-1147490Y5225643D01*
X-1152625Y5226500D01*
X-1387375Y5226500D01*
X-1392510Y5225643D01*
X-1392512Y5225643D01*
X-1613783Y5188720D01*
X-1613788Y5188719D01*
X-1618922Y5187862D01*
X-1840952Y5111639D01*
X-1845534Y5109159D01*
X-1845537Y5109158D01*
X-1851579Y5105888D01*
X-2047407Y4999911D01*
X-2051518Y4996712D01*
X-2051517Y4996712D01*
X-2133829Y4932646D01*
X-2232658Y4855725D01*
X-2391649Y4683014D01*
X-2394501Y4678648D01*
X-2394503Y4678646D01*
X-2497850Y4520460D01*
X-2520044Y4486490D01*
X-2614342Y4271513D01*
X-2615620Y4266464D01*
X-2615622Y4266460D01*
X-2658942Y4095393D01*
X-2671970Y4043947D01*
X-2672400Y4038756D01*
X-2672401Y4038751D01*
X-2678857Y3960830D01*
X-2691355Y3810000D01*
X-2690925Y3804811D01*
X-2673252Y3591529D01*
X-2671970Y3576053D01*
X-2670689Y3570995D01*
X-2670689Y3570994D01*
X-2633137Y3422706D01*
X-2635804Y3351760D01*
X-2676404Y3293518D01*
X-2742047Y3266472D01*
X-2796195Y3272603D01*
X-2821145Y3281169D01*
X-2821151Y3281170D01*
X-2826078Y3282862D01*
X-2831212Y3283719D01*
X-2831217Y3283720D01*
X-3052488Y3320643D01*
X-3052490Y3320643D01*
X-3057625Y3321500D01*
X-3292375Y3321500D01*
X-3297510Y3320643D01*
X-3297512Y3320643D01*
X-3518783Y3283720D01*
X-3518788Y3283719D01*
X-3523922Y3282862D01*
X-3745952Y3206639D01*
X-3750534Y3204159D01*
X-3750537Y3204158D01*
X-3781972Y3187146D01*
X-3952407Y3094911D01*
X-3956518Y3091712D01*
X-3956517Y3091712D01*
X-4050869Y3018275D01*
X-4137658Y2950725D01*
X-4296649Y2778014D01*
X-4299501Y2773648D01*
X-4299503Y2773646D01*
X-4414989Y2596880D01*
X-4425044Y2581490D01*
X-4427139Y2576714D01*
X-4500644Y2409139D01*
X-4519342Y2366513D01*
X-4576970Y2138947D01*
X-4577400Y2133756D01*
X-4577401Y2133751D01*
X-4590098Y1980514D01*
X-4596355Y1905000D01*
X-4595925Y1899811D01*
X-4584450Y1761328D01*
X-4576970Y1671053D01*
X-4519342Y1443487D01*
X-4517250Y1438717D01*
X-4517249Y1438715D01*
X-4465445Y1320614D01*
X-4456398Y1250196D01*
X-4465445Y1219386D01*
X-4514523Y1107500D01*
X-4519342Y1096513D01*
X-4520620Y1091464D01*
X-4520622Y1091460D01*
X-4547307Y986084D01*
X-4576970Y868947D01*
X-4577400Y863756D01*
X-4577401Y863751D01*
X-4577437Y863317D01*
X-4596355Y635000D01*
X-4595925Y629811D01*
X-4579452Y431010D01*
X-4576970Y401053D01*
X-4575689Y395995D01*
X-4575689Y395994D01*
X-4530868Y219003D01*
X-4519342Y173487D01*
X-4517250Y168717D01*
X-4517249Y168715D01*
X-4465445Y50614D01*
X-4456398Y-19804D01*
X-4465445Y-50614D01*
X-4517249Y-168715D01*
X-4519342Y-173487D01*
X-4576970Y-401053D01*
X-4596355Y-635000D01*
X-4576970Y-868947D01*
X-4575689Y-874005D01*
X-4575689Y-874006D01*
X-4521590Y-1087634D01*
X-4519342Y-1096513D01*
X-4517250Y-1101283D01*
X-4517249Y-1101285D01*
X-4465445Y-1219386D01*
X-4456398Y-1289804D01*
X-4465445Y-1320614D01*
X-4519342Y-1443487D01*
X-4520620Y-1448536D01*
X-4520622Y-1448540D01*
X-4567844Y-1635014D01*
X-4576970Y-1671053D01*
X-4596355Y-1905000D01*
X-5223819Y-1905000D01*
X-5167496Y5135322D01*
X-5146950Y5203281D01*
X-5092924Y5249343D01*
X-5022571Y5258884D01*
X-5000588Y5253487D01*
X-4950625Y5236335D01*
X-4920922Y5226138D01*
X-4915788Y5225281D01*
X-4915783Y5225280D01*
X-4694512Y5188357D01*
X-4694510Y5188357D01*
X-4689375Y5187500D01*
X-4454625Y5187500D01*
X-4449490Y5188357D01*
X-4449488Y5188357D01*
X-4228217Y5225280D01*
X-4228212Y5225281D01*
X-4223078Y5226138D01*
X-4001048Y5302361D01*
X-3996466Y5304841D01*
X-3996463Y5304842D01*
X-3799176Y5411609D01*
X-3794593Y5414089D01*
X-3673266Y5508521D01*
X-3613453Y5555075D01*
X-3613451Y5555077D01*
X-3609342Y5558275D01*
X-3450351Y5730986D01*
X-3398332Y5810607D01*
X-3324808Y5923144D01*
X-3324806Y5923148D01*
X-3321956Y5927510D01*
X-3314210Y5945170D01*
X-3229751Y6137715D01*
X-3229750Y6137717D01*
X-3227658Y6142487D01*
X-3170030Y6370053D01*
X-3154961Y6551906D01*
X-3151075Y6598811D01*
X-3150645Y6604000D01*
X-3158964Y6704396D01*
X-3144655Y6773936D01*
X-3095022Y6824701D01*
X-3054135Y6839082D01*
X-2967334Y6853567D01*
X-2831217Y6876280D01*
X-2831212Y6876281D01*
X-2826078Y6877138D01*
X-2604048Y6953361D01*
X-2599462Y6955843D01*
X-2594692Y6957935D01*
X-2594196Y6956804D01*
X-2530528Y6970398D01*
X-2485625Y6957213D01*
X-2485308Y6957935D01*
X-2480538Y6955843D01*
X-2475952Y6953361D01*
X-2253922Y6877138D01*
X-2248788Y6876281D01*
X-2248783Y6876280D01*
X-2027512Y6839357D01*
X-2027510Y6839357D01*
X-2022375Y6838500D01*
X-1787625Y6838500D01*
X-1782490Y6839357D01*
X-1782488Y6839357D01*
X-1561217Y6876280D01*
X-1561212Y6876281D01*
X-1556078Y6877138D01*
X-1334048Y6953361D01*
X-1329466Y6955841D01*
X-1329463Y6955842D01*
X-1132176Y7062609D01*
X-1127593Y7065089D01*
X-942342Y7209275D01*
X-783351Y7381986D01*
X-654956Y7578510D01*
X-567703Y7777425D01*
X-562751Y7788715D01*
X-562750Y7788717D01*
X-560658Y7793487D01*
X-517830Y7962607D01*
X-504311Y8015994D01*
X-504311Y8015995D01*
X-503030Y8021053D01*
X-497914Y8082788D01*
X-484075Y8249811D01*
X-483645Y8255000D01*
X-503030Y8488947D01*
X-504311Y8494006D01*
X-559378Y8711460D01*
X-559380Y8711464D01*
X-560658Y8716513D01*
X-614555Y8839386D01*
X-623602Y8909804D01*
X-614555Y8940614D01*
X-562751Y9058715D01*
X-562750Y9058717D01*
X-560658Y9063487D01*
X-503030Y9291053D01*
X-483645Y9525000D01*
X-485434Y9546586D01*
X-502599Y9753751D01*
X-502600Y9753756D01*
X-503030Y9758947D01*
X-560658Y9986513D01*
X-614555Y10109386D01*
X-621058Y10160000D01*
X14020676Y10160000D01*
X14020810Y10157102D01*
X14039218Y9758947D01*
X14039963Y9742825D01*
X14097660Y9329209D01*
X14107824Y9285994D01*
X14160158Y9063487D01*
X14193275Y8922681D01*
X14325991Y8526709D01*
X14494677Y8144672D01*
X14496099Y8142119D01*
X14496101Y8142115D01*
X14584884Y7982720D01*
X14697893Y7779830D01*
X14933906Y7435294D01*
X15200701Y7114004D01*
X15496004Y6818701D01*
X15498237Y6816847D01*
X15498240Y6816844D01*
X15633657Y6704396D01*
X15817294Y6551906D01*
X16161830Y6315893D01*
X16526672Y6112677D01*
X16908709Y5943991D01*
X16911472Y5943065D01*
X16911477Y5943063D01*
X16970908Y5923144D01*
X17304681Y5811275D01*
X17307515Y5810609D01*
X17307520Y5810607D01*
X17488133Y5768127D01*
X17711209Y5715660D01*
X17714094Y5715258D01*
X17714097Y5715257D01*
X17986175Y5677304D01*
X18124825Y5657963D01*
X18127709Y5657830D01*
X18127716Y5657829D01*
X18539102Y5638810D01*
X18542000Y5638676D01*
X18544898Y5638810D01*
X18956284Y5657829D01*
X18956291Y5657830D01*
X18959175Y5657963D01*
X19097825Y5677304D01*
X19369903Y5715257D01*
X19369906Y5715258D01*
X19372791Y5715660D01*
X19595867Y5768127D01*
X19776480Y5810607D01*
X19776485Y5810609D01*
X19779319Y5811275D01*
X20113092Y5923144D01*
X20172523Y5943063D01*
X20172528Y5943065D01*
X20175291Y5943991D01*
X20557328Y6112677D01*
X20922170Y6315893D01*
X21266706Y6551906D01*
X21450343Y6704396D01*
X21585760Y6816844D01*
X21585763Y6816847D01*
X21587996Y6818701D01*
X21883299Y7114004D01*
X22150094Y7435294D01*
X22386107Y7779830D01*
X22499116Y7982720D01*
X22587899Y8142115D01*
X22587901Y8142119D01*
X22589323Y8144672D01*
X22758009Y8526709D01*
X22890725Y8922681D01*
X22923843Y9063487D01*
X22976176Y9285994D01*
X22986340Y9329209D01*
X23044037Y9742825D01*
X23044783Y9758947D01*
X23063190Y10157102D01*
X23063324Y10160000D01*
X23055070Y10338540D01*
X23044171Y10574284D01*
X23044170Y10574291D01*
X23044037Y10577175D01*
X22986340Y10990791D01*
X22925031Y11251460D01*
X22891393Y11394480D01*
X22891391Y11394485D01*
X22890725Y11397319D01*
X22758009Y11793291D01*
X22589323Y12175328D01*
X22386107Y12540170D01*
X22150094Y12884706D01*
X21959754Y13113925D01*
X21885156Y13203760D01*
X21885153Y13203763D01*
X21883299Y13205996D01*
X21587996Y13501299D01*
X21526595Y13552286D01*
X21268942Y13766237D01*
X21266706Y13768094D01*
X20922170Y14004107D01*
X20557328Y14207323D01*
X20175291Y14376009D01*
X20172528Y14376935D01*
X20172523Y14376937D01*
X19915726Y14463006D01*
X19779319Y14508725D01*
X19776485Y14509391D01*
X19776480Y14509393D01*
X19595867Y14551873D01*
X19372791Y14604340D01*
X19369906Y14604742D01*
X19369903Y14604743D01*
X19097825Y14642696D01*
X18959175Y14662037D01*
X18956291Y14662170D01*
X18956284Y14662171D01*
X18544898Y14681190D01*
X18542000Y14681324D01*
X18539102Y14681190D01*
X18127716Y14662171D01*
X18127709Y14662170D01*
X18124825Y14662037D01*
X17986175Y14642696D01*
X17714097Y14604743D01*
X17714094Y14604742D01*
X17711209Y14604340D01*
X17488133Y14551873D01*
X17307520Y14509393D01*
X17307515Y14509391D01*
X17304681Y14508725D01*
X17168274Y14463006D01*
X16911477Y14376937D01*
X16911472Y14376935D01*
X16908709Y14376009D01*
X16526672Y14207323D01*
X16161830Y14004107D01*
X15817294Y13768094D01*
X15815058Y13766237D01*
X15557406Y13552286D01*
X15496004Y13501299D01*
X15200701Y13205996D01*
X15198847Y13203763D01*
X15198844Y13203760D01*
X15124246Y13113925D01*
X14933906Y12884706D01*
X14697893Y12540170D01*
X14494677Y12175328D01*
X14325991Y11793291D01*
X14193275Y11397319D01*
X14192609Y11394485D01*
X14192607Y11394480D01*
X14158969Y11251460D01*
X14097660Y10990791D01*
X14039963Y10577175D01*
X14039830Y10574291D01*
X14039829Y10574284D01*
X14028930Y10338540D01*
X14020676Y10160000D01*
X-621058Y10160000D01*
X-623602Y10179804D01*
X-614555Y10210614D01*
X-562751Y10328715D01*
X-562750Y10328717D01*
X-560658Y10333487D01*
X-503030Y10561053D01*
X-501933Y10574284D01*
X-484075Y10789811D01*
X-483645Y10795000D01*
X-503030Y11028947D01*
X-560658Y11256513D01*
X-614555Y11379386D01*
X-623602Y11449804D01*
X-614555Y11480614D01*
X-562751Y11598715D01*
X-562750Y11598717D01*
X-560658Y11603487D01*
X-511916Y11795961D01*
X-504311Y11825994D01*
X-504311Y11825995D01*
X-503030Y11831053D01*
X-483645Y12065000D01*
X-503030Y12298947D01*
X-560658Y12526513D01*
X-565528Y12537617D01*
X-647863Y12725320D01*
X-656910Y12795738D01*
X-626450Y12859868D01*
X-566153Y12897350D01*
X-491564Y12895107D01*
X-348922Y12846138D01*
X-343788Y12845281D01*
X-343783Y12845280D01*
X-122512Y12808357D01*
X-122510Y12808357D01*
X-117375Y12807500D01*
X117375Y12807500D01*
X122510Y12808357D01*
X122512Y12808357D01*
X343783Y12845280D01*
X343788Y12845281D01*
X348922Y12846138D01*
X570952Y12922361D01*
X575534Y12924841D01*
X575537Y12924842D01*
X772824Y13031609D01*
X777407Y13034089D01*
X870940Y13106888D01*
X958547Y13175075D01*
X958549Y13175077D01*
X962658Y13178275D01*
X1121649Y13350986D01*
X1124503Y13355354D01*
X1247192Y13543144D01*
X1247194Y13543148D01*
X1250044Y13547510D01*
X1344342Y13762487D01*
X1401970Y13990053D01*
X1403253Y14005529D01*
X1420925Y14218811D01*
X1421355Y14224000D01*
X1408857Y14374830D01*
X1402401Y14452751D01*
X1402400Y14452756D01*
X1401970Y14457947D01*
X1388942Y14509393D01*
X1345622Y14680460D01*
X1345620Y14680464D01*
X1344342Y14685513D01*
X1250044Y14900490D01*
X1121649Y15097014D01*
X962658Y15269725D01*
X777407Y15413911D01*
X691112Y15460612D01*
X575537Y15523158D01*
X575534Y15523159D01*
X570952Y15525639D01*
X348922Y15601862D01*
X343788Y15602719D01*
X343783Y15602720D01*
X122512Y15639643D01*
X122510Y15639643D01*
X117375Y15640500D01*
X-117375Y15640500D01*
X-122510Y15639643D01*
X-122512Y15639643D01*
X-343783Y15602720D01*
X-343788Y15602719D01*
X-348922Y15601862D01*
X-570952Y15525639D01*
X-575534Y15523159D01*
X-575537Y15523158D01*
X-691112Y15460612D01*
X-777407Y15413911D01*
X-962658Y15269725D01*
X-1121649Y15097014D01*
X-1250044Y14900490D01*
X-1344342Y14685513D01*
X-1345620Y14680464D01*
X-1345622Y14680460D01*
X-1388942Y14509393D01*
X-1401970Y14457947D01*
X-1402400Y14452756D01*
X-1402401Y14452751D01*
X-1408857Y14374830D01*
X-1421355Y14224000D01*
X-1420925Y14218811D01*
X-1403252Y14005529D01*
X-1401970Y13990053D01*
X-1344342Y13762487D01*
X-1342250Y13757717D01*
X-1342249Y13757715D01*
X-1257137Y13563680D01*
X-1248090Y13493262D01*
X-1278550Y13429132D01*
X-1338847Y13391650D01*
X-1413436Y13393893D01*
X-1516084Y13429132D01*
X-1556078Y13442862D01*
X-1561212Y13443719D01*
X-1561217Y13443720D01*
X-1782488Y13480643D01*
X-1782490Y13480643D01*
X-1787625Y13481500D01*
X-2022375Y13481500D01*
X-2027510Y13480643D01*
X-2027512Y13480643D01*
X-2248783Y13443720D01*
X-2248788Y13443719D01*
X-2253922Y13442862D01*
X-2475952Y13366639D01*
X-2480536Y13364158D01*
X-2485308Y13362065D01*
X-2485804Y13363196D01*
X-2549472Y13349602D01*
X-2594375Y13362787D01*
X-2594692Y13362065D01*
X-2599464Y13364158D01*
X-2604048Y13366639D01*
X-2826078Y13442862D01*
X-2831212Y13443719D01*
X-2831217Y13443720D01*
X-3052488Y13480643D01*
X-3052490Y13480643D01*
X-3057625Y13481500D01*
X-3292375Y13481500D01*
X-3297510Y13480643D01*
X-3297512Y13480643D01*
X-3518783Y13443720D01*
X-3518788Y13443719D01*
X-3523922Y13442862D01*
X-3745952Y13366639D01*
X-3750534Y13364159D01*
X-3750537Y13364158D01*
X-3777434Y13349602D01*
X-3952407Y13254911D01*
X-3956518Y13251712D01*
X-3956517Y13251712D01*
X-4050869Y13178275D01*
X-4137658Y13110725D01*
X-4296649Y12938014D01*
X-4299501Y12933648D01*
X-4299503Y12933646D01*
X-4389602Y12795738D01*
X-4425044Y12741490D01*
X-4427139Y12736714D01*
X-4514471Y12537617D01*
X-4519342Y12526513D01*
X-4576970Y12298947D01*
X-4596355Y12065000D01*
X-4576970Y11831053D01*
X-4575689Y11825995D01*
X-4575689Y11825994D01*
X-4568083Y11795961D01*
X-4519342Y11603487D01*
X-4517250Y11598717D01*
X-4517249Y11598715D01*
X-4465445Y11480614D01*
X-4456398Y11410196D01*
X-4465445Y11379386D01*
X-4519342Y11256513D01*
X-4576970Y11028947D01*
X-4596355Y10795000D01*
X-4595925Y10789811D01*
X-4578066Y10574284D01*
X-4576970Y10561053D01*
X-4519342Y10333487D01*
X-4517250Y10328717D01*
X-4517249Y10328715D01*
X-4465445Y10210614D01*
X-4456398Y10140196D01*
X-4465445Y10109386D01*
X-4519342Y9986513D01*
X-4576970Y9758947D01*
X-4577400Y9753756D01*
X-4577401Y9753751D01*
X-4594566Y9546586D01*
X-4596355Y9525000D01*
X-4576970Y9291053D01*
X-4519342Y9063487D01*
X-4517250Y9058717D01*
X-4517249Y9058715D01*
X-4465445Y8940614D01*
X-4456398Y8870196D01*
X-4465445Y8839386D01*
X-4519342Y8716513D01*
X-4520620Y8711464D01*
X-4520622Y8711460D01*
X-4575689Y8494006D01*
X-4576970Y8488947D01*
X-4596355Y8255000D01*
X-4595925Y8249811D01*
X-4588036Y8154604D01*
X-4602345Y8085064D01*
X-4651978Y8034299D01*
X-4692865Y8019918D01*
X-4779666Y8005433D01*
X-4915783Y7982720D01*
X-4915788Y7982719D01*
X-4920922Y7981862D01*
X-4977010Y7962607D01*
X-5047933Y7959406D01*
X-5109329Y7995058D01*
X-5141703Y8058244D01*
X-5143917Y8082788D01*
X-5096560Y14002459D01*
X-5075001Y16697269D01*
X-5085176Y16849491D01*
X-5090468Y16886643D01*
X-5097479Y16929362D01*
X-5153213Y17121699D01*
X-5245399Y17299467D01*
X-5247080Y17302053D01*
X-5247087Y17302064D01*
X-5283340Y17357813D01*
X-5283345Y17357820D01*
X-5284103Y17358986D01*
X-5292322Y17370469D01*
X-5334528Y17429440D01*
X-5334532Y17429445D01*
X-5337146Y17433097D01*
X-5340255Y17436342D01*
X-5340260Y17436348D01*
X-5412837Y17512100D01*
X-5475681Y17577693D01*
X-5478017Y17579695D01*
X-5478023Y17579701D01*
X-8639500Y20289538D01*
X-8678204Y20349057D01*
X-8683500Y20385204D01*
X-8683500Y20932520D01*
X-8689714Y21064292D01*
X-8739249Y21377043D01*
X-8827592Y21681120D01*
X-8829161Y21684746D01*
X-8829164Y21684754D01*
X-8951774Y21968089D01*
X-8951775Y21968091D01*
X-8953348Y21971726D01*
X-9114536Y22244280D01*
X-9308613Y22494482D01*
X-9532518Y22718387D01*
X-9782720Y22912464D01*
X-10055274Y23073652D01*
X-10058911Y23075226D01*
X-10342246Y23197836D01*
X-10342254Y23197839D01*
X-10345880Y23199408D01*
X-10649957Y23287751D01*
X-10653858Y23288369D01*
X-10653863Y23288370D01*
X-10824875Y23315455D01*
X-10962708Y23337286D01*
X-10978065Y23338010D01*
X-11092991Y23343430D01*
X-11093000Y23343430D01*
X-11094480Y23343500D01*
X-14305520Y23343500D01*
X-14307000Y23343430D01*
X-14307009Y23343430D01*
X-14421935Y23338010D01*
X-14437292Y23337286D01*
X-14575125Y23315455D01*
X-14746137Y23288370D01*
X-14746142Y23288369D01*
X-14750043Y23287751D01*
X-15054120Y23199408D01*
X-15057746Y23197839D01*
X-15057754Y23197836D01*
X-15341089Y23075226D01*
X-15344726Y23073652D01*
X-15617280Y22912464D01*
X-15867482Y22718387D01*
X-16091387Y22494482D01*
X-16285464Y22244280D01*
X-16446652Y21971726D01*
X-16448225Y21968091D01*
X-16448226Y21968089D01*
X-16570836Y21684754D01*
X-16570839Y21684746D01*
X-16572408Y21681120D01*
X-16660751Y21377043D01*
X-16710286Y21064292D01*
X-16716500Y20932520D01*
X-16716500Y20033217D01*
X-16721734Y19997279D01*
X-16727525Y19977819D01*
X-16727860Y19976477D01*
X-16727866Y19976455D01*
X-16748506Y19893767D01*
X-16749596Y19889400D01*
X-16769951Y19690188D01*
X-16788515Y14603671D01*
X-16789887Y14227728D01*
X-16858485Y-4568272D01*
X-16895731Y-14773715D01*
X-16896031Y-14855812D01*
X-22225000Y-14855812D01*
X-22225000Y-14493277D01*
X-22221872Y-14468183D01*
X-22222167Y-14468134D01*
X-22221311Y-14463004D01*
X-22220030Y-14457947D01*
X-22212174Y-14363146D01*
X-22201075Y-14229189D01*
X-22200645Y-14224000D01*
X-22203373Y-14191075D01*
X-22219599Y-13995249D01*
X-22219600Y-13995244D01*
X-22220030Y-13990053D01*
X-22221311Y-13984996D01*
X-22222167Y-13979866D01*
X-22221872Y-13979817D01*
X-22225000Y-13954723D01*
X-22225000Y-7989845D01*
X-22204483Y-7920930D01*
X-22120808Y-7792856D01*
X-22120806Y-7792852D01*
X-22117956Y-7788490D01*
X-22025571Y-7577874D01*
X-21979890Y-7523526D01*
X-21930924Y-7504206D01*
X-21864043Y-7493046D01*
X-21754217Y-7474720D01*
X-21754212Y-7474719D01*
X-21749078Y-7473862D01*
X-21527048Y-7397639D01*
X-21522466Y-7395159D01*
X-21522463Y-7395158D01*
X-21325176Y-7288391D01*
X-21320593Y-7285911D01*
X-21135342Y-7141725D01*
X-20976351Y-6969014D01*
X-20916923Y-6878053D01*
X-20850808Y-6776856D01*
X-20850806Y-6776852D01*
X-20847956Y-6772490D01*
X-20759088Y-6569893D01*
X-20755751Y-6562285D01*
X-20755750Y-6562283D01*
X-20753658Y-6557513D01*
X-20728422Y-6457862D01*
X-20697311Y-6335006D01*
X-20697311Y-6335005D01*
X-20696030Y-6329947D01*
X-20685653Y-6204720D01*
X-20677075Y-6101189D01*
X-20676645Y-6096000D01*
X-20687058Y-5970329D01*
X-20695599Y-5867249D01*
X-20695600Y-5867244D01*
X-20696030Y-5862053D01*
X-20701074Y-5842135D01*
X-20752378Y-5639540D01*
X-20752380Y-5639536D01*
X-20753658Y-5634487D01*
X-20761010Y-5617725D01*
X-20845861Y-5424286D01*
X-20847956Y-5419510D01*
X-20886908Y-5359888D01*
X-20973497Y-5227354D01*
X-20973499Y-5227352D01*
X-20976351Y-5222986D01*
X-21135342Y-5050275D01*
X-21320593Y-4906089D01*
X-21468584Y-4826000D01*
X-21522463Y-4796842D01*
X-21522466Y-4796841D01*
X-21527048Y-4794361D01*
X-21749078Y-4718138D01*
X-21754218Y-4717280D01*
X-21754219Y-4717280D01*
X-21786150Y-4711952D01*
X-21842314Y-4702580D01*
X-21906213Y-4671638D01*
X-21943241Y-4611062D01*
X-21947575Y-4578298D01*
X-21947575Y-4577189D01*
X-21947145Y-4572000D01*
X-21963921Y-4369540D01*
X-21966099Y-4343249D01*
X-21966100Y-4343244D01*
X-21966530Y-4338053D01*
X-21972922Y-4312811D01*
X-22022878Y-4115540D01*
X-22022880Y-4115536D01*
X-22024158Y-4110487D01*
X-22028964Y-4099529D01*
X-22116361Y-3900286D01*
X-22118456Y-3895510D01*
X-22204484Y-3763834D01*
X-22225000Y-3694921D01*
X-22225000Y-1743003D01*
X-22204998Y-1674882D01*
X-22191700Y-1657665D01*
X-22174383Y-1638854D01*
X-22170848Y-1635014D01*
X-22166856Y-1628904D01*
X-22045305Y-1442856D01*
X-22045303Y-1442852D01*
X-22042453Y-1438490D01*
X-22040358Y-1433714D01*
X-21950248Y-1228285D01*
X-21950247Y-1228283D01*
X-21948155Y-1223513D01*
X-21913025Y-1084791D01*
X-21891808Y-1001006D01*
X-21891808Y-1001005D01*
X-21890527Y-995947D01*
X-21871142Y-762000D01*
X-21890527Y-528053D01*
X-21948155Y-300487D01*
X-22003862Y-173487D01*
X-22040358Y-90286D01*
X-22042453Y-85510D01*
X-22065251Y-50614D01*
X-22167994Y106646D01*
X-22167996Y106648D01*
X-22170848Y111014D01*
X-22191700Y133666D01*
X-22223122Y197330D01*
X-22225000Y219003D01*
X-22225000Y838223D01*
X-22221872Y863317D01*
X-22222167Y863366D01*
X-22221311Y868496D01*
X-22220030Y873553D01*
X-22210934Y983319D01*
X-22201075Y1102311D01*
X-22200645Y1107500D01*
X-22214110Y1270000D01*
X-22219599Y1336251D01*
X-22219600Y1336256D01*
X-22220030Y1341447D01*
X-22221311Y1346504D01*
X-22222167Y1351634D01*
X-22221872Y1351683D01*
X-22225000Y1376777D01*
X-22225000Y2607188D01*
X-22204998Y2675309D01*
X-22151342Y2721802D01*
X-22139912Y2726361D01*
X-22039980Y2760668D01*
X-22035048Y2762361D01*
X-22030466Y2764841D01*
X-22030463Y2764842D01*
X-21833176Y2871609D01*
X-21828593Y2874089D01*
X-21752716Y2933146D01*
X-21647453Y3015075D01*
X-21647451Y3015077D01*
X-21643342Y3018275D01*
X-21484351Y3190986D01*
X-21473018Y3208332D01*
X-21358808Y3383144D01*
X-21358806Y3383148D01*
X-21355956Y3387510D01*
X-21353861Y3392286D01*
X-21263751Y3597715D01*
X-21263750Y3597717D01*
X-21261658Y3602487D01*
X-21213032Y3794503D01*
X-21205311Y3824994D01*
X-21205311Y3824995D01*
X-21204030Y3830053D01*
X-21184645Y4064000D01*
X-21195058Y4189671D01*
X-21203599Y4292751D01*
X-21203600Y4292756D01*
X-21204030Y4297947D01*
X-21251776Y4486490D01*
X-21260378Y4520460D01*
X-21260380Y4520464D01*
X-21261658Y4525513D01*
X-21355956Y4740490D01*
X-21428735Y4851888D01*
X-21481497Y4932646D01*
X-21481499Y4932648D01*
X-21484351Y4937014D01*
X-21643342Y5109725D01*
X-21828593Y5253911D01*
X-21941230Y5314867D01*
X-22030463Y5363158D01*
X-22030466Y5363159D01*
X-22035048Y5365639D01*
X-22139912Y5401639D01*
X-22197847Y5442676D01*
X-22224399Y5508521D01*
X-22225000Y5520812D01*
X-22225000Y23993500D01*
X-22204998Y24061621D01*
X-22151342Y24108114D01*
X-22099000Y24119500D01*
X23231500Y24119500D01*
X23299621Y24099498D01*
G37*
%TD.AperFunction*%
%TD*%
M02*
