%TF.GenerationSoftware,KiCad,Pcbnew,6.99.0-unknown-f8b157a1fb~149~ubuntu22.04.1*%
%TF.CreationDate,2022-10-15T12:14:30+11:00*%
%TF.ProjectId,STSPIN32G4,53545350-494e-4333-9247-342e6b696361,rev?*%
%TF.SameCoordinates,Original*%
%TF.FileFunction,Copper,L4,Bot*%
%TF.FilePolarity,Positive*%
%FSLAX46Y46*%
G04 Gerber Fmt 4.6, Leading zero omitted, Abs format (unit mm)*
G04 Created by KiCad (PCBNEW 6.99.0-unknown-f8b157a1fb~149~ubuntu22.04.1) date 2022-10-15 12:14:30*
%MOMM*%
%LPD*%
G01*
G04 APERTURE LIST*
G04 Aperture macros list*
%AMRoundRect*
0 Rectangle with rounded corners*
0 $1 Rounding radius*
0 $2 $3 $4 $5 $6 $7 $8 $9 X,Y pos of 4 corners*
0 Add a 4 corners polygon primitive as box body*
4,1,4,$2,$3,$4,$5,$6,$7,$8,$9,$2,$3,0*
0 Add four circle primitives for the rounded corners*
1,1,$1+$1,$2,$3*
1,1,$1+$1,$4,$5*
1,1,$1+$1,$6,$7*
1,1,$1+$1,$8,$9*
0 Add four rect primitives between the rounded corners*
20,1,$1+$1,$2,$3,$4,$5,0*
20,1,$1+$1,$4,$5,$6,$7,0*
20,1,$1+$1,$6,$7,$8,$9,0*
20,1,$1+$1,$8,$9,$2,$3,0*%
%AMFreePoly0*
4,1,19,0.500000,-0.750000,0.000000,-0.750000,0.000000,-0.744911,-0.071157,-0.744911,-0.207708,-0.704816,-0.327430,-0.627875,-0.420627,-0.520320,-0.479746,-0.390866,-0.500000,-0.250000,-0.500000,0.250000,-0.479746,0.390866,-0.420627,0.520320,-0.327430,0.627875,-0.207708,0.704816,-0.071157,0.744911,0.000000,0.744911,0.000000,0.750000,0.500000,0.750000,0.500000,-0.750000,0.500000,-0.750000,
$1*%
%AMFreePoly1*
4,1,19,0.000000,0.744911,0.071157,0.744911,0.207708,0.704816,0.327430,0.627875,0.420627,0.520320,0.479746,0.390866,0.500000,0.250000,0.500000,-0.250000,0.479746,-0.390866,0.420627,-0.520320,0.327430,-0.627875,0.207708,-0.704816,0.071157,-0.744911,0.000000,-0.744911,0.000000,-0.750000,-0.500000,-0.750000,-0.500000,0.750000,0.000000,0.750000,0.000000,0.744911,0.000000,0.744911,
$1*%
%AMFreePoly2*
4,1,19,0.550000,-0.750000,0.000000,-0.750000,0.000000,-0.744911,-0.071157,-0.744911,-0.207708,-0.704816,-0.327430,-0.627875,-0.420627,-0.520320,-0.479746,-0.390866,-0.500000,-0.250000,-0.500000,0.250000,-0.479746,0.390866,-0.420627,0.520320,-0.327430,0.627875,-0.207708,0.704816,-0.071157,0.744911,0.000000,0.744911,0.000000,0.750000,0.550000,0.750000,0.550000,-0.750000,0.550000,-0.750000,
$1*%
%AMFreePoly3*
4,1,19,0.000000,0.744911,0.071157,0.744911,0.207708,0.704816,0.327430,0.627875,0.420627,0.520320,0.479746,0.390866,0.500000,0.250000,0.500000,-0.250000,0.479746,-0.390866,0.420627,-0.520320,0.327430,-0.627875,0.207708,-0.704816,0.071157,-0.744911,0.000000,-0.744911,0.000000,-0.750000,-0.550000,-0.750000,-0.550000,0.750000,0.000000,0.750000,0.000000,0.744911,0.000000,0.744911,
$1*%
G04 Aperture macros list end*
%TA.AperFunction,ComponentPad*%
%ADD10R,1.700000X1.700000*%
%TD*%
%TA.AperFunction,ComponentPad*%
%ADD11O,1.700000X1.700000*%
%TD*%
%TA.AperFunction,SMDPad,CuDef*%
%ADD12C,1.500000*%
%TD*%
%TA.AperFunction,ComponentPad*%
%ADD13C,7.000000*%
%TD*%
%TA.AperFunction,ComponentPad*%
%ADD14RoundRect,1.500000X1.500000X1.500000X-1.500000X1.500000X-1.500000X-1.500000X1.500000X-1.500000X0*%
%TD*%
%TA.AperFunction,ComponentPad*%
%ADD15C,6.000000*%
%TD*%
%TA.AperFunction,SMDPad,CuDef*%
%ADD16FreePoly0,180.000000*%
%TD*%
%TA.AperFunction,SMDPad,CuDef*%
%ADD17FreePoly1,180.000000*%
%TD*%
%TA.AperFunction,SMDPad,CuDef*%
%ADD18C,2.000000*%
%TD*%
%TA.AperFunction,SMDPad,CuDef*%
%ADD19R,0.812800X0.254000*%
%TD*%
%TA.AperFunction,SMDPad,CuDef*%
%ADD20R,0.254000X0.812800*%
%TD*%
%TA.AperFunction,SMDPad,CuDef*%
%ADD21R,4.089400X4.089400*%
%TD*%
%TA.AperFunction,SMDPad,CuDef*%
%ADD22FreePoly0,0.000000*%
%TD*%
%TA.AperFunction,SMDPad,CuDef*%
%ADD23FreePoly1,0.000000*%
%TD*%
%TA.AperFunction,SMDPad,CuDef*%
%ADD24FreePoly1,270.000000*%
%TD*%
%TA.AperFunction,SMDPad,CuDef*%
%ADD25FreePoly0,270.000000*%
%TD*%
%TA.AperFunction,SMDPad,CuDef*%
%ADD26FreePoly2,180.000000*%
%TD*%
%TA.AperFunction,SMDPad,CuDef*%
%ADD27R,1.000000X1.500000*%
%TD*%
%TA.AperFunction,SMDPad,CuDef*%
%ADD28FreePoly3,180.000000*%
%TD*%
%TA.AperFunction,ViaPad*%
%ADD29C,0.800000*%
%TD*%
%TA.AperFunction,Conductor*%
%ADD30C,0.250000*%
%TD*%
%TA.AperFunction,Conductor*%
%ADD31C,0.508000*%
%TD*%
%TA.AperFunction,Conductor*%
%ADD32C,0.200000*%
%TD*%
G04 APERTURE END LIST*
%TO.C,JP8*%
G36*
X-32008000Y14686000D02*
G01*
X-32508000Y14686000D01*
X-32508000Y15286000D01*
X-32008000Y15286000D01*
X-32008000Y14686000D01*
G37*
%TO.C,JP2*%
G36*
X-28706000Y9860000D02*
G01*
X-29206000Y9860000D01*
X-29206000Y10460000D01*
X-28706000Y10460000D01*
X-28706000Y9860000D01*
G37*
%TO.C,JP4*%
G36*
X-37038000Y-10410000D02*
G01*
X-37638000Y-10410000D01*
X-37638000Y-9910000D01*
X-37038000Y-9910000D01*
X-37038000Y-10410000D01*
G37*
%TO.C,JP1*%
G36*
X-32023000Y12146000D02*
G01*
X-32523000Y12146000D01*
X-32523000Y12746000D01*
X-32023000Y12746000D01*
X-32023000Y12146000D01*
G37*
%TD*%
D10*
%TO.P,J7,1,Pin_1*%
%TO.N,SPI1_MISO*%
X-52064999Y10667999D03*
D11*
%TO.P,J7,2,Pin_2*%
%TO.N,SPI1_SCK*%
X-54604999Y10667999D03*
%TD*%
D12*
%TO.P,TP9,1,1*%
%TO.N,SPI1_MOSI*%
X-35560000Y16764000D03*
%TD*%
%TO.P,TP8,1,1*%
%TO.N,SPI1_MISO*%
X-35560000Y13208000D03*
%TD*%
D10*
%TO.P,J6,1,Pin_1*%
%TO.N,I2C1_SCL*%
X-37083999Y-14731999D03*
D11*
%TO.P,J6,2,Pin_2*%
%TO.N,I2C1_SDA*%
X-34543999Y-14731999D03*
%TO.P,J6,3,Pin_3*%
%TO.N,VDD*%
X-32003999Y-14731999D03*
%TO.P,J6,4,Pin_4*%
%TO.N,GND*%
X-29463999Y-14731999D03*
%TD*%
D13*
%TO.P,J8,1,Pin_1*%
%TO.N,OUT3*%
X18542000Y10160000D03*
%TD*%
%TO.P,J9,1,Pin_1*%
%TO.N,OUT1*%
X18288000Y-10414000D03*
%TD*%
%TO.P,J3,1,Pin_1*%
%TO.N,OUT2*%
X18796000Y-254000D03*
%TD*%
D14*
%TO.P,J4,1,Pin_1*%
%TO.N,VM*%
X-12700000Y19327000D03*
D15*
%TO.P,J4,2,Pin_2*%
%TO.N,GND*%
X-19900000Y19327000D03*
%TD*%
D10*
%TO.P,J2,1,Pin_1*%
%TO.N,VDD*%
X-44424999Y21614999D03*
D11*
%TO.P,J2,2,Pin_2*%
%TO.N,SWCLK*%
X-41884999Y21614999D03*
%TO.P,J2,3,Pin_3*%
%TO.N,GND*%
X-39344999Y21614999D03*
%TO.P,J2,4,Pin_4*%
%TO.N,SWDIO*%
X-36804999Y21614999D03*
%TO.P,J2,5,Pin_5*%
%TO.N,nRST*%
X-34264999Y21614999D03*
%TO.P,J2,6,Pin_6*%
%TO.N,SPI1_SCK*%
X-31724999Y21614999D03*
%TD*%
D16*
%TO.P,JP8,1,A*%
%TO.N,Net-(JP8-A)*%
X-31608000Y14986000D03*
D17*
%TO.P,JP8,2,B*%
%TO.N,VCC*%
X-32908000Y14986000D03*
%TD*%
D18*
%TO.P,TP1,1,1*%
%TO.N,OPP1*%
X-26924000Y2045000D03*
%TD*%
%TO.P,TP2,1,1*%
%TO.N,OPO1*%
X-26162000Y-2540000D03*
%TD*%
D19*
%TO.P,IC1,1,REG3V3/VDD*%
%TO.N,VDD*%
X-31241999Y7827944D03*
%TO.P,IC1,2,VBAT*%
%TO.N,VBAT*%
X-31241999Y7327818D03*
%TO.P,IC1,3,PC13*%
%TO.N,USER1*%
X-31241999Y6827692D03*
%TO.P,IC1,4,PC14*%
%TO.N,CAN_SHDN*%
X-31241999Y6327566D03*
%TO.P,IC1,5,PC15*%
%TO.N,unconnected-(IC1-PC15)*%
X-31241999Y5827440D03*
%TO.P,IC1,6,PF0*%
%TO.N,OSC_IN*%
X-31241999Y5327314D03*
%TO.P,IC1,7,PF1*%
%TO.N,OSC_OUT*%
X-31241999Y4827188D03*
%TO.P,IC1,8,PG10*%
%TO.N,nRST*%
X-31241999Y4327062D03*
%TO.P,IC1,9,PC0*%
%TO.N,VOUT1*%
X-31241999Y3826936D03*
%TO.P,IC1,10,PC1*%
%TO.N,VOUT2*%
X-31241999Y3326810D03*
%TO.P,IC1,11,PC2*%
%TO.N,VOUT3*%
X-31241999Y2826684D03*
%TO.P,IC1,12,PC3*%
%TO.N,unconnected-(IC1-PC3)*%
X-31241999Y2326558D03*
%TO.P,IC1,13,PA0*%
%TO.N,VBUS*%
X-31241999Y1826432D03*
%TO.P,IC1,14,PA1*%
%TO.N,OPP1*%
X-31241999Y1326306D03*
%TO.P,IC1,15,PA2*%
%TO.N,OPO1*%
X-31241999Y826180D03*
%TO.P,IC1,16,PA3*%
%TO.N,OPN1*%
X-31241999Y326054D03*
D20*
%TO.P,IC1,17,PA4*%
%TO.N,SPI1_NSS*%
X-31936054Y-367999D03*
%TO.P,IC1,18,PA5*%
%TO.N,DAC2*%
X-32436180Y-367999D03*
%TO.P,IC1,19,PA6*%
%TO.N,OPO2*%
X-32936306Y-367999D03*
%TO.P,IC1,20,PA7*%
%TO.N,OPP2*%
X-33436432Y-367999D03*
%TO.P,IC1,21,PC4*%
%TO.N,unconnected-(IC1-PC4)*%
X-33936558Y-367999D03*
%TO.P,IC1,22,PC5*%
%TO.N,OPN2*%
X-34436684Y-367999D03*
%TO.P,IC1,23,PB0*%
%TO.N,OPP3*%
X-34936810Y-367999D03*
%TO.P,IC1,24,PB1*%
%TO.N,OPO3*%
X-35436936Y-367999D03*
%TO.P,IC1,25,PB2*%
%TO.N,OPN3*%
X-35937062Y-367999D03*
%TO.P,IC1,26,VREF+*%
%TO.N,VREF+*%
X-36437188Y-367999D03*
%TO.P,IC1,27,VDDA*%
%TO.N,VDDA*%
X-36937314Y-367999D03*
%TO.P,IC1,28,PB10*%
%TO.N,USER2*%
X-37437440Y-367999D03*
%TO.P,IC1,29,GLS1*%
%TO.N,GLS1*%
X-37937566Y-367999D03*
%TO.P,IC1,30,GLS2*%
%TO.N,GLS2*%
X-38437692Y-367999D03*
%TO.P,IC1,31,GLS3*%
%TO.N,GLS3*%
X-38937818Y-367999D03*
%TO.P,IC1,32,PGND*%
%TO.N,GND*%
X-39437944Y-367999D03*
D19*
%TO.P,IC1,33,NC_1*%
%TO.N,unconnected-(IC1-NC_1)*%
X-40131999Y326054D03*
%TO.P,IC1,34,NC_2*%
%TO.N,unconnected-(IC1-NC_2)*%
X-40131999Y826180D03*
%TO.P,IC1,35,BOOT3*%
%TO.N,BOOT3*%
X-40131999Y1326306D03*
%TO.P,IC1,36,OUT3*%
%TO.N,OUT3*%
X-40131999Y1826432D03*
%TO.P,IC1,37,GHS3*%
%TO.N,GHS3*%
X-40131999Y2326558D03*
%TO.P,IC1,38,BOOT2*%
%TO.N,BOOT2*%
X-40131999Y2826684D03*
%TO.P,IC1,39,OUT2*%
%TO.N,OUT2*%
X-40131999Y3326810D03*
%TO.P,IC1,40,GHS2*%
%TO.N,GHS2*%
X-40131999Y3826936D03*
%TO.P,IC1,41,BOOT1*%
%TO.N,BOOT1*%
X-40131999Y4327062D03*
%TO.P,IC1,42,OUT1*%
%TO.N,OUT1*%
X-40131999Y4827188D03*
%TO.P,IC1,43,GHS1*%
%TO.N,GHS1*%
X-40131999Y5327314D03*
%TO.P,IC1,44,PA8*%
%TO.N,unconnected-(IC1-PA8)*%
X-40131999Y5827440D03*
%TO.P,IC1,45,PA9*%
%TO.N,UART_TX*%
X-40131999Y6327566D03*
%TO.P,IC1,46,PA10*%
%TO.N,UART_RX*%
X-40131999Y6827692D03*
%TO.P,IC1,47,PA11*%
%TO.N,CAN_RX*%
X-40131999Y7327818D03*
%TO.P,IC1,48,PA12*%
%TO.N,CAN_TX*%
X-40131999Y7827944D03*
D20*
%TO.P,IC1,49,PA13*%
%TO.N,SWDIO*%
X-39437944Y8521999D03*
%TO.P,IC1,50,PA14*%
%TO.N,SWCLK*%
X-38937818Y8521999D03*
%TO.P,IC1,51,PA15*%
%TO.N,I2C1_SCL*%
X-38437692Y8521999D03*
%TO.P,IC1,52,SCREF*%
%TO.N,SCREF*%
X-37937566Y8521999D03*
%TO.P,IC1,53,PD2*%
%TO.N,unconnected-(IC1-PD2)*%
X-37437440Y8521999D03*
%TO.P,IC1,54,PB3*%
%TO.N,SPI1_SCK*%
X-36937314Y8521999D03*
%TO.P,IC1,55,PB4*%
%TO.N,SPI1_MISO*%
X-36437188Y8521999D03*
%TO.P,IC1,56,PB5*%
%TO.N,SPI1_MOSI*%
X-35937062Y8521999D03*
%TO.P,IC1,57,PB6*%
%TO.N,HALL1*%
X-35436936Y8521999D03*
%TO.P,IC1,58,PB7*%
%TO.N,HALL2*%
X-34936810Y8521999D03*
%TO.P,IC1,59,PB8*%
%TO.N,HALL3*%
X-34436684Y8521999D03*
%TO.P,IC1,60,PB9*%
%TO.N,I2C1_SDA*%
X-33936558Y8521999D03*
%TO.P,IC1,61,VM*%
%TO.N,Net-(IC1-VM)*%
X-33436432Y8521999D03*
%TO.P,IC1,62,SW*%
%TO.N,SW*%
X-32936306Y8521999D03*
%TO.P,IC1,63,VCC*%
%TO.N,VCC*%
X-32436180Y8521999D03*
%TO.P,IC1,64,REGIN*%
%TO.N,VREGIN*%
X-31936054Y8521999D03*
D21*
%TO.P,IC1,65,VSS*%
%TO.N,GND*%
X-35686999Y4076999D03*
%TD*%
D22*
%TO.P,JP2,1,A*%
%TO.N,VDD*%
X-29606000Y10160000D03*
D23*
%TO.P,JP2,2,B*%
%TO.N,VBAT*%
X-28306000Y10160000D03*
%TD*%
D24*
%TO.P,JP4,2,B*%
%TO.N,VM*%
X-37338000Y-10810000D03*
D25*
%TO.P,JP4,1,A*%
%TO.N,Net-(IC1-VM)*%
X-37338000Y-9510000D03*
%TD*%
D22*
%TO.P,JP1,1,A*%
%TO.N,VCC*%
X-32923000Y12446000D03*
D23*
%TO.P,JP1,2,B*%
%TO.N,VREGIN*%
X-31623000Y12446000D03*
%TD*%
D26*
%TO.P,JP3,1,1*%
%TO.N,VREF+*%
X-35530000Y-4826000D03*
D27*
%TO.P,JP3,2,2*%
%TO.N,VDDA*%
X-36829999Y-4825999D03*
D28*
%TO.P,JP3,3,3*%
%TO.N,VDD*%
X-38130000Y-4826000D03*
%TD*%
D29*
%TO.N,SPI1_MISO*%
X-36068000Y14986000D03*
%TO.N,VDD*%
X-53594000Y-4572000D03*
X-59182000Y4572000D03*
%TO.N,GND*%
X10922000Y5080000D03*
X13208000Y5080000D03*
X21844000Y-5334000D03*
X17272000Y-15494000D03*
X14732000Y-5334000D03*
X12192000Y-15494000D03*
X14732000Y-15494000D03*
X12446000Y-5334000D03*
X-19050000Y-12700000D03*
X-21336000Y-10414000D03*
X-21336000Y-12700000D03*
X-19050000Y-10414000D03*
%TO.N,SCREF*%
X-41656000Y10668000D03*
X-37092952Y10676952D03*
%TO.N,VDD*%
X-44704000Y9652000D03*
%TO.N,I2C1_SCL*%
X-37616498Y11846500D03*
%TO.N,I2C1_SDA*%
X-33365500Y10668000D03*
%TO.N,GND*%
X17780000Y16510000D03*
X15240000Y16510000D03*
X10160000Y16510000D03*
X12700000Y16510000D03*
X20320000Y16510000D03*
X17780000Y19050000D03*
X15240000Y19050000D03*
X13970000Y17780000D03*
X21336000Y17780000D03*
X19050000Y17780000D03*
X16256000Y17780000D03*
X8890000Y17780000D03*
X10160000Y19050000D03*
X12700000Y19050000D03*
X11176000Y17780000D03*
X20320000Y19050000D03*
X20320000Y21590000D03*
X19050000Y20320000D03*
X21336000Y20320000D03*
X21336000Y22860000D03*
X19050000Y22860000D03*
X13970000Y20320000D03*
X15240000Y21590000D03*
X17780000Y21590000D03*
X16256000Y22860000D03*
X13970000Y22860000D03*
X16256000Y20320000D03*
%TO.N,Net-(JP8-A)*%
X-29210000Y13462000D03*
%TO.N,GND*%
X-25146000Y20066000D03*
X-42926000Y14986000D03*
X-39624000Y-10668000D03*
X-40386000Y-15494000D03*
X11176000Y22860000D03*
X8890000Y22860000D03*
X8890000Y20320000D03*
X10160000Y21590000D03*
X11176000Y20320000D03*
X12700000Y21590000D03*
X-20320000Y14732000D03*
X-18288000Y13462000D03*
X-17780000Y4572000D03*
X-20320000Y7366000D03*
X-20320000Y5080000D03*
X-20320000Y12192000D03*
X-19558000Y13462000D03*
X-18796000Y14732000D03*
X-18288000Y7620000D03*
X-18796000Y12192000D03*
X-21336000Y13462000D03*
X-29718000Y-7112000D03*
%TO.N,VREF+*%
X-35814000Y-6096000D03*
%TO.N,GND*%
X-39370000Y-7620000D03*
%TO.N,USER2*%
X-40894000Y-9906000D03*
%TO.N,USER1*%
X-28956000Y-12192000D03*
X-26993636Y9952424D03*
%TO.N,GND*%
X-43434000Y-2794000D03*
%TO.N,VDD*%
X-48006000Y19050000D03*
%TO.N,Net-(IC1-VM)*%
X-32220500Y-7888994D03*
%TO.N,nRST*%
X-25400000Y9652000D03*
%TO.N,OPN1*%
X-27178000Y-599500D03*
%TO.N,nRST*%
X-29972000Y4101500D03*
%TO.N,OSC_IN*%
X-27432000Y7874000D03*
%TO.N,VM*%
X-15240000Y-12192000D03*
X-37338000Y-11176000D03*
%TO.N,GND*%
X-37338000Y2286000D03*
%TO.N,OSC_OUT*%
X-25908000Y5334000D03*
%TO.N,OUT2*%
X-12700000Y6604000D03*
%TO.N,OUT1*%
X-44450000Y-8128000D03*
%TO.N,GHS1*%
X-41402000Y6604000D03*
X-24130000Y8636000D03*
X-23368500Y-4572000D03*
%TO.N,VSHUNT1N*%
X-23622000Y1107500D03*
X-23622000Y-14224000D03*
X6096000Y-15240000D03*
%TO.N,GHS2*%
X-10668000Y5588000D03*
%TO.N,VSHUNT2N*%
X-23368000Y-7112000D03*
X6604000Y-5080000D03*
%TO.N,GHS1*%
X-10414000Y-4572000D03*
%TO.N,VSHUNT1P*%
X-22606000Y4064000D03*
X-22098000Y-6096000D03*
X4826000Y-4826000D03*
%TO.N,VSHUNT2P*%
X-23292497Y-762000D03*
X-4572000Y6604000D03*
%TO.N,GHS3*%
X-44704000Y1524000D03*
%TO.N,GLS2*%
X-1270000Y3810000D03*
%TO.N,GLS1*%
X-1016000Y-4318000D03*
%TO.N,GLS3*%
X-41482850Y-2703544D03*
%TO.N,GLS2*%
X-40724875Y-3355065D03*
%TO.N,GLS1*%
X-41148000Y-4318000D03*
%TO.N,GHS2*%
X-43942000Y4064000D03*
%TO.N,OUT1*%
X-45466000Y7112000D03*
%TO.N,BOOT1*%
X-42418000Y4826000D03*
%TO.N,OUT2*%
X-45466000Y3810000D03*
%TO.N,BOOT2*%
X-42672000Y2248500D03*
%TO.N,BOOT3*%
X-42672000Y-508000D03*
%TO.N,OUT3*%
X-47244000Y1016000D03*
%TO.N,GLS3*%
X0Y14224000D03*
%TO.N,GHS3*%
X-9652000Y14224000D03*
%TO.N,OUT3*%
X-1905000Y12065000D03*
X-1905000Y8255000D03*
X-1905000Y10795000D03*
X-1905000Y9525000D03*
X-2540000Y10160000D03*
X-2540000Y8890000D03*
X-3175000Y9525000D03*
X-3175000Y10795000D03*
X-2540000Y11430000D03*
X-3175000Y12065000D03*
X-3175000Y8255000D03*
%TO.N,OUT2*%
X-1905000Y-1905000D03*
X-1905000Y-635000D03*
X-2540000Y0D03*
X-2540000Y-1270000D03*
X-3175000Y-635000D03*
X-3175000Y635000D03*
X-2540000Y1270000D03*
X-3175000Y1905000D03*
X-3175000Y-1905000D03*
X-1905000Y635000D03*
X-1905000Y1905000D03*
%TO.N,OUT1*%
X-2540000Y-10795000D03*
X-3175000Y-12700000D03*
X-2540000Y-12065000D03*
X-3175000Y-11430000D03*
X-1905000Y-12700000D03*
X-1905000Y-11430000D03*
X-1905000Y-10160000D03*
X-3175000Y-10160000D03*
X-2540000Y-9525000D03*
X-3175000Y-8890000D03*
X-1905000Y-8890000D03*
%TO.N,VDD*%
X-47565420Y-14191857D03*
X-39116000Y-6096000D03*
%TO.N,VDDA*%
X-34798000Y-7874000D03*
%TO.N,OPN2*%
X-33274000Y-7620000D03*
%TO.N,OPO2*%
X-29972000Y-5334000D03*
%TO.N,OPP2*%
X-30696500Y-4155500D03*
%TO.N,OPO1*%
X-29718000Y0D03*
%TO.N,OPP1*%
X-29163576Y831636D03*
%TO.N,SW*%
X-33160681Y9525000D03*
%TO.N,Net-(IC1-VM)*%
X-34163000Y7515500D03*
%TO.N,SWDIO*%
X-38213319Y18161000D03*
X-39662319Y18161000D03*
%TO.N,VDD*%
X-30988000Y8054321D03*
%TO.N,VBAT*%
X-32512000Y7386500D03*
%TD*%
D30*
%TO.N,SPI1_MISO*%
X-35560000Y13208000D02*
X-35560000Y14478000D01*
X-35560000Y14478000D02*
X-36068000Y14986000D01*
X-36437189Y8522000D02*
X-36437189Y9477265D01*
X-36437189Y9477265D02*
X-35560000Y10354454D01*
X-35560000Y10354454D02*
X-35560000Y13208000D01*
%TO.N,SPI1_MOSI*%
X-35937063Y8522000D02*
X-35937063Y9146541D01*
X-35937063Y9146541D02*
X-34036000Y11047604D01*
X-34036000Y11047604D02*
X-34036000Y14224000D01*
X-34036000Y14224000D02*
X-35560000Y15748000D01*
X-35560000Y15748000D02*
X-35560000Y16764000D01*
%TO.N,SPI1_SCK*%
X-31725000Y21615000D02*
X-31725000Y22454000D01*
X-36576000Y19826000D02*
X-36576000Y19812000D01*
X-31725000Y22454000D02*
X-32258000Y22987000D01*
X-32258000Y22987000D02*
X-34925000Y22987000D01*
X-34925000Y22987000D02*
X-35560000Y22352000D01*
X-35560000Y20842000D02*
X-36576000Y19826000D01*
X-36576000Y19812000D02*
X-37084000Y19304000D01*
X-37084000Y19304000D02*
X-37084000Y12339307D01*
X-35560000Y22352000D02*
X-35560000Y20842000D01*
X-37084000Y12339307D02*
X-36068000Y11323307D01*
X-36068000Y11323307D02*
X-36068000Y10677305D01*
X-36068000Y10677305D02*
X-36937315Y9807990D01*
X-36937315Y9807990D02*
X-36937315Y8522000D01*
%TO.N,I2C1_SDA*%
X-33936559Y10096941D02*
X-33936559Y8522000D01*
X-33365500Y10668000D02*
X-33936559Y10096941D01*
%TO.N,SCREF*%
X-37937567Y9832337D02*
X-37092952Y10676952D01*
X-37937567Y8522000D02*
X-37937567Y9832337D01*
%TO.N,I2C1_SCL*%
X-37616498Y11846500D02*
X-38437693Y11025305D01*
X-38437693Y11025305D02*
X-38437693Y8522000D01*
D31*
%TO.N,Net-(JP8-A)*%
X-30734000Y14986000D02*
X-29210000Y13462000D01*
X-31608000Y14986000D02*
X-30734000Y14986000D01*
%TO.N,GHS1*%
X-24130000Y8636000D02*
X-23460000Y7966000D01*
X-22438497Y-3641997D02*
X-23368500Y-4572000D01*
X-23460000Y7966000D02*
X-23460000Y2632000D01*
X-23460000Y2632000D02*
X-22438497Y1610497D01*
X-22438497Y1610497D02*
X-22438497Y-3641997D01*
D30*
%TO.N,VDDA*%
X-35061305Y-7874000D02*
X-36830000Y-6105305D01*
X-34798000Y-7874000D02*
X-35061305Y-7874000D01*
X-36830000Y-6105305D02*
X-36830000Y-4826000D01*
%TO.N,VREF+*%
X-35814000Y-6096000D02*
X-35530000Y-5812000D01*
X-35530000Y-5812000D02*
X-35530000Y-4826000D01*
D32*
%TO.N,OPN2*%
X-34436685Y-6457315D02*
X-34436685Y-368000D01*
X-33274000Y-7620000D02*
X-34436685Y-6457315D01*
D31*
%TO.N,Net-(IC1-VM)*%
X-32220500Y-7888994D02*
X-33841506Y-9510000D01*
X-33841506Y-9510000D02*
X-37338000Y-9510000D01*
D30*
%TO.N,VDDA*%
X-36937315Y-368000D02*
X-36937315Y-4718685D01*
X-36937315Y-4718685D02*
X-36830000Y-4826000D01*
%TO.N,VDD*%
X-39116000Y-6096000D02*
X-38130000Y-5110000D01*
X-38130000Y-5110000D02*
X-38130000Y-4826000D01*
%TO.N,USER2*%
X-37437441Y-1877441D02*
X-37437441Y-368000D01*
X-40894000Y-9906000D02*
X-40894000Y-5334000D01*
X-40894000Y-5334000D02*
X-37437441Y-1877441D01*
%TO.N,nRST*%
X-25400000Y9652000D02*
X-25400000Y10922000D01*
X-25400000Y10922000D02*
X-26162000Y11684000D01*
X-26162000Y11684000D02*
X-26162000Y18796000D01*
X-27178000Y19812000D02*
X-33630000Y19812000D01*
X-26162000Y18796000D02*
X-27178000Y19812000D01*
X-33630000Y19812000D02*
X-34265000Y20447000D01*
X-34265000Y20447000D02*
X-34265000Y21615000D01*
%TO.N,USER1*%
X-30118367Y6827693D02*
X-26993636Y9952424D01*
X-31242000Y6827693D02*
X-30118367Y6827693D01*
%TO.N,VBAT*%
X-31242000Y7327819D02*
X-30689197Y7327819D01*
X-30689197Y7327819D02*
X-29972000Y8045016D01*
X-29972000Y8045016D02*
X-29972000Y8890000D01*
X-29972000Y8890000D02*
X-29777000Y9085000D01*
X-29777000Y9085000D02*
X-28971380Y9085000D01*
X-28971380Y9085000D02*
X-28306000Y9750380D01*
X-28306000Y9750380D02*
X-28306000Y10160000D01*
%TO.N,OSC_IN*%
X-27432000Y7874000D02*
X-27432000Y7620000D01*
X-27432000Y7620000D02*
X-29724685Y5327315D01*
X-29724685Y5327315D02*
X-31242000Y5327315D01*
%TO.N,OSC_OUT*%
X-25908000Y5334000D02*
X-26414811Y4827189D01*
X-26414811Y4827189D02*
X-31242000Y4827189D01*
D31*
%TO.N,OUT1*%
X-44450000Y-8128000D02*
X-48514000Y-4064000D01*
X-48514000Y-4064000D02*
X-48514000Y6350000D01*
X-48514000Y6350000D02*
X-47752000Y7112000D01*
X-47752000Y7112000D02*
X-45466000Y7112000D01*
%TO.N,VCC*%
X-32908000Y14986000D02*
X-32908000Y12461000D01*
X-32908000Y12461000D02*
X-32923000Y12446000D01*
D30*
%TO.N,OPO2*%
X-32936307Y-2496693D02*
X-32936307Y-368000D01*
X-29972000Y-3556000D02*
X-30607000Y-2921000D01*
X-29972000Y-5334000D02*
X-29972000Y-3556000D01*
X-30607000Y-2921000D02*
X-32512000Y-2921000D01*
X-32512000Y-2921000D02*
X-32936307Y-2496693D01*
D32*
%TO.N,OPP2*%
X-30696500Y-4155500D02*
X-32297328Y-4155500D01*
X-32297328Y-4155500D02*
X-33436433Y-3016395D01*
X-33436433Y-3016395D02*
X-33436433Y-368000D01*
%TO.N,OPP1*%
X-29163576Y831636D02*
X-29658247Y1326307D01*
X-29163576Y831636D02*
X-27950212Y2045000D01*
X-29658247Y1326307D02*
X-31242000Y1326307D01*
X-27950212Y2045000D02*
X-26924000Y2045000D01*
D30*
%TO.N,OPO1*%
X-29718000Y0D02*
X-27603805Y0D01*
X-27478305Y125500D02*
X-26541500Y125500D01*
X-27603805Y0D02*
X-27478305Y125500D01*
X-26541500Y125500D02*
X-26162000Y-254000D01*
X-29718000Y0D02*
X-30544181Y826181D01*
X-26162000Y-254000D02*
X-26162000Y-2540000D01*
X-30544181Y826181D02*
X-31242000Y826181D01*
D32*
%TO.N,OPN1*%
X-27178000Y-599500D02*
X-27340500Y-762000D01*
X-27340500Y-762000D02*
X-30153945Y-762000D01*
X-30153945Y-762000D02*
X-31242000Y326055D01*
D30*
%TO.N,nRST*%
X-30197563Y4327063D02*
X-29972000Y4101500D01*
X-31242000Y4327063D02*
X-30197563Y4327063D01*
%TO.N,VDD*%
X-29606000Y10160000D02*
X-30226000Y10160000D01*
X-30226000Y10160000D02*
X-30988000Y9398000D01*
X-30988000Y9398000D02*
X-30988000Y8054321D01*
%TO.N,VM*%
X-37338000Y-11176000D02*
X-37338000Y-10810000D01*
%TO.N,GHS3*%
X-41110233Y2326559D02*
X-40132000Y2326559D01*
X-44704000Y1524000D02*
X-41912792Y1524000D01*
X-41912792Y1524000D02*
X-41110233Y2326559D01*
%TO.N,GHS1*%
X-40132000Y5327315D02*
X-40633315Y5327315D01*
X-40633315Y5327315D02*
X-41402000Y6096000D01*
X-41402000Y6096000D02*
X-41402000Y6604000D01*
D31*
%TO.N,VSHUNT1P*%
X-22606000Y4064000D02*
X-20828000Y2286000D01*
X-20828000Y2286000D02*
X-20828000Y-4826000D01*
X-20828000Y-4826000D02*
X-22098000Y-6096000D01*
%TO.N,VSHUNT1N*%
X-24222000Y507500D02*
X-23622000Y1107500D01*
X-24222000Y-13624000D02*
X-24222000Y507500D01*
X-23622000Y-14224000D02*
X-24222000Y-13624000D01*
D30*
%TO.N,GND*%
X-39878000Y-1270000D02*
X-40894000Y-1270000D01*
%TO.N,GLS3*%
X-41482850Y-2703544D02*
X-41319306Y-2540000D01*
X-40386000Y-2540000D02*
X-38937819Y-1091819D01*
X-41319306Y-2540000D02*
X-40386000Y-2540000D01*
X-38937819Y-1091819D02*
X-38937819Y-368000D01*
%TO.N,GLS2*%
X-40724875Y-3355065D02*
X-40564669Y-3355065D01*
X-40564669Y-3355065D02*
X-38437693Y-1228089D01*
X-38437693Y-1228089D02*
X-38437693Y-368000D01*
%TO.N,GLS1*%
X-40640000Y-4318000D02*
X-37937567Y-1615567D01*
X-41148000Y-4318000D02*
X-40640000Y-4318000D01*
X-37937567Y-1615567D02*
X-37937567Y-368000D01*
%TO.N,VREF+*%
X-35941000Y-4064000D02*
X-35941000Y-2286000D01*
X-35941000Y-2286000D02*
X-36437189Y-1789811D01*
X-36437189Y-1789811D02*
X-36437189Y-368000D01*
%TO.N,OUT3*%
X-40132000Y1826433D02*
X-40973963Y1826433D01*
X-40973963Y1826433D02*
X-42292396Y508000D01*
X-42292396Y508000D02*
X-46736000Y508000D01*
X-46736000Y508000D02*
X-47244000Y1016000D01*
%TO.N,GHS2*%
X-40132000Y3826937D02*
X-43704937Y3826937D01*
X-43704937Y3826937D02*
X-43942000Y4064000D01*
%TO.N,OUT1*%
X-41149189Y4827189D02*
X-40132000Y4827189D01*
X-43434000Y7112000D02*
X-41149189Y4827189D01*
X-45466000Y7112000D02*
X-43434000Y7112000D01*
%TO.N,OUT2*%
X-45466000Y3810000D02*
X-44982811Y3326811D01*
X-44982811Y3326811D02*
X-40132000Y3326811D01*
%TO.N,BOOT1*%
X-42418000Y4826000D02*
X-41919063Y4327063D01*
X-41919063Y4327063D02*
X-40132000Y4327063D01*
%TO.N,BOOT2*%
X-42672000Y2248500D02*
X-41947500Y2248500D01*
X-41947500Y2248500D02*
X-41369315Y2826685D01*
X-41369315Y2826685D02*
X-40132000Y2826685D01*
%TO.N,BOOT3*%
X-42672000Y-508000D02*
X-40837693Y1326307D01*
X-40837693Y1326307D02*
X-40132000Y1326307D01*
%TO.N,GND*%
X-39437945Y-829945D02*
X-39878000Y-1270000D01*
X-39437945Y-368000D02*
X-39437945Y-829945D01*
%TO.N,SW*%
X-32936307Y9300626D02*
X-33160681Y9525000D01*
X-32936307Y8522000D02*
X-32936307Y9300626D01*
%TO.N,VCC*%
X-32436181Y8522000D02*
X-32436181Y11549561D01*
X-32436181Y11549561D02*
X-32448000Y11561380D01*
X-32448000Y11561380D02*
X-32448000Y11971000D01*
X-32448000Y11971000D02*
X-32923000Y12446000D01*
%TO.N,VREGIN*%
X-31936055Y12132945D02*
X-31623000Y12446000D01*
X-31936055Y8522000D02*
X-31936055Y12132945D01*
%TO.N,Net-(IC1-VM)*%
X-33436433Y8522000D02*
X-33436433Y7838567D01*
X-33436433Y7838567D02*
X-33759500Y7515500D01*
X-33759500Y7515500D02*
X-34163000Y7515500D01*
%TO.N,SWDIO*%
X-38213319Y18161000D02*
X-38213319Y20206681D01*
X-38213319Y20206681D02*
X-36805000Y21615000D01*
X-39662319Y18161000D02*
X-39437945Y17936626D01*
X-39437945Y17936626D02*
X-39437945Y8522000D01*
%TO.N,SWCLK*%
X-38937819Y8522000D02*
X-38937819Y18667819D01*
X-38937819Y18667819D02*
X-41885000Y21615000D01*
%TO.N,VDD*%
X-31242000Y7827945D02*
X-31214376Y7827945D01*
X-31214376Y7827945D02*
X-30988000Y8054321D01*
%TO.N,VBAT*%
X-31242000Y7327819D02*
X-32453319Y7327819D01*
X-32453319Y7327819D02*
X-32512000Y7386500D01*
%TD*%
%TA.AperFunction,Conductor*%
%TO.N,OUT2*%
G36*
X-1739649Y3027998D02*
G01*
X-1733707Y3023935D01*
X-1726752Y3018882D01*
X-1720725Y3016199D01*
X-1720724Y3016198D01*
X-1626713Y2974342D01*
X-1552288Y2941206D01*
X-1461931Y2922000D01*
X-1371944Y2902872D01*
X-1371939Y2902872D01*
X-1365487Y2901500D01*
X-1174513Y2901500D01*
X-1168061Y2902872D01*
X-1168056Y2902872D01*
X-1078069Y2922000D01*
X-987712Y2941206D01*
X-913287Y2974342D01*
X-819276Y3016198D01*
X-819275Y3016199D01*
X-813248Y3018882D01*
X-806293Y3023935D01*
X-805199Y3024325D01*
X-802186Y3026065D01*
X-801868Y3025514D01*
X-739425Y3047794D01*
X-732230Y3048000D01*
X18670000Y3048000D01*
X18738121Y3027998D01*
X18784614Y2974342D01*
X18796000Y2922000D01*
X18796000Y-3430000D01*
X18775998Y-3498121D01*
X18722342Y-3544614D01*
X18670000Y-3556000D01*
X-478230Y-3556000D01*
X-546351Y-3535998D01*
X-552293Y-3531935D01*
X-553909Y-3530761D01*
X-559248Y-3526882D01*
X-623846Y-3498121D01*
X-727681Y-3451891D01*
X-727682Y-3451891D01*
X-733712Y-3449206D01*
X-827112Y-3429353D01*
X-914056Y-3410872D01*
X-914061Y-3410872D01*
X-920513Y-3409500D01*
X-1111487Y-3409500D01*
X-1117939Y-3410872D01*
X-1117944Y-3410872D01*
X-1204888Y-3429353D01*
X-1298288Y-3449206D01*
X-1304318Y-3451891D01*
X-1304319Y-3451891D01*
X-1408153Y-3498121D01*
X-1472752Y-3526882D01*
X-1478091Y-3530761D01*
X-1479707Y-3531935D01*
X-1480801Y-3532325D01*
X-1483814Y-3534065D01*
X-1484132Y-3533514D01*
X-1546575Y-3555794D01*
X-1553770Y-3556000D01*
X-4954000Y-3556000D01*
X-5022121Y-3535998D01*
X-5068614Y-3482342D01*
X-5080000Y-3430000D01*
X-5080000Y2922000D01*
X-5059998Y2990121D01*
X-5006342Y3036614D01*
X-4954000Y3048000D01*
X-1807770Y3048000D01*
X-1739649Y3027998D01*
G37*
%TD.AperFunction*%
%TD*%
%TA.AperFunction,Conductor*%
%TO.N,OUT1*%
G36*
X18484121Y-7132002D02*
G01*
X18530614Y-7185658D01*
X18542000Y-7238000D01*
X18542000Y-13717000D01*
X18521998Y-13785121D01*
X18468342Y-13831614D01*
X18416000Y-13843000D01*
X-4319000Y-13843000D01*
X-4387121Y-13822998D01*
X-4433614Y-13769342D01*
X-4445000Y-13717000D01*
X-4445000Y-7238000D01*
X-4424998Y-7169879D01*
X-4371342Y-7123386D01*
X-4319000Y-7112000D01*
X18416000Y-7112000D01*
X18484121Y-7132002D01*
G37*
%TD.AperFunction*%
%TD*%
%TA.AperFunction,Conductor*%
%TO.N,OUT3*%
G36*
X-469649Y13441998D02*
G01*
X-463707Y13437935D01*
X-456752Y13432882D01*
X-450725Y13430199D01*
X-450724Y13430198D01*
X-356713Y13388342D01*
X-282288Y13355206D01*
X-191931Y13336000D01*
X-101944Y13316872D01*
X-101939Y13316872D01*
X-95487Y13315500D01*
X95487Y13315500D01*
X101939Y13316872D01*
X101944Y13316872D01*
X191931Y13336000D01*
X282288Y13355206D01*
X356713Y13388342D01*
X450724Y13430198D01*
X450725Y13430199D01*
X456752Y13432882D01*
X463707Y13437935D01*
X464801Y13438325D01*
X467814Y13440065D01*
X468132Y13439514D01*
X530575Y13461794D01*
X537770Y13462000D01*
X18670000Y13462000D01*
X18738121Y13441998D01*
X18784614Y13388342D01*
X18796000Y13336000D01*
X18796000Y6984000D01*
X18775998Y6915879D01*
X18722342Y6869386D01*
X18670000Y6858000D01*
X-3607732Y6858000D01*
X-3675853Y6878002D01*
X-3722346Y6931658D01*
X-3727565Y6945063D01*
X-3735432Y6969275D01*
X-3735433Y6969276D01*
X-3737473Y6975556D01*
X-3832960Y7140944D01*
X-3960747Y7282866D01*
X-4115248Y7395118D01*
X-4121276Y7397802D01*
X-4121278Y7397803D01*
X-4283681Y7470109D01*
X-4283682Y7470109D01*
X-4289712Y7472794D01*
X-4383113Y7492647D01*
X-4470056Y7511128D01*
X-4470061Y7511128D01*
X-4476513Y7512500D01*
X-4667487Y7512500D01*
X-4673939Y7511128D01*
X-4673944Y7511128D01*
X-4760887Y7492647D01*
X-4854288Y7472794D01*
X-4860318Y7470109D01*
X-4860319Y7470109D01*
X-4902751Y7451217D01*
X-4973118Y7441783D01*
X-5037415Y7471890D01*
X-5075229Y7531978D01*
X-5080000Y7566324D01*
X-5080000Y13336000D01*
X-5059998Y13404121D01*
X-5006342Y13450614D01*
X-4954000Y13462000D01*
X-537770Y13462000D01*
X-469649Y13441998D01*
G37*
%TD.AperFunction*%
%TD*%
%TA.AperFunction,Conductor*%
%TO.N,GND*%
G36*
X-22917879Y24099498D02*
G01*
X-22871386Y24045842D01*
X-22860000Y23993500D01*
X-22860000Y21247285D01*
X-22880327Y21178660D01*
X-22940395Y21086163D01*
X-22943683Y21080468D01*
X-23107620Y20758725D01*
X-23110296Y20752714D01*
X-23239700Y20415605D01*
X-23241740Y20409328D01*
X-23335198Y20060537D01*
X-23336567Y20054099D01*
X-23393055Y19697440D01*
X-23393743Y19690896D01*
X-23412641Y19330301D01*
X-23412641Y19323699D01*
X-23393743Y18963104D01*
X-23393055Y18956560D01*
X-23336567Y18599901D01*
X-23335198Y18593463D01*
X-23241740Y18244672D01*
X-23239700Y18238395D01*
X-23110296Y17901286D01*
X-23107620Y17895275D01*
X-22943683Y17573532D01*
X-22940395Y17567837D01*
X-22880327Y17475340D01*
X-22860000Y17406715D01*
X-22860000Y8748528D01*
X-22880002Y8680407D01*
X-22933658Y8633914D01*
X-23003932Y8623810D01*
X-23068512Y8653304D01*
X-23075095Y8659433D01*
X-23212597Y8796935D01*
X-23243335Y8847093D01*
X-23286645Y8980386D01*
X-23295473Y9007556D01*
X-23390960Y9172944D01*
X-23484469Y9276797D01*
X-23514325Y9309955D01*
X-23514326Y9309956D01*
X-23518747Y9314866D01*
X-23673248Y9427118D01*
X-23679276Y9429802D01*
X-23679278Y9429803D01*
X-23841681Y9502109D01*
X-23841682Y9502109D01*
X-23847712Y9504794D01*
X-23941112Y9524647D01*
X-24028056Y9543128D01*
X-24028061Y9543128D01*
X-24034513Y9544500D01*
X-24225487Y9544500D01*
X-24231947Y9543127D01*
X-24231946Y9543127D01*
X-24334990Y9521225D01*
X-24405780Y9526627D01*
X-24462413Y9569444D01*
X-24486906Y9636082D01*
X-24487186Y9644472D01*
X-24487186Y9645435D01*
X-24486496Y9652000D01*
X-24494837Y9731362D01*
X-24505768Y9835365D01*
X-24505768Y9835367D01*
X-24506458Y9841928D01*
X-24565473Y10023556D01*
X-24660960Y10188944D01*
X-24734137Y10270215D01*
X-24764853Y10334221D01*
X-24766500Y10354524D01*
X-24766500Y10843232D01*
X-24765973Y10854415D01*
X-24764298Y10861908D01*
X-24765385Y10896512D01*
X-24766438Y10929998D01*
X-24766500Y10933956D01*
X-24766500Y10961856D01*
X-24767004Y10965847D01*
X-24767937Y10977689D01*
X-24769077Y11013964D01*
X-24769326Y11021889D01*
X-24771538Y11029503D01*
X-24771539Y11029508D01*
X-24774977Y11041341D01*
X-24778988Y11060705D01*
X-24780533Y11072936D01*
X-24781526Y11080797D01*
X-24784443Y11088164D01*
X-24784444Y11088169D01*
X-24797802Y11121908D01*
X-24801646Y11133135D01*
X-24803768Y11140439D01*
X-24813982Y11175593D01*
X-24824293Y11193028D01*
X-24832988Y11210776D01*
X-24840448Y11229617D01*
X-24852999Y11246893D01*
X-24866436Y11265387D01*
X-24872952Y11275307D01*
X-24891420Y11306535D01*
X-24891422Y11306538D01*
X-24895458Y11313362D01*
X-24909779Y11327683D01*
X-24922620Y11342717D01*
X-24929868Y11352693D01*
X-24934528Y11359107D01*
X-24968593Y11387288D01*
X-24977374Y11395278D01*
X-25491596Y11909501D01*
X-25525621Y11971813D01*
X-25528500Y11998596D01*
X-25528500Y18717233D01*
X-25527973Y18728416D01*
X-25526298Y18735909D01*
X-25528438Y18804000D01*
X-25528500Y18807957D01*
X-25528500Y18835856D01*
X-25529006Y18839866D01*
X-25529937Y18851689D01*
X-25530406Y18866635D01*
X-25531326Y18895889D01*
X-25533538Y18903503D01*
X-25533539Y18903508D01*
X-25536977Y18915341D01*
X-25540988Y18934705D01*
X-25542533Y18946936D01*
X-25543526Y18954797D01*
X-25546443Y18962164D01*
X-25546444Y18962169D01*
X-25559802Y18995908D01*
X-25563646Y19007135D01*
X-25573770Y19041978D01*
X-25575982Y19049593D01*
X-25586293Y19067028D01*
X-25594988Y19084776D01*
X-25602448Y19103617D01*
X-25628436Y19139387D01*
X-25634952Y19149307D01*
X-25653420Y19180535D01*
X-25653422Y19180538D01*
X-25657458Y19187362D01*
X-25671779Y19201683D01*
X-25684620Y19216717D01*
X-25691869Y19226694D01*
X-25696528Y19233107D01*
X-25702632Y19238157D01*
X-25702637Y19238162D01*
X-25730598Y19261293D01*
X-25739379Y19269283D01*
X-26674353Y20204258D01*
X-26681887Y20212537D01*
X-26686000Y20219018D01*
X-26735652Y20265644D01*
X-26738493Y20268398D01*
X-26758230Y20288135D01*
X-26761427Y20290615D01*
X-26770449Y20298320D01*
X-26770878Y20298723D01*
X-26802679Y20328586D01*
X-26809625Y20332405D01*
X-26809628Y20332407D01*
X-26820434Y20338348D01*
X-26836953Y20349199D01*
X-26845434Y20355777D01*
X-26852959Y20361614D01*
X-26860228Y20364759D01*
X-26860232Y20364762D01*
X-26893537Y20379174D01*
X-26904187Y20384391D01*
X-26942940Y20405695D01*
X-26962563Y20410733D01*
X-26981266Y20417137D01*
X-26992580Y20422033D01*
X-26992581Y20422033D01*
X-26999855Y20425181D01*
X-27007678Y20426420D01*
X-27007688Y20426423D01*
X-27043524Y20432099D01*
X-27055144Y20434505D01*
X-27090289Y20443528D01*
X-27090290Y20443528D01*
X-27097970Y20445500D01*
X-27118224Y20445500D01*
X-27137935Y20447051D01*
X-27150114Y20448980D01*
X-27157943Y20450220D01*
X-27165835Y20449474D01*
X-27201961Y20446059D01*
X-27213819Y20445500D01*
X-30667869Y20445500D01*
X-30735990Y20465502D01*
X-30782483Y20519158D01*
X-30792587Y20589432D01*
X-30760570Y20656838D01*
X-30652806Y20773899D01*
X-30652803Y20773903D01*
X-30649278Y20777732D01*
X-30543701Y20939330D01*
X-30528992Y20961843D01*
X-30528990Y20961847D01*
X-30526140Y20966209D01*
X-30435704Y21172384D01*
X-30380436Y21390632D01*
X-30361844Y21615000D01*
X-30380436Y21839368D01*
X-30435704Y22057616D01*
X-30526140Y22263791D01*
X-30543499Y22290362D01*
X-30646427Y22447904D01*
X-30649278Y22452268D01*
X-30652803Y22456097D01*
X-30652806Y22456101D01*
X-30798228Y22614069D01*
X-30801760Y22617906D01*
X-30979424Y22756189D01*
X-31151676Y22849407D01*
X-31172841Y22860861D01*
X-31172844Y22860862D01*
X-31177426Y22863342D01*
X-31238684Y22884372D01*
X-31278085Y22906459D01*
X-31293592Y22919287D01*
X-31302374Y22927278D01*
X-31754353Y23379258D01*
X-31761887Y23387537D01*
X-31766000Y23394018D01*
X-31815652Y23440644D01*
X-31818493Y23443398D01*
X-31838230Y23463135D01*
X-31841427Y23465615D01*
X-31850449Y23473320D01*
X-31854603Y23477221D01*
X-31882679Y23503586D01*
X-31889625Y23507405D01*
X-31889628Y23507407D01*
X-31900434Y23513348D01*
X-31916953Y23524199D01*
X-31917417Y23524559D01*
X-31932959Y23536614D01*
X-31940228Y23539759D01*
X-31940232Y23539762D01*
X-31973537Y23554174D01*
X-31984187Y23559391D01*
X-32022940Y23580695D01*
X-32042563Y23585733D01*
X-32061266Y23592137D01*
X-32072580Y23597033D01*
X-32072581Y23597033D01*
X-32079855Y23600181D01*
X-32087678Y23601420D01*
X-32087688Y23601423D01*
X-32123524Y23607099D01*
X-32135144Y23609505D01*
X-32170289Y23618528D01*
X-32170290Y23618528D01*
X-32177970Y23620500D01*
X-32198224Y23620500D01*
X-32217935Y23622051D01*
X-32230114Y23623980D01*
X-32237943Y23625220D01*
X-32267214Y23622453D01*
X-32281961Y23621059D01*
X-32293819Y23620500D01*
X-34846232Y23620500D01*
X-34857415Y23621027D01*
X-34864908Y23622702D01*
X-34872834Y23622453D01*
X-34872835Y23622453D01*
X-34932998Y23620562D01*
X-34936956Y23620500D01*
X-34964856Y23620500D01*
X-34968846Y23619996D01*
X-34980680Y23619064D01*
X-35024889Y23617674D01*
X-35032505Y23615461D01*
X-35032507Y23615461D01*
X-35044348Y23612021D01*
X-35063707Y23608012D01*
X-35065017Y23607846D01*
X-35083797Y23605474D01*
X-35091163Y23602558D01*
X-35091169Y23602556D01*
X-35124902Y23589200D01*
X-35136132Y23585355D01*
X-35152172Y23580695D01*
X-35178593Y23573019D01*
X-35185416Y23568984D01*
X-35196034Y23562705D01*
X-35213787Y23554008D01*
X-35221432Y23550981D01*
X-35232617Y23546552D01*
X-35246295Y23536614D01*
X-35268388Y23520563D01*
X-35278305Y23514049D01*
X-35316362Y23491542D01*
X-35330683Y23477221D01*
X-35345716Y23464381D01*
X-35362107Y23452472D01*
X-35388484Y23420587D01*
X-35390288Y23418407D01*
X-35398278Y23409626D01*
X-35952258Y22855647D01*
X-35960537Y22848113D01*
X-35967018Y22844000D01*
X-35972445Y22838221D01*
X-35972446Y22838220D01*
X-35986379Y22823382D01*
X-36047591Y22787416D01*
X-36118531Y22790253D01*
X-36138199Y22798820D01*
X-36252841Y22860861D01*
X-36252844Y22860862D01*
X-36257426Y22863342D01*
X-36470365Y22936444D01*
X-36475499Y22937301D01*
X-36475504Y22937302D01*
X-36687294Y22972643D01*
X-36687296Y22972643D01*
X-36692431Y22973500D01*
X-36917569Y22973500D01*
X-36922704Y22972643D01*
X-36922706Y22972643D01*
X-37134496Y22937302D01*
X-37134501Y22937301D01*
X-37139635Y22936444D01*
X-37352574Y22863342D01*
X-37357156Y22860862D01*
X-37357159Y22860861D01*
X-37378324Y22849407D01*
X-37550576Y22756189D01*
X-37728240Y22617906D01*
X-37731772Y22614069D01*
X-37877194Y22456101D01*
X-37877197Y22456097D01*
X-37880722Y22452268D01*
X-37883569Y22447910D01*
X-37969816Y22315899D01*
X-38023820Y22269811D01*
X-38094168Y22260236D01*
X-38158525Y22290214D01*
X-38180782Y22315899D01*
X-38266823Y22447593D01*
X-38273210Y22455799D01*
X-38418568Y22613700D01*
X-38426211Y22620737D01*
X-38595589Y22752569D01*
X-38604282Y22758248D01*
X-38793043Y22860401D01*
X-38802560Y22864575D01*
X-39005557Y22934264D01*
X-39015627Y22936815D01*
X-39073133Y22946411D01*
X-39086648Y22944777D01*
X-39091000Y22930551D01*
X-39091000Y20298723D01*
X-39087164Y20285660D01*
X-39072416Y20283709D01*
X-39015624Y20293186D01*
X-39004046Y20296118D01*
X-38933099Y20293452D01*
X-38874857Y20252852D01*
X-38847672Y20185825D01*
X-38847378Y20182713D01*
X-38846819Y20170862D01*
X-38846819Y19776914D01*
X-38866821Y19708793D01*
X-38920477Y19662300D01*
X-38990751Y19652196D01*
X-39055331Y19681690D01*
X-39061914Y19687819D01*
X-39562918Y20188823D01*
X-39596944Y20251135D01*
X-39595724Y20280608D01*
X-39599000Y20280608D01*
X-39599000Y22931277D01*
X-39602836Y22944340D01*
X-39617584Y22946291D01*
X-39674373Y22936815D01*
X-39684443Y22934264D01*
X-39887440Y22864575D01*
X-39896957Y22860401D01*
X-40085718Y22758248D01*
X-40094411Y22752569D01*
X-40263789Y22620737D01*
X-40271432Y22613700D01*
X-40416790Y22455799D01*
X-40423177Y22447593D01*
X-40509218Y22315899D01*
X-40563222Y22269811D01*
X-40633570Y22260236D01*
X-40697927Y22290214D01*
X-40720184Y22315899D01*
X-40806431Y22447910D01*
X-40809278Y22452268D01*
X-40812803Y22456097D01*
X-40812806Y22456101D01*
X-40958228Y22614069D01*
X-40961760Y22617906D01*
X-41139424Y22756189D01*
X-41311676Y22849407D01*
X-41332841Y22860861D01*
X-41332844Y22860862D01*
X-41337426Y22863342D01*
X-41550365Y22936444D01*
X-41555499Y22937301D01*
X-41555504Y22937302D01*
X-41767294Y22972643D01*
X-41767296Y22972643D01*
X-41772431Y22973500D01*
X-41997569Y22973500D01*
X-42002704Y22972643D01*
X-42002706Y22972643D01*
X-42214496Y22937302D01*
X-42214501Y22937301D01*
X-42219635Y22936444D01*
X-42432574Y22863342D01*
X-42437156Y22860862D01*
X-42437159Y22860861D01*
X-42458324Y22849407D01*
X-42630576Y22756189D01*
X-42808240Y22617906D01*
X-42811772Y22614069D01*
X-42869245Y22551638D01*
X-42930099Y22515067D01*
X-43001063Y22517202D01*
X-43059608Y22557364D01*
X-43080002Y22592944D01*
X-43120962Y22702761D01*
X-43120963Y22702763D01*
X-43124111Y22711204D01*
X-43155076Y22752569D01*
X-43206341Y22821050D01*
X-43211739Y22828261D01*
X-43286694Y22884372D01*
X-43321582Y22910489D01*
X-43321584Y22910490D01*
X-43328796Y22915889D01*
X-43465799Y22966989D01*
X-43502705Y22970957D01*
X-43523012Y22973140D01*
X-43523015Y22973140D01*
X-43526362Y22973500D01*
X-45323638Y22973500D01*
X-45326985Y22973140D01*
X-45326988Y22973140D01*
X-45347295Y22970957D01*
X-45384201Y22966989D01*
X-45521204Y22915889D01*
X-45528416Y22910490D01*
X-45528418Y22910489D01*
X-45563306Y22884372D01*
X-45638261Y22828261D01*
X-45643659Y22821050D01*
X-45694923Y22752569D01*
X-45725889Y22711204D01*
X-45776989Y22574201D01*
X-45783500Y22513638D01*
X-45783500Y20716362D01*
X-45783140Y20713015D01*
X-45783140Y20713012D01*
X-45782129Y20703612D01*
X-45776989Y20655799D01*
X-45725889Y20518796D01*
X-45638261Y20401739D01*
X-45611269Y20381533D01*
X-45540540Y20328586D01*
X-45521204Y20314111D01*
X-45384201Y20263011D01*
X-45347295Y20259043D01*
X-45326988Y20256860D01*
X-45326985Y20256860D01*
X-45323638Y20256500D01*
X-43526362Y20256500D01*
X-43523015Y20256860D01*
X-43523012Y20256860D01*
X-43502705Y20259043D01*
X-43465799Y20263011D01*
X-43328796Y20314111D01*
X-43309459Y20328586D01*
X-43238731Y20381533D01*
X-43211739Y20401739D01*
X-43124111Y20518796D01*
X-43080002Y20637056D01*
X-43037455Y20693892D01*
X-42970935Y20718703D01*
X-42901561Y20703612D01*
X-42869245Y20678362D01*
X-42849430Y20656838D01*
X-42808240Y20612094D01*
X-42630576Y20473811D01*
X-42585605Y20449474D01*
X-42489661Y20397552D01*
X-42432574Y20366658D01*
X-42219635Y20293556D01*
X-42214501Y20292699D01*
X-42214496Y20292698D01*
X-42002706Y20257357D01*
X-42002704Y20257357D01*
X-41997569Y20256500D01*
X-41772431Y20256500D01*
X-41767296Y20257357D01*
X-41767294Y20257357D01*
X-41555499Y20292699D01*
X-41555496Y20292700D01*
X-41550365Y20293556D01*
X-41547076Y20294685D01*
X-41476636Y20292035D01*
X-41427558Y20261654D01*
X-40222780Y19056876D01*
X-40188754Y18994564D01*
X-40193819Y18923749D01*
X-40237813Y18865846D01*
X-40273572Y18839866D01*
X-40277993Y18834956D01*
X-40277994Y18834955D01*
X-40373312Y18729093D01*
X-40401359Y18697944D01*
X-40496846Y18532556D01*
X-40555861Y18350928D01*
X-40556551Y18344367D01*
X-40556551Y18344365D01*
X-40575133Y18167565D01*
X-40575823Y18161000D01*
X-40575133Y18154435D01*
X-40559754Y18008115D01*
X-40555861Y17971072D01*
X-40496846Y17789444D01*
X-40401359Y17624056D01*
X-40396941Y17619149D01*
X-40396940Y17619148D01*
X-40355867Y17573532D01*
X-40273572Y17482134D01*
X-40123383Y17373015D01*
X-40080030Y17316794D01*
X-40071445Y17271080D01*
X-40071445Y9002394D01*
X-40072167Y8988926D01*
X-40073445Y8977038D01*
X-40073445Y8589445D01*
X-40093447Y8521324D01*
X-40147103Y8474831D01*
X-40199445Y8463445D01*
X-40587038Y8463445D01*
X-40590385Y8463085D01*
X-40590388Y8463085D01*
X-40610695Y8460902D01*
X-40647601Y8456934D01*
X-40784604Y8405834D01*
X-40901661Y8318206D01*
X-40907059Y8310995D01*
X-40977895Y8216369D01*
X-40989289Y8201149D01*
X-41040389Y8064146D01*
X-41046900Y8003583D01*
X-41046900Y7652307D01*
X-41046540Y7648961D01*
X-41046540Y7648956D01*
X-41044031Y7625620D01*
X-41056637Y7555752D01*
X-41105016Y7503790D01*
X-41173807Y7486232D01*
X-41195506Y7488905D01*
X-41300056Y7511128D01*
X-41300061Y7511128D01*
X-41306513Y7512500D01*
X-41497487Y7512500D01*
X-41503939Y7511128D01*
X-41503944Y7511128D01*
X-41571721Y7496721D01*
X-41684288Y7472794D01*
X-41690318Y7470109D01*
X-41690319Y7470109D01*
X-41852722Y7397803D01*
X-41852724Y7397802D01*
X-41858752Y7395118D01*
X-42013253Y7282866D01*
X-42017674Y7277956D01*
X-42017675Y7277955D01*
X-42095743Y7191251D01*
X-42141040Y7140944D01*
X-42144339Y7135231D01*
X-42144342Y7135226D01*
X-42214864Y7013078D01*
X-42266247Y6964085D01*
X-42335960Y6950649D01*
X-42401871Y6977036D01*
X-42413078Y6986983D01*
X-42930348Y7504253D01*
X-42937888Y7512539D01*
X-42942000Y7519018D01*
X-42991652Y7565644D01*
X-42994493Y7568398D01*
X-43014230Y7588135D01*
X-43017427Y7590615D01*
X-43026449Y7598320D01*
X-43036182Y7607460D01*
X-43058679Y7628586D01*
X-43065625Y7632405D01*
X-43065628Y7632407D01*
X-43076434Y7638348D01*
X-43092953Y7649199D01*
X-43096960Y7652307D01*
X-43108959Y7661614D01*
X-43116228Y7664759D01*
X-43116232Y7664762D01*
X-43149537Y7679174D01*
X-43160187Y7684391D01*
X-43198940Y7705695D01*
X-43218563Y7710733D01*
X-43237266Y7717137D01*
X-43248580Y7722033D01*
X-43248581Y7722033D01*
X-43255855Y7725181D01*
X-43263678Y7726420D01*
X-43263688Y7726423D01*
X-43299524Y7732099D01*
X-43311144Y7734505D01*
X-43346289Y7743528D01*
X-43346290Y7743528D01*
X-43353970Y7745500D01*
X-43374224Y7745500D01*
X-43393935Y7747051D01*
X-43406114Y7748980D01*
X-43413943Y7750220D01*
X-43421835Y7749474D01*
X-43457961Y7746059D01*
X-43469819Y7745500D01*
X-44757800Y7745500D01*
X-44825921Y7765502D01*
X-44845147Y7781843D01*
X-44845420Y7781540D01*
X-44850332Y7785963D01*
X-44854747Y7790866D01*
X-44881183Y7810073D01*
X-45003906Y7899237D01*
X-45003907Y7899238D01*
X-45009248Y7903118D01*
X-45015276Y7905802D01*
X-45015278Y7905803D01*
X-45177681Y7978109D01*
X-45177682Y7978109D01*
X-45183712Y7980794D01*
X-45290925Y8003583D01*
X-45364056Y8019128D01*
X-45364061Y8019128D01*
X-45370513Y8020500D01*
X-45561487Y8020500D01*
X-45567939Y8019128D01*
X-45567944Y8019128D01*
X-45641075Y8003583D01*
X-45748288Y7980794D01*
X-45754318Y7978109D01*
X-45754319Y7978109D01*
X-45916722Y7905803D01*
X-45916724Y7905802D01*
X-45922752Y7903118D01*
X-45928093Y7899238D01*
X-45928094Y7899237D01*
X-45929020Y7898564D01*
X-45929646Y7898340D01*
X-45933811Y7895936D01*
X-45934251Y7896698D01*
X-45995887Y7874706D01*
X-46003081Y7874500D01*
X-47687264Y7874500D01*
X-47705526Y7875830D01*
X-47707665Y7876143D01*
X-47729672Y7879367D01*
X-47736987Y7878727D01*
X-47779813Y7874980D01*
X-47790795Y7874500D01*
X-47796412Y7874500D01*
X-47827704Y7870843D01*
X-47831329Y7870473D01*
X-47850982Y7868753D01*
X-47899928Y7864471D01*
X-47899930Y7864471D01*
X-47907240Y7863831D01*
X-47914206Y7861523D01*
X-47917648Y7860812D01*
X-47917993Y7860756D01*
X-47918337Y7860659D01*
X-47921750Y7859850D01*
X-47929042Y7858998D01*
X-47935939Y7856488D01*
X-47935946Y7856486D01*
X-48000637Y7832940D01*
X-48004099Y7831736D01*
X-48023983Y7825147D01*
X-48076440Y7807765D01*
X-48082686Y7803913D01*
X-48085872Y7802427D01*
X-48086192Y7802294D01*
X-48086506Y7802119D01*
X-48089641Y7800545D01*
X-48096539Y7798034D01*
X-48102670Y7794001D01*
X-48102673Y7794000D01*
X-48160189Y7756170D01*
X-48163269Y7754208D01*
X-48228149Y7714189D01*
X-48233343Y7708995D01*
X-48236086Y7706826D01*
X-48236379Y7706614D01*
X-48236636Y7706379D01*
X-48239332Y7704117D01*
X-48245462Y7700085D01*
X-48278788Y7664762D01*
X-48297771Y7644641D01*
X-48300325Y7642013D01*
X-49007394Y6934944D01*
X-49021247Y6922971D01*
X-49040822Y6908398D01*
X-49045536Y6902780D01*
X-49073180Y6869835D01*
X-49080607Y6861731D01*
X-49084573Y6857765D01*
X-49086846Y6854890D01*
X-49104105Y6833063D01*
X-49106418Y6830225D01*
X-49150677Y6777478D01*
X-49150680Y6777473D01*
X-49155396Y6771853D01*
X-49158688Y6765298D01*
X-49160609Y6762377D01*
X-49160825Y6762077D01*
X-49160994Y6761775D01*
X-49162845Y6758775D01*
X-49167395Y6753020D01*
X-49188559Y6707634D01*
X-49199598Y6683960D01*
X-49201196Y6680661D01*
X-49232099Y6619129D01*
X-49232102Y6619121D01*
X-49235394Y6612566D01*
X-49237086Y6605427D01*
X-49238292Y6602114D01*
X-49238423Y6601798D01*
X-49238519Y6601459D01*
X-49239625Y6598122D01*
X-49242725Y6591473D01*
X-49244208Y6584289D01*
X-49244209Y6584287D01*
X-49258130Y6516866D01*
X-49258923Y6513289D01*
X-49276500Y6439123D01*
X-49276500Y6431785D01*
X-49276908Y6428294D01*
X-49276964Y6427945D01*
X-49276980Y6427588D01*
X-49277286Y6424091D01*
X-49278769Y6416909D01*
X-49278556Y6409581D01*
X-49278556Y6409579D01*
X-49276553Y6340746D01*
X-49276500Y6337082D01*
X-49276500Y-3999271D01*
X-49277830Y-4017533D01*
X-49280151Y-4033380D01*
X-49281366Y-4041672D01*
X-49278523Y-4074170D01*
X-49276979Y-4091816D01*
X-49276500Y-4102798D01*
X-49276500Y-4108412D01*
X-49274202Y-4128072D01*
X-49272845Y-4139680D01*
X-49272472Y-4143325D01*
X-49265831Y-4219240D01*
X-49263522Y-4226207D01*
X-49262812Y-4229648D01*
X-49262756Y-4229994D01*
X-49262659Y-4230337D01*
X-49261850Y-4233750D01*
X-49260998Y-4241042D01*
X-49258488Y-4247939D01*
X-49258486Y-4247946D01*
X-49234940Y-4312637D01*
X-49233736Y-4316099D01*
X-49213955Y-4375794D01*
X-49209765Y-4388440D01*
X-49205913Y-4394684D01*
X-49204428Y-4397869D01*
X-49204294Y-4398193D01*
X-49204114Y-4398515D01*
X-49202545Y-4401639D01*
X-49200034Y-4408539D01*
X-49158148Y-4472224D01*
X-49156196Y-4475288D01*
X-49120040Y-4533905D01*
X-49120037Y-4533908D01*
X-49116188Y-4540149D01*
X-49110998Y-4545339D01*
X-49108832Y-4548078D01*
X-49108618Y-4548375D01*
X-49108384Y-4548630D01*
X-49106117Y-4551332D01*
X-49102085Y-4557462D01*
X-49093634Y-4565435D01*
X-49046624Y-4609787D01*
X-49043996Y-4612341D01*
X-45367403Y-8288935D01*
X-45336665Y-8339093D01*
X-45284527Y-8499556D01*
X-45281224Y-8505278D01*
X-45281223Y-8505279D01*
X-45262799Y-8537190D01*
X-45189040Y-8664944D01*
X-45184622Y-8669851D01*
X-45184621Y-8669852D01*
X-45157705Y-8699745D01*
X-45061253Y-8806866D01*
X-44906752Y-8919118D01*
X-44900724Y-8921802D01*
X-44900722Y-8921803D01*
X-44738319Y-8994109D01*
X-44732288Y-8996794D01*
X-44638888Y-9016647D01*
X-44551944Y-9035128D01*
X-44551939Y-9035128D01*
X-44545487Y-9036500D01*
X-44354513Y-9036500D01*
X-44348061Y-9035128D01*
X-44348056Y-9035128D01*
X-44261112Y-9016647D01*
X-44167712Y-8996794D01*
X-44161681Y-8994109D01*
X-43999278Y-8921803D01*
X-43999276Y-8921802D01*
X-43993248Y-8919118D01*
X-43838747Y-8806866D01*
X-43742295Y-8699745D01*
X-43715379Y-8669852D01*
X-43715378Y-8669851D01*
X-43710960Y-8664944D01*
X-43637201Y-8537190D01*
X-43618777Y-8505279D01*
X-43618776Y-8505278D01*
X-43615473Y-8499556D01*
X-43556458Y-8317928D01*
X-43554454Y-8298866D01*
X-43537186Y-8134565D01*
X-43536496Y-8128000D01*
X-43541711Y-8078379D01*
X-43555768Y-7944635D01*
X-43555768Y-7944633D01*
X-43556458Y-7938072D01*
X-43615473Y-7756444D01*
X-43710960Y-7591056D01*
X-43838747Y-7449134D01*
X-43993248Y-7336882D01*
X-43999276Y-7334198D01*
X-43999278Y-7334197D01*
X-44161681Y-7261891D01*
X-44161682Y-7261891D01*
X-44167712Y-7259206D01*
X-44204076Y-7251477D01*
X-44223588Y-7247329D01*
X-44286486Y-7213177D01*
X-47714595Y-3785067D01*
X-47748621Y-3722755D01*
X-47751500Y-3695972D01*
X-47751500Y53453D01*
X-47731498Y121574D01*
X-47677842Y168067D01*
X-47607568Y178171D01*
X-47574252Y168560D01*
X-47532323Y149892D01*
X-47532315Y149889D01*
X-47526288Y147206D01*
X-47447867Y130537D01*
X-47345944Y108872D01*
X-47345939Y108872D01*
X-47339487Y107500D01*
X-47284828Y107500D01*
X-47216707Y87498D01*
X-47198576Y73351D01*
X-47178334Y54343D01*
X-47175491Y51587D01*
X-47155770Y31866D01*
X-47152575Y29388D01*
X-47143553Y21682D01*
X-47111321Y-8586D01*
X-47104372Y-12406D01*
X-47093568Y-18346D01*
X-47077044Y-29199D01*
X-47061041Y-41613D01*
X-47020457Y-59176D01*
X-47009827Y-64383D01*
X-46971060Y-85695D01*
X-46963383Y-87666D01*
X-46963378Y-87668D01*
X-46951442Y-90732D01*
X-46932734Y-97137D01*
X-46914145Y-105181D01*
X-46906320Y-106420D01*
X-46906318Y-106421D01*
X-46870481Y-112097D01*
X-46858860Y-114504D01*
X-46823711Y-123528D01*
X-46816030Y-125500D01*
X-46795769Y-125500D01*
X-46776060Y-127051D01*
X-46756057Y-130219D01*
X-46748165Y-129473D01*
X-46742938Y-128979D01*
X-46712046Y-126059D01*
X-46700189Y-125500D01*
X-43676395Y-125500D01*
X-43608274Y-145502D01*
X-43561781Y-199158D01*
X-43551677Y-269432D01*
X-43556563Y-290438D01*
X-43563502Y-311792D01*
X-43563503Y-311797D01*
X-43565542Y-318072D01*
X-43566232Y-324633D01*
X-43566232Y-324635D01*
X-43572377Y-383103D01*
X-43585504Y-508000D01*
X-43565542Y-697928D01*
X-43506527Y-879556D01*
X-43411040Y-1044944D01*
X-43406622Y-1049851D01*
X-43406621Y-1049852D01*
X-43287675Y-1181955D01*
X-43283253Y-1186866D01*
X-43206925Y-1242322D01*
X-43136451Y-1293524D01*
X-43128752Y-1299118D01*
X-43122724Y-1301802D01*
X-43122722Y-1301803D01*
X-42960319Y-1374109D01*
X-42954288Y-1376794D01*
X-42876624Y-1393302D01*
X-42773944Y-1415128D01*
X-42773939Y-1415128D01*
X-42767487Y-1416500D01*
X-42576513Y-1416500D01*
X-42570061Y-1415128D01*
X-42570056Y-1415128D01*
X-42467376Y-1393302D01*
X-42389712Y-1376794D01*
X-42383681Y-1374109D01*
X-42221278Y-1301803D01*
X-42221276Y-1301802D01*
X-42215248Y-1299118D01*
X-42207548Y-1293524D01*
X-42137075Y-1242322D01*
X-42060747Y-1186866D01*
X-42056325Y-1181955D01*
X-41937379Y-1049852D01*
X-41937378Y-1049851D01*
X-41932960Y-1044944D01*
X-41837473Y-879556D01*
X-41778458Y-697928D01*
X-41761093Y-532708D01*
X-41734080Y-467051D01*
X-41724878Y-456783D01*
X-41216473Y51622D01*
X-41154161Y85648D01*
X-41083346Y80583D01*
X-41026510Y38036D01*
X-41009323Y6561D01*
X-40995984Y-29199D01*
X-40989289Y-47149D01*
X-40983890Y-54361D01*
X-40983889Y-54363D01*
X-40939974Y-113026D01*
X-40901661Y-164206D01*
X-40894450Y-169604D01*
X-40797667Y-242055D01*
X-40784604Y-251834D01*
X-40647601Y-302934D01*
X-40610695Y-306902D01*
X-40590388Y-309085D01*
X-40590385Y-309085D01*
X-40587038Y-309445D01*
X-40181309Y-309445D01*
X-40113188Y-329447D01*
X-40066695Y-383103D01*
X-40056591Y-453377D01*
X-40064903Y-471577D01*
X-40072945Y-508548D01*
X-40072945Y-819623D01*
X-40072585Y-826338D01*
X-40067283Y-875657D01*
X-40063686Y-890878D01*
X-40018540Y-1011920D01*
X-40009990Y-1027577D01*
X-39972455Y-1077717D01*
X-39947643Y-1144237D01*
X-39962734Y-1213611D01*
X-39984227Y-1242322D01*
X-40611500Y-1869595D01*
X-40673812Y-1903621D01*
X-40700595Y-1906500D01*
X-41012625Y-1906500D01*
X-41063874Y-1895607D01*
X-41194531Y-1837435D01*
X-41194532Y-1837435D01*
X-41200562Y-1834750D01*
X-41304195Y-1812722D01*
X-41380906Y-1796416D01*
X-41380911Y-1796416D01*
X-41387363Y-1795044D01*
X-41578337Y-1795044D01*
X-41584789Y-1796416D01*
X-41584794Y-1796416D01*
X-41661505Y-1812722D01*
X-41765138Y-1834750D01*
X-41771168Y-1837435D01*
X-41771169Y-1837435D01*
X-41933572Y-1909741D01*
X-41933574Y-1909742D01*
X-41939602Y-1912426D01*
X-42094103Y-2024678D01*
X-42098524Y-2029588D01*
X-42098525Y-2029589D01*
X-42213369Y-2157137D01*
X-42221890Y-2166600D01*
X-42225191Y-2172318D01*
X-42305240Y-2310967D01*
X-42317377Y-2331988D01*
X-42376392Y-2513616D01*
X-42396354Y-2703544D01*
X-42376392Y-2893472D01*
X-42317377Y-3075100D01*
X-42314074Y-3080822D01*
X-42314073Y-3080823D01*
X-42307127Y-3092853D01*
X-42221890Y-3240488D01*
X-42217472Y-3245395D01*
X-42217471Y-3245396D01*
X-42111522Y-3363064D01*
X-42094103Y-3382410D01*
X-42003148Y-3448493D01*
X-41952636Y-3485192D01*
X-41939602Y-3494662D01*
X-41933574Y-3497346D01*
X-41933572Y-3497347D01*
X-41876435Y-3522786D01*
X-41822339Y-3568767D01*
X-41801690Y-3636694D01*
X-41821043Y-3705002D01*
X-41834040Y-3722194D01*
X-41887040Y-3781056D01*
X-41982527Y-3946444D01*
X-42041542Y-4128072D01*
X-42042232Y-4134633D01*
X-42042232Y-4134635D01*
X-42060814Y-4311435D01*
X-42061504Y-4318000D01*
X-42060814Y-4324565D01*
X-42045135Y-4473739D01*
X-42041542Y-4507928D01*
X-41982527Y-4689556D01*
X-41979224Y-4695278D01*
X-41979223Y-4695279D01*
X-41950414Y-4745178D01*
X-41887040Y-4854944D01*
X-41882622Y-4859851D01*
X-41882621Y-4859852D01*
X-41802079Y-4949303D01*
X-41759253Y-4996866D01*
X-41604752Y-5109118D01*
X-41598722Y-5111803D01*
X-41592999Y-5115107D01*
X-41593620Y-5116182D01*
X-41544731Y-5157737D01*
X-41524082Y-5225664D01*
X-41525069Y-5242653D01*
X-41525529Y-5246292D01*
X-41527500Y-5253970D01*
X-41527500Y-5274224D01*
X-41529051Y-5293934D01*
X-41532220Y-5313943D01*
X-41531474Y-5321835D01*
X-41528059Y-5357961D01*
X-41527500Y-5369819D01*
X-41527500Y-9203476D01*
X-41547502Y-9271597D01*
X-41559858Y-9287779D01*
X-41633040Y-9369056D01*
X-41728527Y-9534444D01*
X-41787542Y-9716072D01*
X-41807504Y-9906000D01*
X-41806814Y-9912565D01*
X-41793144Y-10042624D01*
X-41787542Y-10095928D01*
X-41728527Y-10277556D01*
X-41725224Y-10283278D01*
X-41725223Y-10283279D01*
X-41707194Y-10314506D01*
X-41633040Y-10442944D01*
X-41505253Y-10584866D01*
X-41350752Y-10697118D01*
X-41344724Y-10699802D01*
X-41344722Y-10699803D01*
X-41182319Y-10772109D01*
X-41176288Y-10774794D01*
X-41082888Y-10794647D01*
X-40995944Y-10813128D01*
X-40995939Y-10813128D01*
X-40989487Y-10814500D01*
X-40798513Y-10814500D01*
X-40792061Y-10813128D01*
X-40792056Y-10813128D01*
X-40705113Y-10794647D01*
X-40611712Y-10774794D01*
X-40605681Y-10772109D01*
X-40443278Y-10699803D01*
X-40443276Y-10699802D01*
X-40437248Y-10697118D01*
X-40282747Y-10584866D01*
X-40154960Y-10442944D01*
X-40080806Y-10314506D01*
X-40062777Y-10283279D01*
X-40062776Y-10283278D01*
X-40059473Y-10277556D01*
X-40000458Y-10095928D01*
X-39994855Y-10042624D01*
X-39981186Y-9912565D01*
X-39980496Y-9906000D01*
X-40000458Y-9716072D01*
X-40059473Y-9534444D01*
X-40154960Y-9369056D01*
X-40228137Y-9287785D01*
X-40258853Y-9223779D01*
X-40260500Y-9203476D01*
X-40260500Y-6300754D01*
X-40240498Y-6232633D01*
X-40186842Y-6186140D01*
X-40116568Y-6176036D01*
X-40051988Y-6205530D01*
X-40013604Y-6265256D01*
X-40011254Y-6274556D01*
X-40010232Y-6279364D01*
X-40009542Y-6285928D01*
X-39950527Y-6467556D01*
X-39947224Y-6473278D01*
X-39947223Y-6473279D01*
X-39921402Y-6518002D01*
X-39855040Y-6632944D01*
X-39727253Y-6774866D01*
X-39572752Y-6887118D01*
X-39566724Y-6889802D01*
X-39566722Y-6889803D01*
X-39404319Y-6962109D01*
X-39398288Y-6964794D01*
X-39317971Y-6981866D01*
X-39217944Y-7003128D01*
X-39217939Y-7003128D01*
X-39211487Y-7004500D01*
X-39020513Y-7004500D01*
X-39014061Y-7003128D01*
X-39014056Y-7003128D01*
X-38914029Y-6981866D01*
X-38833712Y-6964794D01*
X-38827681Y-6962109D01*
X-38665278Y-6889803D01*
X-38665276Y-6889802D01*
X-38659248Y-6887118D01*
X-38504747Y-6774866D01*
X-38376960Y-6632944D01*
X-38310598Y-6518002D01*
X-38284777Y-6473279D01*
X-38284776Y-6473278D01*
X-38281473Y-6467556D01*
X-38222458Y-6285928D01*
X-38213696Y-6202558D01*
X-38186683Y-6136902D01*
X-38128462Y-6096272D01*
X-38088386Y-6089729D01*
X-37585569Y-6089729D01*
X-37517448Y-6109731D01*
X-37470955Y-6163387D01*
X-37461120Y-6196018D01*
X-37460922Y-6197267D01*
X-37460673Y-6205194D01*
X-37458461Y-6212808D01*
X-37455022Y-6224644D01*
X-37451013Y-6244005D01*
X-37448474Y-6264102D01*
X-37445555Y-6271473D01*
X-37445555Y-6271475D01*
X-37432196Y-6305217D01*
X-37428351Y-6316447D01*
X-37416018Y-6358898D01*
X-37411985Y-6365717D01*
X-37411983Y-6365722D01*
X-37405707Y-6376333D01*
X-37397012Y-6394081D01*
X-37389552Y-6412922D01*
X-37384890Y-6419338D01*
X-37384890Y-6419339D01*
X-37363564Y-6448692D01*
X-37357048Y-6458612D01*
X-37351758Y-6467556D01*
X-37334542Y-6496667D01*
X-37320221Y-6510988D01*
X-37307381Y-6526021D01*
X-37295472Y-6542412D01*
X-37289366Y-6547463D01*
X-37261395Y-6570603D01*
X-37252616Y-6578593D01*
X-35676478Y-8154731D01*
X-35645741Y-8204889D01*
X-35632527Y-8245556D01*
X-35537040Y-8410944D01*
X-35532622Y-8415851D01*
X-35532621Y-8415852D01*
X-35423368Y-8537190D01*
X-35392650Y-8601197D01*
X-35401415Y-8671651D01*
X-35446878Y-8726182D01*
X-35517004Y-8747500D01*
X-36372969Y-8747500D01*
X-36441090Y-8727498D01*
X-36455480Y-8716725D01*
X-36475077Y-8699745D01*
X-36475081Y-8699742D01*
X-36478482Y-8696795D01*
X-36601488Y-8617744D01*
X-36732273Y-8558016D01*
X-36872573Y-8516820D01*
X-36877029Y-8516179D01*
X-36877035Y-8516178D01*
X-36956238Y-8504791D01*
X-37014888Y-8496358D01*
X-37123363Y-8496358D01*
X-37123763Y-8496315D01*
X-37123763Y-8496271D01*
X-37552237Y-8496271D01*
X-37552237Y-8496315D01*
X-37552533Y-8496358D01*
X-37661112Y-8496358D01*
X-37719762Y-8504791D01*
X-37798965Y-8516178D01*
X-37798971Y-8516179D01*
X-37803427Y-8516820D01*
X-37943727Y-8558016D01*
X-38074512Y-8617744D01*
X-38197518Y-8696795D01*
X-38200913Y-8699737D01*
X-38200916Y-8699739D01*
X-38281617Y-8769666D01*
X-38306179Y-8790949D01*
X-38401938Y-8901460D01*
X-38479670Y-9022414D01*
X-38540413Y-9155423D01*
X-38541681Y-9159742D01*
X-38579278Y-9287787D01*
X-38580920Y-9293378D01*
X-38581560Y-9297826D01*
X-38581561Y-9297833D01*
X-38601090Y-9433663D01*
X-38601091Y-9433670D01*
X-38601729Y-9438111D01*
X-38601729Y-10010000D01*
X-38596500Y-10083111D01*
X-38590253Y-10104384D01*
X-38585833Y-10119438D01*
X-38582012Y-10172868D01*
X-38601729Y-10310000D01*
X-38601729Y-10881889D01*
X-38601091Y-10886330D01*
X-38601090Y-10886337D01*
X-38581561Y-11022167D01*
X-38580920Y-11026622D01*
X-38540413Y-11164577D01*
X-38479670Y-11297586D01*
X-38401938Y-11418540D01*
X-38306179Y-11529051D01*
X-38197518Y-11623205D01*
X-38139059Y-11660774D01*
X-38112126Y-11678083D01*
X-38079228Y-11709153D01*
X-38077040Y-11712944D01*
X-37949253Y-11854866D01*
X-37794752Y-11967118D01*
X-37788724Y-11969802D01*
X-37788722Y-11969803D01*
X-37716244Y-12002072D01*
X-37620288Y-12044794D01*
X-37526888Y-12064647D01*
X-37439944Y-12083128D01*
X-37439939Y-12083128D01*
X-37433487Y-12084500D01*
X-37242513Y-12084500D01*
X-37236061Y-12083128D01*
X-37236056Y-12083128D01*
X-37149113Y-12064647D01*
X-37055712Y-12044794D01*
X-36959756Y-12002072D01*
X-36887278Y-11969803D01*
X-36887276Y-11969802D01*
X-36881248Y-11967118D01*
X-36726747Y-11854866D01*
X-36598960Y-11712944D01*
X-36596772Y-11709153D01*
X-36563874Y-11678083D01*
X-36536941Y-11660774D01*
X-36478482Y-11623205D01*
X-36369821Y-11529051D01*
X-36274062Y-11418540D01*
X-36196330Y-11297586D01*
X-36135587Y-11164577D01*
X-36095080Y-11026622D01*
X-36094439Y-11022167D01*
X-36074910Y-10886337D01*
X-36074909Y-10886330D01*
X-36074271Y-10881889D01*
X-36074271Y-10398500D01*
X-36054269Y-10330379D01*
X-36000613Y-10283886D01*
X-35948271Y-10272500D01*
X-33906235Y-10272500D01*
X-33887973Y-10273830D01*
X-33871094Y-10276303D01*
X-33871090Y-10276303D01*
X-33863834Y-10277366D01*
X-33813690Y-10272979D01*
X-33802708Y-10272500D01*
X-33797094Y-10272500D01*
X-33765824Y-10268845D01*
X-33762178Y-10268472D01*
X-33686266Y-10261831D01*
X-33679299Y-10259522D01*
X-33675858Y-10258812D01*
X-33675512Y-10258756D01*
X-33675169Y-10258659D01*
X-33671756Y-10257850D01*
X-33664464Y-10256998D01*
X-33657567Y-10254488D01*
X-33657560Y-10254486D01*
X-33592869Y-10230940D01*
X-33589407Y-10229736D01*
X-33524033Y-10208074D01*
X-33524030Y-10208073D01*
X-33517066Y-10205765D01*
X-33510822Y-10201913D01*
X-33507637Y-10200428D01*
X-33507313Y-10200294D01*
X-33506991Y-10200114D01*
X-33503867Y-10198545D01*
X-33496967Y-10196034D01*
X-33433282Y-10154148D01*
X-33430218Y-10152196D01*
X-33371601Y-10116040D01*
X-33371598Y-10116037D01*
X-33365357Y-10112188D01*
X-33360167Y-10106998D01*
X-33357428Y-10104832D01*
X-33357131Y-10104618D01*
X-33356876Y-10104384D01*
X-33354174Y-10102117D01*
X-33348044Y-10098085D01*
X-33295718Y-10042623D01*
X-33293165Y-10039996D01*
X-32056985Y-8803817D01*
X-31994088Y-8769666D01*
X-31944676Y-8759163D01*
X-31944667Y-8759160D01*
X-31938212Y-8757788D01*
X-31932181Y-8755103D01*
X-31769778Y-8682797D01*
X-31769776Y-8682796D01*
X-31763748Y-8680112D01*
X-31743110Y-8665118D01*
X-31675331Y-8615873D01*
X-31609247Y-8567860D01*
X-31600383Y-8558016D01*
X-31485879Y-8430846D01*
X-31485878Y-8430845D01*
X-31481460Y-8425938D01*
X-31385973Y-8260550D01*
X-31326958Y-8078922D01*
X-31306996Y-7888994D01*
X-31307686Y-7882429D01*
X-31326268Y-7705629D01*
X-31326268Y-7705627D01*
X-31326958Y-7699066D01*
X-31385973Y-7517438D01*
X-31481460Y-7352050D01*
X-31609247Y-7210128D01*
X-31763748Y-7097876D01*
X-31769776Y-7095192D01*
X-31769778Y-7095191D01*
X-31932181Y-7022885D01*
X-31932182Y-7022885D01*
X-31938212Y-7020200D01*
X-32046766Y-6997126D01*
X-32118556Y-6981866D01*
X-32118561Y-6981866D01*
X-32125013Y-6980494D01*
X-32315987Y-6980494D01*
X-32322439Y-6981866D01*
X-32322444Y-6981866D01*
X-32502788Y-7020200D01*
X-32503239Y-7018078D01*
X-32564107Y-7019817D01*
X-32625710Y-6982269D01*
X-32662747Y-6941134D01*
X-32761843Y-6869136D01*
X-32811906Y-6832763D01*
X-32811907Y-6832762D01*
X-32817248Y-6828882D01*
X-32823276Y-6826198D01*
X-32823278Y-6826197D01*
X-32985681Y-6753891D01*
X-32985682Y-6753891D01*
X-32991712Y-6751206D01*
X-33085112Y-6731353D01*
X-33172056Y-6712872D01*
X-33172061Y-6712872D01*
X-33178513Y-6711500D01*
X-33269761Y-6711500D01*
X-33337882Y-6691498D01*
X-33358856Y-6674595D01*
X-33791280Y-6242171D01*
X-33825306Y-6179859D01*
X-33828185Y-6153076D01*
X-33828185Y-3789382D01*
X-33808183Y-3721261D01*
X-33754527Y-3674768D01*
X-33684253Y-3664664D01*
X-33619673Y-3694158D01*
X-33613090Y-3700287D01*
X-32761643Y-4551734D01*
X-32750776Y-4564125D01*
X-32731315Y-4589487D01*
X-32724765Y-4594513D01*
X-32699407Y-4613971D01*
X-32699391Y-4613985D01*
X-32650136Y-4651779D01*
X-32604204Y-4687024D01*
X-32456179Y-4748338D01*
X-32447992Y-4749416D01*
X-32447991Y-4749416D01*
X-32436786Y-4750891D01*
X-32405590Y-4754998D01*
X-32337213Y-4764000D01*
X-32337210Y-4764000D01*
X-32337202Y-4764001D01*
X-32305517Y-4768172D01*
X-32297328Y-4769250D01*
X-32289139Y-4768172D01*
X-32265635Y-4765078D01*
X-32249190Y-4764000D01*
X-31427210Y-4764000D01*
X-31359089Y-4784002D01*
X-31333574Y-4805689D01*
X-31307753Y-4834366D01*
X-31153252Y-4946618D01*
X-31147224Y-4949302D01*
X-31147222Y-4949303D01*
X-30984819Y-5021609D01*
X-30978788Y-5024294D01*
X-30972333Y-5025666D01*
X-30972324Y-5025669D01*
X-30966673Y-5026870D01*
X-30904200Y-5060598D01*
X-30869879Y-5122748D01*
X-30867561Y-5163284D01*
X-30885504Y-5334000D01*
X-30884814Y-5340565D01*
X-30870106Y-5480500D01*
X-30865542Y-5523928D01*
X-30806527Y-5705556D01*
X-30711040Y-5870944D01*
X-30706622Y-5875851D01*
X-30706621Y-5875852D01*
X-30587675Y-6007955D01*
X-30583253Y-6012866D01*
X-30428752Y-6125118D01*
X-30422724Y-6127802D01*
X-30422722Y-6127803D01*
X-30260319Y-6200109D01*
X-30254288Y-6202794D01*
X-30160888Y-6222647D01*
X-30073944Y-6241128D01*
X-30073939Y-6241128D01*
X-30067487Y-6242500D01*
X-29876513Y-6242500D01*
X-29870061Y-6241128D01*
X-29870056Y-6241128D01*
X-29783112Y-6222647D01*
X-29689712Y-6202794D01*
X-29683681Y-6200109D01*
X-29521278Y-6127803D01*
X-29521276Y-6127802D01*
X-29515248Y-6125118D01*
X-29360747Y-6012866D01*
X-29356325Y-6007955D01*
X-29237379Y-5875852D01*
X-29237378Y-5875851D01*
X-29232960Y-5870944D01*
X-29137473Y-5705556D01*
X-29078458Y-5523928D01*
X-29073893Y-5480500D01*
X-29059186Y-5340565D01*
X-29058496Y-5334000D01*
X-29066074Y-5261899D01*
X-29077768Y-5150635D01*
X-29077768Y-5150633D01*
X-29078458Y-5144072D01*
X-29137473Y-4962444D01*
X-29232960Y-4797056D01*
X-29306137Y-4715785D01*
X-29336853Y-4651779D01*
X-29338500Y-4631476D01*
X-29338500Y-3634768D01*
X-29337973Y-3623585D01*
X-29336298Y-3616092D01*
X-29337167Y-3588424D01*
X-29338438Y-3548002D01*
X-29338500Y-3544044D01*
X-29338500Y-3516144D01*
X-29339004Y-3512153D01*
X-29339937Y-3500311D01*
X-29340114Y-3494662D01*
X-29341326Y-3456111D01*
X-29346979Y-3436652D01*
X-29350988Y-3417293D01*
X-29351154Y-3415983D01*
X-29353526Y-3397203D01*
X-29356442Y-3389837D01*
X-29356444Y-3389831D01*
X-29369800Y-3356098D01*
X-29373645Y-3344868D01*
X-29383770Y-3310017D01*
X-29383770Y-3310016D01*
X-29385981Y-3302407D01*
X-29396295Y-3284966D01*
X-29404992Y-3267213D01*
X-29409528Y-3255758D01*
X-29412448Y-3248383D01*
X-29438437Y-3212612D01*
X-29444953Y-3202692D01*
X-29467458Y-3164638D01*
X-29481779Y-3150317D01*
X-29494620Y-3135283D01*
X-29501868Y-3125307D01*
X-29506528Y-3118893D01*
X-29540593Y-3090712D01*
X-29549374Y-3082722D01*
X-30103353Y-2528742D01*
X-30110887Y-2520463D01*
X-30115000Y-2513982D01*
X-30164652Y-2467356D01*
X-30167493Y-2464602D01*
X-30187230Y-2444865D01*
X-30190427Y-2442385D01*
X-30199449Y-2434680D01*
X-30225900Y-2409841D01*
X-30231679Y-2404414D01*
X-30238625Y-2400595D01*
X-30238628Y-2400593D01*
X-30249434Y-2394652D01*
X-30265953Y-2383801D01*
X-30266417Y-2383441D01*
X-30281959Y-2371386D01*
X-30289228Y-2368241D01*
X-30289232Y-2368238D01*
X-30322537Y-2353826D01*
X-30333187Y-2348609D01*
X-30371940Y-2327305D01*
X-30391563Y-2322267D01*
X-30410266Y-2315863D01*
X-30421580Y-2310967D01*
X-30421581Y-2310967D01*
X-30428855Y-2307819D01*
X-30436678Y-2306580D01*
X-30436688Y-2306577D01*
X-30472524Y-2300901D01*
X-30484144Y-2298495D01*
X-30519289Y-2289472D01*
X-30519290Y-2289472D01*
X-30526970Y-2287500D01*
X-30547224Y-2287500D01*
X-30566935Y-2285949D01*
X-30579114Y-2284020D01*
X-30586943Y-2282780D01*
X-30594835Y-2283526D01*
X-30630961Y-2286941D01*
X-30642819Y-2287500D01*
X-32176807Y-2287500D01*
X-32244928Y-2267498D01*
X-32291421Y-2213842D01*
X-32302807Y-2161500D01*
X-32302807Y-1402626D01*
X-32282805Y-1334505D01*
X-32229149Y-1288012D01*
X-32163339Y-1277348D01*
X-32115044Y-1282540D01*
X-32115039Y-1282540D01*
X-32111693Y-1282900D01*
X-31760417Y-1282900D01*
X-31757070Y-1282540D01*
X-31757067Y-1282540D01*
X-31736760Y-1280357D01*
X-31699854Y-1276389D01*
X-31562851Y-1225289D01*
X-31518061Y-1191760D01*
X-31473276Y-1158234D01*
X-31445794Y-1137661D01*
X-31380061Y-1049852D01*
X-31363566Y-1027818D01*
X-31363565Y-1027816D01*
X-31358166Y-1020604D01*
X-31307066Y-883601D01*
X-31300555Y-823038D01*
X-31300555Y-780129D01*
X-31280553Y-712008D01*
X-31226897Y-665515D01*
X-31156623Y-655411D01*
X-31092043Y-684905D01*
X-31085460Y-691034D01*
X-30618260Y-1158234D01*
X-30607393Y-1170625D01*
X-30587932Y-1195987D01*
X-30581382Y-1201013D01*
X-30556020Y-1220474D01*
X-30556017Y-1220477D01*
X-30468004Y-1288012D01*
X-30460821Y-1293524D01*
X-30312796Y-1354838D01*
X-30304609Y-1355916D01*
X-30304608Y-1355916D01*
X-30293403Y-1357391D01*
X-30262207Y-1361498D01*
X-30193830Y-1370500D01*
X-30193827Y-1370500D01*
X-30193819Y-1370501D01*
X-30162134Y-1374672D01*
X-30153945Y-1375750D01*
X-30122252Y-1371578D01*
X-30105809Y-1370500D01*
X-27701979Y-1370500D01*
X-27639341Y-1387284D01*
X-27634752Y-1390618D01*
X-27628725Y-1393301D01*
X-27628724Y-1393302D01*
X-27576620Y-1416500D01*
X-27460288Y-1468294D01*
X-27456213Y-1469160D01*
X-27398354Y-1508725D01*
X-27370718Y-1574122D01*
X-27382826Y-1644079D01*
X-27388465Y-1654318D01*
X-27507649Y-1848807D01*
X-27507655Y-1848818D01*
X-27510240Y-1853037D01*
X-27512133Y-1857607D01*
X-27512135Y-1857611D01*
X-27573780Y-2006436D01*
X-27601105Y-2072406D01*
X-27616148Y-2135063D01*
X-27652744Y-2287500D01*
X-27656535Y-2303289D01*
X-27675165Y-2540000D01*
X-27656535Y-2776711D01*
X-27601105Y-3007594D01*
X-27599212Y-3012165D01*
X-27599211Y-3012167D01*
X-27516184Y-3212612D01*
X-27510240Y-3226963D01*
X-27507654Y-3231183D01*
X-27388759Y-3425202D01*
X-27388755Y-3425208D01*
X-27386176Y-3429416D01*
X-27231969Y-3609969D01*
X-27051416Y-3764176D01*
X-27047208Y-3766755D01*
X-27047202Y-3766759D01*
X-26856747Y-3883470D01*
X-26848963Y-3888240D01*
X-26844393Y-3890133D01*
X-26844389Y-3890135D01*
X-26634167Y-3977211D01*
X-26629594Y-3979105D01*
X-26549391Y-3998360D01*
X-26403524Y-4033380D01*
X-26403518Y-4033381D01*
X-26398711Y-4034535D01*
X-26162000Y-4053165D01*
X-25925289Y-4034535D01*
X-25920482Y-4033381D01*
X-25920476Y-4033380D01*
X-25774609Y-3998360D01*
X-25694406Y-3979105D01*
X-25689833Y-3977211D01*
X-25479611Y-3890135D01*
X-25479607Y-3890133D01*
X-25475037Y-3888240D01*
X-25467253Y-3883470D01*
X-25276798Y-3766759D01*
X-25276792Y-3766755D01*
X-25272584Y-3764176D01*
X-25268829Y-3760969D01*
X-25268825Y-3760966D01*
X-25222337Y-3721261D01*
X-25192330Y-3695633D01*
X-25127541Y-3666602D01*
X-25057341Y-3677207D01*
X-25004019Y-3724081D01*
X-24984500Y-3791444D01*
X-24984500Y-13559271D01*
X-24985830Y-13577533D01*
X-24987473Y-13588752D01*
X-24989366Y-13601672D01*
X-24985642Y-13644237D01*
X-24984979Y-13651816D01*
X-24984500Y-13662798D01*
X-24984500Y-13668412D01*
X-24984074Y-13672055D01*
X-24980845Y-13699680D01*
X-24980472Y-13703325D01*
X-24973831Y-13779240D01*
X-24971522Y-13786207D01*
X-24970812Y-13789648D01*
X-24970756Y-13789994D01*
X-24970659Y-13790337D01*
X-24969850Y-13793750D01*
X-24968998Y-13801042D01*
X-24966488Y-13807939D01*
X-24966486Y-13807946D01*
X-24942940Y-13872637D01*
X-24941736Y-13876099D01*
X-24934012Y-13899407D01*
X-24917765Y-13948440D01*
X-24913913Y-13954684D01*
X-24912428Y-13957869D01*
X-24912294Y-13958193D01*
X-24912114Y-13958515D01*
X-24910545Y-13961639D01*
X-24908034Y-13968539D01*
X-24866148Y-14032224D01*
X-24864196Y-14035288D01*
X-24828040Y-14093905D01*
X-24828037Y-14093908D01*
X-24824188Y-14100149D01*
X-24818998Y-14105339D01*
X-24816832Y-14108078D01*
X-24816617Y-14108376D01*
X-24816385Y-14108629D01*
X-24814117Y-14111332D01*
X-24810085Y-14117462D01*
X-24804746Y-14122499D01*
X-24754644Y-14169769D01*
X-24752016Y-14172322D01*
X-24539403Y-14384935D01*
X-24508665Y-14435093D01*
X-24456527Y-14595556D01*
X-24361040Y-14760944D01*
X-24356622Y-14765851D01*
X-24356621Y-14765852D01*
X-24237675Y-14897955D01*
X-24233253Y-14902866D01*
X-24078752Y-15015118D01*
X-24072724Y-15017802D01*
X-24072722Y-15017803D01*
X-23910319Y-15090109D01*
X-23904288Y-15092794D01*
X-23810887Y-15112647D01*
X-23723944Y-15131128D01*
X-23723939Y-15131128D01*
X-23717487Y-15132500D01*
X-23526513Y-15132500D01*
X-23520061Y-15131128D01*
X-23520056Y-15131128D01*
X-23433113Y-15112647D01*
X-23339712Y-15092794D01*
X-23333681Y-15090109D01*
X-23171278Y-15017803D01*
X-23171276Y-15017802D01*
X-23165248Y-15015118D01*
X-23129946Y-14989470D01*
X-23060061Y-14938695D01*
X-22993193Y-14914837D01*
X-22924042Y-14930917D01*
X-22874562Y-14981831D01*
X-22860000Y-15040631D01*
X-22860000Y-16373500D01*
X-22880002Y-16441621D01*
X-22933658Y-16488114D01*
X-22986000Y-16499500D01*
X-60823500Y-16499500D01*
X-60891621Y-16479498D01*
X-60938114Y-16425842D01*
X-60949500Y-16373500D01*
X-60949500Y-15630638D01*
X-38442500Y-15630638D01*
X-38435989Y-15691201D01*
X-38384889Y-15828204D01*
X-38379490Y-15835416D01*
X-38379489Y-15835418D01*
X-38353610Y-15869988D01*
X-38297261Y-15945261D01*
X-38180204Y-16032889D01*
X-38043201Y-16083989D01*
X-38006295Y-16087957D01*
X-37985988Y-16090140D01*
X-37985985Y-16090140D01*
X-37982638Y-16090500D01*
X-36185362Y-16090500D01*
X-36182015Y-16090140D01*
X-36182012Y-16090140D01*
X-36161705Y-16087957D01*
X-36124799Y-16083989D01*
X-35987796Y-16032889D01*
X-35870739Y-15945261D01*
X-35814390Y-15869988D01*
X-35788511Y-15835418D01*
X-35788510Y-15835416D01*
X-35783111Y-15828204D01*
X-35739002Y-15709944D01*
X-35696455Y-15653108D01*
X-35629935Y-15628297D01*
X-35560561Y-15643388D01*
X-35528245Y-15668638D01*
X-35507474Y-15691201D01*
X-35467240Y-15734906D01*
X-35289576Y-15873189D01*
X-35091574Y-15980342D01*
X-34878635Y-16053444D01*
X-34873501Y-16054301D01*
X-34873496Y-16054302D01*
X-34661706Y-16089643D01*
X-34661704Y-16089643D01*
X-34656569Y-16090500D01*
X-34431431Y-16090500D01*
X-34426296Y-16089643D01*
X-34426294Y-16089643D01*
X-34214504Y-16054302D01*
X-34214499Y-16054301D01*
X-34209365Y-16053444D01*
X-33996426Y-15980342D01*
X-33798424Y-15873189D01*
X-33620760Y-15734906D01*
X-33536511Y-15643388D01*
X-33471806Y-15573101D01*
X-33471803Y-15573097D01*
X-33468278Y-15569268D01*
X-33379483Y-15433357D01*
X-33325479Y-15387268D01*
X-33255132Y-15377693D01*
X-33190774Y-15407670D01*
X-33168517Y-15433357D01*
X-33079722Y-15569268D01*
X-33076197Y-15573097D01*
X-33076194Y-15573101D01*
X-33011489Y-15643388D01*
X-32927240Y-15734906D01*
X-32749576Y-15873189D01*
X-32551574Y-15980342D01*
X-32338635Y-16053444D01*
X-32333501Y-16054301D01*
X-32333496Y-16054302D01*
X-32121706Y-16089643D01*
X-32121704Y-16089643D01*
X-32116569Y-16090500D01*
X-31891431Y-16090500D01*
X-31886296Y-16089643D01*
X-31886294Y-16089643D01*
X-31674504Y-16054302D01*
X-31674499Y-16054301D01*
X-31669365Y-16053444D01*
X-31456426Y-15980342D01*
X-31258424Y-15873189D01*
X-31080760Y-15734906D01*
X-30996511Y-15643388D01*
X-30931806Y-15573101D01*
X-30931803Y-15573097D01*
X-30928278Y-15569268D01*
X-30839184Y-15432899D01*
X-30785180Y-15386811D01*
X-30714832Y-15377236D01*
X-30650475Y-15407214D01*
X-30628218Y-15432899D01*
X-30542177Y-15564593D01*
X-30535790Y-15572799D01*
X-30390432Y-15730700D01*
X-30382789Y-15737737D01*
X-30213411Y-15869569D01*
X-30204718Y-15875248D01*
X-30015957Y-15977401D01*
X-30006440Y-15981575D01*
X-29803443Y-16051264D01*
X-29793373Y-16053815D01*
X-29735867Y-16063411D01*
X-29722352Y-16061777D01*
X-29718222Y-16048277D01*
X-29210000Y-16048277D01*
X-29206164Y-16061340D01*
X-29191416Y-16063291D01*
X-29134627Y-16053815D01*
X-29124557Y-16051264D01*
X-28921560Y-15981575D01*
X-28912043Y-15977401D01*
X-28723282Y-15875248D01*
X-28714589Y-15869569D01*
X-28545211Y-15737737D01*
X-28537568Y-15730700D01*
X-28392210Y-15572799D01*
X-28385823Y-15564593D01*
X-28268431Y-15384913D01*
X-28263488Y-15375778D01*
X-28177270Y-15179223D01*
X-28173900Y-15169408D01*
X-28131903Y-15003561D01*
X-28132433Y-14989470D01*
X-28140855Y-14986000D01*
X-29191885Y-14986000D01*
X-29207124Y-14990475D01*
X-29208329Y-14991865D01*
X-29210000Y-14999548D01*
X-29210000Y-16048277D01*
X-29718222Y-16048277D01*
X-29718000Y-16047551D01*
X-29718000Y-14459885D01*
X-29210000Y-14459885D01*
X-29205525Y-14475124D01*
X-29204135Y-14476329D01*
X-29196452Y-14478000D01*
X-28145571Y-14478000D01*
X-28132040Y-14474027D01*
X-28130744Y-14465014D01*
X-28173900Y-14294592D01*
X-28177270Y-14284777D01*
X-28263488Y-14088222D01*
X-28268431Y-14079087D01*
X-28385823Y-13899407D01*
X-28392210Y-13891201D01*
X-28537568Y-13733300D01*
X-28545211Y-13726263D01*
X-28714589Y-13594431D01*
X-28723282Y-13588752D01*
X-28912043Y-13486599D01*
X-28921560Y-13482425D01*
X-29124557Y-13412736D01*
X-29134627Y-13410185D01*
X-29192133Y-13400589D01*
X-29205648Y-13402223D01*
X-29210000Y-13416449D01*
X-29210000Y-14459885D01*
X-29718000Y-14459885D01*
X-29718000Y-13415723D01*
X-29721836Y-13402660D01*
X-29736584Y-13400709D01*
X-29793373Y-13410185D01*
X-29803443Y-13412736D01*
X-30006440Y-13482425D01*
X-30015957Y-13486599D01*
X-30204718Y-13588752D01*
X-30213411Y-13594431D01*
X-30382789Y-13726263D01*
X-30390432Y-13733300D01*
X-30535790Y-13891201D01*
X-30542177Y-13899407D01*
X-30628218Y-14031101D01*
X-30682222Y-14077189D01*
X-30752570Y-14086764D01*
X-30816927Y-14056786D01*
X-30839184Y-14031101D01*
X-30858243Y-14001929D01*
X-30928278Y-13894732D01*
X-30931803Y-13890903D01*
X-30931806Y-13890899D01*
X-31077228Y-13732931D01*
X-31080760Y-13729094D01*
X-31173011Y-13657291D01*
X-31254311Y-13594012D01*
X-31254313Y-13594010D01*
X-31258424Y-13590811D01*
X-31456426Y-13483658D01*
X-31669365Y-13410556D01*
X-31674499Y-13409699D01*
X-31674504Y-13409698D01*
X-31886294Y-13374357D01*
X-31886296Y-13374357D01*
X-31891431Y-13373500D01*
X-32116569Y-13373500D01*
X-32121704Y-13374357D01*
X-32121706Y-13374357D01*
X-32333496Y-13409698D01*
X-32333501Y-13409699D01*
X-32338635Y-13410556D01*
X-32551574Y-13483658D01*
X-32749576Y-13590811D01*
X-32753687Y-13594010D01*
X-32753689Y-13594012D01*
X-32834989Y-13657291D01*
X-32927240Y-13729094D01*
X-32930772Y-13732931D01*
X-33076194Y-13890899D01*
X-33076197Y-13890903D01*
X-33079722Y-13894732D01*
X-33082573Y-13899096D01*
X-33168517Y-14030643D01*
X-33222521Y-14076732D01*
X-33292868Y-14086307D01*
X-33357226Y-14056330D01*
X-33379483Y-14030643D01*
X-33465427Y-13899096D01*
X-33468278Y-13894732D01*
X-33471803Y-13890903D01*
X-33471806Y-13890899D01*
X-33617228Y-13732931D01*
X-33620760Y-13729094D01*
X-33713011Y-13657291D01*
X-33794311Y-13594012D01*
X-33794313Y-13594010D01*
X-33798424Y-13590811D01*
X-33996426Y-13483658D01*
X-34209365Y-13410556D01*
X-34214499Y-13409699D01*
X-34214504Y-13409698D01*
X-34426294Y-13374357D01*
X-34426296Y-13374357D01*
X-34431431Y-13373500D01*
X-34656569Y-13373500D01*
X-34661704Y-13374357D01*
X-34661706Y-13374357D01*
X-34873496Y-13409698D01*
X-34873501Y-13409699D01*
X-34878635Y-13410556D01*
X-35091574Y-13483658D01*
X-35289576Y-13590811D01*
X-35293687Y-13594010D01*
X-35293689Y-13594012D01*
X-35374989Y-13657291D01*
X-35467240Y-13729094D01*
X-35470772Y-13732931D01*
X-35528245Y-13795362D01*
X-35589099Y-13831933D01*
X-35660063Y-13829798D01*
X-35718608Y-13789636D01*
X-35739002Y-13754056D01*
X-35779962Y-13644239D01*
X-35779963Y-13644237D01*
X-35783111Y-13635796D01*
X-35803183Y-13608982D01*
X-35865341Y-13525950D01*
X-35870739Y-13518739D01*
X-35928513Y-13475490D01*
X-35980582Y-13436511D01*
X-35980584Y-13436510D01*
X-35987796Y-13431111D01*
X-36124799Y-13380011D01*
X-36161705Y-13376043D01*
X-36182012Y-13373860D01*
X-36182015Y-13373860D01*
X-36185362Y-13373500D01*
X-37982638Y-13373500D01*
X-37985985Y-13373860D01*
X-37985988Y-13373860D01*
X-38006295Y-13376043D01*
X-38043201Y-13380011D01*
X-38180204Y-13431111D01*
X-38187416Y-13436510D01*
X-38187418Y-13436511D01*
X-38239487Y-13475490D01*
X-38297261Y-13518739D01*
X-38302659Y-13525950D01*
X-38364816Y-13608982D01*
X-38384889Y-13635796D01*
X-38435989Y-13772799D01*
X-38442500Y-13833362D01*
X-38442500Y-15630638D01*
X-60949500Y-15630638D01*
X-60949500Y-14191857D01*
X-48478924Y-14191857D01*
X-48458962Y-14381785D01*
X-48399947Y-14563413D01*
X-48304460Y-14728801D01*
X-48300042Y-14733708D01*
X-48300041Y-14733709D01*
X-48271099Y-14765852D01*
X-48176673Y-14870723D01*
X-48022172Y-14982975D01*
X-48016144Y-14985659D01*
X-48016142Y-14985660D01*
X-47943947Y-15017803D01*
X-47847708Y-15060651D01*
X-47754307Y-15080504D01*
X-47667364Y-15098985D01*
X-47667359Y-15098985D01*
X-47660907Y-15100357D01*
X-47469933Y-15100357D01*
X-47463481Y-15098985D01*
X-47463476Y-15098985D01*
X-47376533Y-15080504D01*
X-47283132Y-15060651D01*
X-47186893Y-15017803D01*
X-47114698Y-14985660D01*
X-47114696Y-14985659D01*
X-47108668Y-14982975D01*
X-46954167Y-14870723D01*
X-46859741Y-14765852D01*
X-46830799Y-14733709D01*
X-46830798Y-14733708D01*
X-46826380Y-14728801D01*
X-46730893Y-14563413D01*
X-46671878Y-14381785D01*
X-46651916Y-14191857D01*
X-46654106Y-14171021D01*
X-46671188Y-14008492D01*
X-46671188Y-14008490D01*
X-46671878Y-14001929D01*
X-46730893Y-13820301D01*
X-46745291Y-13795362D01*
X-46781336Y-13732931D01*
X-46826380Y-13654913D01*
X-46850088Y-13628582D01*
X-46949745Y-13517902D01*
X-46949746Y-13517901D01*
X-46954167Y-13512991D01*
X-47068123Y-13430197D01*
X-47103326Y-13404620D01*
X-47103327Y-13404619D01*
X-47108668Y-13400739D01*
X-47114696Y-13398055D01*
X-47114698Y-13398054D01*
X-47277101Y-13325748D01*
X-47277102Y-13325748D01*
X-47283132Y-13323063D01*
X-47376532Y-13303210D01*
X-47463476Y-13284729D01*
X-47463481Y-13284729D01*
X-47469933Y-13283357D01*
X-47660907Y-13283357D01*
X-47667359Y-13284729D01*
X-47667364Y-13284729D01*
X-47754307Y-13303210D01*
X-47847708Y-13323063D01*
X-47853738Y-13325748D01*
X-47853739Y-13325748D01*
X-48016142Y-13398054D01*
X-48016144Y-13398055D01*
X-48022172Y-13400739D01*
X-48027513Y-13404619D01*
X-48027514Y-13404620D01*
X-48062717Y-13430197D01*
X-48176673Y-13512991D01*
X-48181094Y-13517901D01*
X-48181095Y-13517902D01*
X-48280751Y-13628582D01*
X-48304460Y-13654913D01*
X-48349504Y-13732931D01*
X-48385548Y-13795362D01*
X-48399947Y-13820301D01*
X-48458962Y-14001929D01*
X-48459652Y-14008490D01*
X-48459652Y-14008492D01*
X-48476734Y-14171021D01*
X-48478924Y-14191857D01*
X-60949500Y-14191857D01*
X-60949500Y-12192000D01*
X-29869504Y-12192000D01*
X-29849542Y-12381928D01*
X-29790527Y-12563556D01*
X-29695040Y-12728944D01*
X-29567253Y-12870866D01*
X-29412752Y-12983118D01*
X-29406724Y-12985802D01*
X-29406722Y-12985803D01*
X-29244319Y-13058109D01*
X-29238288Y-13060794D01*
X-29144887Y-13080647D01*
X-29057944Y-13099128D01*
X-29057939Y-13099128D01*
X-29051487Y-13100500D01*
X-28860513Y-13100500D01*
X-28854061Y-13099128D01*
X-28854056Y-13099128D01*
X-28767113Y-13080647D01*
X-28673712Y-13060794D01*
X-28667681Y-13058109D01*
X-28505278Y-12985803D01*
X-28505276Y-12985802D01*
X-28499248Y-12983118D01*
X-28344747Y-12870866D01*
X-28216960Y-12728944D01*
X-28121473Y-12563556D01*
X-28062458Y-12381928D01*
X-28042496Y-12192000D01*
X-28043186Y-12185435D01*
X-28061768Y-12008635D01*
X-28061768Y-12008633D01*
X-28062458Y-12002072D01*
X-28121473Y-11820444D01*
X-28216960Y-11655056D01*
X-28248289Y-11620261D01*
X-28340325Y-11518045D01*
X-28340326Y-11518044D01*
X-28344747Y-11513134D01*
X-28499248Y-11400882D01*
X-28505276Y-11398198D01*
X-28505278Y-11398197D01*
X-28667681Y-11325891D01*
X-28667682Y-11325891D01*
X-28673712Y-11323206D01*
X-28767112Y-11303353D01*
X-28854056Y-11284872D01*
X-28854061Y-11284872D01*
X-28860513Y-11283500D01*
X-29051487Y-11283500D01*
X-29057939Y-11284872D01*
X-29057944Y-11284872D01*
X-29144888Y-11303353D01*
X-29238288Y-11323206D01*
X-29244318Y-11325891D01*
X-29244319Y-11325891D01*
X-29406722Y-11398197D01*
X-29406724Y-11398198D01*
X-29412752Y-11400882D01*
X-29567253Y-11513134D01*
X-29571674Y-11518044D01*
X-29571675Y-11518045D01*
X-29663710Y-11620261D01*
X-29695040Y-11655056D01*
X-29790527Y-11820444D01*
X-29849542Y-12002072D01*
X-29850232Y-12008633D01*
X-29850232Y-12008635D01*
X-29868814Y-12185435D01*
X-29869504Y-12192000D01*
X-60949500Y-12192000D01*
X-60949500Y-4572000D01*
X-54507504Y-4572000D01*
X-54506814Y-4578565D01*
X-54488970Y-4748338D01*
X-54487542Y-4761928D01*
X-54428527Y-4943556D01*
X-54333040Y-5108944D01*
X-54328622Y-5113851D01*
X-54328621Y-5113852D01*
X-54263965Y-5185660D01*
X-54205253Y-5250866D01*
X-54145974Y-5293935D01*
X-54081793Y-5340565D01*
X-54050752Y-5363118D01*
X-54044724Y-5365802D01*
X-54044722Y-5365803D01*
X-53882319Y-5438109D01*
X-53876288Y-5440794D01*
X-53782888Y-5460647D01*
X-53695944Y-5479128D01*
X-53695939Y-5479128D01*
X-53689487Y-5480500D01*
X-53498513Y-5480500D01*
X-53492061Y-5479128D01*
X-53492056Y-5479128D01*
X-53405112Y-5460647D01*
X-53311712Y-5440794D01*
X-53305681Y-5438109D01*
X-53143278Y-5365803D01*
X-53143276Y-5365802D01*
X-53137248Y-5363118D01*
X-53106206Y-5340565D01*
X-53042026Y-5293935D01*
X-52982747Y-5250866D01*
X-52924035Y-5185660D01*
X-52859379Y-5113852D01*
X-52859378Y-5113851D01*
X-52854960Y-5108944D01*
X-52759473Y-4943556D01*
X-52700458Y-4761928D01*
X-52699029Y-4748338D01*
X-52681186Y-4578565D01*
X-52680496Y-4572000D01*
X-52690661Y-4475288D01*
X-52699768Y-4388635D01*
X-52699768Y-4388633D01*
X-52700458Y-4382072D01*
X-52759473Y-4200444D01*
X-52854960Y-4035056D01*
X-52934746Y-3946444D01*
X-52978325Y-3898045D01*
X-52978326Y-3898044D01*
X-52982747Y-3893134D01*
X-53101210Y-3807065D01*
X-53131906Y-3784763D01*
X-53131907Y-3784762D01*
X-53137248Y-3780882D01*
X-53143276Y-3778198D01*
X-53143278Y-3778197D01*
X-53305681Y-3705891D01*
X-53305682Y-3705891D01*
X-53311712Y-3703206D01*
X-53406467Y-3683065D01*
X-53492056Y-3664872D01*
X-53492061Y-3664872D01*
X-53498513Y-3663500D01*
X-53689487Y-3663500D01*
X-53695939Y-3664872D01*
X-53695944Y-3664872D01*
X-53781533Y-3683065D01*
X-53876288Y-3703206D01*
X-53882318Y-3705891D01*
X-53882319Y-3705891D01*
X-54044722Y-3778197D01*
X-54044724Y-3778198D01*
X-54050752Y-3780882D01*
X-54056093Y-3784762D01*
X-54056094Y-3784763D01*
X-54086790Y-3807065D01*
X-54205253Y-3893134D01*
X-54209674Y-3898044D01*
X-54209675Y-3898045D01*
X-54253253Y-3946444D01*
X-54333040Y-4035056D01*
X-54428527Y-4200444D01*
X-54487542Y-4382072D01*
X-54488232Y-4388633D01*
X-54488232Y-4388635D01*
X-54497339Y-4475288D01*
X-54507504Y-4572000D01*
X-60949500Y-4572000D01*
X-60949500Y4572000D01*
X-60095504Y4572000D01*
X-60094814Y4565435D01*
X-60079481Y4419554D01*
X-60075542Y4382072D01*
X-60016527Y4200444D01*
X-60013224Y4194722D01*
X-60013223Y4194721D01*
X-60005622Y4181556D01*
X-59921040Y4035056D01*
X-59916622Y4030149D01*
X-59916621Y4030148D01*
X-59891794Y4002575D01*
X-59793253Y3893134D01*
X-59696722Y3823000D01*
X-59669793Y3803435D01*
X-59638752Y3780882D01*
X-59632724Y3778198D01*
X-59632722Y3778197D01*
X-59524343Y3729944D01*
X-59464288Y3703206D01*
X-59370888Y3683353D01*
X-59283944Y3664872D01*
X-59283939Y3664872D01*
X-59277487Y3663500D01*
X-59086513Y3663500D01*
X-59080061Y3664872D01*
X-59080056Y3664872D01*
X-58993112Y3683353D01*
X-58899712Y3703206D01*
X-58839657Y3729944D01*
X-58731278Y3778197D01*
X-58731276Y3778198D01*
X-58725248Y3780882D01*
X-58694206Y3803435D01*
X-58667278Y3823000D01*
X-58570747Y3893134D01*
X-58472206Y4002575D01*
X-58447379Y4030148D01*
X-58447378Y4030149D01*
X-58442960Y4035056D01*
X-58358378Y4181556D01*
X-58350777Y4194721D01*
X-58350776Y4194722D01*
X-58347473Y4200444D01*
X-58288458Y4382072D01*
X-58284518Y4419554D01*
X-58269186Y4565435D01*
X-58268496Y4572000D01*
X-58276505Y4648201D01*
X-58287768Y4755365D01*
X-58287768Y4755367D01*
X-58288458Y4761928D01*
X-58347473Y4943556D01*
X-58442960Y5108944D01*
X-58468936Y5137794D01*
X-58566325Y5245955D01*
X-58566326Y5245956D01*
X-58570747Y5250866D01*
X-58685171Y5334000D01*
X-58719906Y5359237D01*
X-58719907Y5359238D01*
X-58725248Y5363118D01*
X-58731276Y5365802D01*
X-58731278Y5365803D01*
X-58893681Y5438109D01*
X-58893682Y5438109D01*
X-58899712Y5440794D01*
X-58993310Y5460689D01*
X-59080056Y5479128D01*
X-59080061Y5479128D01*
X-59086513Y5480500D01*
X-59277487Y5480500D01*
X-59283939Y5479128D01*
X-59283944Y5479128D01*
X-59370690Y5460689D01*
X-59464288Y5440794D01*
X-59470318Y5438109D01*
X-59470319Y5438109D01*
X-59632722Y5365803D01*
X-59632724Y5365802D01*
X-59638752Y5363118D01*
X-59644093Y5359238D01*
X-59644094Y5359237D01*
X-59678829Y5334000D01*
X-59793253Y5250866D01*
X-59797674Y5245956D01*
X-59797675Y5245955D01*
X-59895063Y5137794D01*
X-59921040Y5108944D01*
X-60016527Y4943556D01*
X-60075542Y4761928D01*
X-60076232Y4755367D01*
X-60076232Y4755365D01*
X-60087495Y4648201D01*
X-60095504Y4572000D01*
X-60949500Y4572000D01*
X-60949500Y10668000D01*
X-55968156Y10668000D01*
X-55966976Y10653763D01*
X-55950676Y10457055D01*
X-55949564Y10443632D01*
X-55948283Y10438574D01*
X-55948283Y10438573D01*
X-55909023Y10283541D01*
X-55894296Y10225384D01*
X-55803860Y10019209D01*
X-55801010Y10014847D01*
X-55801008Y10014843D01*
X-55777819Y9979350D01*
X-55680722Y9830732D01*
X-55677197Y9826903D01*
X-55677194Y9826899D01*
X-55616411Y9760872D01*
X-55528240Y9665094D01*
X-55524121Y9661888D01*
X-55405350Y9569444D01*
X-55350576Y9526811D01*
X-55345995Y9524332D01*
X-55159187Y9423237D01*
X-55152574Y9419658D01*
X-54939635Y9346556D01*
X-54934501Y9345699D01*
X-54934496Y9345698D01*
X-54722706Y9310357D01*
X-54722704Y9310357D01*
X-54717569Y9309500D01*
X-54492431Y9309500D01*
X-54487296Y9310357D01*
X-54487294Y9310357D01*
X-54275504Y9345698D01*
X-54275499Y9345699D01*
X-54270365Y9346556D01*
X-54057426Y9419658D01*
X-54050812Y9423237D01*
X-53864005Y9524332D01*
X-53859424Y9526811D01*
X-53804649Y9569444D01*
X-53685879Y9661888D01*
X-53681760Y9665094D01*
X-53641526Y9708799D01*
X-53620755Y9731362D01*
X-53559901Y9767933D01*
X-53488937Y9765798D01*
X-53430392Y9725636D01*
X-53409998Y9690057D01*
X-53365889Y9571796D01*
X-53360490Y9564584D01*
X-53360489Y9564582D01*
X-53344428Y9543127D01*
X-53278261Y9454739D01*
X-53271050Y9449341D01*
X-53244950Y9429803D01*
X-53161204Y9367111D01*
X-53024201Y9316011D01*
X-52987295Y9312043D01*
X-52966988Y9309860D01*
X-52966985Y9309860D01*
X-52963638Y9309500D01*
X-51166362Y9309500D01*
X-51163015Y9309860D01*
X-51163012Y9309860D01*
X-51142705Y9312043D01*
X-51105799Y9316011D01*
X-50968796Y9367111D01*
X-50885049Y9429803D01*
X-50858950Y9449341D01*
X-50851739Y9454739D01*
X-50785572Y9543127D01*
X-50769511Y9564582D01*
X-50769510Y9564584D01*
X-50764111Y9571796D01*
X-50734196Y9652000D01*
X-45617504Y9652000D01*
X-45616814Y9645435D01*
X-45602176Y9506166D01*
X-45597542Y9462072D01*
X-45538527Y9280444D01*
X-45535224Y9274722D01*
X-45535223Y9274721D01*
X-45531931Y9269019D01*
X-45443040Y9115056D01*
X-45315253Y8973134D01*
X-45160752Y8860882D01*
X-45154724Y8858198D01*
X-45154722Y8858197D01*
X-45069363Y8820193D01*
X-44986288Y8783206D01*
X-44892888Y8763353D01*
X-44805944Y8744872D01*
X-44805939Y8744872D01*
X-44799487Y8743500D01*
X-44608513Y8743500D01*
X-44602061Y8744872D01*
X-44602056Y8744872D01*
X-44515113Y8763353D01*
X-44421712Y8783206D01*
X-44338637Y8820193D01*
X-44253278Y8858197D01*
X-44253276Y8858198D01*
X-44247248Y8860882D01*
X-44092747Y8973134D01*
X-43964960Y9115056D01*
X-43876069Y9269019D01*
X-43872777Y9274721D01*
X-43872776Y9274722D01*
X-43869473Y9280444D01*
X-43810458Y9462072D01*
X-43805823Y9506166D01*
X-43791186Y9645435D01*
X-43790496Y9652000D01*
X-43798837Y9731362D01*
X-43809768Y9835365D01*
X-43809768Y9835367D01*
X-43810458Y9841928D01*
X-43869473Y10023556D01*
X-43964960Y10188944D01*
X-43993468Y10220606D01*
X-44088325Y10325955D01*
X-44088326Y10325956D01*
X-44092747Y10330866D01*
X-44247248Y10443118D01*
X-44253276Y10445802D01*
X-44253278Y10445803D01*
X-44415681Y10518109D01*
X-44415682Y10518109D01*
X-44421712Y10520794D01*
X-44515113Y10540647D01*
X-44602056Y10559128D01*
X-44602061Y10559128D01*
X-44608513Y10560500D01*
X-44799487Y10560500D01*
X-44805939Y10559128D01*
X-44805944Y10559128D01*
X-44892888Y10540647D01*
X-44986288Y10520794D01*
X-44992318Y10518109D01*
X-44992319Y10518109D01*
X-45154722Y10445803D01*
X-45154724Y10445802D01*
X-45160752Y10443118D01*
X-45315253Y10330866D01*
X-45319674Y10325956D01*
X-45319675Y10325955D01*
X-45414531Y10220606D01*
X-45443040Y10188944D01*
X-45538527Y10023556D01*
X-45597542Y9841928D01*
X-45598232Y9835367D01*
X-45598232Y9835365D01*
X-45609163Y9731362D01*
X-45617504Y9652000D01*
X-50734196Y9652000D01*
X-50713011Y9708799D01*
X-50706500Y9769362D01*
X-50706500Y10668000D01*
X-42569504Y10668000D01*
X-42568814Y10661435D01*
X-42554176Y10522166D01*
X-42549542Y10478072D01*
X-42490527Y10296444D01*
X-42487224Y10290722D01*
X-42487223Y10290721D01*
X-42453314Y10231990D01*
X-42395040Y10131056D01*
X-42390622Y10126149D01*
X-42390621Y10126148D01*
X-42271675Y9994045D01*
X-42267253Y9989134D01*
X-42112752Y9876882D01*
X-42106724Y9874198D01*
X-42106722Y9874197D01*
X-42034244Y9841928D01*
X-41938288Y9799206D01*
X-41844887Y9779353D01*
X-41757944Y9760872D01*
X-41757939Y9760872D01*
X-41751487Y9759500D01*
X-41560513Y9759500D01*
X-41554061Y9760872D01*
X-41554056Y9760872D01*
X-41467113Y9779353D01*
X-41373712Y9799206D01*
X-41277756Y9841928D01*
X-41205278Y9874197D01*
X-41205276Y9874198D01*
X-41199248Y9876882D01*
X-41044747Y9989134D01*
X-41040325Y9994045D01*
X-40921379Y10126148D01*
X-40921378Y10126149D01*
X-40916960Y10131056D01*
X-40858686Y10231990D01*
X-40824777Y10290721D01*
X-40824776Y10290722D01*
X-40821473Y10296444D01*
X-40762458Y10478072D01*
X-40757823Y10522166D01*
X-40743186Y10661435D01*
X-40742496Y10668000D01*
X-40758317Y10818533D01*
X-40761768Y10851365D01*
X-40761768Y10851367D01*
X-40762458Y10857928D01*
X-40821473Y11039556D01*
X-40829239Y11053008D01*
X-40903955Y11182419D01*
X-40916960Y11204944D01*
X-40922162Y11210722D01*
X-41040325Y11341955D01*
X-41040326Y11341956D01*
X-41044747Y11346866D01*
X-41199248Y11459118D01*
X-41205276Y11461802D01*
X-41205278Y11461803D01*
X-41367681Y11534109D01*
X-41367682Y11534109D01*
X-41373712Y11536794D01*
X-41498266Y11563269D01*
X-41554056Y11575128D01*
X-41554061Y11575128D01*
X-41560513Y11576500D01*
X-41751487Y11576500D01*
X-41757939Y11575128D01*
X-41757944Y11575128D01*
X-41813734Y11563269D01*
X-41938288Y11536794D01*
X-41944318Y11534109D01*
X-41944319Y11534109D01*
X-42106722Y11461803D01*
X-42106724Y11461802D01*
X-42112752Y11459118D01*
X-42267253Y11346866D01*
X-42271674Y11341956D01*
X-42271675Y11341955D01*
X-42389837Y11210722D01*
X-42395040Y11204944D01*
X-42408045Y11182419D01*
X-42482760Y11053008D01*
X-42490527Y11039556D01*
X-42549542Y10857928D01*
X-42550232Y10851367D01*
X-42550232Y10851365D01*
X-42553683Y10818533D01*
X-42569504Y10668000D01*
X-50706500Y10668000D01*
X-50706500Y11566638D01*
X-50707560Y11576503D01*
X-50712169Y11619367D01*
X-50713011Y11627201D01*
X-50764111Y11764204D01*
X-50851739Y11881261D01*
X-50968796Y11968889D01*
X-51105799Y12019989D01*
X-51142705Y12023957D01*
X-51163012Y12026140D01*
X-51163015Y12026140D01*
X-51166362Y12026500D01*
X-52963638Y12026500D01*
X-52966985Y12026140D01*
X-52966988Y12026140D01*
X-52987295Y12023957D01*
X-53024201Y12019989D01*
X-53161204Y11968889D01*
X-53278261Y11881261D01*
X-53365889Y11764204D01*
X-53398782Y11676014D01*
X-53409998Y11645944D01*
X-53452545Y11589108D01*
X-53519065Y11564297D01*
X-53588439Y11579388D01*
X-53620755Y11604638D01*
X-53678228Y11667069D01*
X-53681760Y11670906D01*
X-53726465Y11705702D01*
X-53855311Y11805988D01*
X-53855313Y11805990D01*
X-53859424Y11809189D01*
X-54002576Y11886659D01*
X-54052841Y11913861D01*
X-54052844Y11913862D01*
X-54057426Y11916342D01*
X-54270365Y11989444D01*
X-54275499Y11990301D01*
X-54275504Y11990302D01*
X-54487294Y12025643D01*
X-54487296Y12025643D01*
X-54492431Y12026500D01*
X-54717569Y12026500D01*
X-54722704Y12025643D01*
X-54722706Y12025643D01*
X-54934496Y11990302D01*
X-54934501Y11990301D01*
X-54939635Y11989444D01*
X-55152574Y11916342D01*
X-55157156Y11913862D01*
X-55157159Y11913861D01*
X-55207424Y11886659D01*
X-55350576Y11809189D01*
X-55354687Y11805990D01*
X-55354689Y11805988D01*
X-55483535Y11705702D01*
X-55528240Y11670906D01*
X-55531772Y11667069D01*
X-55677194Y11509101D01*
X-55677197Y11509097D01*
X-55680722Y11505268D01*
X-55696437Y11481214D01*
X-55794777Y11330693D01*
X-55803860Y11316791D01*
X-55805952Y11312022D01*
X-55805954Y11312018D01*
X-55840366Y11233565D01*
X-55894296Y11110616D01*
X-55895578Y11105555D01*
X-55895578Y11105554D01*
X-55939535Y10931971D01*
X-55949564Y10892368D01*
X-55949994Y10887177D01*
X-55949995Y10887172D01*
X-55958631Y10782948D01*
X-55968156Y10668000D01*
X-60949500Y10668000D01*
X-60949500Y19050000D01*
X-48919504Y19050000D01*
X-48918814Y19043435D01*
X-48903306Y18895889D01*
X-48899542Y18860072D01*
X-48840527Y18678444D01*
X-48745040Y18513056D01*
X-48740622Y18508149D01*
X-48740621Y18508148D01*
X-48621675Y18376045D01*
X-48617253Y18371134D01*
X-48462752Y18258882D01*
X-48456724Y18256198D01*
X-48456722Y18256197D01*
X-48294319Y18183891D01*
X-48288288Y18181206D01*
X-48224112Y18167565D01*
X-48107944Y18142872D01*
X-48107939Y18142872D01*
X-48101487Y18141500D01*
X-47910513Y18141500D01*
X-47904061Y18142872D01*
X-47904056Y18142872D01*
X-47787888Y18167565D01*
X-47723712Y18181206D01*
X-47717681Y18183891D01*
X-47555278Y18256197D01*
X-47555276Y18256198D01*
X-47549248Y18258882D01*
X-47394747Y18371134D01*
X-47390325Y18376045D01*
X-47271379Y18508148D01*
X-47271378Y18508149D01*
X-47266960Y18513056D01*
X-47171473Y18678444D01*
X-47112458Y18860072D01*
X-47108693Y18895889D01*
X-47093186Y19043435D01*
X-47092496Y19050000D01*
X-47106209Y19180472D01*
X-47111768Y19233365D01*
X-47111768Y19233367D01*
X-47112458Y19239928D01*
X-47171473Y19421556D01*
X-47187916Y19450037D01*
X-47263659Y19581226D01*
X-47266960Y19586944D01*
X-47352269Y19681690D01*
X-47390325Y19723955D01*
X-47390326Y19723956D01*
X-47394747Y19728866D01*
X-47549248Y19841118D01*
X-47555276Y19843802D01*
X-47555278Y19843803D01*
X-47717681Y19916109D01*
X-47717682Y19916109D01*
X-47723712Y19918794D01*
X-47843599Y19944277D01*
X-47904056Y19957128D01*
X-47904061Y19957128D01*
X-47910513Y19958500D01*
X-48101487Y19958500D01*
X-48107939Y19957128D01*
X-48107944Y19957128D01*
X-48168401Y19944277D01*
X-48288288Y19918794D01*
X-48294318Y19916109D01*
X-48294319Y19916109D01*
X-48456722Y19843803D01*
X-48456724Y19843802D01*
X-48462752Y19841118D01*
X-48617253Y19728866D01*
X-48621674Y19723956D01*
X-48621675Y19723955D01*
X-48659730Y19681690D01*
X-48745040Y19586944D01*
X-48748341Y19581226D01*
X-48824083Y19450037D01*
X-48840527Y19421556D01*
X-48899542Y19239928D01*
X-48900232Y19233367D01*
X-48900232Y19233365D01*
X-48905791Y19180472D01*
X-48919504Y19050000D01*
X-60949500Y19050000D01*
X-60949500Y23993500D01*
X-60929498Y24061621D01*
X-60875842Y24108114D01*
X-60823500Y24119500D01*
X-22986000Y24119500D01*
X-22917879Y24099498D01*
G37*
%TD.AperFunction*%
%TA.AperFunction,Conductor*%
G36*
X-26252612Y9276797D02*
G01*
X-26205451Y9230083D01*
X-26139040Y9115056D01*
X-26011253Y8973134D01*
X-25856752Y8860882D01*
X-25850724Y8858198D01*
X-25850722Y8858197D01*
X-25765363Y8820193D01*
X-25682288Y8783206D01*
X-25588888Y8763353D01*
X-25501944Y8744872D01*
X-25501939Y8744872D01*
X-25495487Y8743500D01*
X-25304513Y8743500D01*
X-25280858Y8748528D01*
X-25195010Y8766775D01*
X-25124220Y8761373D01*
X-25067587Y8718556D01*
X-25043094Y8651918D01*
X-25042814Y8643528D01*
X-25042814Y8642565D01*
X-25043504Y8636000D01*
X-25042814Y8629435D01*
X-25024949Y8459462D01*
X-25023542Y8446072D01*
X-24964527Y8264444D01*
X-24869040Y8099056D01*
X-24864622Y8094149D01*
X-24864621Y8094148D01*
X-24779211Y7999291D01*
X-24741253Y7957134D01*
X-24642157Y7885136D01*
X-24602723Y7856486D01*
X-24586752Y7844882D01*
X-24580724Y7842198D01*
X-24580722Y7842197D01*
X-24444483Y7781540D01*
X-24412288Y7767206D01*
X-24405833Y7765834D01*
X-24405830Y7765833D01*
X-24356415Y7755330D01*
X-24293514Y7721177D01*
X-24259403Y7687065D01*
X-24225379Y7624752D01*
X-24222500Y7597971D01*
X-24222500Y2696729D01*
X-24223830Y2678468D01*
X-24227366Y2654328D01*
X-24224332Y2619653D01*
X-24222979Y2604184D01*
X-24222500Y2593202D01*
X-24222500Y2587588D01*
X-24222074Y2583945D01*
X-24218845Y2556320D01*
X-24218472Y2552675D01*
X-24211831Y2476760D01*
X-24209522Y2469793D01*
X-24208812Y2466352D01*
X-24208756Y2466006D01*
X-24208659Y2465663D01*
X-24207850Y2462250D01*
X-24206998Y2454958D01*
X-24204488Y2448061D01*
X-24204486Y2448054D01*
X-24180940Y2383363D01*
X-24179736Y2379901D01*
X-24158269Y2315118D01*
X-24155765Y2307560D01*
X-24151913Y2301316D01*
X-24150428Y2298131D01*
X-24150294Y2297807D01*
X-24150114Y2297485D01*
X-24148545Y2294361D01*
X-24146034Y2287461D01*
X-24104148Y2223776D01*
X-24102196Y2220712D01*
X-24066040Y2162095D01*
X-24066037Y2162092D01*
X-24062188Y2155851D01*
X-24056998Y2150661D01*
X-24054832Y2147922D01*
X-24054618Y2147625D01*
X-24054384Y2147370D01*
X-24052117Y2144668D01*
X-24048085Y2138538D01*
X-24042749Y2133504D01*
X-24042745Y2133499D01*
X-24022745Y2114630D01*
X-23986922Y2053334D01*
X-23989925Y1982401D01*
X-24030800Y1924352D01*
X-24057964Y1907874D01*
X-24072716Y1901306D01*
X-24072721Y1901303D01*
X-24078752Y1898618D01*
X-24084093Y1894738D01*
X-24084094Y1894737D01*
X-24101475Y1882109D01*
X-24233253Y1786366D01*
X-24237674Y1781456D01*
X-24237675Y1781455D01*
X-24332080Y1676607D01*
X-24361040Y1644444D01*
X-24399744Y1577406D01*
X-24430197Y1524660D01*
X-24456527Y1479056D01*
X-24494363Y1362611D01*
X-24508665Y1318593D01*
X-24539403Y1268435D01*
X-24715394Y1092444D01*
X-24729247Y1080471D01*
X-24748822Y1065898D01*
X-24753536Y1060280D01*
X-24781180Y1027335D01*
X-24788607Y1019231D01*
X-24792573Y1015265D01*
X-24794846Y1012390D01*
X-24812105Y990563D01*
X-24814418Y987725D01*
X-24858677Y934978D01*
X-24858680Y934973D01*
X-24863396Y929353D01*
X-24866688Y922798D01*
X-24868609Y919877D01*
X-24868825Y919577D01*
X-24868994Y919275D01*
X-24870845Y916275D01*
X-24875395Y910520D01*
X-24889834Y879555D01*
X-24907598Y841460D01*
X-24909196Y838161D01*
X-24940099Y776629D01*
X-24940102Y776621D01*
X-24943394Y770066D01*
X-24945086Y762927D01*
X-24946292Y759614D01*
X-24946423Y759298D01*
X-24946519Y758959D01*
X-24947625Y755622D01*
X-24950725Y748973D01*
X-24952208Y741789D01*
X-24952209Y741787D01*
X-24966130Y674366D01*
X-24966923Y670789D01*
X-24984500Y596623D01*
X-24984500Y589285D01*
X-24984908Y585794D01*
X-24984964Y585445D01*
X-24984980Y585088D01*
X-24985286Y581591D01*
X-24986769Y574409D01*
X-24986556Y567081D01*
X-24986556Y567079D01*
X-24984553Y498246D01*
X-24984500Y494582D01*
X-24984500Y-1288556D01*
X-25004502Y-1356677D01*
X-25058158Y-1403170D01*
X-25128432Y-1413274D01*
X-25192331Y-1384367D01*
X-25201197Y-1376794D01*
X-25250711Y-1334505D01*
X-25268825Y-1319034D01*
X-25268829Y-1319031D01*
X-25272584Y-1315824D01*
X-25276792Y-1313245D01*
X-25276798Y-1313241D01*
X-25468335Y-1195867D01*
X-25515966Y-1143219D01*
X-25528500Y-1088434D01*
X-25528500Y-332767D01*
X-25527973Y-321584D01*
X-25526298Y-314091D01*
X-25527041Y-290438D01*
X-25528438Y-246014D01*
X-25528500Y-242055D01*
X-25528500Y-214144D01*
X-25529005Y-210144D01*
X-25529938Y-198301D01*
X-25531078Y-162030D01*
X-25531327Y-154111D01*
X-25536979Y-134657D01*
X-25540987Y-115300D01*
X-25542532Y-103070D01*
X-25542532Y-103069D01*
X-25543526Y-95203D01*
X-25546509Y-87668D01*
X-25559804Y-54088D01*
X-25563649Y-42858D01*
X-25573771Y-8017D01*
X-25573771Y-8016D01*
X-25575982Y-407D01*
X-25580015Y6412D01*
X-25580017Y6417D01*
X-25586293Y17028D01*
X-25594988Y34776D01*
X-25602448Y53617D01*
X-25625719Y85648D01*
X-25628436Y89387D01*
X-25634952Y99307D01*
X-25653422Y130537D01*
X-25657458Y137362D01*
X-25663064Y142969D01*
X-25671780Y151685D01*
X-25684621Y166719D01*
X-25685958Y168560D01*
X-25696528Y183107D01*
X-25730593Y211288D01*
X-25739374Y219278D01*
X-26037853Y517758D01*
X-26045387Y526037D01*
X-26049500Y532518D01*
X-26099153Y579145D01*
X-26101994Y581899D01*
X-26111506Y591411D01*
X-26145532Y653723D01*
X-26140467Y724538D01*
X-26097920Y781374D01*
X-26088247Y787938D01*
X-26038802Y818239D01*
X-26038800Y818240D01*
X-26034584Y820824D01*
X-25854031Y975031D01*
X-25699824Y1155584D01*
X-25697245Y1159792D01*
X-25697241Y1159798D01*
X-25578346Y1353817D01*
X-25575760Y1358037D01*
X-25528234Y1472774D01*
X-25486789Y1572833D01*
X-25486788Y1572835D01*
X-25484895Y1577406D01*
X-25455763Y1698749D01*
X-25430620Y1803476D01*
X-25430619Y1803482D01*
X-25429465Y1808289D01*
X-25410835Y2045000D01*
X-25429465Y2281711D01*
X-25435670Y2307560D01*
X-25473710Y2466006D01*
X-25484895Y2512594D01*
X-25517478Y2591257D01*
X-25573865Y2727389D01*
X-25573867Y2727393D01*
X-25575760Y2731963D01*
X-25606458Y2782058D01*
X-25697241Y2930202D01*
X-25697245Y2930208D01*
X-25699824Y2934416D01*
X-25854031Y3114969D01*
X-26034584Y3269176D01*
X-26038792Y3271755D01*
X-26038798Y3271759D01*
X-26232817Y3390654D01*
X-26237037Y3393240D01*
X-26241607Y3395133D01*
X-26241611Y3395135D01*
X-26451833Y3482211D01*
X-26451835Y3482212D01*
X-26456406Y3484105D01*
X-26546768Y3505799D01*
X-26682476Y3538380D01*
X-26682482Y3538381D01*
X-26687289Y3539535D01*
X-26924000Y3558165D01*
X-27160711Y3539535D01*
X-27165518Y3538381D01*
X-27165524Y3538380D01*
X-27301232Y3505799D01*
X-27391594Y3484105D01*
X-27396165Y3482212D01*
X-27396167Y3482211D01*
X-27606389Y3395135D01*
X-27606393Y3395133D01*
X-27610963Y3393240D01*
X-27615183Y3390654D01*
X-27809202Y3271759D01*
X-27809208Y3271755D01*
X-27813416Y3269176D01*
X-27993969Y3114969D01*
X-28148176Y2934416D01*
X-28150755Y2930208D01*
X-28150759Y2930202D01*
X-28241542Y2782058D01*
X-28272240Y2731963D01*
X-28274133Y2727393D01*
X-28274135Y2727389D01*
X-28327435Y2598709D01*
X-28363105Y2512594D01*
X-28364743Y2513273D01*
X-28385261Y2479803D01*
X-28384199Y2478988D01*
X-28403664Y2453621D01*
X-28414531Y2441230D01*
X-29073251Y1782510D01*
X-29135563Y1748484D01*
X-29206378Y1753549D01*
X-29239049Y1771642D01*
X-29248800Y1779124D01*
X-29256172Y1784781D01*
X-29256175Y1784784D01*
X-29351371Y1857831D01*
X-29499396Y1919145D01*
X-29507583Y1920223D01*
X-29507584Y1920223D01*
X-29518789Y1921698D01*
X-29549985Y1925805D01*
X-29618362Y1934807D01*
X-29618365Y1934807D01*
X-29618373Y1934808D01*
X-29650058Y1938979D01*
X-29658247Y1940057D01*
X-29689940Y1935885D01*
X-29706383Y1934807D01*
X-30206689Y1934807D01*
X-30274810Y1954809D01*
X-30321303Y2008465D01*
X-30331967Y2047341D01*
X-30333611Y2062636D01*
X-30331056Y2062911D01*
X-30331056Y2090083D01*
X-30333611Y2090358D01*
X-30327460Y2147571D01*
X-30327460Y2147574D01*
X-30327100Y2150921D01*
X-30327100Y2502197D01*
X-30333611Y2562760D01*
X-30331056Y2563035D01*
X-30331056Y2590209D01*
X-30333611Y2590484D01*
X-30327460Y2647697D01*
X-30327460Y2647700D01*
X-30327100Y2651047D01*
X-30327100Y3002323D01*
X-30328591Y3016197D01*
X-30333611Y3062886D01*
X-30331056Y3063161D01*
X-30331056Y3090337D01*
X-30333611Y3090612D01*
X-30331826Y3107213D01*
X-30304656Y3172805D01*
X-30246337Y3213296D01*
X-30180351Y3216990D01*
X-30073944Y3194372D01*
X-30073939Y3194372D01*
X-30067487Y3193000D01*
X-29876513Y3193000D01*
X-29870061Y3194372D01*
X-29870056Y3194372D01*
X-29763650Y3216990D01*
X-29689712Y3232706D01*
X-29683681Y3235391D01*
X-29521278Y3307697D01*
X-29521276Y3307698D01*
X-29515248Y3310382D01*
X-29360747Y3422634D01*
X-29346512Y3438444D01*
X-29237379Y3559648D01*
X-29237378Y3559649D01*
X-29232960Y3564556D01*
X-29137473Y3729944D01*
X-29078458Y3911572D01*
X-29069247Y3999206D01*
X-29060665Y4080860D01*
X-29033652Y4146516D01*
X-28975430Y4187146D01*
X-28935355Y4193689D01*
X-26493578Y4193689D01*
X-26482395Y4193162D01*
X-26474902Y4191487D01*
X-26466976Y4191736D01*
X-26466975Y4191736D01*
X-26406825Y4193627D01*
X-26402866Y4193689D01*
X-26374955Y4193689D01*
X-26371020Y4194186D01*
X-26370955Y4194194D01*
X-26359118Y4195127D01*
X-26326860Y4196141D01*
X-26322841Y4196267D01*
X-26314922Y4196516D01*
X-26295468Y4202168D01*
X-26276111Y4206176D01*
X-26263881Y4207721D01*
X-26263880Y4207721D01*
X-26256014Y4208715D01*
X-26248643Y4211634D01*
X-26248641Y4211634D01*
X-26214899Y4224993D01*
X-26203669Y4228838D01*
X-26168828Y4238960D01*
X-26168827Y4238960D01*
X-26161218Y4241171D01*
X-26154399Y4245204D01*
X-26154394Y4245206D01*
X-26143783Y4251482D01*
X-26126035Y4260177D01*
X-26107194Y4267637D01*
X-26071424Y4293625D01*
X-26061504Y4300141D01*
X-26030276Y4318609D01*
X-26030273Y4318611D01*
X-26023449Y4322647D01*
X-26009128Y4336968D01*
X-25994094Y4349809D01*
X-25984118Y4357057D01*
X-25977704Y4361717D01*
X-25962730Y4379817D01*
X-25903898Y4419554D01*
X-25865647Y4425500D01*
X-25812513Y4425500D01*
X-25806061Y4426872D01*
X-25806056Y4426872D01*
X-25719113Y4445353D01*
X-25625712Y4465206D01*
X-25619681Y4467891D01*
X-25457278Y4540197D01*
X-25457276Y4540198D01*
X-25451248Y4542882D01*
X-25435580Y4554265D01*
X-25364578Y4605852D01*
X-25296747Y4655134D01*
X-25217753Y4742866D01*
X-25173379Y4792148D01*
X-25173378Y4792149D01*
X-25168960Y4797056D01*
X-25073473Y4962444D01*
X-25014458Y5144072D01*
X-25013658Y5151677D01*
X-24995186Y5327435D01*
X-24994496Y5334000D01*
X-25005720Y5440794D01*
X-25013768Y5517365D01*
X-25013768Y5517367D01*
X-25014458Y5523928D01*
X-25073473Y5705556D01*
X-25092293Y5738154D01*
X-25165659Y5865226D01*
X-25168960Y5870944D01*
X-25296747Y6012866D01*
X-25404414Y6091091D01*
X-25445906Y6121237D01*
X-25445907Y6121238D01*
X-25451248Y6125118D01*
X-25457276Y6127802D01*
X-25457278Y6127803D01*
X-25619681Y6200109D01*
X-25619682Y6200109D01*
X-25625712Y6202794D01*
X-25720571Y6222957D01*
X-25806056Y6241128D01*
X-25806061Y6241128D01*
X-25812513Y6242500D01*
X-26003487Y6242500D01*
X-26009939Y6241128D01*
X-26009944Y6241128D01*
X-26095429Y6222957D01*
X-26190288Y6202794D01*
X-26196318Y6200109D01*
X-26196319Y6200109D01*
X-26358722Y6127803D01*
X-26358724Y6127802D01*
X-26364752Y6125118D01*
X-26370093Y6121238D01*
X-26370094Y6121237D01*
X-26411586Y6091091D01*
X-26519253Y6012866D01*
X-26647040Y5870944D01*
X-26650341Y5865226D01*
X-26723706Y5738154D01*
X-26742527Y5705556D01*
X-26761081Y5648453D01*
X-26793801Y5547752D01*
X-26833875Y5489147D01*
X-26899272Y5461510D01*
X-26913634Y5460689D01*
X-28391217Y5460689D01*
X-28459338Y5480691D01*
X-28505831Y5534347D01*
X-28515935Y5604621D01*
X-28486441Y5669201D01*
X-28480312Y5675784D01*
X-27168350Y6987746D01*
X-27130504Y7013758D01*
X-26981278Y7080197D01*
X-26981276Y7080198D01*
X-26975248Y7082882D01*
X-26820747Y7195134D01*
X-26741753Y7282866D01*
X-26697379Y7332148D01*
X-26697378Y7332149D01*
X-26692960Y7337056D01*
X-26597473Y7502444D01*
X-26538458Y7684072D01*
X-26535396Y7713199D01*
X-26519186Y7867435D01*
X-26518496Y7874000D01*
X-26525819Y7943672D01*
X-26537768Y8057365D01*
X-26537768Y8057367D01*
X-26538458Y8063928D01*
X-26597473Y8245556D01*
X-26692960Y8410944D01*
X-26718936Y8439794D01*
X-26816325Y8547955D01*
X-26816326Y8547956D01*
X-26820747Y8552866D01*
X-26926135Y8629435D01*
X-26969906Y8661237D01*
X-26969907Y8661238D01*
X-26975248Y8665118D01*
X-26981274Y8667801D01*
X-26981281Y8667805D01*
X-27091313Y8716793D01*
X-27145409Y8762773D01*
X-27166059Y8830700D01*
X-27146707Y8899008D01*
X-27129160Y8920995D01*
X-27043136Y9007019D01*
X-26980824Y9041045D01*
X-26954041Y9043924D01*
X-26898149Y9043924D01*
X-26891697Y9045296D01*
X-26891692Y9045296D01*
X-26804749Y9063777D01*
X-26711348Y9083630D01*
X-26651787Y9110148D01*
X-26542914Y9158621D01*
X-26542912Y9158622D01*
X-26536884Y9161306D01*
X-26388630Y9269019D01*
X-26321764Y9292877D01*
X-26252612Y9276797D01*
G37*
%TD.AperFunction*%
%TA.AperFunction,Conductor*%
G36*
X-35615925Y7607460D02*
G01*
X-35615922Y7607460D01*
X-35612575Y7607100D01*
X-35261299Y7607100D01*
X-35257953Y7607460D01*
X-35257948Y7607460D01*
X-35213665Y7612221D01*
X-35143797Y7599615D01*
X-35091835Y7551237D01*
X-35074887Y7500114D01*
X-35063851Y7395118D01*
X-35056542Y7325572D01*
X-34997527Y7143944D01*
X-34902040Y6978556D01*
X-34897622Y6973649D01*
X-34897621Y6973648D01*
X-34777293Y6840010D01*
X-34746575Y6776003D01*
X-34755340Y6705549D01*
X-34800803Y6651018D01*
X-34870929Y6629700D01*
X-35414885Y6629700D01*
X-35430124Y6625225D01*
X-35431329Y6623835D01*
X-35433000Y6616152D01*
X-35433000Y4349115D01*
X-35428525Y4333876D01*
X-35427135Y4332671D01*
X-35419452Y4331000D01*
X-33152415Y4331000D01*
X-33137176Y4335475D01*
X-33135971Y4336865D01*
X-33134300Y4344548D01*
X-33134300Y6166923D01*
X-33134660Y6173638D01*
X-33139962Y6222957D01*
X-33143559Y6238178D01*
X-33188705Y6359220D01*
X-33197254Y6374876D01*
X-33273998Y6477393D01*
X-33286607Y6490002D01*
X-33389124Y6566746D01*
X-33404780Y6575295D01*
X-33519937Y6618246D01*
X-33576773Y6660793D01*
X-33601584Y6727313D01*
X-33586493Y6796687D01*
X-33560216Y6829938D01*
X-33557093Y6832750D01*
X-33551747Y6836634D01*
X-33538877Y6850927D01*
X-33480022Y6916293D01*
X-33419576Y6953533D01*
X-33348593Y6952181D01*
X-33289608Y6912668D01*
X-33277270Y6894988D01*
X-33251040Y6849556D01*
X-33123253Y6707634D01*
X-33039393Y6646706D01*
X-32977116Y6601459D01*
X-32968752Y6595382D01*
X-32962724Y6592698D01*
X-32962722Y6592697D01*
X-32872399Y6552483D01*
X-32794288Y6517706D01*
X-32700887Y6497853D01*
X-32613944Y6479372D01*
X-32613939Y6479372D01*
X-32607487Y6478000D01*
X-32416513Y6478000D01*
X-32410061Y6479372D01*
X-32410056Y6479372D01*
X-32309097Y6500832D01*
X-32238306Y6495430D01*
X-32181674Y6452613D01*
X-32157180Y6385975D01*
X-32156900Y6377585D01*
X-32156900Y6151929D01*
X-32156540Y6148582D01*
X-32156540Y6148579D01*
X-32150389Y6091366D01*
X-32152944Y6091091D01*
X-32152944Y6063917D01*
X-32150389Y6063642D01*
X-32156900Y6003079D01*
X-32156900Y5651803D01*
X-32156540Y5648456D01*
X-32156540Y5648453D01*
X-32150389Y5591240D01*
X-32152944Y5590965D01*
X-32152944Y5563791D01*
X-32150389Y5563516D01*
X-32156900Y5502953D01*
X-32156900Y5151677D01*
X-32156540Y5148330D01*
X-32156540Y5148327D01*
X-32150389Y5091114D01*
X-32152944Y5090839D01*
X-32152944Y5063665D01*
X-32150389Y5063390D01*
X-32156900Y5002827D01*
X-32156900Y4651551D01*
X-32156540Y4648204D01*
X-32156540Y4648201D01*
X-32150389Y4590988D01*
X-32152944Y4590713D01*
X-32152944Y4563539D01*
X-32150389Y4563264D01*
X-32155542Y4515329D01*
X-32156900Y4502701D01*
X-32156900Y4151425D01*
X-32156540Y4148078D01*
X-32156540Y4148075D01*
X-32150389Y4090862D01*
X-32152944Y4090587D01*
X-32152944Y4063413D01*
X-32150389Y4063138D01*
X-32156900Y4002575D01*
X-32156900Y3651299D01*
X-32156540Y3647952D01*
X-32156540Y3647949D01*
X-32150389Y3590736D01*
X-32152944Y3590461D01*
X-32152944Y3563287D01*
X-32150389Y3563012D01*
X-32156900Y3502449D01*
X-32156900Y3151173D01*
X-32156540Y3147826D01*
X-32156540Y3147823D01*
X-32150389Y3090610D01*
X-32152944Y3090335D01*
X-32152944Y3063161D01*
X-32150389Y3062886D01*
X-32155408Y3016197D01*
X-32156900Y3002323D01*
X-32156900Y2651047D01*
X-32156540Y2647700D01*
X-32156540Y2647697D01*
X-32150389Y2590484D01*
X-32152944Y2590209D01*
X-32152944Y2563035D01*
X-32150389Y2562760D01*
X-32156900Y2502197D01*
X-32156900Y2150921D01*
X-32156540Y2147574D01*
X-32156540Y2147571D01*
X-32150389Y2090358D01*
X-32152944Y2090083D01*
X-32152944Y2062909D01*
X-32150389Y2062634D01*
X-32156900Y2002071D01*
X-32156900Y1650795D01*
X-32156540Y1647448D01*
X-32156540Y1647445D01*
X-32150389Y1590232D01*
X-32152944Y1589957D01*
X-32152944Y1562783D01*
X-32150389Y1562508D01*
X-32154187Y1527176D01*
X-32156900Y1501945D01*
X-32156900Y1150669D01*
X-32156540Y1147322D01*
X-32156540Y1147319D01*
X-32150389Y1090106D01*
X-32152944Y1089831D01*
X-32152944Y1062657D01*
X-32150389Y1062382D01*
X-32155454Y1015265D01*
X-32156900Y1001819D01*
X-32156900Y672900D01*
X-32176902Y604779D01*
X-32230558Y558286D01*
X-32282900Y546900D01*
X-32611819Y546900D01*
X-32615166Y546540D01*
X-32615169Y546540D01*
X-32672382Y540389D01*
X-32672657Y542944D01*
X-32699831Y542944D01*
X-32700106Y540389D01*
X-32757319Y546540D01*
X-32757322Y546540D01*
X-32760669Y546900D01*
X-33111945Y546900D01*
X-33115292Y546540D01*
X-33115295Y546540D01*
X-33172508Y540389D01*
X-33172783Y542944D01*
X-33199957Y542944D01*
X-33200232Y540389D01*
X-33257445Y546540D01*
X-33257448Y546540D01*
X-33260795Y546900D01*
X-33612071Y546900D01*
X-33615418Y546540D01*
X-33615421Y546540D01*
X-33672634Y540389D01*
X-33672909Y542944D01*
X-33700083Y542944D01*
X-33700358Y540389D01*
X-33757571Y546540D01*
X-33757574Y546540D01*
X-33760921Y546900D01*
X-34112197Y546900D01*
X-34115544Y546540D01*
X-34115547Y546540D01*
X-34172760Y540389D01*
X-34173035Y542944D01*
X-34200209Y542944D01*
X-34200484Y540389D01*
X-34257697Y546540D01*
X-34257700Y546540D01*
X-34261047Y546900D01*
X-34612323Y546900D01*
X-34615670Y546540D01*
X-34615673Y546540D01*
X-34672886Y540389D01*
X-34673161Y542944D01*
X-34700335Y542944D01*
X-34700610Y540389D01*
X-34757823Y546540D01*
X-34757826Y546540D01*
X-34761173Y546900D01*
X-35112449Y546900D01*
X-35115796Y546540D01*
X-35115799Y546540D01*
X-35173012Y540389D01*
X-35173287Y542944D01*
X-35200461Y542944D01*
X-35200736Y540389D01*
X-35257949Y546540D01*
X-35257952Y546540D01*
X-35261299Y546900D01*
X-35612575Y546900D01*
X-35615922Y546540D01*
X-35615925Y546540D01*
X-35673138Y540389D01*
X-35673413Y542944D01*
X-35700587Y542944D01*
X-35700862Y540389D01*
X-35758075Y546540D01*
X-35758078Y546540D01*
X-35761425Y546900D01*
X-36112701Y546900D01*
X-36116048Y546540D01*
X-36116051Y546540D01*
X-36173264Y540389D01*
X-36173539Y542944D01*
X-36200713Y542944D01*
X-36200988Y540389D01*
X-36258201Y546540D01*
X-36258204Y546540D01*
X-36261551Y546900D01*
X-36612827Y546900D01*
X-36616174Y546540D01*
X-36616177Y546540D01*
X-36673390Y540389D01*
X-36673665Y542944D01*
X-36700839Y542944D01*
X-36701114Y540389D01*
X-36758327Y546540D01*
X-36758330Y546540D01*
X-36761677Y546900D01*
X-37112953Y546900D01*
X-37116300Y546540D01*
X-37116303Y546540D01*
X-37173516Y540389D01*
X-37173791Y542944D01*
X-37200965Y542944D01*
X-37201240Y540389D01*
X-37258453Y546540D01*
X-37258456Y546540D01*
X-37261803Y546900D01*
X-37613079Y546900D01*
X-37616426Y546540D01*
X-37616429Y546540D01*
X-37673642Y540389D01*
X-37673917Y542944D01*
X-37701091Y542944D01*
X-37701366Y540389D01*
X-37758579Y546540D01*
X-37758582Y546540D01*
X-37761929Y546900D01*
X-38113205Y546900D01*
X-38116552Y546540D01*
X-38116555Y546540D01*
X-38173768Y540389D01*
X-38174043Y542944D01*
X-38201217Y542944D01*
X-38201492Y540389D01*
X-38258705Y546540D01*
X-38258708Y546540D01*
X-38262055Y546900D01*
X-38613331Y546900D01*
X-38616678Y546540D01*
X-38616681Y546540D01*
X-38673894Y540389D01*
X-38674169Y542944D01*
X-38701343Y542944D01*
X-38701618Y540389D01*
X-38758831Y546540D01*
X-38758834Y546540D01*
X-38762181Y546900D01*
X-39091100Y546900D01*
X-39159221Y566902D01*
X-39205714Y620558D01*
X-39217100Y672900D01*
X-39217100Y1001819D01*
X-39218545Y1015265D01*
X-39223611Y1062382D01*
X-39221056Y1062657D01*
X-39221056Y1089831D01*
X-39223611Y1090106D01*
X-39217460Y1147319D01*
X-39217460Y1147322D01*
X-39217100Y1150669D01*
X-39217100Y1501945D01*
X-39219812Y1527176D01*
X-39223611Y1562508D01*
X-39221056Y1562783D01*
X-39221056Y1589957D01*
X-39223611Y1590232D01*
X-39217460Y1647445D01*
X-39217460Y1647448D01*
X-39217100Y1650795D01*
X-39217100Y1987077D01*
X-38239700Y1987077D01*
X-38239340Y1980362D01*
X-38234038Y1931043D01*
X-38230441Y1915822D01*
X-38185295Y1794780D01*
X-38176746Y1779124D01*
X-38100002Y1676607D01*
X-38087393Y1663998D01*
X-37984876Y1587254D01*
X-37969220Y1578705D01*
X-37848178Y1533559D01*
X-37832957Y1529962D01*
X-37783638Y1524660D01*
X-37776923Y1524300D01*
X-35959115Y1524300D01*
X-35943876Y1528775D01*
X-35942671Y1530165D01*
X-35941000Y1537848D01*
X-35941000Y1542415D01*
X-35433000Y1542415D01*
X-35428525Y1527176D01*
X-35427135Y1525971D01*
X-35419452Y1524300D01*
X-33597077Y1524300D01*
X-33590362Y1524660D01*
X-33541043Y1529962D01*
X-33525822Y1533559D01*
X-33404780Y1578705D01*
X-33389124Y1587254D01*
X-33286607Y1663998D01*
X-33273998Y1676607D01*
X-33197254Y1779124D01*
X-33188705Y1794780D01*
X-33143559Y1915822D01*
X-33139962Y1931043D01*
X-33134660Y1980362D01*
X-33134300Y1987077D01*
X-33134300Y3804885D01*
X-33138775Y3820124D01*
X-33140165Y3821329D01*
X-33147848Y3823000D01*
X-35414885Y3823000D01*
X-35430124Y3818525D01*
X-35431329Y3817135D01*
X-35433000Y3809452D01*
X-35433000Y1542415D01*
X-35941000Y1542415D01*
X-35941000Y3804885D01*
X-35945475Y3820124D01*
X-35946865Y3821329D01*
X-35954548Y3823000D01*
X-38221585Y3823000D01*
X-38236824Y3818525D01*
X-38238029Y3817135D01*
X-38239700Y3809452D01*
X-38239700Y1987077D01*
X-39217100Y1987077D01*
X-39217100Y2002071D01*
X-39223611Y2062634D01*
X-39221056Y2062909D01*
X-39221056Y2090083D01*
X-39223611Y2090358D01*
X-39217460Y2147571D01*
X-39217460Y2147574D01*
X-39217100Y2150921D01*
X-39217100Y2502197D01*
X-39223611Y2562760D01*
X-39221056Y2563035D01*
X-39221056Y2590209D01*
X-39223611Y2590484D01*
X-39217460Y2647697D01*
X-39217460Y2647700D01*
X-39217100Y2651047D01*
X-39217100Y3002323D01*
X-39218591Y3016197D01*
X-39223611Y3062886D01*
X-39221056Y3063161D01*
X-39221056Y3090335D01*
X-39223611Y3090610D01*
X-39217460Y3147823D01*
X-39217460Y3147826D01*
X-39217100Y3151173D01*
X-39217100Y3502449D01*
X-39223611Y3563012D01*
X-39221056Y3563287D01*
X-39221056Y3590461D01*
X-39223611Y3590736D01*
X-39217460Y3647949D01*
X-39217460Y3647952D01*
X-39217100Y3651299D01*
X-39217100Y4002575D01*
X-39223611Y4063138D01*
X-39221056Y4063413D01*
X-39221056Y4090587D01*
X-39223611Y4090862D01*
X-39217460Y4148075D01*
X-39217460Y4148078D01*
X-39217100Y4151425D01*
X-39217100Y4349115D01*
X-38239700Y4349115D01*
X-38235225Y4333876D01*
X-38233835Y4332671D01*
X-38226152Y4331000D01*
X-35959115Y4331000D01*
X-35943876Y4335475D01*
X-35942671Y4336865D01*
X-35941000Y4344548D01*
X-35941000Y6611585D01*
X-35945475Y6626824D01*
X-35946865Y6628029D01*
X-35954548Y6629700D01*
X-37776923Y6629700D01*
X-37783638Y6629340D01*
X-37832957Y6624038D01*
X-37848178Y6620441D01*
X-37969220Y6575295D01*
X-37984876Y6566746D01*
X-38087393Y6490002D01*
X-38100002Y6477393D01*
X-38176746Y6374876D01*
X-38185295Y6359220D01*
X-38230441Y6238178D01*
X-38234038Y6222957D01*
X-38239340Y6173638D01*
X-38239700Y6166923D01*
X-38239700Y4349115D01*
X-39217100Y4349115D01*
X-39217100Y4502701D01*
X-39218457Y4515329D01*
X-39223611Y4563264D01*
X-39221056Y4563539D01*
X-39221056Y4590713D01*
X-39223611Y4590988D01*
X-39217460Y4648201D01*
X-39217460Y4648204D01*
X-39217100Y4651551D01*
X-39217100Y5002827D01*
X-39223611Y5063390D01*
X-39221056Y5063665D01*
X-39221056Y5090839D01*
X-39223611Y5091114D01*
X-39217460Y5148327D01*
X-39217460Y5148330D01*
X-39217100Y5151677D01*
X-39217100Y5502953D01*
X-39223611Y5563516D01*
X-39221056Y5563791D01*
X-39221056Y5590965D01*
X-39223611Y5591240D01*
X-39217460Y5648453D01*
X-39217460Y5648456D01*
X-39217100Y5651803D01*
X-39217100Y6003079D01*
X-39223611Y6063642D01*
X-39221056Y6063917D01*
X-39221056Y6091091D01*
X-39223611Y6091366D01*
X-39217460Y6148579D01*
X-39217460Y6148582D01*
X-39217100Y6151929D01*
X-39217100Y6503205D01*
X-39223611Y6563768D01*
X-39221056Y6564043D01*
X-39221056Y6591217D01*
X-39223611Y6591492D01*
X-39217460Y6648705D01*
X-39217460Y6648708D01*
X-39217100Y6652055D01*
X-39217100Y7003331D01*
X-39223611Y7063894D01*
X-39221056Y7064169D01*
X-39221056Y7091343D01*
X-39223611Y7091618D01*
X-39217460Y7148831D01*
X-39217460Y7148834D01*
X-39217100Y7152181D01*
X-39217100Y7481100D01*
X-39197098Y7549221D01*
X-39143442Y7595714D01*
X-39091100Y7607100D01*
X-38762181Y7607100D01*
X-38758834Y7607460D01*
X-38758831Y7607460D01*
X-38701618Y7613611D01*
X-38701343Y7611056D01*
X-38674169Y7611056D01*
X-38673894Y7613611D01*
X-38616681Y7607460D01*
X-38616678Y7607460D01*
X-38613331Y7607100D01*
X-38262055Y7607100D01*
X-38258708Y7607460D01*
X-38258705Y7607460D01*
X-38201492Y7613611D01*
X-38201217Y7611056D01*
X-38174043Y7611056D01*
X-38173768Y7613611D01*
X-38116555Y7607460D01*
X-38116552Y7607460D01*
X-38113205Y7607100D01*
X-37761929Y7607100D01*
X-37758582Y7607460D01*
X-37758579Y7607460D01*
X-37701366Y7613611D01*
X-37701091Y7611056D01*
X-37673917Y7611056D01*
X-37673642Y7613611D01*
X-37616429Y7607460D01*
X-37616426Y7607460D01*
X-37613079Y7607100D01*
X-37261803Y7607100D01*
X-37258456Y7607460D01*
X-37258453Y7607460D01*
X-37201240Y7613611D01*
X-37200965Y7611056D01*
X-37173791Y7611056D01*
X-37173516Y7613611D01*
X-37116303Y7607460D01*
X-37116300Y7607460D01*
X-37112953Y7607100D01*
X-36761677Y7607100D01*
X-36758330Y7607460D01*
X-36758327Y7607460D01*
X-36701114Y7613611D01*
X-36700839Y7611056D01*
X-36673665Y7611056D01*
X-36673390Y7613611D01*
X-36616177Y7607460D01*
X-36616174Y7607460D01*
X-36612827Y7607100D01*
X-36261551Y7607100D01*
X-36258204Y7607460D01*
X-36258201Y7607460D01*
X-36200988Y7613611D01*
X-36200713Y7611056D01*
X-36173539Y7611056D01*
X-36173264Y7613611D01*
X-36116051Y7607460D01*
X-36116048Y7607460D01*
X-36112701Y7607100D01*
X-35761425Y7607100D01*
X-35758078Y7607460D01*
X-35758075Y7607460D01*
X-35700862Y7613611D01*
X-35700587Y7611056D01*
X-35673413Y7611056D01*
X-35673138Y7613611D01*
X-35615925Y7607460D01*
G37*
%TD.AperFunction*%
%TA.AperFunction,Conductor*%
G36*
X-43680473Y6458498D02*
G01*
X-43659499Y6441595D01*
X-42956058Y5738154D01*
X-42922032Y5675842D01*
X-42927097Y5605027D01*
X-42971090Y5547124D01*
X-43029253Y5504866D01*
X-43033674Y5499956D01*
X-43033675Y5499955D01*
X-43043406Y5489147D01*
X-43157040Y5362944D01*
X-43252527Y5197556D01*
X-43311542Y5015928D01*
X-43312232Y5009367D01*
X-43312232Y5009365D01*
X-43317326Y4960899D01*
X-43344340Y4895242D01*
X-43402562Y4854613D01*
X-43473507Y4851910D01*
X-43493881Y4858962D01*
X-43659712Y4932794D01*
X-43772279Y4956721D01*
X-43840056Y4971128D01*
X-43840061Y4971128D01*
X-43846513Y4972500D01*
X-44037487Y4972500D01*
X-44043939Y4971128D01*
X-44043944Y4971128D01*
X-44111721Y4956721D01*
X-44224288Y4932794D01*
X-44230318Y4930109D01*
X-44230319Y4930109D01*
X-44392722Y4857803D01*
X-44392724Y4857802D01*
X-44398752Y4855118D01*
X-44553253Y4742866D01*
X-44557674Y4737956D01*
X-44557675Y4737955D01*
X-44635743Y4651251D01*
X-44681040Y4600944D01*
X-44707990Y4554265D01*
X-44759372Y4505272D01*
X-44829086Y4491836D01*
X-44891170Y4515329D01*
X-45003906Y4597237D01*
X-45003907Y4597238D01*
X-45009248Y4601118D01*
X-45015276Y4603802D01*
X-45015278Y4603803D01*
X-45177681Y4676109D01*
X-45177682Y4676109D01*
X-45183712Y4678794D01*
X-45277113Y4698647D01*
X-45364056Y4717128D01*
X-45364061Y4717128D01*
X-45370513Y4718500D01*
X-45561487Y4718500D01*
X-45567939Y4717128D01*
X-45567944Y4717128D01*
X-45654887Y4698647D01*
X-45748288Y4678794D01*
X-45754318Y4676109D01*
X-45754319Y4676109D01*
X-45916722Y4603803D01*
X-45916724Y4603802D01*
X-45922752Y4601118D01*
X-45928093Y4597238D01*
X-45928094Y4597237D01*
X-45955774Y4577126D01*
X-46077253Y4488866D01*
X-46081674Y4483956D01*
X-46081675Y4483955D01*
X-46191738Y4361717D01*
X-46205040Y4346944D01*
X-46214245Y4331000D01*
X-46293230Y4194194D01*
X-46300527Y4181556D01*
X-46359542Y3999928D01*
X-46360232Y3993367D01*
X-46360232Y3993365D01*
X-46378138Y3823000D01*
X-46379504Y3810000D01*
X-46378814Y3803435D01*
X-46364106Y3663500D01*
X-46359542Y3620072D01*
X-46300527Y3438444D01*
X-46297224Y3432722D01*
X-46297223Y3432721D01*
X-46274428Y3393240D01*
X-46205040Y3273056D01*
X-46200622Y3268149D01*
X-46200621Y3268148D01*
X-46154558Y3216990D01*
X-46077253Y3131134D01*
X-45922752Y3018882D01*
X-45916724Y3016198D01*
X-45916722Y3016197D01*
X-45885560Y3002323D01*
X-45748288Y2941206D01*
X-45654888Y2921353D01*
X-45567944Y2902872D01*
X-45567939Y2902872D01*
X-45561487Y2901500D01*
X-45505594Y2901500D01*
X-45437473Y2881498D01*
X-45416499Y2864595D01*
X-45402581Y2850677D01*
X-45399386Y2848199D01*
X-45390364Y2840493D01*
X-45358132Y2810225D01*
X-45351183Y2806405D01*
X-45340379Y2800465D01*
X-45323855Y2789612D01*
X-45307852Y2777198D01*
X-45267268Y2759635D01*
X-45256638Y2754428D01*
X-45217871Y2733116D01*
X-45210194Y2731145D01*
X-45210189Y2731143D01*
X-45198253Y2728079D01*
X-45179545Y2721674D01*
X-45160956Y2713630D01*
X-45153131Y2712391D01*
X-45153129Y2712390D01*
X-45117292Y2706714D01*
X-45105671Y2704307D01*
X-45070522Y2695283D01*
X-45062841Y2693311D01*
X-45042580Y2693311D01*
X-45022871Y2691760D01*
X-45002868Y2688592D01*
X-44994976Y2689338D01*
X-44989749Y2689832D01*
X-44958857Y2692752D01*
X-44947000Y2693311D01*
X-43656149Y2693311D01*
X-43588028Y2673309D01*
X-43541535Y2619653D01*
X-43531431Y2549379D01*
X-43536315Y2528380D01*
X-43565542Y2438428D01*
X-43566232Y2431867D01*
X-43566232Y2431865D01*
X-43583210Y2270329D01*
X-43610223Y2204673D01*
X-43668445Y2164043D01*
X-43708520Y2157500D01*
X-43995800Y2157500D01*
X-44063921Y2177502D01*
X-44083147Y2193843D01*
X-44083420Y2193540D01*
X-44088332Y2197963D01*
X-44092747Y2202866D01*
X-44121563Y2223802D01*
X-44241906Y2311237D01*
X-44241907Y2311238D01*
X-44247248Y2315118D01*
X-44253276Y2317802D01*
X-44253278Y2317803D01*
X-44415681Y2390109D01*
X-44415682Y2390109D01*
X-44421712Y2392794D01*
X-44515113Y2412647D01*
X-44602056Y2431128D01*
X-44602061Y2431128D01*
X-44608513Y2432500D01*
X-44799487Y2432500D01*
X-44805939Y2431128D01*
X-44805944Y2431128D01*
X-44892887Y2412647D01*
X-44986288Y2392794D01*
X-44992318Y2390109D01*
X-44992319Y2390109D01*
X-45154722Y2317803D01*
X-45154724Y2317802D01*
X-45160752Y2315118D01*
X-45166093Y2311238D01*
X-45166094Y2311237D01*
X-45200108Y2286524D01*
X-45315253Y2202866D01*
X-45319674Y2197956D01*
X-45319675Y2197955D01*
X-45412750Y2094584D01*
X-45443040Y2060944D01*
X-45485687Y1987077D01*
X-45526826Y1915822D01*
X-45538527Y1895556D01*
X-45597542Y1713928D01*
X-45598232Y1707367D01*
X-45598232Y1707365D01*
X-45613428Y1562783D01*
X-45617504Y1524000D01*
X-45597542Y1334072D01*
X-45595503Y1327797D01*
X-45595502Y1327792D01*
X-45588563Y1306438D01*
X-45586534Y1235471D01*
X-45623195Y1174672D01*
X-45686907Y1143346D01*
X-45708395Y1141500D01*
X-46237980Y1141500D01*
X-46306101Y1161502D01*
X-46352594Y1215158D01*
X-46357813Y1228564D01*
X-46394227Y1340635D01*
X-46409473Y1387556D01*
X-46504960Y1552944D01*
X-46522611Y1572548D01*
X-46628325Y1689955D01*
X-46628326Y1689956D01*
X-46632747Y1694866D01*
X-46753378Y1782510D01*
X-46781906Y1803237D01*
X-46781907Y1803238D01*
X-46787248Y1807118D01*
X-46793276Y1809802D01*
X-46793278Y1809803D01*
X-46955681Y1882109D01*
X-46955682Y1882109D01*
X-46961712Y1884794D01*
X-47070294Y1907874D01*
X-47142056Y1923128D01*
X-47142061Y1923128D01*
X-47148513Y1924500D01*
X-47339487Y1924500D01*
X-47345939Y1923128D01*
X-47345944Y1923128D01*
X-47417706Y1907874D01*
X-47526288Y1884794D01*
X-47532315Y1882111D01*
X-47532323Y1882108D01*
X-47574252Y1863440D01*
X-47644619Y1854006D01*
X-47708916Y1884113D01*
X-47746729Y1944202D01*
X-47751500Y1978547D01*
X-47751500Y5981972D01*
X-47731498Y6050093D01*
X-47714595Y6071068D01*
X-47473066Y6312596D01*
X-47410754Y6346621D01*
X-47383971Y6349500D01*
X-46003081Y6349500D01*
X-45934960Y6329498D01*
X-45929020Y6325436D01*
X-45922752Y6320882D01*
X-45916724Y6318198D01*
X-45916722Y6318197D01*
X-45754319Y6245891D01*
X-45748288Y6243206D01*
X-45675258Y6227683D01*
X-45567944Y6204872D01*
X-45567939Y6204872D01*
X-45561487Y6203500D01*
X-45370513Y6203500D01*
X-45364061Y6204872D01*
X-45364056Y6204872D01*
X-45256742Y6227683D01*
X-45183712Y6243206D01*
X-45177681Y6245891D01*
X-45015278Y6318197D01*
X-45015276Y6318198D01*
X-45009248Y6320882D01*
X-44986950Y6337082D01*
X-44860086Y6429255D01*
X-44854747Y6433134D01*
X-44850332Y6438037D01*
X-44845420Y6442460D01*
X-44844295Y6441211D01*
X-44790986Y6474051D01*
X-44757800Y6478500D01*
X-43748594Y6478500D01*
X-43680473Y6458498D01*
G37*
%TD.AperFunction*%
%TA.AperFunction,Conductor*%
G36*
X-34976176Y20430680D02*
G01*
X-34918032Y20389939D01*
X-34895482Y20346454D01*
X-34890019Y20327650D01*
X-34886013Y20308300D01*
X-34883474Y20288203D01*
X-34880555Y20280832D01*
X-34880555Y20280830D01*
X-34867196Y20247088D01*
X-34863351Y20235858D01*
X-34853317Y20201321D01*
X-34851018Y20193407D01*
X-34846985Y20186588D01*
X-34846983Y20186583D01*
X-34840707Y20175972D01*
X-34832012Y20158224D01*
X-34824552Y20139383D01*
X-34819890Y20132967D01*
X-34819890Y20132966D01*
X-34798564Y20103613D01*
X-34792048Y20093693D01*
X-34769542Y20055638D01*
X-34755221Y20041317D01*
X-34742381Y20026284D01*
X-34730472Y20009893D01*
X-34724366Y20004842D01*
X-34696395Y19981702D01*
X-34687616Y19973712D01*
X-34133657Y19419753D01*
X-34126113Y19411463D01*
X-34122000Y19404982D01*
X-34116223Y19399557D01*
X-34072333Y19358342D01*
X-34069491Y19355587D01*
X-34049769Y19335865D01*
X-34046645Y19333442D01*
X-34046641Y19333438D01*
X-34046576Y19333388D01*
X-34037555Y19325683D01*
X-34005321Y19295414D01*
X-33998373Y19291595D01*
X-33998371Y19291593D01*
X-33987568Y19285654D01*
X-33971041Y19274798D01*
X-33961302Y19267243D01*
X-33961300Y19267242D01*
X-33955040Y19262386D01*
X-33914460Y19244826D01*
X-33903812Y19239609D01*
X-33880319Y19226694D01*
X-33865060Y19218305D01*
X-33857384Y19216334D01*
X-33857381Y19216333D01*
X-33845438Y19213267D01*
X-33826733Y19206863D01*
X-33808145Y19198819D01*
X-33800322Y19197580D01*
X-33800312Y19197577D01*
X-33764476Y19191901D01*
X-33752856Y19189495D01*
X-33717956Y19180535D01*
X-33710030Y19178500D01*
X-33689776Y19178500D01*
X-33670066Y19176949D01*
X-33650057Y19173780D01*
X-33642165Y19174526D01*
X-33606039Y19177941D01*
X-33594181Y19178500D01*
X-27492595Y19178500D01*
X-27424474Y19158498D01*
X-27403499Y19141595D01*
X-26832404Y18570499D01*
X-26798379Y18508187D01*
X-26795500Y18481404D01*
X-26795500Y11762767D01*
X-26796027Y11751584D01*
X-26797702Y11744091D01*
X-26797453Y11736165D01*
X-26797453Y11736164D01*
X-26795562Y11676014D01*
X-26795500Y11672055D01*
X-26795500Y11644144D01*
X-26795003Y11640210D01*
X-26795003Y11640209D01*
X-26794995Y11640144D01*
X-26794062Y11628307D01*
X-26792673Y11584111D01*
X-26787022Y11564661D01*
X-26783013Y11545300D01*
X-26780474Y11525203D01*
X-26777555Y11517832D01*
X-26777555Y11517830D01*
X-26764196Y11484088D01*
X-26760351Y11472858D01*
X-26748018Y11430407D01*
X-26743985Y11423588D01*
X-26743983Y11423583D01*
X-26737707Y11412972D01*
X-26729012Y11395224D01*
X-26721552Y11376383D01*
X-26716890Y11369967D01*
X-26716890Y11369966D01*
X-26695564Y11340613D01*
X-26689048Y11330693D01*
X-26672988Y11303538D01*
X-26666542Y11292638D01*
X-26652221Y11278317D01*
X-26639381Y11263284D01*
X-26627472Y11246893D01*
X-26602670Y11226375D01*
X-26593407Y11218712D01*
X-26584626Y11210722D01*
X-26070404Y10696499D01*
X-26036379Y10634187D01*
X-26033500Y10607404D01*
X-26033500Y10571669D01*
X-26053502Y10503548D01*
X-26107158Y10457055D01*
X-26177432Y10446951D01*
X-26242012Y10476445D01*
X-26254201Y10489724D01*
X-26254596Y10489368D01*
X-26377961Y10626379D01*
X-26377962Y10626380D01*
X-26382383Y10631290D01*
X-26481479Y10703288D01*
X-26531542Y10739661D01*
X-26531543Y10739662D01*
X-26536884Y10743542D01*
X-26542912Y10746226D01*
X-26542914Y10746227D01*
X-26705317Y10818533D01*
X-26705318Y10818533D01*
X-26711348Y10821218D01*
X-26814915Y10843232D01*
X-26891692Y10859552D01*
X-26891697Y10859552D01*
X-26898149Y10860924D01*
X-27089123Y10860924D01*
X-27095575Y10859552D01*
X-27095580Y10859552D01*
X-27271371Y10822186D01*
X-27342162Y10827588D01*
X-27398794Y10870405D01*
X-27409518Y10888578D01*
X-27409718Y10888469D01*
X-27411875Y10892419D01*
X-27413744Y10896512D01*
X-27492795Y11019518D01*
X-27515116Y11045279D01*
X-27584009Y11124786D01*
X-27586949Y11128179D01*
X-27671638Y11201563D01*
X-27694055Y11220988D01*
X-27694059Y11220991D01*
X-27697460Y11223938D01*
X-27818414Y11301670D01*
X-27951423Y11362413D01*
X-28010042Y11379625D01*
X-28085055Y11401651D01*
X-28085059Y11401652D01*
X-28089378Y11402920D01*
X-28093826Y11403560D01*
X-28093833Y11403561D01*
X-28229663Y11423090D01*
X-28229670Y11423091D01*
X-28234111Y11423729D01*
X-28806000Y11423729D01*
X-28814934Y11423090D01*
X-28872373Y11418982D01*
X-28872374Y11418982D01*
X-28879111Y11418500D01*
X-28915440Y11407833D01*
X-28968868Y11404012D01*
X-29106000Y11423729D01*
X-29677889Y11423729D01*
X-29682330Y11423091D01*
X-29682337Y11423090D01*
X-29818167Y11403561D01*
X-29818174Y11403560D01*
X-29822622Y11402920D01*
X-29826941Y11401652D01*
X-29826945Y11401651D01*
X-29901958Y11379625D01*
X-29960577Y11362413D01*
X-30093586Y11301670D01*
X-30214540Y11223938D01*
X-30217941Y11220991D01*
X-30217945Y11220988D01*
X-30240362Y11201563D01*
X-30325051Y11128179D01*
X-30327991Y11124786D01*
X-30396883Y11045279D01*
X-30419205Y11019518D01*
X-30498256Y10896512D01*
X-30557984Y10765727D01*
X-30559250Y10761415D01*
X-30567945Y10731803D01*
X-30611385Y10668077D01*
X-30617362Y10664542D01*
X-30631683Y10650221D01*
X-30646716Y10637381D01*
X-30663107Y10625472D01*
X-30678054Y10607404D01*
X-30691288Y10591407D01*
X-30699278Y10582626D01*
X-31087460Y10194445D01*
X-31149772Y10160420D01*
X-31220588Y10165485D01*
X-31277423Y10208032D01*
X-31302234Y10274552D01*
X-31302555Y10283541D01*
X-31302555Y11147024D01*
X-31282553Y11215145D01*
X-31228897Y11261638D01*
X-31220688Y11265387D01*
X-31135414Y11304330D01*
X-31014460Y11382062D01*
X-31011059Y11385009D01*
X-31011055Y11385012D01*
X-30907343Y11474880D01*
X-30903949Y11477821D01*
X-30829018Y11564297D01*
X-30812739Y11583084D01*
X-30812737Y11583087D01*
X-30809795Y11586482D01*
X-30730744Y11709488D01*
X-30671016Y11840273D01*
X-30629820Y11980573D01*
X-30628544Y11989444D01*
X-30610458Y12115237D01*
X-30609358Y12122888D01*
X-30609358Y12231363D01*
X-30609315Y12231763D01*
X-30609271Y12231763D01*
X-30609271Y12660237D01*
X-30609315Y12660237D01*
X-30609358Y12660533D01*
X-30609358Y12769112D01*
X-30629820Y12911427D01*
X-30671016Y13051727D01*
X-30730744Y13182512D01*
X-30809795Y13305518D01*
X-30903949Y13414179D01*
X-30907343Y13417120D01*
X-31011055Y13506988D01*
X-31011059Y13506991D01*
X-31014460Y13509938D01*
X-31135414Y13587670D01*
X-31157950Y13597962D01*
X-31211604Y13644455D01*
X-31231606Y13712575D01*
X-31211604Y13780696D01*
X-31157948Y13827189D01*
X-31144006Y13833556D01*
X-31120414Y13844330D01*
X-30999460Y13922062D01*
X-30970558Y13947106D01*
X-30953608Y13961793D01*
X-30889027Y13991286D01*
X-30818754Y13981182D01*
X-30782001Y13955663D01*
X-30127403Y13301065D01*
X-30096665Y13250907D01*
X-30044527Y13090444D01*
X-29949040Y12925056D01*
X-29944622Y12920149D01*
X-29944621Y12920148D01*
X-29932751Y12906965D01*
X-29821253Y12783134D01*
X-29666752Y12670882D01*
X-29660724Y12668198D01*
X-29660722Y12668197D01*
X-29523969Y12607311D01*
X-29492288Y12593206D01*
X-29398887Y12573353D01*
X-29311944Y12554872D01*
X-29311939Y12554872D01*
X-29305487Y12553500D01*
X-29114513Y12553500D01*
X-29108061Y12554872D01*
X-29108056Y12554872D01*
X-29021112Y12573353D01*
X-28927712Y12593206D01*
X-28896031Y12607311D01*
X-28759278Y12668197D01*
X-28759276Y12668198D01*
X-28753248Y12670882D01*
X-28598747Y12783134D01*
X-28487249Y12906965D01*
X-28475379Y12920148D01*
X-28475378Y12920149D01*
X-28470960Y12925056D01*
X-28375473Y13090444D01*
X-28316458Y13272072D01*
X-28312585Y13308916D01*
X-28297186Y13455435D01*
X-28296496Y13462000D01*
X-28310786Y13597961D01*
X-28315768Y13645365D01*
X-28315768Y13645367D01*
X-28316458Y13651928D01*
X-28375473Y13833556D01*
X-28383098Y13846764D01*
X-28467659Y13993226D01*
X-28470960Y13998944D01*
X-28598747Y14140866D01*
X-28753248Y14253118D01*
X-28759276Y14255802D01*
X-28759278Y14255803D01*
X-28921681Y14328109D01*
X-28921682Y14328109D01*
X-28927712Y14330794D01*
X-28934167Y14332166D01*
X-28934176Y14332169D01*
X-28983588Y14342672D01*
X-29046485Y14376823D01*
X-30149056Y15479394D01*
X-30161029Y15493247D01*
X-30171223Y15506940D01*
X-30175602Y15512822D01*
X-30214165Y15545180D01*
X-30222269Y15552607D01*
X-30226235Y15556573D01*
X-30250937Y15576105D01*
X-30253775Y15578418D01*
X-30306522Y15622677D01*
X-30306527Y15622680D01*
X-30312147Y15627396D01*
X-30318702Y15630688D01*
X-30321623Y15632609D01*
X-30321923Y15632825D01*
X-30322225Y15632994D01*
X-30325225Y15634845D01*
X-30330980Y15639395D01*
X-30400047Y15671602D01*
X-30403339Y15673196D01*
X-30464871Y15704099D01*
X-30464879Y15704102D01*
X-30471434Y15707394D01*
X-30478573Y15709086D01*
X-30481886Y15710292D01*
X-30482202Y15710423D01*
X-30482541Y15710519D01*
X-30485878Y15711625D01*
X-30492527Y15714725D01*
X-30499711Y15716208D01*
X-30499713Y15716209D01*
X-30548575Y15726298D01*
X-30567142Y15730132D01*
X-30570711Y15730923D01*
X-30586001Y15734547D01*
X-30644877Y15748500D01*
X-30652215Y15748500D01*
X-30655706Y15748908D01*
X-30656054Y15748964D01*
X-30656414Y15748980D01*
X-30659907Y15749286D01*
X-30667091Y15750769D01*
X-30674420Y15750556D01*
X-30675714Y15750669D01*
X-30741831Y15776533D01*
X-30770726Y15808068D01*
X-30792357Y15841727D01*
X-30792369Y15841743D01*
X-30794795Y15845518D01*
X-30888949Y15954179D01*
X-30892343Y15957120D01*
X-30996055Y16046988D01*
X-30996059Y16046991D01*
X-30999460Y16049938D01*
X-31120414Y16127670D01*
X-31253423Y16188413D01*
X-31300054Y16202105D01*
X-31387055Y16227651D01*
X-31387059Y16227652D01*
X-31391378Y16228920D01*
X-31395826Y16229560D01*
X-31395833Y16229561D01*
X-31531663Y16249090D01*
X-31531670Y16249091D01*
X-31536111Y16249729D01*
X-32108000Y16249729D01*
X-32116934Y16249090D01*
X-32174373Y16244982D01*
X-32174374Y16244982D01*
X-32181111Y16244500D01*
X-32217440Y16233833D01*
X-32270868Y16230012D01*
X-32408000Y16249729D01*
X-32979889Y16249729D01*
X-32984330Y16249091D01*
X-32984337Y16249090D01*
X-33120167Y16229561D01*
X-33120174Y16229560D01*
X-33124622Y16228920D01*
X-33128941Y16227652D01*
X-33128945Y16227651D01*
X-33215946Y16202105D01*
X-33262577Y16188413D01*
X-33395586Y16127670D01*
X-33516540Y16049938D01*
X-33519941Y16046991D01*
X-33519945Y16046988D01*
X-33623657Y15957120D01*
X-33627051Y15954179D01*
X-33721205Y15845518D01*
X-33800256Y15722512D01*
X-33859984Y15591727D01*
X-33901180Y15451427D01*
X-33921642Y15309112D01*
X-33921642Y15304603D01*
X-33921921Y15300705D01*
X-33946733Y15234185D01*
X-34003569Y15191639D01*
X-34074384Y15186575D01*
X-34136695Y15220600D01*
X-34641059Y15724964D01*
X-34675085Y15787276D01*
X-34670020Y15858091D01*
X-34641059Y15903154D01*
X-34592251Y15951962D01*
X-34465944Y16132346D01*
X-34372880Y16331924D01*
X-34315885Y16544629D01*
X-34296693Y16764000D01*
X-34315885Y16983371D01*
X-34372880Y17196076D01*
X-34425238Y17308359D01*
X-34463618Y17390666D01*
X-34463621Y17390671D01*
X-34465944Y17395653D01*
X-34469101Y17400162D01*
X-34589092Y17571527D01*
X-34589094Y17571530D01*
X-34592251Y17576038D01*
X-34747962Y17731749D01*
X-34928346Y17858056D01*
X-35127924Y17951120D01*
X-35340629Y18008115D01*
X-35560000Y18027307D01*
X-35779371Y18008115D01*
X-35992076Y17951120D01*
X-36061273Y17918853D01*
X-36186666Y17860382D01*
X-36186671Y17860379D01*
X-36191653Y17858056D01*
X-36252229Y17815640D01*
X-36319503Y17792952D01*
X-36388363Y17810237D01*
X-36436948Y17862006D01*
X-36450500Y17918853D01*
X-36450500Y18989406D01*
X-36430498Y19057527D01*
X-36413595Y19078501D01*
X-36183753Y19308343D01*
X-36175463Y19315887D01*
X-36168982Y19320000D01*
X-36122341Y19369668D01*
X-36119587Y19372509D01*
X-36099866Y19392230D01*
X-36097388Y19395425D01*
X-36089682Y19404447D01*
X-36064840Y19430901D01*
X-36059414Y19436679D01*
X-36055594Y19443627D01*
X-36050937Y19450037D01*
X-36050779Y19449922D01*
X-36034520Y19471575D01*
X-35167747Y20338348D01*
X-35159461Y20345888D01*
X-35152982Y20350000D01*
X-35108328Y20397552D01*
X-35047116Y20433517D01*
X-34976176Y20430680D01*
G37*
%TD.AperFunction*%
%TD*%
%TA.AperFunction,Conductor*%
%TO.N,GND*%
G36*
X23299621Y24099498D02*
G01*
X23346114Y24045842D01*
X23357500Y23993500D01*
X23357500Y1120904D01*
X23337498Y1052783D01*
X23283842Y1006290D01*
X23213568Y996186D01*
X23148988Y1025680D01*
X23112032Y1080862D01*
X23012937Y1376523D01*
X23012935Y1376528D01*
X23012009Y1379291D01*
X22843323Y1761328D01*
X22830701Y1783990D01*
X22641529Y2123617D01*
X22640107Y2126170D01*
X22404094Y2470706D01*
X22198905Y2717807D01*
X22139156Y2789760D01*
X22139153Y2789763D01*
X22137299Y2791996D01*
X21841996Y3087299D01*
X21810232Y3113676D01*
X21522942Y3352237D01*
X21520706Y3354094D01*
X21176170Y3590107D01*
X21153888Y3602518D01*
X20813885Y3791899D01*
X20813881Y3791901D01*
X20811328Y3793323D01*
X20429291Y3962009D01*
X20426528Y3962935D01*
X20426523Y3962937D01*
X20180369Y4045439D01*
X20033319Y4094725D01*
X20030485Y4095391D01*
X20030480Y4095393D01*
X19849867Y4137873D01*
X19626791Y4190340D01*
X19623906Y4190742D01*
X19623903Y4190743D01*
X19351825Y4228696D01*
X19213175Y4248037D01*
X19210291Y4248170D01*
X19210284Y4248171D01*
X18798898Y4267190D01*
X18796000Y4267324D01*
X18793102Y4267190D01*
X18381716Y4248171D01*
X18381709Y4248170D01*
X18378825Y4248037D01*
X18240175Y4228696D01*
X17968097Y4190743D01*
X17968094Y4190742D01*
X17965209Y4190340D01*
X17742133Y4137873D01*
X17561520Y4095393D01*
X17561515Y4095391D01*
X17558681Y4094725D01*
X17543098Y4089502D01*
X17502909Y4076032D01*
X17462867Y4069500D01*
X223568Y4069500D01*
X155447Y4089502D01*
X108954Y4143158D01*
X101424Y4164569D01*
X75622Y4266460D01*
X75620Y4266464D01*
X74342Y4271513D01*
X18821Y4398089D01*
X-17861Y4481714D01*
X-19956Y4486490D01*
X-23908Y4492540D01*
X-145497Y4678646D01*
X-145499Y4678648D01*
X-148351Y4683014D01*
X-307342Y4855725D01*
X-406170Y4932646D01*
X-488483Y4996712D01*
X-488482Y4996712D01*
X-492593Y4999911D01*
X-688421Y5105888D01*
X-694463Y5109158D01*
X-694466Y5109159D01*
X-699048Y5111639D01*
X-921078Y5187862D01*
X-926212Y5188719D01*
X-926217Y5188720D01*
X-1147488Y5225643D01*
X-1147490Y5225643D01*
X-1152625Y5226500D01*
X-1387375Y5226500D01*
X-1392510Y5225643D01*
X-1392512Y5225643D01*
X-1613783Y5188720D01*
X-1613788Y5188719D01*
X-1618922Y5187862D01*
X-1840952Y5111639D01*
X-1845534Y5109159D01*
X-1845537Y5109158D01*
X-1851579Y5105888D01*
X-2047407Y4999911D01*
X-2051518Y4996712D01*
X-2051517Y4996712D01*
X-2133829Y4932646D01*
X-2232658Y4855725D01*
X-2391649Y4683014D01*
X-2394501Y4678648D01*
X-2394503Y4678646D01*
X-2516091Y4492540D01*
X-2520044Y4486490D01*
X-2522139Y4481714D01*
X-2558820Y4398089D01*
X-2614342Y4271513D01*
X-2615620Y4266464D01*
X-2615622Y4266460D01*
X-2641424Y4164569D01*
X-2677536Y4103443D01*
X-2740963Y4071544D01*
X-2763568Y4069500D01*
X-4954000Y4069500D01*
X-4957346Y4069140D01*
X-4957351Y4069140D01*
X-5167766Y4046519D01*
X-5167772Y4046518D01*
X-5171130Y4046157D01*
X-5174430Y4045439D01*
X-5174431Y4045439D01*
X-5221818Y4035131D01*
X-5221825Y4035129D01*
X-5223472Y4034771D01*
X-5225116Y4034320D01*
X-5225120Y4034319D01*
X-5324308Y4007108D01*
X-5324311Y4007107D01*
X-5328929Y4005840D01*
X-5333300Y4003891D01*
X-5333305Y4003889D01*
X-5506163Y3926805D01*
X-5506165Y3926804D01*
X-5511818Y3924283D01*
X-5516867Y3920710D01*
X-5516871Y3920708D01*
X-5667021Y3814459D01*
X-5675281Y3808614D01*
X-5728937Y3762121D01*
X-5855381Y3631079D01*
X-5965143Y3463592D01*
X-6040121Y3277909D01*
X-6060123Y3209788D01*
X-6081872Y3121285D01*
X-6082313Y3116804D01*
X-6082314Y3116800D01*
X-6101192Y2925124D01*
X-6101500Y2922000D01*
X-6101500Y-3430000D01*
X-6101140Y-3433346D01*
X-6101140Y-3433351D01*
X-6083729Y-3595299D01*
X-6078157Y-3647130D01*
X-6066771Y-3699472D01*
X-6037840Y-3804929D01*
X-5956283Y-3987818D01*
X-5952710Y-3992867D01*
X-5952708Y-3992871D01*
X-5865905Y-4115540D01*
X-5840614Y-4151281D01*
X-5794121Y-4204937D01*
X-5663079Y-4331381D01*
X-5658142Y-4334617D01*
X-5658140Y-4334618D01*
X-5500770Y-4437750D01*
X-5500767Y-4437752D01*
X-5495592Y-4441143D01*
X-5489854Y-4443460D01*
X-5489852Y-4443461D01*
X-5312780Y-4514962D01*
X-5312775Y-4514964D01*
X-5309909Y-4516121D01*
X-5306936Y-4516994D01*
X-5306933Y-4516995D01*
X-5270517Y-4527688D01*
X-5241788Y-4536123D01*
X-5174954Y-4552547D01*
X-5157656Y-4556798D01*
X-5157654Y-4556798D01*
X-5153285Y-4557872D01*
X-5148804Y-4558313D01*
X-5148800Y-4558314D01*
X-4957080Y-4577197D01*
X-4957073Y-4577197D01*
X-4954000Y-4577500D01*
X-2509568Y-4577500D01*
X-2441447Y-4597502D01*
X-2394954Y-4651158D01*
X-2387424Y-4672569D01*
X-2366388Y-4755637D01*
X-2360342Y-4779513D01*
X-2358250Y-4784283D01*
X-2358249Y-4784285D01*
X-2297381Y-4923050D01*
X-2266044Y-4994490D01*
X-2263194Y-4998852D01*
X-2263192Y-4998856D01*
X-2237045Y-5038877D01*
X-2137649Y-5191014D01*
X-1978658Y-5363725D01*
X-1974549Y-5366923D01*
X-1974547Y-5366925D01*
X-1869284Y-5448854D01*
X-1793407Y-5507911D01*
X-1788824Y-5510391D01*
X-1591537Y-5617158D01*
X-1591534Y-5617159D01*
X-1586952Y-5619639D01*
X-1364922Y-5695862D01*
X-1359788Y-5696719D01*
X-1359783Y-5696720D01*
X-1138512Y-5733643D01*
X-1138510Y-5733643D01*
X-1133375Y-5734500D01*
X-898625Y-5734500D01*
X-893490Y-5733643D01*
X-893488Y-5733643D01*
X-672217Y-5696720D01*
X-672212Y-5696719D01*
X-667078Y-5695862D01*
X-445048Y-5619639D01*
X-440466Y-5617159D01*
X-440463Y-5617158D01*
X-243176Y-5510391D01*
X-238593Y-5507911D01*
X-162716Y-5448854D01*
X-57453Y-5366925D01*
X-57451Y-5366923D01*
X-53342Y-5363725D01*
X105649Y-5191014D01*
X205045Y-5038877D01*
X231192Y-4998856D01*
X231194Y-4998852D01*
X234044Y-4994490D01*
X265381Y-4923050D01*
X326249Y-4784285D01*
X326250Y-4784283D01*
X328342Y-4779513D01*
X334389Y-4755637D01*
X355424Y-4672569D01*
X391536Y-4611443D01*
X454963Y-4579544D01*
X477568Y-4577500D01*
X3288363Y-4577500D01*
X3356484Y-4597502D01*
X3402977Y-4651158D01*
X3413933Y-4713904D01*
X3405940Y-4810372D01*
X3404645Y-4826000D01*
X3405075Y-4831189D01*
X3421840Y-5033513D01*
X3424030Y-5059947D01*
X3425311Y-5065005D01*
X3425311Y-5065006D01*
X3474460Y-5259087D01*
X3481658Y-5287513D01*
X3483750Y-5292283D01*
X3483751Y-5292285D01*
X3559679Y-5465383D01*
X3575956Y-5502490D01*
X3578806Y-5506852D01*
X3578808Y-5506856D01*
X3701497Y-5694646D01*
X3704351Y-5699014D01*
X3863342Y-5871725D01*
X3864607Y-5872709D01*
X3900630Y-5932658D01*
X3898492Y-6003622D01*
X3858328Y-6062166D01*
X3792888Y-6089701D01*
X3778720Y-6090500D01*
X-4319000Y-6090500D01*
X-4322346Y-6090860D01*
X-4322351Y-6090860D01*
X-4532766Y-6113481D01*
X-4532772Y-6113482D01*
X-4536130Y-6113843D01*
X-4539430Y-6114561D01*
X-4539431Y-6114561D01*
X-4586818Y-6124869D01*
X-4586825Y-6124871D01*
X-4588472Y-6125229D01*
X-4590116Y-6125680D01*
X-4590120Y-6125681D01*
X-4689308Y-6152892D01*
X-4689311Y-6152893D01*
X-4693929Y-6154160D01*
X-4698300Y-6156109D01*
X-4698305Y-6156111D01*
X-4871163Y-6233195D01*
X-4871165Y-6233196D01*
X-4876818Y-6235717D01*
X-4881867Y-6239290D01*
X-4881871Y-6239292D01*
X-5032021Y-6345541D01*
X-5040281Y-6351386D01*
X-5093937Y-6397879D01*
X-5220381Y-6528921D01*
X-5330143Y-6696408D01*
X-5332460Y-6702146D01*
X-5332461Y-6702148D01*
X-5403490Y-6878053D01*
X-5405121Y-6882091D01*
X-5425123Y-6950212D01*
X-5446872Y-7038715D01*
X-5447313Y-7043196D01*
X-5447314Y-7043200D01*
X-5450422Y-7074762D01*
X-5466500Y-7238000D01*
X-5466500Y-13717000D01*
X-5443157Y-13934130D01*
X-5442439Y-13937430D01*
X-5442439Y-13937431D01*
X-5438677Y-13954723D01*
X-5431771Y-13986472D01*
X-5431320Y-13988116D01*
X-5431319Y-13988120D01*
X-5421998Y-14022094D01*
X-5402840Y-14091929D01*
X-5321283Y-14274818D01*
X-5317710Y-14279867D01*
X-5317708Y-14279871D01*
X-5211459Y-14430021D01*
X-5205614Y-14438281D01*
X-5203589Y-14440618D01*
X-5179746Y-14468134D01*
X-5159121Y-14491937D01*
X-5028079Y-14618381D01*
X-5023142Y-14621617D01*
X-5023140Y-14621618D01*
X-4865770Y-14724750D01*
X-4865767Y-14724752D01*
X-4860592Y-14728143D01*
X-4854854Y-14730460D01*
X-4854852Y-14730461D01*
X-4677780Y-14801962D01*
X-4677775Y-14801964D01*
X-4674909Y-14803121D01*
X-4671936Y-14803994D01*
X-4671933Y-14803995D01*
X-4635517Y-14814688D01*
X-4606788Y-14823123D01*
X-4539954Y-14839547D01*
X-4522656Y-14843798D01*
X-4522654Y-14843798D01*
X-4518285Y-14844872D01*
X-4513804Y-14845313D01*
X-4513800Y-14845314D01*
X-4322080Y-14864197D01*
X-4322073Y-14864197D01*
X-4319000Y-14864500D01*
X4569319Y-14864500D01*
X4637440Y-14884502D01*
X4683933Y-14938158D01*
X4692903Y-15005960D01*
X4694030Y-15006053D01*
X4674645Y-15240000D01*
X4694030Y-15473947D01*
X4695311Y-15479005D01*
X4695311Y-15479006D01*
X4726423Y-15601862D01*
X4751658Y-15701513D01*
X4845956Y-15916490D01*
X4974351Y-16113014D01*
X4977886Y-16116854D01*
X5133342Y-16285725D01*
X5132214Y-16286764D01*
X5165200Y-16341660D01*
X5163061Y-16412625D01*
X5122895Y-16471167D01*
X5057455Y-16498701D01*
X5043289Y-16499500D01*
X-22099000Y-16499500D01*
X-22167121Y-16479498D01*
X-22213614Y-16425842D01*
X-22225000Y-16373500D01*
X-22225000Y-14493277D01*
X-22221872Y-14468183D01*
X-22222167Y-14468134D01*
X-22221311Y-14463004D01*
X-22220030Y-14457947D01*
X-22205274Y-14279871D01*
X-22201075Y-14229189D01*
X-22200645Y-14224000D01*
X-22220030Y-13990053D01*
X-22221311Y-13984996D01*
X-22222167Y-13979866D01*
X-22221872Y-13979817D01*
X-22225000Y-13954723D01*
X-22225000Y-12192000D01*
X-16661355Y-12192000D01*
X-16641970Y-12425947D01*
X-16584342Y-12653513D01*
X-16490044Y-12868490D01*
X-16487194Y-12872852D01*
X-16487192Y-12872856D01*
X-16364503Y-13060646D01*
X-16361649Y-13065014D01*
X-16202658Y-13237725D01*
X-16017407Y-13381911D01*
X-16012824Y-13384391D01*
X-15815537Y-13491158D01*
X-15815534Y-13491159D01*
X-15810952Y-13493639D01*
X-15588922Y-13569862D01*
X-15583788Y-13570719D01*
X-15583783Y-13570720D01*
X-15362512Y-13607643D01*
X-15362510Y-13607643D01*
X-15357375Y-13608500D01*
X-15122625Y-13608500D01*
X-15117490Y-13607643D01*
X-15117488Y-13607643D01*
X-14896217Y-13570720D01*
X-14896212Y-13570719D01*
X-14891078Y-13569862D01*
X-14669048Y-13493639D01*
X-14664466Y-13491159D01*
X-14664463Y-13491158D01*
X-14467176Y-13384391D01*
X-14462593Y-13381911D01*
X-14277342Y-13237725D01*
X-14118351Y-13065014D01*
X-14115497Y-13060646D01*
X-13992808Y-12872856D01*
X-13992806Y-12872852D01*
X-13989956Y-12868490D01*
X-13895658Y-12653513D01*
X-13838030Y-12425947D01*
X-13818645Y-12192000D01*
X-13830414Y-12049961D01*
X-13837599Y-11963249D01*
X-13837600Y-11963244D01*
X-13838030Y-11958053D01*
X-13895658Y-11730487D01*
X-13929171Y-11654084D01*
X-13987861Y-11520286D01*
X-13989956Y-11515510D01*
X-14118351Y-11318986D01*
X-14277342Y-11146275D01*
X-14462593Y-11002089D01*
X-14548888Y-10955388D01*
X-14664463Y-10892842D01*
X-14664466Y-10892841D01*
X-14669048Y-10890361D01*
X-14891078Y-10814138D01*
X-14896212Y-10813281D01*
X-14896217Y-10813280D01*
X-15117488Y-10776357D01*
X-15117490Y-10776357D01*
X-15122625Y-10775500D01*
X-15357375Y-10775500D01*
X-15362510Y-10776357D01*
X-15362512Y-10776357D01*
X-15583783Y-10813280D01*
X-15583788Y-10813281D01*
X-15588922Y-10814138D01*
X-15810952Y-10890361D01*
X-15815534Y-10892841D01*
X-15815537Y-10892842D01*
X-15931112Y-10955388D01*
X-16017407Y-11002089D01*
X-16202658Y-11146275D01*
X-16361649Y-11318986D01*
X-16490044Y-11515510D01*
X-16492139Y-11520286D01*
X-16550828Y-11654084D01*
X-16584342Y-11730487D01*
X-16641970Y-11958053D01*
X-16642400Y-11963244D01*
X-16642401Y-11963249D01*
X-16649586Y-12049961D01*
X-16661355Y-12192000D01*
X-22225000Y-12192000D01*
X-22225000Y-7989845D01*
X-22204483Y-7920930D01*
X-22120808Y-7792856D01*
X-22120806Y-7792852D01*
X-22117956Y-7788490D01*
X-22025571Y-7577874D01*
X-21979890Y-7523526D01*
X-21930924Y-7504206D01*
X-21864043Y-7493046D01*
X-21754217Y-7474720D01*
X-21754212Y-7474719D01*
X-21749078Y-7473862D01*
X-21527048Y-7397639D01*
X-21522466Y-7395159D01*
X-21522463Y-7395158D01*
X-21325176Y-7288391D01*
X-21320593Y-7285911D01*
X-21135342Y-7141725D01*
X-20976351Y-6969014D01*
X-20921506Y-6885067D01*
X-20850808Y-6776856D01*
X-20850806Y-6776852D01*
X-20847956Y-6772490D01*
X-20756075Y-6563024D01*
X-20729785Y-6524544D01*
X-19985077Y-5779835D01*
X-19974541Y-5770419D01*
X-19950877Y-5751548D01*
X-19950875Y-5751546D01*
X-19946456Y-5748022D01*
X-19933893Y-5733643D01*
X-19902161Y-5697322D01*
X-19896369Y-5691127D01*
X-19889278Y-5684036D01*
X-19862734Y-5652242D01*
X-19860898Y-5650093D01*
X-19799716Y-5580064D01*
X-19799715Y-5580063D01*
X-19795990Y-5575799D01*
X-19793087Y-5570940D01*
X-19789760Y-5566361D01*
X-19789734Y-5566380D01*
X-19786247Y-5561466D01*
X-19786274Y-5561447D01*
X-19783058Y-5556806D01*
X-19779426Y-5552455D01*
X-19730718Y-5466615D01*
X-19729296Y-5464173D01*
X-19681593Y-5384331D01*
X-19681593Y-5384330D01*
X-19678693Y-5379477D01*
X-19676706Y-5374183D01*
X-19674249Y-5369080D01*
X-19674219Y-5369095D01*
X-19671668Y-5363642D01*
X-19671698Y-5363628D01*
X-19669356Y-5358472D01*
X-19666563Y-5353550D01*
X-19654475Y-5319006D01*
X-19633985Y-5260448D01*
X-19633022Y-5257790D01*
X-19600321Y-5170658D01*
X-19600321Y-5170657D01*
X-19598335Y-5165366D01*
X-19597326Y-5159804D01*
X-19595819Y-5154345D01*
X-19595789Y-5154353D01*
X-19594251Y-5148523D01*
X-19594282Y-5148515D01*
X-19592900Y-5143031D01*
X-19591031Y-5137689D01*
X-19575601Y-5040268D01*
X-19575127Y-5037481D01*
X-19558511Y-4945920D01*
X-19558511Y-4945916D01*
X-19557500Y-4940347D01*
X-19557500Y-4934686D01*
X-19556993Y-4929052D01*
X-19556961Y-4929055D01*
X-19556489Y-4923050D01*
X-19556521Y-4923048D01*
X-19556140Y-4917399D01*
X-19555255Y-4911810D01*
X-19557468Y-4813199D01*
X-19557500Y-4810372D01*
X-19557500Y-4572000D01*
X-11835355Y-4572000D01*
X-11834730Y-4579544D01*
X-11818160Y-4779513D01*
X-11815970Y-4805947D01*
X-11814689Y-4811005D01*
X-11814689Y-4811006D01*
X-11767118Y-4998856D01*
X-11758342Y-5033513D01*
X-11756250Y-5038283D01*
X-11756249Y-5038285D01*
X-11691171Y-5186646D01*
X-11664044Y-5248490D01*
X-11661194Y-5252852D01*
X-11661192Y-5252856D01*
X-11575295Y-5384331D01*
X-11535649Y-5445014D01*
X-11376658Y-5617725D01*
X-11372549Y-5620923D01*
X-11372547Y-5620925D01*
X-11267284Y-5702854D01*
X-11191407Y-5761911D01*
X-11158286Y-5779835D01*
X-10989537Y-5871158D01*
X-10989534Y-5871159D01*
X-10984952Y-5873639D01*
X-10762922Y-5949862D01*
X-10757788Y-5950719D01*
X-10757783Y-5950720D01*
X-10536512Y-5987643D01*
X-10536510Y-5987643D01*
X-10531375Y-5988500D01*
X-10296625Y-5988500D01*
X-10291490Y-5987643D01*
X-10291488Y-5987643D01*
X-10070217Y-5950720D01*
X-10070212Y-5950719D01*
X-10065078Y-5949862D01*
X-9843048Y-5873639D01*
X-9838466Y-5871159D01*
X-9838463Y-5871158D01*
X-9669714Y-5779835D01*
X-9636593Y-5761911D01*
X-9560716Y-5702854D01*
X-9455453Y-5620925D01*
X-9455451Y-5620923D01*
X-9451342Y-5617725D01*
X-9292351Y-5445014D01*
X-9252705Y-5384331D01*
X-9166808Y-5252856D01*
X-9166806Y-5252852D01*
X-9163956Y-5248490D01*
X-9136829Y-5186646D01*
X-9071751Y-5038285D01*
X-9071750Y-5038283D01*
X-9069658Y-5033513D01*
X-9060881Y-4998856D01*
X-9013311Y-4811006D01*
X-9013311Y-4811005D01*
X-9012030Y-4805947D01*
X-9009839Y-4779513D01*
X-8993270Y-4579544D01*
X-8992645Y-4572000D01*
X-8994434Y-4550414D01*
X-9011599Y-4343249D01*
X-9011600Y-4343244D01*
X-9012030Y-4338053D01*
X-9013311Y-4332994D01*
X-9068378Y-4115540D01*
X-9068380Y-4115536D01*
X-9069658Y-4110487D01*
X-9074464Y-4099529D01*
X-9161861Y-3900286D01*
X-9163956Y-3895510D01*
X-9184714Y-3863736D01*
X-9289497Y-3703354D01*
X-9289499Y-3703352D01*
X-9292351Y-3698986D01*
X-9451342Y-3526275D01*
X-9636593Y-3382089D01*
X-9792419Y-3297760D01*
X-9838463Y-3272842D01*
X-9838466Y-3272841D01*
X-9843048Y-3270361D01*
X-10065078Y-3194138D01*
X-10070212Y-3193281D01*
X-10070217Y-3193280D01*
X-10291488Y-3156357D01*
X-10291490Y-3156357D01*
X-10296625Y-3155500D01*
X-10531375Y-3155500D01*
X-10536510Y-3156357D01*
X-10536512Y-3156357D01*
X-10757783Y-3193280D01*
X-10757788Y-3193281D01*
X-10762922Y-3194138D01*
X-10984952Y-3270361D01*
X-10989534Y-3272841D01*
X-10989537Y-3272842D01*
X-11035581Y-3297760D01*
X-11191407Y-3382089D01*
X-11376658Y-3526275D01*
X-11535649Y-3698986D01*
X-11538501Y-3703352D01*
X-11538503Y-3703354D01*
X-11643285Y-3863736D01*
X-11664044Y-3895510D01*
X-11666139Y-3900286D01*
X-11753535Y-4099529D01*
X-11758342Y-4110487D01*
X-11759620Y-4115536D01*
X-11759622Y-4115540D01*
X-11814689Y-4332994D01*
X-11815970Y-4338053D01*
X-11816400Y-4343244D01*
X-11816401Y-4343249D01*
X-11833566Y-4550414D01*
X-11835355Y-4572000D01*
X-19557500Y-4572000D01*
X-19557500Y2207574D01*
X-19556708Y2221682D01*
X-19553319Y2251761D01*
X-19552686Y2257378D01*
X-19557215Y2324547D01*
X-19557500Y2333024D01*
X-19557500Y2343054D01*
X-19561212Y2384299D01*
X-19561432Y2387095D01*
X-19567690Y2479907D01*
X-19567690Y2479910D01*
X-19568071Y2485553D01*
X-19569455Y2491044D01*
X-19570339Y2496625D01*
X-19570306Y2496630D01*
X-19571316Y2502573D01*
X-19571347Y2502567D01*
X-19572358Y2508139D01*
X-19572865Y2513773D01*
X-19574370Y2519226D01*
X-19574371Y2519232D01*
X-19599124Y2608922D01*
X-19599846Y2611655D01*
X-19622567Y2701826D01*
X-19623950Y2707315D01*
X-19626292Y2712471D01*
X-19628159Y2717807D01*
X-19628128Y2717818D01*
X-19630182Y2723485D01*
X-19630212Y2723474D01*
X-19632201Y2728775D01*
X-19633706Y2734226D01*
X-19676537Y2823165D01*
X-19677700Y2825651D01*
X-19718527Y2915536D01*
X-19721752Y2920192D01*
X-19724542Y2925108D01*
X-19724514Y2925124D01*
X-19727549Y2930335D01*
X-19727577Y2930318D01*
X-19730476Y2935171D01*
X-19732933Y2940272D01*
X-19790923Y3020089D01*
X-19792559Y3022395D01*
X-19845539Y3098867D01*
X-19845541Y3098869D01*
X-19848765Y3103523D01*
X-19852771Y3107529D01*
X-19856392Y3111866D01*
X-19856367Y3111887D01*
X-19860283Y3116472D01*
X-19860307Y3116451D01*
X-19864030Y3120712D01*
X-19867356Y3125290D01*
X-19938697Y3193499D01*
X-19940718Y3195476D01*
X-21237782Y4492540D01*
X-21264074Y4531021D01*
X-21353861Y4735714D01*
X-21355956Y4740490D01*
X-21428735Y4851888D01*
X-21481497Y4932646D01*
X-21481499Y4932648D01*
X-21484351Y4937014D01*
X-21643342Y5109725D01*
X-21658746Y5121715D01*
X-21824483Y5250712D01*
X-21824482Y5250712D01*
X-21828593Y5253911D01*
X-21981590Y5336709D01*
X-22030463Y5363158D01*
X-22030466Y5363159D01*
X-22035048Y5365639D01*
X-22104411Y5389451D01*
X-22162347Y5430487D01*
X-22188899Y5496332D01*
X-22189500Y5508624D01*
X-22189500Y6604000D01*
X-14121355Y6604000D01*
X-14120925Y6598811D01*
X-14109825Y6464854D01*
X-14101970Y6370053D01*
X-14044342Y6142487D01*
X-14042250Y6137717D01*
X-14042249Y6137715D01*
X-14005653Y6054285D01*
X-13950044Y5927510D01*
X-13947194Y5923148D01*
X-13947192Y5923144D01*
X-13873668Y5810607D01*
X-13821649Y5730986D01*
X-13662658Y5558275D01*
X-13477407Y5414089D01*
X-13472824Y5411609D01*
X-13275537Y5304842D01*
X-13275534Y5304841D01*
X-13270952Y5302361D01*
X-13048922Y5226138D01*
X-13043788Y5225281D01*
X-13043783Y5225280D01*
X-12822512Y5188357D01*
X-12822510Y5188357D01*
X-12817375Y5187500D01*
X-12582625Y5187500D01*
X-12577490Y5188357D01*
X-12577488Y5188357D01*
X-12356217Y5225280D01*
X-12356212Y5225281D01*
X-12351078Y5226138D01*
X-12192106Y5280713D01*
X-12121184Y5283914D01*
X-12059788Y5248261D01*
X-12029052Y5192472D01*
X-12027793Y5187500D01*
X-12012342Y5126487D01*
X-12010250Y5121717D01*
X-12010249Y5121715D01*
X-11955417Y4996712D01*
X-11918044Y4911510D01*
X-11915194Y4907148D01*
X-11915192Y4907144D01*
X-11809164Y4744856D01*
X-11789649Y4714986D01*
X-11630658Y4542275D01*
X-11445407Y4398089D01*
X-11440824Y4395609D01*
X-11243537Y4288842D01*
X-11243534Y4288841D01*
X-11238952Y4286361D01*
X-11016922Y4210138D01*
X-11011788Y4209281D01*
X-11011783Y4209280D01*
X-10790512Y4172357D01*
X-10790510Y4172357D01*
X-10785375Y4171500D01*
X-10550625Y4171500D01*
X-10545490Y4172357D01*
X-10545488Y4172357D01*
X-10324217Y4209280D01*
X-10324212Y4209281D01*
X-10319078Y4210138D01*
X-10097048Y4286361D01*
X-10092466Y4288841D01*
X-10092463Y4288842D01*
X-9895176Y4395609D01*
X-9890593Y4398089D01*
X-9705342Y4542275D01*
X-9546351Y4714986D01*
X-9526836Y4744856D01*
X-9420808Y4907144D01*
X-9420806Y4907148D01*
X-9417956Y4911510D01*
X-9380583Y4996712D01*
X-9325751Y5121715D01*
X-9325750Y5121717D01*
X-9323658Y5126487D01*
X-9308115Y5187862D01*
X-9267311Y5348994D01*
X-9267311Y5348995D01*
X-9266030Y5354053D01*
X-9265275Y5363158D01*
X-9247075Y5582811D01*
X-9246645Y5588000D01*
X-9252475Y5658363D01*
X-9265599Y5816751D01*
X-9265600Y5816756D01*
X-9266030Y5821947D01*
X-9296936Y5943991D01*
X-9322378Y6044460D01*
X-9322380Y6044464D01*
X-9323658Y6049513D01*
X-9417956Y6264490D01*
X-9452615Y6317541D01*
X-9543497Y6456646D01*
X-9543499Y6456648D01*
X-9546351Y6461014D01*
X-9705342Y6633725D01*
X-9890593Y6777911D01*
X-10010878Y6843006D01*
X-10092463Y6887158D01*
X-10092466Y6887159D01*
X-10097048Y6889639D01*
X-10319078Y6965862D01*
X-10324212Y6966719D01*
X-10324217Y6966720D01*
X-10545488Y7003643D01*
X-10545490Y7003643D01*
X-10550625Y7004500D01*
X-10785375Y7004500D01*
X-10790510Y7003643D01*
X-10790512Y7003643D01*
X-11011783Y6966720D01*
X-11011788Y6966719D01*
X-11016922Y6965862D01*
X-11175894Y6911287D01*
X-11246816Y6908086D01*
X-11308212Y6943739D01*
X-11338948Y6999528D01*
X-11354379Y7060462D01*
X-11355658Y7065513D01*
X-11449956Y7280490D01*
X-11522739Y7391894D01*
X-11575497Y7472646D01*
X-11575499Y7472648D01*
X-11578351Y7477014D01*
X-11660566Y7566324D01*
X-6101500Y7566324D01*
X-6091785Y7425777D01*
X-6087014Y7391431D01*
X-6082177Y7360171D01*
X-6029311Y7167027D01*
X-6002808Y7114004D01*
X-5958200Y7024759D01*
X-5945635Y6954883D01*
X-5948760Y6937497D01*
X-5973970Y6837947D01*
X-5993355Y6604000D01*
X-5992925Y6598811D01*
X-5981825Y6464854D01*
X-5973970Y6370053D01*
X-5916342Y6142487D01*
X-5914250Y6137717D01*
X-5914249Y6137715D01*
X-5877653Y6054285D01*
X-5822044Y5927510D01*
X-5819194Y5923148D01*
X-5819192Y5923144D01*
X-5745668Y5810607D01*
X-5693649Y5730986D01*
X-5534658Y5558275D01*
X-5349407Y5414089D01*
X-5344824Y5411609D01*
X-5147537Y5304842D01*
X-5147534Y5304841D01*
X-5142952Y5302361D01*
X-4920922Y5226138D01*
X-4915788Y5225281D01*
X-4915783Y5225280D01*
X-4694512Y5188357D01*
X-4694510Y5188357D01*
X-4689375Y5187500D01*
X-4454625Y5187500D01*
X-4449490Y5188357D01*
X-4449488Y5188357D01*
X-4228217Y5225280D01*
X-4228212Y5225281D01*
X-4223078Y5226138D01*
X-4001048Y5302361D01*
X-3996466Y5304841D01*
X-3996463Y5304842D01*
X-3799176Y5411609D01*
X-3794593Y5414089D01*
X-3609342Y5558275D01*
X-3450351Y5730986D01*
X-3418711Y5779415D01*
X-3364708Y5825504D01*
X-3313228Y5836500D01*
X17208867Y5836500D01*
X17248909Y5829968D01*
X17304681Y5811275D01*
X17307515Y5810609D01*
X17307520Y5810607D01*
X17488133Y5768127D01*
X17711209Y5715660D01*
X17714094Y5715258D01*
X17714097Y5715257D01*
X17986175Y5677304D01*
X18124825Y5657963D01*
X18127709Y5657830D01*
X18127716Y5657829D01*
X18539102Y5638810D01*
X18542000Y5638676D01*
X18544898Y5638810D01*
X18956284Y5657829D01*
X18956291Y5657830D01*
X18959175Y5657963D01*
X19097825Y5677304D01*
X19369903Y5715257D01*
X19369906Y5715258D01*
X19372791Y5715660D01*
X19595867Y5768127D01*
X19776480Y5810607D01*
X19776485Y5810609D01*
X19779319Y5811275D01*
X20113092Y5923144D01*
X20172523Y5943063D01*
X20172528Y5943065D01*
X20175291Y5943991D01*
X20557328Y6112677D01*
X20922170Y6315893D01*
X21266706Y6551906D01*
X21535022Y6774712D01*
X21585760Y6816844D01*
X21585763Y6816847D01*
X21587996Y6818701D01*
X21883299Y7114004D01*
X22150094Y7435294D01*
X22386107Y7779830D01*
X22513628Y8008774D01*
X22587899Y8142115D01*
X22587901Y8142119D01*
X22589323Y8144672D01*
X22758009Y8526709D01*
X22890725Y8922681D01*
X22986340Y9329209D01*
X23044037Y9742825D01*
X23063324Y10160000D01*
X23044037Y10577175D01*
X22986340Y10990791D01*
X22890725Y11397319D01*
X22758009Y11793291D01*
X22589323Y12175328D01*
X22386107Y12540170D01*
X22150094Y12884706D01*
X22016696Y13045351D01*
X21885156Y13203760D01*
X21885153Y13203763D01*
X21883299Y13205996D01*
X21587996Y13501299D01*
X21526595Y13552286D01*
X21268942Y13766237D01*
X21266706Y13768094D01*
X20922170Y14004107D01*
X20899888Y14016518D01*
X20559885Y14205899D01*
X20559881Y14205901D01*
X20557328Y14207323D01*
X20175291Y14376009D01*
X20172528Y14376935D01*
X20172523Y14376937D01*
X19926369Y14459439D01*
X19779319Y14508725D01*
X19776485Y14509391D01*
X19776480Y14509393D01*
X19595867Y14551873D01*
X19372791Y14604340D01*
X19369906Y14604742D01*
X19369903Y14604743D01*
X19097825Y14642696D01*
X18959175Y14662037D01*
X18956291Y14662170D01*
X18956284Y14662171D01*
X18544898Y14681190D01*
X18542000Y14681324D01*
X18539102Y14681190D01*
X18127716Y14662171D01*
X18127709Y14662170D01*
X18124825Y14662037D01*
X17986175Y14642696D01*
X17714097Y14604743D01*
X17714094Y14604742D01*
X17711209Y14604340D01*
X17488133Y14551873D01*
X17307520Y14509393D01*
X17307515Y14509391D01*
X17304681Y14508725D01*
X17289098Y14503502D01*
X17248909Y14490032D01*
X17208867Y14483500D01*
X1493568Y14483500D01*
X1425447Y14503502D01*
X1378954Y14557158D01*
X1371424Y14578569D01*
X1345622Y14680460D01*
X1345620Y14680464D01*
X1344342Y14685513D01*
X1250044Y14900490D01*
X1121649Y15097014D01*
X962658Y15269725D01*
X952289Y15277796D01*
X781517Y15410712D01*
X781518Y15410712D01*
X777407Y15413911D01*
X691112Y15460612D01*
X575537Y15523158D01*
X575534Y15523159D01*
X570952Y15525639D01*
X348922Y15601862D01*
X343788Y15602719D01*
X343783Y15602720D01*
X122512Y15639643D01*
X122510Y15639643D01*
X117375Y15640500D01*
X-117375Y15640500D01*
X-122510Y15639643D01*
X-122512Y15639643D01*
X-343783Y15602720D01*
X-343788Y15602719D01*
X-348922Y15601862D01*
X-570952Y15525639D01*
X-575534Y15523159D01*
X-575537Y15523158D01*
X-691112Y15460612D01*
X-777407Y15413911D01*
X-781518Y15410712D01*
X-781517Y15410712D01*
X-952288Y15277796D01*
X-962658Y15269725D01*
X-1121649Y15097014D01*
X-1250044Y14900490D01*
X-1344342Y14685513D01*
X-1345620Y14680464D01*
X-1345622Y14680460D01*
X-1371424Y14578569D01*
X-1407536Y14517443D01*
X-1470963Y14485544D01*
X-1493568Y14483500D01*
X-4954000Y14483500D01*
X-4957346Y14483140D01*
X-4957351Y14483140D01*
X-5167766Y14460519D01*
X-5167772Y14460518D01*
X-5171130Y14460157D01*
X-5174430Y14459439D01*
X-5174431Y14459439D01*
X-5221818Y14449131D01*
X-5221825Y14449129D01*
X-5223472Y14448771D01*
X-5225116Y14448320D01*
X-5225120Y14448319D01*
X-5324308Y14421108D01*
X-5324311Y14421107D01*
X-5328929Y14419840D01*
X-5333300Y14417891D01*
X-5333305Y14417889D01*
X-5506163Y14340805D01*
X-5506165Y14340804D01*
X-5511818Y14338283D01*
X-5516867Y14334710D01*
X-5516871Y14334708D01*
X-5665989Y14229189D01*
X-5675281Y14222614D01*
X-5728937Y14176121D01*
X-5855381Y14045079D01*
X-5858617Y14040142D01*
X-5858618Y14040140D01*
X-5894757Y13984994D01*
X-5965143Y13877592D01*
X-6040121Y13691909D01*
X-6060123Y13623788D01*
X-6081872Y13535285D01*
X-6082313Y13530804D01*
X-6082314Y13530800D01*
X-6100402Y13347146D01*
X-6101500Y13336000D01*
X-6101500Y7566324D01*
X-11660566Y7566324D01*
X-11737342Y7649725D01*
X-11922593Y7793911D01*
X-12008888Y7840612D01*
X-12124463Y7903158D01*
X-12124466Y7903159D01*
X-12129048Y7905639D01*
X-12351078Y7981862D01*
X-12356212Y7982719D01*
X-12356217Y7982720D01*
X-12577488Y8019643D01*
X-12577490Y8019643D01*
X-12582625Y8020500D01*
X-12817375Y8020500D01*
X-12822510Y8019643D01*
X-12822512Y8019643D01*
X-13043783Y7982720D01*
X-13043788Y7982719D01*
X-13048922Y7981862D01*
X-13270952Y7905639D01*
X-13275534Y7903159D01*
X-13275537Y7903158D01*
X-13391112Y7840612D01*
X-13477407Y7793911D01*
X-13662658Y7649725D01*
X-13821649Y7477014D01*
X-13824501Y7472648D01*
X-13824503Y7472646D01*
X-13877260Y7391894D01*
X-13950044Y7280490D01*
X-14044342Y7065513D01*
X-14045620Y7060464D01*
X-14045622Y7060460D01*
X-14070006Y6964169D01*
X-14101970Y6837947D01*
X-14121355Y6604000D01*
X-22189500Y6604000D01*
X-22189500Y7887574D01*
X-22188708Y7901682D01*
X-22185319Y7931761D01*
X-22184686Y7937378D01*
X-22189215Y8004547D01*
X-22189500Y8013024D01*
X-22189500Y8023054D01*
X-22193212Y8064299D01*
X-22193432Y8067095D01*
X-22199690Y8159907D01*
X-22199690Y8159910D01*
X-22200071Y8165553D01*
X-22201455Y8171044D01*
X-22202339Y8176625D01*
X-22202306Y8176630D01*
X-22203316Y8182573D01*
X-22203347Y8182567D01*
X-22204358Y8188137D01*
X-22204865Y8193773D01*
X-22220459Y8250276D01*
X-22225000Y8283797D01*
X-22225000Y17721480D01*
X-16716500Y17721480D01*
X-16710286Y17589708D01*
X-16660751Y17276957D01*
X-16572408Y16972880D01*
X-16570839Y16969254D01*
X-16570836Y16969246D01*
X-16448226Y16685911D01*
X-16446652Y16682274D01*
X-16285464Y16409720D01*
X-16091387Y16159518D01*
X-15867482Y15935613D01*
X-15617280Y15741536D01*
X-15344726Y15580348D01*
X-15341091Y15578775D01*
X-15341089Y15578774D01*
X-15057754Y15456164D01*
X-15057746Y15456161D01*
X-15054120Y15454592D01*
X-14750043Y15366249D01*
X-14746142Y15365631D01*
X-14746137Y15365630D01*
X-14575125Y15338545D01*
X-14437292Y15316714D01*
X-14433835Y15316551D01*
X-14307009Y15310570D01*
X-14307000Y15310570D01*
X-14305520Y15310500D01*
X-11094480Y15310500D01*
X-11093000Y15310570D01*
X-11092991Y15310570D01*
X-10966165Y15316551D01*
X-10962708Y15316714D01*
X-10862294Y15332618D01*
X-10791883Y15323518D01*
X-10737569Y15277796D01*
X-10716596Y15209968D01*
X-10735623Y15141569D01*
X-10749882Y15122832D01*
X-10773649Y15097014D01*
X-10902044Y14900490D01*
X-10996342Y14685513D01*
X-10997620Y14680464D01*
X-10997622Y14680460D01*
X-11047499Y14483500D01*
X-11053970Y14457947D01*
X-11054400Y14452756D01*
X-11054401Y14452751D01*
X-11064182Y14334708D01*
X-11073355Y14224000D01*
X-11072925Y14218811D01*
X-11055252Y14005529D01*
X-11053970Y13990053D01*
X-10996342Y13762487D01*
X-10902044Y13547510D01*
X-10899194Y13543148D01*
X-10899192Y13543144D01*
X-10776503Y13355354D01*
X-10773649Y13350986D01*
X-10614658Y13178275D01*
X-10429407Y13034089D01*
X-10424824Y13031609D01*
X-10227537Y12924842D01*
X-10227534Y12924841D01*
X-10222952Y12922361D01*
X-10000922Y12846138D01*
X-9995788Y12845281D01*
X-9995783Y12845280D01*
X-9774512Y12808357D01*
X-9774510Y12808357D01*
X-9769375Y12807500D01*
X-9534625Y12807500D01*
X-9529490Y12808357D01*
X-9529488Y12808357D01*
X-9308217Y12845280D01*
X-9308212Y12845281D01*
X-9303078Y12846138D01*
X-9081048Y12922361D01*
X-9076466Y12924841D01*
X-9076463Y12924842D01*
X-8879176Y13031609D01*
X-8874593Y13034089D01*
X-8689342Y13178275D01*
X-8530351Y13350986D01*
X-8527497Y13355354D01*
X-8404808Y13543144D01*
X-8404806Y13543148D01*
X-8401956Y13547510D01*
X-8307658Y13762487D01*
X-8250030Y13990053D01*
X-8248747Y14005529D01*
X-8231075Y14218811D01*
X-8230645Y14224000D01*
X-8239818Y14334708D01*
X-8249599Y14452751D01*
X-8249600Y14452756D01*
X-8250030Y14457947D01*
X-8256501Y14483500D01*
X-8306378Y14680460D01*
X-8306380Y14680464D01*
X-8307658Y14685513D01*
X-8401956Y14900490D01*
X-8530351Y15097014D01*
X-8689342Y15269725D01*
X-8699711Y15277796D01*
X-8870483Y15410712D01*
X-8870482Y15410712D01*
X-8874593Y15413911D01*
X-8960888Y15460612D01*
X-9076463Y15523158D01*
X-9076466Y15523159D01*
X-9081048Y15525639D01*
X-9303078Y15601862D01*
X-9308212Y15602719D01*
X-9308217Y15602720D01*
X-9529488Y15639643D01*
X-9529490Y15639643D01*
X-9534625Y15640500D01*
X-9544960Y15640500D01*
X-9613081Y15660502D01*
X-9659574Y15714158D01*
X-9669678Y15784432D01*
X-9640184Y15849012D01*
X-9622190Y15866056D01*
X-9532518Y15935613D01*
X-9308613Y16159518D01*
X-9114536Y16409720D01*
X-8953348Y16682274D01*
X-8951774Y16685911D01*
X-8829164Y16969246D01*
X-8829161Y16969254D01*
X-8827592Y16972880D01*
X-8739249Y17276957D01*
X-8689714Y17589708D01*
X-8683500Y17721480D01*
X-8683500Y20932520D01*
X-8689714Y21064292D01*
X-8739249Y21377043D01*
X-8827592Y21681120D01*
X-8829161Y21684746D01*
X-8829164Y21684754D01*
X-8951774Y21968089D01*
X-8951775Y21968091D01*
X-8953348Y21971726D01*
X-9114536Y22244280D01*
X-9308613Y22494482D01*
X-9532518Y22718387D01*
X-9782720Y22912464D01*
X-10055274Y23073652D01*
X-10058911Y23075226D01*
X-10342246Y23197836D01*
X-10342254Y23197839D01*
X-10345880Y23199408D01*
X-10649957Y23287751D01*
X-10653858Y23288369D01*
X-10653863Y23288370D01*
X-10824875Y23315455D01*
X-10962708Y23337286D01*
X-10978065Y23338010D01*
X-11092991Y23343430D01*
X-11093000Y23343430D01*
X-11094480Y23343500D01*
X-14305520Y23343500D01*
X-14307000Y23343430D01*
X-14307009Y23343430D01*
X-14421935Y23338010D01*
X-14437292Y23337286D01*
X-14575125Y23315455D01*
X-14746137Y23288370D01*
X-14746142Y23288369D01*
X-14750043Y23287751D01*
X-15054120Y23199408D01*
X-15057746Y23197839D01*
X-15057754Y23197836D01*
X-15341089Y23075226D01*
X-15344726Y23073652D01*
X-15617280Y22912464D01*
X-15867482Y22718387D01*
X-16091387Y22494482D01*
X-16285464Y22244280D01*
X-16446652Y21971726D01*
X-16448225Y21968091D01*
X-16448226Y21968089D01*
X-16570836Y21684754D01*
X-16570839Y21684746D01*
X-16572408Y21681120D01*
X-16660751Y21377043D01*
X-16710286Y21064292D01*
X-16716500Y20932520D01*
X-16716500Y17721480D01*
X-22225000Y17721480D01*
X-22225000Y23993500D01*
X-22204998Y24061621D01*
X-22151342Y24108114D01*
X-22099000Y24119500D01*
X23231500Y24119500D01*
X23299621Y24099498D01*
G37*
%TD.AperFunction*%
%TA.AperFunction,Conductor*%
G36*
X23288136Y-1516350D02*
G01*
X23339997Y-1564838D01*
X23357500Y-1628904D01*
X23357500Y-16373500D01*
X23337498Y-16441621D01*
X23283842Y-16488114D01*
X23231500Y-16499500D01*
X7148711Y-16499500D01*
X7080590Y-16479498D01*
X7034097Y-16425842D01*
X7023993Y-16355568D01*
X7053487Y-16290988D01*
X7058395Y-16285930D01*
X7058658Y-16285725D01*
X7217649Y-16113014D01*
X7346044Y-15916490D01*
X7440342Y-15701513D01*
X7465578Y-15601862D01*
X7496689Y-15479006D01*
X7496689Y-15479005D01*
X7497970Y-15473947D01*
X7517355Y-15240000D01*
X7497970Y-15006053D01*
X7499036Y-15005965D01*
X7506917Y-14940754D01*
X7552189Y-14886064D01*
X7622681Y-14864500D01*
X17492621Y-14864500D01*
X17510029Y-14865708D01*
X17870825Y-14916037D01*
X17873709Y-14916170D01*
X17873716Y-14916171D01*
X18285102Y-14935190D01*
X18288000Y-14935324D01*
X18290898Y-14935190D01*
X18702284Y-14916171D01*
X18702291Y-14916170D01*
X18705175Y-14916037D01*
X18843825Y-14896696D01*
X19115903Y-14858743D01*
X19115906Y-14858742D01*
X19118791Y-14858340D01*
X19358494Y-14801962D01*
X19522480Y-14763393D01*
X19522485Y-14763391D01*
X19525319Y-14762725D01*
X19755689Y-14685513D01*
X19918523Y-14630937D01*
X19918528Y-14630935D01*
X19921291Y-14630009D01*
X20303328Y-14461323D01*
X20309390Y-14457947D01*
X20665617Y-14259529D01*
X20668170Y-14258107D01*
X21012706Y-14022094D01*
X21333996Y-13755299D01*
X21629299Y-13459996D01*
X21692081Y-13384391D01*
X21894237Y-13140942D01*
X21896094Y-13138706D01*
X22132107Y-12794170D01*
X22335323Y-12429328D01*
X22504009Y-12047291D01*
X22533919Y-11958053D01*
X22608497Y-11735540D01*
X22636725Y-11651319D01*
X22732340Y-11244791D01*
X22790037Y-10831175D01*
X22790747Y-10815831D01*
X22809190Y-10416898D01*
X22809324Y-10414000D01*
X22790037Y-9996825D01*
X22732340Y-9583209D01*
X22636725Y-9176681D01*
X22504009Y-8780709D01*
X22335323Y-8398672D01*
X22281428Y-8301911D01*
X22133529Y-8036383D01*
X22132107Y-8033830D01*
X21896094Y-7689294D01*
X21715796Y-7472169D01*
X21631156Y-7370240D01*
X21631153Y-7370237D01*
X21629299Y-7368004D01*
X21333996Y-7072701D01*
X21213755Y-6972854D01*
X21100995Y-6879220D01*
X21012706Y-6805906D01*
X20668170Y-6569893D01*
X20624075Y-6545332D01*
X20305885Y-6368101D01*
X20305881Y-6368099D01*
X20303328Y-6366677D01*
X19921291Y-6197991D01*
X19918528Y-6197065D01*
X19918523Y-6197063D01*
X19672369Y-6114561D01*
X19525319Y-6065275D01*
X19522485Y-6064609D01*
X19522480Y-6064607D01*
X19341867Y-6022127D01*
X19118791Y-5969660D01*
X19115906Y-5969258D01*
X19115903Y-5969257D01*
X18777766Y-5922089D01*
X18705175Y-5911963D01*
X18702291Y-5911830D01*
X18702284Y-5911829D01*
X18290898Y-5892810D01*
X18288000Y-5892676D01*
X18285102Y-5892810D01*
X17873716Y-5911829D01*
X17873709Y-5911830D01*
X17870825Y-5911963D01*
X17798234Y-5922089D01*
X17460097Y-5969257D01*
X17460094Y-5969258D01*
X17457209Y-5969660D01*
X17234133Y-6022127D01*
X17053520Y-6064607D01*
X17053515Y-6064609D01*
X17050681Y-6065275D01*
X17035098Y-6070498D01*
X16994909Y-6083968D01*
X16954867Y-6090500D01*
X7868652Y-6090500D01*
X7800531Y-6070498D01*
X7754038Y-6016842D01*
X7743934Y-5946568D01*
X7763169Y-5895585D01*
X7851192Y-5760856D01*
X7851194Y-5760852D01*
X7854044Y-5756490D01*
X7857758Y-5748022D01*
X7946249Y-5546285D01*
X7946250Y-5546283D01*
X7948342Y-5541513D01*
X7956224Y-5510391D01*
X8004689Y-5319006D01*
X8004689Y-5319005D01*
X8005970Y-5313947D01*
X8008161Y-5287513D01*
X8024925Y-5085189D01*
X8025355Y-5080000D01*
X8021948Y-5038877D01*
X8006401Y-4851249D01*
X8006400Y-4851244D01*
X8005970Y-4846053D01*
X7977703Y-4734430D01*
X7980370Y-4663485D01*
X8020970Y-4605243D01*
X8086613Y-4578197D01*
X8099847Y-4577500D01*
X17462867Y-4577500D01*
X17502909Y-4584032D01*
X17558681Y-4602725D01*
X17561515Y-4603391D01*
X17561520Y-4603393D01*
X17742133Y-4645873D01*
X17965209Y-4698340D01*
X17968094Y-4698742D01*
X17968097Y-4698743D01*
X18223944Y-4734432D01*
X18378825Y-4756037D01*
X18381709Y-4756170D01*
X18381716Y-4756171D01*
X18793102Y-4775190D01*
X18796000Y-4775324D01*
X18798898Y-4775190D01*
X19210284Y-4756171D01*
X19210291Y-4756170D01*
X19213175Y-4756037D01*
X19368056Y-4734432D01*
X19623903Y-4698743D01*
X19623906Y-4698742D01*
X19626791Y-4698340D01*
X19849867Y-4645873D01*
X20030480Y-4603393D01*
X20030485Y-4603391D01*
X20033319Y-4602725D01*
X20233322Y-4535691D01*
X20426523Y-4470937D01*
X20426528Y-4470935D01*
X20429291Y-4470009D01*
X20811328Y-4301323D01*
X21176170Y-4098107D01*
X21520706Y-3862094D01*
X21718537Y-3697818D01*
X21839760Y-3597156D01*
X21839763Y-3597153D01*
X21841996Y-3595299D01*
X22137299Y-3299996D01*
X22159848Y-3272842D01*
X22402237Y-2980942D01*
X22404094Y-2978706D01*
X22640107Y-2634170D01*
X22843323Y-2269328D01*
X23012009Y-1887291D01*
X23112032Y-1588862D01*
X23152645Y-1530629D01*
X23218294Y-1503598D01*
X23288136Y-1516350D01*
G37*
%TD.AperFunction*%
%TD*%
M02*
