%TF.GenerationSoftware,KiCad,Pcbnew,6.99.0-unknown-f8b157a1fb~149~ubuntu22.04.1*%
%TF.CreationDate,2022-10-15T12:14:30+11:00*%
%TF.ProjectId,STSPIN32G4,53545350-494e-4333-9247-342e6b696361,rev?*%
%TF.SameCoordinates,Original*%
%TF.FileFunction,Legend,Bot*%
%TF.FilePolarity,Positive*%
%FSLAX46Y46*%
G04 Gerber Fmt 4.6, Leading zero omitted, Abs format (unit mm)*
G04 Created by KiCad (PCBNEW 6.99.0-unknown-f8b157a1fb~149~ubuntu22.04.1) date 2022-10-15 12:14:30*
%MOMM*%
%LPD*%
G01*
G04 APERTURE LIST*
G04 Aperture macros list*
%AMRoundRect*
0 Rectangle with rounded corners*
0 $1 Rounding radius*
0 $2 $3 $4 $5 $6 $7 $8 $9 X,Y pos of 4 corners*
0 Add a 4 corners polygon primitive as box body*
4,1,4,$2,$3,$4,$5,$6,$7,$8,$9,$2,$3,0*
0 Add four circle primitives for the rounded corners*
1,1,$1+$1,$2,$3*
1,1,$1+$1,$4,$5*
1,1,$1+$1,$6,$7*
1,1,$1+$1,$8,$9*
0 Add four rect primitives between the rounded corners*
20,1,$1+$1,$2,$3,$4,$5,0*
20,1,$1+$1,$4,$5,$6,$7,0*
20,1,$1+$1,$6,$7,$8,$9,0*
20,1,$1+$1,$8,$9,$2,$3,0*%
%AMFreePoly0*
4,1,19,0.500000,-0.750000,0.000000,-0.750000,0.000000,-0.744911,-0.071157,-0.744911,-0.207708,-0.704816,-0.327430,-0.627875,-0.420627,-0.520320,-0.479746,-0.390866,-0.500000,-0.250000,-0.500000,0.250000,-0.479746,0.390866,-0.420627,0.520320,-0.327430,0.627875,-0.207708,0.704816,-0.071157,0.744911,0.000000,0.744911,0.000000,0.750000,0.500000,0.750000,0.500000,-0.750000,0.500000,-0.750000,
$1*%
%AMFreePoly1*
4,1,19,0.000000,0.744911,0.071157,0.744911,0.207708,0.704816,0.327430,0.627875,0.420627,0.520320,0.479746,0.390866,0.500000,0.250000,0.500000,-0.250000,0.479746,-0.390866,0.420627,-0.520320,0.327430,-0.627875,0.207708,-0.704816,0.071157,-0.744911,0.000000,-0.744911,0.000000,-0.750000,-0.500000,-0.750000,-0.500000,0.750000,0.000000,0.750000,0.000000,0.744911,0.000000,0.744911,
$1*%
%AMFreePoly2*
4,1,19,0.550000,-0.750000,0.000000,-0.750000,0.000000,-0.744911,-0.071157,-0.744911,-0.207708,-0.704816,-0.327430,-0.627875,-0.420627,-0.520320,-0.479746,-0.390866,-0.500000,-0.250000,-0.500000,0.250000,-0.479746,0.390866,-0.420627,0.520320,-0.327430,0.627875,-0.207708,0.704816,-0.071157,0.744911,0.000000,0.744911,0.000000,0.750000,0.550000,0.750000,0.550000,-0.750000,0.550000,-0.750000,
$1*%
%AMFreePoly3*
4,1,19,0.000000,0.744911,0.071157,0.744911,0.207708,0.704816,0.327430,0.627875,0.420627,0.520320,0.479746,0.390866,0.500000,0.250000,0.500000,-0.250000,0.479746,-0.390866,0.420627,-0.520320,0.327430,-0.627875,0.207708,-0.704816,0.071157,-0.744911,0.000000,-0.744911,0.000000,-0.750000,-0.550000,-0.750000,-0.550000,0.750000,0.000000,0.750000,0.000000,0.744911,0.000000,0.744911,
$1*%
G04 Aperture macros list end*
%ADD10C,0.150000*%
%ADD11C,0.120000*%
%ADD12C,0.100000*%
%ADD13R,1.700000X1.700000*%
%ADD14O,1.700000X1.700000*%
%ADD15C,1.500000*%
%ADD16C,7.000000*%
%ADD17RoundRect,1.500000X1.500000X1.500000X-1.500000X1.500000X-1.500000X-1.500000X1.500000X-1.500000X0*%
%ADD18C,6.000000*%
%ADD19FreePoly0,180.000000*%
%ADD20FreePoly1,180.000000*%
%ADD21C,2.000000*%
%ADD22R,0.812800X0.254000*%
%ADD23R,0.254000X0.812800*%
%ADD24R,4.089400X4.089400*%
%ADD25FreePoly0,0.000000*%
%ADD26FreePoly1,0.000000*%
%ADD27FreePoly1,270.000000*%
%ADD28FreePoly0,270.000000*%
%ADD29FreePoly2,180.000000*%
%ADD30R,1.000000X1.500000*%
%ADD31FreePoly3,180.000000*%
G04 APERTURE END LIST*
D10*
%TO.C,TP9*%
X-34298095Y19044619D02*
X-34869523Y19044619D01*
X-34583809Y18044619D02*
X-34583809Y19044619D01*
X-35202857Y18044619D02*
X-35202857Y19044619D01*
X-35202857Y19044619D02*
X-35583809Y19044619D01*
X-35583809Y19044619D02*
X-35679047Y18997000D01*
X-35679047Y18997000D02*
X-35726666Y18949380D01*
X-35726666Y18949380D02*
X-35774285Y18854142D01*
X-35774285Y18854142D02*
X-35774285Y18711285D01*
X-35774285Y18711285D02*
X-35726666Y18616047D01*
X-35726666Y18616047D02*
X-35679047Y18568428D01*
X-35679047Y18568428D02*
X-35583809Y18520809D01*
X-35583809Y18520809D02*
X-35202857Y18520809D01*
X-36250476Y18044619D02*
X-36440952Y18044619D01*
X-36440952Y18044619D02*
X-36536190Y18092238D01*
X-36536190Y18092238D02*
X-36583809Y18139857D01*
X-36583809Y18139857D02*
X-36679047Y18282714D01*
X-36679047Y18282714D02*
X-36726666Y18473190D01*
X-36726666Y18473190D02*
X-36726666Y18854142D01*
X-36726666Y18854142D02*
X-36679047Y18949380D01*
X-36679047Y18949380D02*
X-36631428Y18997000D01*
X-36631428Y18997000D02*
X-36536190Y19044619D01*
X-36536190Y19044619D02*
X-36345714Y19044619D01*
X-36345714Y19044619D02*
X-36250476Y18997000D01*
X-36250476Y18997000D02*
X-36202857Y18949380D01*
X-36202857Y18949380D02*
X-36155238Y18854142D01*
X-36155238Y18854142D02*
X-36155238Y18616047D01*
X-36155238Y18616047D02*
X-36202857Y18520809D01*
X-36202857Y18520809D02*
X-36250476Y18473190D01*
X-36250476Y18473190D02*
X-36345714Y18425571D01*
X-36345714Y18425571D02*
X-36536190Y18425571D01*
X-36536190Y18425571D02*
X-36631428Y18473190D01*
X-36631428Y18473190D02*
X-36679047Y18520809D01*
X-36679047Y18520809D02*
X-36726666Y18616047D01*
%TO.C,TP8*%
X-34298095Y15488619D02*
X-34869523Y15488619D01*
X-34583809Y14488619D02*
X-34583809Y15488619D01*
X-35202857Y14488619D02*
X-35202857Y15488619D01*
X-35202857Y15488619D02*
X-35583809Y15488619D01*
X-35583809Y15488619D02*
X-35679047Y15441000D01*
X-35679047Y15441000D02*
X-35726666Y15393380D01*
X-35726666Y15393380D02*
X-35774285Y15298142D01*
X-35774285Y15298142D02*
X-35774285Y15155285D01*
X-35774285Y15155285D02*
X-35726666Y15060047D01*
X-35726666Y15060047D02*
X-35679047Y15012428D01*
X-35679047Y15012428D02*
X-35583809Y14964809D01*
X-35583809Y14964809D02*
X-35202857Y14964809D01*
X-36345714Y15060047D02*
X-36250476Y15107666D01*
X-36250476Y15107666D02*
X-36202857Y15155285D01*
X-36202857Y15155285D02*
X-36155238Y15250523D01*
X-36155238Y15250523D02*
X-36155238Y15298142D01*
X-36155238Y15298142D02*
X-36202857Y15393380D01*
X-36202857Y15393380D02*
X-36250476Y15441000D01*
X-36250476Y15441000D02*
X-36345714Y15488619D01*
X-36345714Y15488619D02*
X-36536190Y15488619D01*
X-36536190Y15488619D02*
X-36631428Y15441000D01*
X-36631428Y15441000D02*
X-36679047Y15393380D01*
X-36679047Y15393380D02*
X-36726666Y15298142D01*
X-36726666Y15298142D02*
X-36726666Y15250523D01*
X-36726666Y15250523D02*
X-36679047Y15155285D01*
X-36679047Y15155285D02*
X-36631428Y15107666D01*
X-36631428Y15107666D02*
X-36536190Y15060047D01*
X-36536190Y15060047D02*
X-36345714Y15060047D01*
X-36345714Y15060047D02*
X-36250476Y15012428D01*
X-36250476Y15012428D02*
X-36202857Y14964809D01*
X-36202857Y14964809D02*
X-36155238Y14869571D01*
X-36155238Y14869571D02*
X-36155238Y14679095D01*
X-36155238Y14679095D02*
X-36202857Y14583857D01*
X-36202857Y14583857D02*
X-36250476Y14536238D01*
X-36250476Y14536238D02*
X-36345714Y14488619D01*
X-36345714Y14488619D02*
X-36536190Y14488619D01*
X-36536190Y14488619D02*
X-36631428Y14536238D01*
X-36631428Y14536238D02*
X-36679047Y14583857D01*
X-36679047Y14583857D02*
X-36726666Y14679095D01*
X-36726666Y14679095D02*
X-36726666Y14869571D01*
X-36726666Y14869571D02*
X-36679047Y14964809D01*
X-36679047Y14964809D02*
X-36631428Y15012428D01*
X-36631428Y15012428D02*
X-36536190Y15060047D01*
%TO.C,JP8*%
X-31424666Y17418619D02*
X-31424666Y16704333D01*
X-31424666Y16704333D02*
X-31377047Y16561476D01*
X-31377047Y16561476D02*
X-31281809Y16466238D01*
X-31281809Y16466238D02*
X-31138952Y16418619D01*
X-31138952Y16418619D02*
X-31043714Y16418619D01*
X-31900857Y16418619D02*
X-31900857Y17418619D01*
X-31900857Y17418619D02*
X-32281809Y17418619D01*
X-32281809Y17418619D02*
X-32377047Y17371000D01*
X-32377047Y17371000D02*
X-32424666Y17323380D01*
X-32424666Y17323380D02*
X-32472285Y17228142D01*
X-32472285Y17228142D02*
X-32472285Y17085285D01*
X-32472285Y17085285D02*
X-32424666Y16990047D01*
X-32424666Y16990047D02*
X-32377047Y16942428D01*
X-32377047Y16942428D02*
X-32281809Y16894809D01*
X-32281809Y16894809D02*
X-31900857Y16894809D01*
X-33043714Y16990047D02*
X-32948476Y17037666D01*
X-32948476Y17037666D02*
X-32900857Y17085285D01*
X-32900857Y17085285D02*
X-32853238Y17180523D01*
X-32853238Y17180523D02*
X-32853238Y17228142D01*
X-32853238Y17228142D02*
X-32900857Y17323380D01*
X-32900857Y17323380D02*
X-32948476Y17371000D01*
X-32948476Y17371000D02*
X-33043714Y17418619D01*
X-33043714Y17418619D02*
X-33234190Y17418619D01*
X-33234190Y17418619D02*
X-33329428Y17371000D01*
X-33329428Y17371000D02*
X-33377047Y17323380D01*
X-33377047Y17323380D02*
X-33424666Y17228142D01*
X-33424666Y17228142D02*
X-33424666Y17180523D01*
X-33424666Y17180523D02*
X-33377047Y17085285D01*
X-33377047Y17085285D02*
X-33329428Y17037666D01*
X-33329428Y17037666D02*
X-33234190Y16990047D01*
X-33234190Y16990047D02*
X-33043714Y16990047D01*
X-33043714Y16990047D02*
X-32948476Y16942428D01*
X-32948476Y16942428D02*
X-32900857Y16894809D01*
X-32900857Y16894809D02*
X-32853238Y16799571D01*
X-32853238Y16799571D02*
X-32853238Y16609095D01*
X-32853238Y16609095D02*
X-32900857Y16513857D01*
X-32900857Y16513857D02*
X-32948476Y16466238D01*
X-32948476Y16466238D02*
X-33043714Y16418619D01*
X-33043714Y16418619D02*
X-33234190Y16418619D01*
X-33234190Y16418619D02*
X-33329428Y16466238D01*
X-33329428Y16466238D02*
X-33377047Y16513857D01*
X-33377047Y16513857D02*
X-33424666Y16609095D01*
X-33424666Y16609095D02*
X-33424666Y16799571D01*
X-33424666Y16799571D02*
X-33377047Y16894809D01*
X-33377047Y16894809D02*
X-33329428Y16942428D01*
X-33329428Y16942428D02*
X-33234190Y16990047D01*
%TO.C,TP1*%
X-25662095Y679619D02*
X-26233523Y679619D01*
X-25947809Y-320380D02*
X-25947809Y679619D01*
X-26566857Y-320380D02*
X-26566857Y679619D01*
X-26566857Y679619D02*
X-26947809Y679619D01*
X-26947809Y679619D02*
X-27043047Y632000D01*
X-27043047Y632000D02*
X-27090666Y584380D01*
X-27090666Y584380D02*
X-27138285Y489142D01*
X-27138285Y489142D02*
X-27138285Y346285D01*
X-27138285Y346285D02*
X-27090666Y251047D01*
X-27090666Y251047D02*
X-27043047Y203428D01*
X-27043047Y203428D02*
X-26947809Y155809D01*
X-26947809Y155809D02*
X-26566857Y155809D01*
X-28090666Y-320380D02*
X-27519238Y-320380D01*
X-27804952Y-320380D02*
X-27804952Y679619D01*
X-27804952Y679619D02*
X-27709714Y536761D01*
X-27709714Y536761D02*
X-27614476Y441523D01*
X-27614476Y441523D02*
X-27519238Y393904D01*
%TO.C,TP2*%
X-24900095Y-3905380D02*
X-25471523Y-3905380D01*
X-25185809Y-4905380D02*
X-25185809Y-3905380D01*
X-25804857Y-4905380D02*
X-25804857Y-3905380D01*
X-25804857Y-3905380D02*
X-26185809Y-3905380D01*
X-26185809Y-3905380D02*
X-26281047Y-3953000D01*
X-26281047Y-3953000D02*
X-26328666Y-4000619D01*
X-26328666Y-4000619D02*
X-26376285Y-4095857D01*
X-26376285Y-4095857D02*
X-26376285Y-4238714D01*
X-26376285Y-4238714D02*
X-26328666Y-4333952D01*
X-26328666Y-4333952D02*
X-26281047Y-4381571D01*
X-26281047Y-4381571D02*
X-26185809Y-4429190D01*
X-26185809Y-4429190D02*
X-25804857Y-4429190D01*
X-26757238Y-4000619D02*
X-26804857Y-3953000D01*
X-26804857Y-3953000D02*
X-26900095Y-3905380D01*
X-26900095Y-3905380D02*
X-27138190Y-3905380D01*
X-27138190Y-3905380D02*
X-27233428Y-3953000D01*
X-27233428Y-3953000D02*
X-27281047Y-4000619D01*
X-27281047Y-4000619D02*
X-27328666Y-4095857D01*
X-27328666Y-4095857D02*
X-27328666Y-4191095D01*
X-27328666Y-4191095D02*
X-27281047Y-4333952D01*
X-27281047Y-4333952D02*
X-26709619Y-4905380D01*
X-26709619Y-4905380D02*
X-27328666Y-4905380D01*
%TO.C,IC1*%
X-34710810Y3709619D02*
X-34710810Y4709619D01*
X-35758428Y3804857D02*
X-35710809Y3757238D01*
X-35710809Y3757238D02*
X-35567952Y3709619D01*
X-35567952Y3709619D02*
X-35472714Y3709619D01*
X-35472714Y3709619D02*
X-35329857Y3757238D01*
X-35329857Y3757238D02*
X-35234619Y3852476D01*
X-35234619Y3852476D02*
X-35187000Y3947714D01*
X-35187000Y3947714D02*
X-35139381Y4138190D01*
X-35139381Y4138190D02*
X-35139381Y4281047D01*
X-35139381Y4281047D02*
X-35187000Y4471523D01*
X-35187000Y4471523D02*
X-35234619Y4566761D01*
X-35234619Y4566761D02*
X-35329857Y4662000D01*
X-35329857Y4662000D02*
X-35472714Y4709619D01*
X-35472714Y4709619D02*
X-35567952Y4709619D01*
X-35567952Y4709619D02*
X-35710809Y4662000D01*
X-35710809Y4662000D02*
X-35758428Y4614380D01*
X-36710809Y3709619D02*
X-36139381Y3709619D01*
X-36425095Y3709619D02*
X-36425095Y4709619D01*
X-36425095Y4709619D02*
X-36329857Y4566761D01*
X-36329857Y4566761D02*
X-36234619Y4471523D01*
X-36234619Y4471523D02*
X-36139381Y4423904D01*
X-31353667Y3757238D02*
X-31496524Y3709619D01*
X-31496524Y3709619D02*
X-31734619Y3709619D01*
X-31734619Y3709619D02*
X-31829857Y3757238D01*
X-31829857Y3757238D02*
X-31877476Y3804857D01*
X-31877476Y3804857D02*
X-31925095Y3900095D01*
X-31925095Y3900095D02*
X-31925095Y3995333D01*
X-31925095Y3995333D02*
X-31877476Y4090571D01*
X-31877476Y4090571D02*
X-31829857Y4138190D01*
X-31829857Y4138190D02*
X-31734619Y4185809D01*
X-31734619Y4185809D02*
X-31544143Y4233428D01*
X-31544143Y4233428D02*
X-31448905Y4281047D01*
X-31448905Y4281047D02*
X-31401286Y4328666D01*
X-31401286Y4328666D02*
X-31353667Y4423904D01*
X-31353667Y4423904D02*
X-31353667Y4519142D01*
X-31353667Y4519142D02*
X-31401286Y4614380D01*
X-31401286Y4614380D02*
X-31448905Y4662000D01*
X-31448905Y4662000D02*
X-31544143Y4709619D01*
X-31544143Y4709619D02*
X-31782238Y4709619D01*
X-31782238Y4709619D02*
X-31925095Y4662000D01*
X-32210810Y4709619D02*
X-32782238Y4709619D01*
X-32496524Y3709619D02*
X-32496524Y4709619D01*
X-33067953Y3757238D02*
X-33210810Y3709619D01*
X-33210810Y3709619D02*
X-33448905Y3709619D01*
X-33448905Y3709619D02*
X-33544143Y3757238D01*
X-33544143Y3757238D02*
X-33591762Y3804857D01*
X-33591762Y3804857D02*
X-33639381Y3900095D01*
X-33639381Y3900095D02*
X-33639381Y3995333D01*
X-33639381Y3995333D02*
X-33591762Y4090571D01*
X-33591762Y4090571D02*
X-33544143Y4138190D01*
X-33544143Y4138190D02*
X-33448905Y4185809D01*
X-33448905Y4185809D02*
X-33258429Y4233428D01*
X-33258429Y4233428D02*
X-33163191Y4281047D01*
X-33163191Y4281047D02*
X-33115572Y4328666D01*
X-33115572Y4328666D02*
X-33067953Y4423904D01*
X-33067953Y4423904D02*
X-33067953Y4519142D01*
X-33067953Y4519142D02*
X-33115572Y4614380D01*
X-33115572Y4614380D02*
X-33163191Y4662000D01*
X-33163191Y4662000D02*
X-33258429Y4709619D01*
X-33258429Y4709619D02*
X-33496524Y4709619D01*
X-33496524Y4709619D02*
X-33639381Y4662000D01*
X-34067953Y3709619D02*
X-34067953Y4709619D01*
X-34067953Y4709619D02*
X-34448905Y4709619D01*
X-34448905Y4709619D02*
X-34544143Y4662000D01*
X-34544143Y4662000D02*
X-34591762Y4614380D01*
X-34591762Y4614380D02*
X-34639381Y4519142D01*
X-34639381Y4519142D02*
X-34639381Y4376285D01*
X-34639381Y4376285D02*
X-34591762Y4281047D01*
X-34591762Y4281047D02*
X-34544143Y4233428D01*
X-34544143Y4233428D02*
X-34448905Y4185809D01*
X-34448905Y4185809D02*
X-34067953Y4185809D01*
X-35067953Y3709619D02*
X-35067953Y4709619D01*
X-35544143Y3709619D02*
X-35544143Y4709619D01*
X-35544143Y4709619D02*
X-36115571Y3709619D01*
X-36115571Y3709619D02*
X-36115571Y4709619D01*
X-36496524Y4709619D02*
X-37115571Y4709619D01*
X-37115571Y4709619D02*
X-36782238Y4328666D01*
X-36782238Y4328666D02*
X-36925095Y4328666D01*
X-36925095Y4328666D02*
X-37020333Y4281047D01*
X-37020333Y4281047D02*
X-37067952Y4233428D01*
X-37067952Y4233428D02*
X-37115571Y4138190D01*
X-37115571Y4138190D02*
X-37115571Y3900095D01*
X-37115571Y3900095D02*
X-37067952Y3804857D01*
X-37067952Y3804857D02*
X-37020333Y3757238D01*
X-37020333Y3757238D02*
X-36925095Y3709619D01*
X-36925095Y3709619D02*
X-36639381Y3709619D01*
X-36639381Y3709619D02*
X-36544143Y3757238D01*
X-36544143Y3757238D02*
X-36496524Y3804857D01*
X-37496524Y4614380D02*
X-37544143Y4662000D01*
X-37544143Y4662000D02*
X-37639381Y4709619D01*
X-37639381Y4709619D02*
X-37877476Y4709619D01*
X-37877476Y4709619D02*
X-37972714Y4662000D01*
X-37972714Y4662000D02*
X-38020333Y4614380D01*
X-38020333Y4614380D02*
X-38067952Y4519142D01*
X-38067952Y4519142D02*
X-38067952Y4423904D01*
X-38067952Y4423904D02*
X-38020333Y4281047D01*
X-38020333Y4281047D02*
X-37448905Y3709619D01*
X-37448905Y3709619D02*
X-38067952Y3709619D01*
X-39020333Y4662000D02*
X-38925095Y4709619D01*
X-38925095Y4709619D02*
X-38782238Y4709619D01*
X-38782238Y4709619D02*
X-38639381Y4662000D01*
X-38639381Y4662000D02*
X-38544143Y4566761D01*
X-38544143Y4566761D02*
X-38496524Y4471523D01*
X-38496524Y4471523D02*
X-38448905Y4281047D01*
X-38448905Y4281047D02*
X-38448905Y4138190D01*
X-38448905Y4138190D02*
X-38496524Y3947714D01*
X-38496524Y3947714D02*
X-38544143Y3852476D01*
X-38544143Y3852476D02*
X-38639381Y3757238D01*
X-38639381Y3757238D02*
X-38782238Y3709619D01*
X-38782238Y3709619D02*
X-38877476Y3709619D01*
X-38877476Y3709619D02*
X-39020333Y3757238D01*
X-39020333Y3757238D02*
X-39067952Y3804857D01*
X-39067952Y3804857D02*
X-39067952Y4138190D01*
X-39067952Y4138190D02*
X-38877476Y4138190D01*
X-39925095Y4376285D02*
X-39925095Y3709619D01*
X-39687000Y4757238D02*
X-39448905Y4042952D01*
X-39448905Y4042952D02*
X-40067952Y4042952D01*
X-30200600Y8710627D02*
X-30200600Y8472531D01*
X-29962505Y8567769D02*
X-30200600Y8472531D01*
X-30200600Y8472531D02*
X-30438695Y8567769D01*
X-30057743Y8282055D02*
X-30200600Y8472531D01*
X-30200600Y8472531D02*
X-30343457Y8282055D01*
X-30200600Y8710627D02*
X-30200600Y8472531D01*
X-29962505Y8567769D02*
X-30200600Y8472531D01*
X-30200600Y8472531D02*
X-30438695Y8567769D01*
X-30057743Y8282055D02*
X-30200600Y8472531D01*
X-30200600Y8472531D02*
X-30343457Y8282055D01*
%TO.C,JP2*%
X-28122666Y8992619D02*
X-28122666Y8278333D01*
X-28122666Y8278333D02*
X-28075047Y8135476D01*
X-28075047Y8135476D02*
X-27979809Y8040238D01*
X-27979809Y8040238D02*
X-27836952Y7992619D01*
X-27836952Y7992619D02*
X-27741714Y7992619D01*
X-28598857Y7992619D02*
X-28598857Y8992619D01*
X-28598857Y8992619D02*
X-28979809Y8992619D01*
X-28979809Y8992619D02*
X-29075047Y8945000D01*
X-29075047Y8945000D02*
X-29122666Y8897380D01*
X-29122666Y8897380D02*
X-29170285Y8802142D01*
X-29170285Y8802142D02*
X-29170285Y8659285D01*
X-29170285Y8659285D02*
X-29122666Y8564047D01*
X-29122666Y8564047D02*
X-29075047Y8516428D01*
X-29075047Y8516428D02*
X-28979809Y8468809D01*
X-28979809Y8468809D02*
X-28598857Y8468809D01*
X-29551238Y8897380D02*
X-29598857Y8945000D01*
X-29598857Y8945000D02*
X-29694095Y8992619D01*
X-29694095Y8992619D02*
X-29932190Y8992619D01*
X-29932190Y8992619D02*
X-30027428Y8945000D01*
X-30027428Y8945000D02*
X-30075047Y8897380D01*
X-30075047Y8897380D02*
X-30122666Y8802142D01*
X-30122666Y8802142D02*
X-30122666Y8706904D01*
X-30122666Y8706904D02*
X-30075047Y8564047D01*
X-30075047Y8564047D02*
X-29503619Y7992619D01*
X-29503619Y7992619D02*
X-30122666Y7992619D01*
%TO.C,JP4*%
X-39770619Y-9326666D02*
X-39056333Y-9326666D01*
X-39056333Y-9326666D02*
X-38913476Y-9279047D01*
X-38913476Y-9279047D02*
X-38818238Y-9183809D01*
X-38818238Y-9183809D02*
X-38770619Y-9040952D01*
X-38770619Y-9040952D02*
X-38770619Y-8945714D01*
X-38770619Y-9802857D02*
X-39770619Y-9802857D01*
X-39770619Y-9802857D02*
X-39770619Y-10183809D01*
X-39770619Y-10183809D02*
X-39723000Y-10279047D01*
X-39723000Y-10279047D02*
X-39675380Y-10326666D01*
X-39675380Y-10326666D02*
X-39580142Y-10374285D01*
X-39580142Y-10374285D02*
X-39437285Y-10374285D01*
X-39437285Y-10374285D02*
X-39342047Y-10326666D01*
X-39342047Y-10326666D02*
X-39294428Y-10279047D01*
X-39294428Y-10279047D02*
X-39246809Y-10183809D01*
X-39246809Y-10183809D02*
X-39246809Y-9802857D01*
X-39437285Y-11231428D02*
X-38770619Y-11231428D01*
X-39818238Y-10993333D02*
X-39103952Y-10755238D01*
X-39103952Y-10755238D02*
X-39103952Y-11374285D01*
%TO.C,JP1*%
X-31439666Y11278619D02*
X-31439666Y10564333D01*
X-31439666Y10564333D02*
X-31392047Y10421476D01*
X-31392047Y10421476D02*
X-31296809Y10326238D01*
X-31296809Y10326238D02*
X-31153952Y10278619D01*
X-31153952Y10278619D02*
X-31058714Y10278619D01*
X-31915857Y10278619D02*
X-31915857Y11278619D01*
X-31915857Y11278619D02*
X-32296809Y11278619D01*
X-32296809Y11278619D02*
X-32392047Y11231000D01*
X-32392047Y11231000D02*
X-32439666Y11183380D01*
X-32439666Y11183380D02*
X-32487285Y11088142D01*
X-32487285Y11088142D02*
X-32487285Y10945285D01*
X-32487285Y10945285D02*
X-32439666Y10850047D01*
X-32439666Y10850047D02*
X-32392047Y10802428D01*
X-32392047Y10802428D02*
X-32296809Y10754809D01*
X-32296809Y10754809D02*
X-31915857Y10754809D01*
X-33439666Y10278619D02*
X-32868238Y10278619D01*
X-33153952Y10278619D02*
X-33153952Y11278619D01*
X-33153952Y11278619D02*
X-33058714Y11135761D01*
X-33058714Y11135761D02*
X-32963476Y11040523D01*
X-32963476Y11040523D02*
X-32868238Y10992904D01*
%TO.C,JP3*%
X-35996666Y-2393380D02*
X-35996666Y-3107666D01*
X-35996666Y-3107666D02*
X-35949047Y-3250523D01*
X-35949047Y-3250523D02*
X-35853809Y-3345761D01*
X-35853809Y-3345761D02*
X-35710952Y-3393380D01*
X-35710952Y-3393380D02*
X-35615714Y-3393380D01*
X-36472857Y-3393380D02*
X-36472857Y-2393380D01*
X-36472857Y-2393380D02*
X-36853809Y-2393380D01*
X-36853809Y-2393380D02*
X-36949047Y-2441000D01*
X-36949047Y-2441000D02*
X-36996666Y-2488619D01*
X-36996666Y-2488619D02*
X-37044285Y-2583857D01*
X-37044285Y-2583857D02*
X-37044285Y-2726714D01*
X-37044285Y-2726714D02*
X-36996666Y-2821952D01*
X-36996666Y-2821952D02*
X-36949047Y-2869571D01*
X-36949047Y-2869571D02*
X-36853809Y-2917190D01*
X-36853809Y-2917190D02*
X-36472857Y-2917190D01*
X-37377619Y-2393380D02*
X-37996666Y-2393380D01*
X-37996666Y-2393380D02*
X-37663333Y-2774333D01*
X-37663333Y-2774333D02*
X-37806190Y-2774333D01*
X-37806190Y-2774333D02*
X-37901428Y-2821952D01*
X-37901428Y-2821952D02*
X-37949047Y-2869571D01*
X-37949047Y-2869571D02*
X-37996666Y-2964809D01*
X-37996666Y-2964809D02*
X-37996666Y-3202904D01*
X-37996666Y-3202904D02*
X-37949047Y-3298142D01*
X-37949047Y-3298142D02*
X-37901428Y-3345761D01*
X-37901428Y-3345761D02*
X-37806190Y-3393380D01*
X-37806190Y-3393380D02*
X-37520476Y-3393380D01*
X-37520476Y-3393380D02*
X-37425238Y-3345761D01*
X-37425238Y-3345761D02*
X-37377619Y-3298142D01*
X-39096667Y-4193380D02*
X-39715714Y-4193380D01*
X-39715714Y-4193380D02*
X-39382381Y-4574333D01*
X-39382381Y-4574333D02*
X-39525238Y-4574333D01*
X-39525238Y-4574333D02*
X-39620476Y-4621952D01*
X-39620476Y-4621952D02*
X-39668095Y-4669571D01*
X-39668095Y-4669571D02*
X-39715714Y-4764809D01*
X-39715714Y-4764809D02*
X-39715714Y-5002904D01*
X-39715714Y-5002904D02*
X-39668095Y-5098142D01*
X-39668095Y-5098142D02*
X-39620476Y-5145761D01*
X-39620476Y-5145761D02*
X-39525238Y-5193380D01*
X-39525238Y-5193380D02*
X-39239524Y-5193380D01*
X-39239524Y-5193380D02*
X-39144286Y-5145761D01*
X-39144286Y-5145761D02*
X-39096667Y-5098142D01*
X-34515714Y-5193380D02*
X-33944286Y-5193380D01*
X-34230000Y-5193380D02*
X-34230000Y-4193380D01*
X-34230000Y-4193380D02*
X-34134762Y-4336238D01*
X-34134762Y-4336238D02*
X-34039524Y-4431476D01*
X-34039524Y-4431476D02*
X-33944286Y-4479095D01*
D11*
%TO.C,TP9*%
X-34610000Y16764000D02*
G75*
G03*
X-34610000Y16764000I-950000J0D01*
G01*
%TO.C,TP8*%
X-34610000Y13208000D02*
G75*
G03*
X-34610000Y13208000I-950000J0D01*
G01*
%TO.C,JP8*%
X-30858000Y14686000D02*
X-30858000Y15286000D01*
X-31558000Y15986000D02*
X-32958000Y15986000D01*
X-32958000Y13986000D02*
X-31558000Y13986000D01*
X-33658000Y15286000D02*
X-33658000Y14686000D01*
X-30858000Y15286000D02*
G75*
G03*
X-31558000Y15986000I-699999J1D01*
G01*
X-31558000Y13986000D02*
G75*
G03*
X-30858000Y14686000I1J699999D01*
G01*
X-32958000Y15986000D02*
G75*
G03*
X-33658000Y15286000I0J-700000D01*
G01*
X-33658000Y14686000D02*
G75*
G03*
X-32958000Y13986000I700000J0D01*
G01*
%TO.C,TP1*%
X-25724000Y2045000D02*
G75*
G03*
X-25724000Y2045000I-1200000J0D01*
G01*
%TO.C,TP2*%
X-24962000Y-2540000D02*
G75*
G03*
X-24962000Y-2540000I-1200000J0D01*
G01*
%TO.C,IC1*%
X-31013400Y-596600D02*
X-31476315Y-596600D01*
X-31013400Y-133685D02*
X-31013400Y-596600D01*
X-31013400Y8750600D02*
X-31013400Y8287685D01*
X-31476315Y8750600D02*
X-31013400Y8750600D01*
X-39897685Y-596600D02*
X-40360600Y-596600D01*
X-40360600Y-596600D02*
X-40360600Y-133685D01*
X-40360600Y8287685D02*
X-40360600Y8750600D01*
X-40360600Y8750600D02*
X-39897685Y8750600D01*
G36*
X-30327600Y3136311D02*
G01*
X-30581600Y3136311D01*
X-30581600Y3517311D01*
X-30327600Y3517311D01*
X-30327600Y3136311D01*
G37*
D12*
X-30327600Y3136311D02*
X-30581600Y3136311D01*
X-30581600Y3517311D01*
X-30327600Y3517311D01*
X-30327600Y3136311D01*
G36*
X-33245933Y-1282400D02*
G01*
X-33626933Y-1282400D01*
X-33626933Y-1028400D01*
X-33245933Y-1028400D01*
X-33245933Y-1282400D01*
G37*
X-33245933Y-1282400D02*
X-33626933Y-1282400D01*
X-33626933Y-1028400D01*
X-33245933Y-1028400D01*
X-33245933Y-1282400D01*
G36*
X-33746059Y9182400D02*
G01*
X-34127059Y9182400D01*
X-34127059Y9436400D01*
X-33746059Y9436400D01*
X-33746059Y9182400D01*
G37*
X-33746059Y9182400D02*
X-34127059Y9182400D01*
X-34127059Y9436400D01*
X-33746059Y9436400D01*
X-33746059Y9182400D01*
G36*
X-38247193Y-1282400D02*
G01*
X-38628193Y-1282400D01*
X-38628193Y-1028400D01*
X-38247193Y-1028400D01*
X-38247193Y-1282400D01*
G37*
X-38247193Y-1282400D02*
X-38628193Y-1282400D01*
X-38628193Y-1028400D01*
X-38247193Y-1028400D01*
X-38247193Y-1282400D01*
G36*
X-38747319Y9182400D02*
G01*
X-39128319Y9182400D01*
X-39128319Y9436400D01*
X-38747319Y9436400D01*
X-38747319Y9182400D01*
G37*
X-38747319Y9182400D02*
X-39128319Y9182400D01*
X-39128319Y9436400D01*
X-38747319Y9436400D01*
X-38747319Y9182400D01*
G36*
X-40792400Y3636437D02*
G01*
X-41046400Y3636437D01*
X-41046400Y4017437D01*
X-40792400Y4017437D01*
X-40792400Y3636437D01*
G37*
X-40792400Y3636437D02*
X-41046400Y3636437D01*
X-41046400Y4017437D01*
X-40792400Y4017437D01*
X-40792400Y3636437D01*
D11*
%TO.C,JP2*%
X-30356000Y10460000D02*
X-30356000Y9860000D01*
X-29656000Y9160000D02*
X-28256000Y9160000D01*
X-28256000Y11160000D02*
X-29656000Y11160000D01*
X-27556000Y9860000D02*
X-27556000Y10460000D01*
X-29656000Y11160000D02*
G75*
G03*
X-30356000Y10460000I-1J-699999D01*
G01*
X-30356000Y9860000D02*
G75*
G03*
X-29656000Y9160000I699999J-1D01*
G01*
X-27556000Y10460000D02*
G75*
G03*
X-28256000Y11160000I-700000J0D01*
G01*
X-28256000Y9160000D02*
G75*
G03*
X-27556000Y9860000I0J700000D01*
G01*
%TO.C,JP4*%
X-38338000Y-10860000D02*
G75*
G03*
X-37638000Y-11560000I700000J0D01*
G01*
X-37038000Y-11560000D02*
G75*
G03*
X-36338000Y-10860000I0J700000D01*
G01*
X-37638000Y-8760000D02*
G75*
G03*
X-38338000Y-9460000I-1J-699999D01*
G01*
X-36338000Y-9460000D02*
G75*
G03*
X-37038000Y-8760000I-699999J1D01*
G01*
X-37638000Y-11560000D02*
X-37038000Y-11560000D01*
X-36338000Y-10860000D02*
X-36338000Y-9460000D01*
X-38338000Y-9460000D02*
X-38338000Y-10860000D01*
X-37038000Y-8760000D02*
X-37638000Y-8760000D01*
%TO.C,JP1*%
X-33673000Y12746000D02*
X-33673000Y12146000D01*
X-32973000Y11446000D02*
X-31573000Y11446000D01*
X-31573000Y13446000D02*
X-32973000Y13446000D01*
X-30873000Y12146000D02*
X-30873000Y12746000D01*
X-32973000Y13446000D02*
G75*
G03*
X-33673000Y12746000I-1J-699999D01*
G01*
X-33673000Y12146000D02*
G75*
G03*
X-32973000Y11446000I699999J-1D01*
G01*
X-30873000Y12746000D02*
G75*
G03*
X-31573000Y13446000I-700000J0D01*
G01*
X-31573000Y11446000D02*
G75*
G03*
X-30873000Y12146000I0J700000D01*
G01*
%TO.C,JP3*%
X-34780000Y-5126000D02*
X-34780000Y-4526000D01*
X-35430000Y-3826000D02*
X-38230000Y-3826000D01*
X-38230000Y-5826000D02*
X-35430000Y-5826000D01*
X-38880000Y-4526000D02*
X-38880000Y-5126000D01*
X-35480000Y-5826000D02*
G75*
G03*
X-34780000Y-5126000I1J699999D01*
G01*
X-34780000Y-4526000D02*
G75*
G03*
X-35480000Y-3826000I-699999J1D01*
G01*
X-38880000Y-5126000D02*
G75*
G03*
X-38180000Y-5826000I700000J0D01*
G01*
X-38180000Y-3826000D02*
G75*
G03*
X-38880000Y-4526000I0J-700000D01*
G01*
%TD*%
%LPC*%
D13*
%TO.C,J7*%
X-52064999Y10667999D03*
D14*
X-54604999Y10667999D03*
%TD*%
D15*
%TO.C,TP9*%
X-35560000Y16764000D03*
%TD*%
%TO.C,TP8*%
X-35560000Y13208000D03*
%TD*%
D13*
%TO.C,J6*%
X-37083999Y-14731999D03*
D14*
X-34543999Y-14731999D03*
X-32003999Y-14731999D03*
X-29463999Y-14731999D03*
%TD*%
D16*
%TO.C,J8*%
X18542000Y10160000D03*
%TD*%
%TO.C,J9*%
X18288000Y-10414000D03*
%TD*%
%TO.C,J3*%
X18796000Y-254000D03*
%TD*%
D17*
%TO.C,J4*%
X-12700000Y19327000D03*
D18*
X-19900000Y19327000D03*
%TD*%
D13*
%TO.C,J2*%
X-44424999Y21614999D03*
D14*
X-41884999Y21614999D03*
X-39344999Y21614999D03*
X-36804999Y21614999D03*
X-34264999Y21614999D03*
X-31724999Y21614999D03*
%TD*%
D19*
%TO.C,JP8*%
X-31608000Y14986000D03*
D20*
X-32908000Y14986000D03*
%TD*%
D21*
%TO.C,TP1*%
X-26924000Y2045000D03*
%TD*%
%TO.C,TP2*%
X-26162000Y-2540000D03*
%TD*%
D22*
%TO.C,IC1*%
X-31241999Y7827944D03*
X-31241999Y7327818D03*
X-31241999Y6827692D03*
X-31241999Y6327566D03*
X-31241999Y5827440D03*
X-31241999Y5327314D03*
X-31241999Y4827188D03*
X-31241999Y4327062D03*
X-31241999Y3826936D03*
X-31241999Y3326810D03*
X-31241999Y2826684D03*
X-31241999Y2326558D03*
X-31241999Y1826432D03*
X-31241999Y1326306D03*
X-31241999Y826180D03*
X-31241999Y326054D03*
D23*
X-31936054Y-367999D03*
X-32436180Y-367999D03*
X-32936306Y-367999D03*
X-33436432Y-367999D03*
X-33936558Y-367999D03*
X-34436684Y-367999D03*
X-34936810Y-367999D03*
X-35436936Y-367999D03*
X-35937062Y-367999D03*
X-36437188Y-367999D03*
X-36937314Y-367999D03*
X-37437440Y-367999D03*
X-37937566Y-367999D03*
X-38437692Y-367999D03*
X-38937818Y-367999D03*
X-39437944Y-367999D03*
D22*
X-40131999Y326054D03*
X-40131999Y826180D03*
X-40131999Y1326306D03*
X-40131999Y1826432D03*
X-40131999Y2326558D03*
X-40131999Y2826684D03*
X-40131999Y3326810D03*
X-40131999Y3826936D03*
X-40131999Y4327062D03*
X-40131999Y4827188D03*
X-40131999Y5327314D03*
X-40131999Y5827440D03*
X-40131999Y6327566D03*
X-40131999Y6827692D03*
X-40131999Y7327818D03*
X-40131999Y7827944D03*
D23*
X-39437944Y8521999D03*
X-38937818Y8521999D03*
X-38437692Y8521999D03*
X-37937566Y8521999D03*
X-37437440Y8521999D03*
X-36937314Y8521999D03*
X-36437188Y8521999D03*
X-35937062Y8521999D03*
X-35436936Y8521999D03*
X-34936810Y8521999D03*
X-34436684Y8521999D03*
X-33936558Y8521999D03*
X-33436432Y8521999D03*
X-32936306Y8521999D03*
X-32436180Y8521999D03*
X-31936054Y8521999D03*
D24*
X-35686999Y4076999D03*
%TD*%
D25*
%TO.C,JP2*%
X-29606000Y10160000D03*
D26*
X-28306000Y10160000D03*
%TD*%
D27*
%TO.C,JP4*%
X-37338000Y-10810000D03*
D28*
X-37338000Y-9510000D03*
%TD*%
D25*
%TO.C,JP1*%
X-32923000Y12446000D03*
D26*
X-31623000Y12446000D03*
%TD*%
D29*
%TO.C,JP3*%
X-35530000Y-4826000D03*
D30*
X-36829999Y-4825999D03*
D31*
X-38130000Y-4826000D03*
%TD*%
M02*
