%TF.GenerationSoftware,KiCad,Pcbnew,6.99.0-unknown-f8b157a1fb~149~ubuntu22.04.1*%
%TF.CreationDate,2022-10-15T12:14:30+11:00*%
%TF.ProjectId,STSPIN32G4,53545350-494e-4333-9247-342e6b696361,rev?*%
%TF.SameCoordinates,Original*%
%TF.FileFunction,Legend,Top*%
%TF.FilePolarity,Positive*%
%FSLAX46Y46*%
G04 Gerber Fmt 4.6, Leading zero omitted, Abs format (unit mm)*
G04 Created by KiCad (PCBNEW 6.99.0-unknown-f8b157a1fb~149~ubuntu22.04.1) date 2022-10-15 12:14:30*
%MOMM*%
%LPD*%
G01*
G04 APERTURE LIST*
G04 Aperture macros list*
%AMRoundRect*
0 Rectangle with rounded corners*
0 $1 Rounding radius*
0 $2 $3 $4 $5 $6 $7 $8 $9 X,Y pos of 4 corners*
0 Add a 4 corners polygon primitive as box body*
4,1,4,$2,$3,$4,$5,$6,$7,$8,$9,$2,$3,0*
0 Add four circle primitives for the rounded corners*
1,1,$1+$1,$2,$3*
1,1,$1+$1,$4,$5*
1,1,$1+$1,$6,$7*
1,1,$1+$1,$8,$9*
0 Add four rect primitives between the rounded corners*
20,1,$1+$1,$2,$3,$4,$5,0*
20,1,$1+$1,$4,$5,$6,$7,0*
20,1,$1+$1,$6,$7,$8,$9,0*
20,1,$1+$1,$8,$9,$2,$3,0*%
G04 Aperture macros list end*
%ADD10C,0.150000*%
%ADD11C,0.120000*%
%ADD12R,1.700000X1.700000*%
%ADD13O,1.700000X1.700000*%
%ADD14RoundRect,0.125000X0.125000X-0.762500X0.125000X0.762500X-0.125000X0.762500X-0.125000X-0.762500X0*%
%ADD15C,1.000000*%
%ADD16RoundRect,0.237500X-0.300000X-0.237500X0.300000X-0.237500X0.300000X0.237500X-0.300000X0.237500X0*%
%ADD17RoundRect,0.200000X0.200000X0.275000X-0.200000X0.275000X-0.200000X-0.275000X0.200000X-0.275000X0*%
%ADD18RoundRect,0.200000X-0.200000X-0.275000X0.200000X-0.275000X0.200000X0.275000X-0.200000X0.275000X0*%
%ADD19C,7.000000*%
%ADD20RoundRect,0.250000X0.362500X1.425000X-0.362500X1.425000X-0.362500X-1.425000X0.362500X-1.425000X0*%
%ADD21RoundRect,0.200000X-0.275000X0.200000X-0.275000X-0.200000X0.275000X-0.200000X0.275000X0.200000X0*%
%ADD22RoundRect,0.200000X0.275000X-0.200000X0.275000X0.200000X-0.275000X0.200000X-0.275000X-0.200000X0*%
%ADD23R,1.100000X0.500000*%
%ADD24R,4.000000X4.000000*%
%ADD25R,0.600000X0.450000*%
%ADD26RoundRect,0.225000X-0.250000X0.225000X-0.250000X-0.225000X0.250000X-0.225000X0.250000X0.225000X0*%
%ADD27RoundRect,0.250000X-0.475000X0.250000X-0.475000X-0.250000X0.475000X-0.250000X0.475000X0.250000X0*%
%ADD28RoundRect,0.250000X-0.250000X-0.475000X0.250000X-0.475000X0.250000X0.475000X-0.250000X0.475000X0*%
%ADD29RoundRect,1.500000X1.500000X1.500000X-1.500000X1.500000X-1.500000X-1.500000X1.500000X-1.500000X0*%
%ADD30C,6.000000*%
%ADD31RoundRect,0.250000X1.500000X1.000000X-1.500000X1.000000X-1.500000X-1.000000X1.500000X-1.000000X0*%
%ADD32R,1.800000X2.500000*%
%ADD33RoundRect,0.225000X0.250000X-0.225000X0.250000X0.225000X-0.250000X0.225000X-0.250000X-0.225000X0*%
%ADD34RoundRect,0.225000X0.225000X0.250000X-0.225000X0.250000X-0.225000X-0.250000X0.225000X-0.250000X0*%
%ADD35RoundRect,0.250000X0.325000X0.650000X-0.325000X0.650000X-0.325000X-0.650000X0.325000X-0.650000X0*%
%ADD36R,0.600000X0.700000*%
%ADD37RoundRect,0.250000X0.475000X-0.250000X0.475000X0.250000X-0.475000X0.250000X-0.475000X-0.250000X0*%
%ADD38RoundRect,0.225000X-0.225000X-0.250000X0.225000X-0.250000X0.225000X0.250000X-0.225000X0.250000X0*%
%ADD39RoundRect,0.243750X0.243750X0.456250X-0.243750X0.456250X-0.243750X-0.456250X0.243750X-0.456250X0*%
%ADD40R,0.650000X1.050000*%
%ADD41RoundRect,0.250000X0.650000X-0.325000X0.650000X0.325000X-0.650000X0.325000X-0.650000X-0.325000X0*%
%ADD42R,1.200000X1.400000*%
%ADD43R,5.700000X1.600000*%
G04 APERTURE END LIST*
D10*
%TO.C,J7*%
X-50367619Y10334666D02*
X-49653333Y10334666D01*
X-49653333Y10334666D02*
X-49510476Y10287047D01*
X-49510476Y10287047D02*
X-49415238Y10191809D01*
X-49415238Y10191809D02*
X-49367619Y10048952D01*
X-49367619Y10048952D02*
X-49367619Y9953714D01*
X-50367619Y10715619D02*
X-50367619Y11382285D01*
X-50367619Y11382285D02*
X-49367619Y10953714D01*
%TO.C,U3*%
X-60562619Y508095D02*
X-59753095Y508095D01*
X-59753095Y508095D02*
X-59657857Y555714D01*
X-59657857Y555714D02*
X-59610238Y603333D01*
X-59610238Y603333D02*
X-59562619Y698571D01*
X-59562619Y698571D02*
X-59562619Y889047D01*
X-59562619Y889047D02*
X-59610238Y984285D01*
X-59610238Y984285D02*
X-59657857Y1031904D01*
X-59657857Y1031904D02*
X-59753095Y1079523D01*
X-59753095Y1079523D02*
X-60562619Y1079523D01*
X-60562619Y1460476D02*
X-60562619Y2079523D01*
X-60562619Y2079523D02*
X-60181666Y1746190D01*
X-60181666Y1746190D02*
X-60181666Y1889047D01*
X-60181666Y1889047D02*
X-60134047Y1984285D01*
X-60134047Y1984285D02*
X-60086428Y2031904D01*
X-60086428Y2031904D02*
X-59991190Y2079523D01*
X-59991190Y2079523D02*
X-59753095Y2079523D01*
X-59753095Y2079523D02*
X-59657857Y2031904D01*
X-59657857Y2031904D02*
X-59610238Y1984285D01*
X-59610238Y1984285D02*
X-59562619Y1889047D01*
X-59562619Y1889047D02*
X-59562619Y1603333D01*
X-59562619Y1603333D02*
X-59610238Y1508095D01*
X-59610238Y1508095D02*
X-59657857Y1460476D01*
%TO.C,TP4*%
X-57141904Y-4269380D02*
X-56570476Y-4269380D01*
X-56856190Y-5269380D02*
X-56856190Y-4269380D01*
X-56237142Y-5269380D02*
X-56237142Y-4269380D01*
X-56237142Y-4269380D02*
X-55856190Y-4269380D01*
X-55856190Y-4269380D02*
X-55760952Y-4317000D01*
X-55760952Y-4317000D02*
X-55713333Y-4364619D01*
X-55713333Y-4364619D02*
X-55665714Y-4459857D01*
X-55665714Y-4459857D02*
X-55665714Y-4602714D01*
X-55665714Y-4602714D02*
X-55713333Y-4697952D01*
X-55713333Y-4697952D02*
X-55760952Y-4745571D01*
X-55760952Y-4745571D02*
X-55856190Y-4793190D01*
X-55856190Y-4793190D02*
X-56237142Y-4793190D01*
X-54808571Y-4602714D02*
X-54808571Y-5269380D01*
X-55046666Y-4221761D02*
X-55284761Y-4936047D01*
X-55284761Y-4936047D02*
X-54665714Y-4936047D01*
%TO.C,TP3*%
X-59681904Y-4269380D02*
X-59110476Y-4269380D01*
X-59396190Y-5269380D02*
X-59396190Y-4269380D01*
X-58777142Y-5269380D02*
X-58777142Y-4269380D01*
X-58777142Y-4269380D02*
X-58396190Y-4269380D01*
X-58396190Y-4269380D02*
X-58300952Y-4317000D01*
X-58300952Y-4317000D02*
X-58253333Y-4364619D01*
X-58253333Y-4364619D02*
X-58205714Y-4459857D01*
X-58205714Y-4459857D02*
X-58205714Y-4602714D01*
X-58205714Y-4602714D02*
X-58253333Y-4697952D01*
X-58253333Y-4697952D02*
X-58300952Y-4745571D01*
X-58300952Y-4745571D02*
X-58396190Y-4793190D01*
X-58396190Y-4793190D02*
X-58777142Y-4793190D01*
X-57872380Y-4269380D02*
X-57253333Y-4269380D01*
X-57253333Y-4269380D02*
X-57586666Y-4650333D01*
X-57586666Y-4650333D02*
X-57443809Y-4650333D01*
X-57443809Y-4650333D02*
X-57348571Y-4697952D01*
X-57348571Y-4697952D02*
X-57300952Y-4745571D01*
X-57300952Y-4745571D02*
X-57253333Y-4840809D01*
X-57253333Y-4840809D02*
X-57253333Y-5078904D01*
X-57253333Y-5078904D02*
X-57300952Y-5174142D01*
X-57300952Y-5174142D02*
X-57348571Y-5221761D01*
X-57348571Y-5221761D02*
X-57443809Y-5269380D01*
X-57443809Y-5269380D02*
X-57729523Y-5269380D01*
X-57729523Y-5269380D02*
X-57824761Y-5221761D01*
X-57824761Y-5221761D02*
X-57872380Y-5174142D01*
%TO.C,C14*%
X-58808857Y8777857D02*
X-58856476Y8730238D01*
X-58856476Y8730238D02*
X-58999333Y8682619D01*
X-58999333Y8682619D02*
X-59094571Y8682619D01*
X-59094571Y8682619D02*
X-59237428Y8730238D01*
X-59237428Y8730238D02*
X-59332666Y8825476D01*
X-59332666Y8825476D02*
X-59380285Y8920714D01*
X-59380285Y8920714D02*
X-59427904Y9111190D01*
X-59427904Y9111190D02*
X-59427904Y9254047D01*
X-59427904Y9254047D02*
X-59380285Y9444523D01*
X-59380285Y9444523D02*
X-59332666Y9539761D01*
X-59332666Y9539761D02*
X-59237428Y9635000D01*
X-59237428Y9635000D02*
X-59094571Y9682619D01*
X-59094571Y9682619D02*
X-58999333Y9682619D01*
X-58999333Y9682619D02*
X-58856476Y9635000D01*
X-58856476Y9635000D02*
X-58808857Y9587380D01*
X-57856476Y8682619D02*
X-58427904Y8682619D01*
X-58142190Y8682619D02*
X-58142190Y9682619D01*
X-58142190Y9682619D02*
X-58237428Y9539761D01*
X-58237428Y9539761D02*
X-58332666Y9444523D01*
X-58332666Y9444523D02*
X-58427904Y9396904D01*
X-56999333Y9349285D02*
X-56999333Y8682619D01*
X-57237428Y9730238D02*
X-57475523Y9015952D01*
X-57475523Y9015952D02*
X-56856476Y9015952D01*
%TO.C,R3*%
X-42838666Y9886619D02*
X-43171999Y10362809D01*
X-43410094Y9886619D02*
X-43410094Y10886619D01*
X-43410094Y10886619D02*
X-43029142Y10886619D01*
X-43029142Y10886619D02*
X-42933904Y10839000D01*
X-42933904Y10839000D02*
X-42886285Y10791380D01*
X-42886285Y10791380D02*
X-42838666Y10696142D01*
X-42838666Y10696142D02*
X-42838666Y10553285D01*
X-42838666Y10553285D02*
X-42886285Y10458047D01*
X-42886285Y10458047D02*
X-42933904Y10410428D01*
X-42933904Y10410428D02*
X-43029142Y10362809D01*
X-43029142Y10362809D02*
X-43410094Y10362809D01*
X-42505332Y10886619D02*
X-41886285Y10886619D01*
X-41886285Y10886619D02*
X-42219618Y10505666D01*
X-42219618Y10505666D02*
X-42076761Y10505666D01*
X-42076761Y10505666D02*
X-41981523Y10458047D01*
X-41981523Y10458047D02*
X-41933904Y10410428D01*
X-41933904Y10410428D02*
X-41886285Y10315190D01*
X-41886285Y10315190D02*
X-41886285Y10077095D01*
X-41886285Y10077095D02*
X-41933904Y9981857D01*
X-41933904Y9981857D02*
X-41981523Y9934238D01*
X-41981523Y9934238D02*
X-42076761Y9886619D01*
X-42076761Y9886619D02*
X-42362475Y9886619D01*
X-42362475Y9886619D02*
X-42457713Y9934238D01*
X-42457713Y9934238D02*
X-42505332Y9981857D01*
%TO.C,R2*%
X-42838666Y10714619D02*
X-43171999Y11190809D01*
X-43410094Y10714619D02*
X-43410094Y11714619D01*
X-43410094Y11714619D02*
X-43029142Y11714619D01*
X-43029142Y11714619D02*
X-42933904Y11667000D01*
X-42933904Y11667000D02*
X-42886285Y11619380D01*
X-42886285Y11619380D02*
X-42838666Y11524142D01*
X-42838666Y11524142D02*
X-42838666Y11381285D01*
X-42838666Y11381285D02*
X-42886285Y11286047D01*
X-42886285Y11286047D02*
X-42933904Y11238428D01*
X-42933904Y11238428D02*
X-43029142Y11190809D01*
X-43029142Y11190809D02*
X-43410094Y11190809D01*
X-42457713Y11619380D02*
X-42410094Y11667000D01*
X-42410094Y11667000D02*
X-42314856Y11714619D01*
X-42314856Y11714619D02*
X-42076761Y11714619D01*
X-42076761Y11714619D02*
X-41981523Y11667000D01*
X-41981523Y11667000D02*
X-41933904Y11619380D01*
X-41933904Y11619380D02*
X-41886285Y11524142D01*
X-41886285Y11524142D02*
X-41886285Y11428904D01*
X-41886285Y11428904D02*
X-41933904Y11286047D01*
X-41933904Y11286047D02*
X-42505332Y10714619D01*
X-42505332Y10714619D02*
X-41886285Y10714619D01*
%TO.C,J6*%
X-40046619Y-15065333D02*
X-39332333Y-15065333D01*
X-39332333Y-15065333D02*
X-39189476Y-15112952D01*
X-39189476Y-15112952D02*
X-39094238Y-15208190D01*
X-39094238Y-15208190D02*
X-39046619Y-15351047D01*
X-39046619Y-15351047D02*
X-39046619Y-15446285D01*
X-40046619Y-14160571D02*
X-40046619Y-14351047D01*
X-40046619Y-14351047D02*
X-39999000Y-14446285D01*
X-39999000Y-14446285D02*
X-39951380Y-14493904D01*
X-39951380Y-14493904D02*
X-39808523Y-14589142D01*
X-39808523Y-14589142D02*
X-39618047Y-14636761D01*
X-39618047Y-14636761D02*
X-39237095Y-14636761D01*
X-39237095Y-14636761D02*
X-39141857Y-14589142D01*
X-39141857Y-14589142D02*
X-39094238Y-14541523D01*
X-39094238Y-14541523D02*
X-39046619Y-14446285D01*
X-39046619Y-14446285D02*
X-39046619Y-14255809D01*
X-39046619Y-14255809D02*
X-39094238Y-14160571D01*
X-39094238Y-14160571D02*
X-39141857Y-14112952D01*
X-39141857Y-14112952D02*
X-39237095Y-14065333D01*
X-39237095Y-14065333D02*
X-39475190Y-14065333D01*
X-39475190Y-14065333D02*
X-39570428Y-14112952D01*
X-39570428Y-14112952D02*
X-39618047Y-14160571D01*
X-39618047Y-14160571D02*
X-39665666Y-14255809D01*
X-39665666Y-14255809D02*
X-39665666Y-14446285D01*
X-39665666Y-14446285D02*
X-39618047Y-14541523D01*
X-39618047Y-14541523D02*
X-39570428Y-14589142D01*
X-39570428Y-14589142D02*
X-39475190Y-14636761D01*
%TO.C,J8*%
X21808666Y16092619D02*
X21808666Y15378333D01*
X21808666Y15378333D02*
X21761047Y15235476D01*
X21761047Y15235476D02*
X21665809Y15140238D01*
X21665809Y15140238D02*
X21522952Y15092619D01*
X21522952Y15092619D02*
X21427714Y15092619D01*
X22427714Y15664047D02*
X22332476Y15711666D01*
X22332476Y15711666D02*
X22284857Y15759285D01*
X22284857Y15759285D02*
X22237238Y15854523D01*
X22237238Y15854523D02*
X22237238Y15902142D01*
X22237238Y15902142D02*
X22284857Y15997380D01*
X22284857Y15997380D02*
X22332476Y16045000D01*
X22332476Y16045000D02*
X22427714Y16092619D01*
X22427714Y16092619D02*
X22618190Y16092619D01*
X22618190Y16092619D02*
X22713428Y16045000D01*
X22713428Y16045000D02*
X22761047Y15997380D01*
X22761047Y15997380D02*
X22808666Y15902142D01*
X22808666Y15902142D02*
X22808666Y15854523D01*
X22808666Y15854523D02*
X22761047Y15759285D01*
X22761047Y15759285D02*
X22713428Y15711666D01*
X22713428Y15711666D02*
X22618190Y15664047D01*
X22618190Y15664047D02*
X22427714Y15664047D01*
X22427714Y15664047D02*
X22332476Y15616428D01*
X22332476Y15616428D02*
X22284857Y15568809D01*
X22284857Y15568809D02*
X22237238Y15473571D01*
X22237238Y15473571D02*
X22237238Y15283095D01*
X22237238Y15283095D02*
X22284857Y15187857D01*
X22284857Y15187857D02*
X22332476Y15140238D01*
X22332476Y15140238D02*
X22427714Y15092619D01*
X22427714Y15092619D02*
X22618190Y15092619D01*
X22618190Y15092619D02*
X22713428Y15140238D01*
X22713428Y15140238D02*
X22761047Y15187857D01*
X22761047Y15187857D02*
X22808666Y15283095D01*
X22808666Y15283095D02*
X22808666Y15473571D01*
X22808666Y15473571D02*
X22761047Y15568809D01*
X22761047Y15568809D02*
X22713428Y15616428D01*
X22713428Y15616428D02*
X22618190Y15664047D01*
%TO.C,J9*%
X21554666Y-4481380D02*
X21554666Y-5195666D01*
X21554666Y-5195666D02*
X21507047Y-5338523D01*
X21507047Y-5338523D02*
X21411809Y-5433761D01*
X21411809Y-5433761D02*
X21268952Y-5481380D01*
X21268952Y-5481380D02*
X21173714Y-5481380D01*
X22078476Y-5481380D02*
X22268952Y-5481380D01*
X22268952Y-5481380D02*
X22364190Y-5433761D01*
X22364190Y-5433761D02*
X22411809Y-5386142D01*
X22411809Y-5386142D02*
X22507047Y-5243285D01*
X22507047Y-5243285D02*
X22554666Y-5052809D01*
X22554666Y-5052809D02*
X22554666Y-4671857D01*
X22554666Y-4671857D02*
X22507047Y-4576619D01*
X22507047Y-4576619D02*
X22459428Y-4529000D01*
X22459428Y-4529000D02*
X22364190Y-4481380D01*
X22364190Y-4481380D02*
X22173714Y-4481380D01*
X22173714Y-4481380D02*
X22078476Y-4529000D01*
X22078476Y-4529000D02*
X22030857Y-4576619D01*
X22030857Y-4576619D02*
X21983238Y-4671857D01*
X21983238Y-4671857D02*
X21983238Y-4909952D01*
X21983238Y-4909952D02*
X22030857Y-5005190D01*
X22030857Y-5005190D02*
X22078476Y-5052809D01*
X22078476Y-5052809D02*
X22173714Y-5100428D01*
X22173714Y-5100428D02*
X22364190Y-5100428D01*
X22364190Y-5100428D02*
X22459428Y-5052809D01*
X22459428Y-5052809D02*
X22507047Y-5005190D01*
X22507047Y-5005190D02*
X22554666Y-4909952D01*
%TO.C,J3*%
X22062666Y5678619D02*
X22062666Y4964333D01*
X22062666Y4964333D02*
X22015047Y4821476D01*
X22015047Y4821476D02*
X21919809Y4726238D01*
X21919809Y4726238D02*
X21776952Y4678619D01*
X21776952Y4678619D02*
X21681714Y4678619D01*
X22443619Y5678619D02*
X23062666Y5678619D01*
X23062666Y5678619D02*
X22729333Y5297666D01*
X22729333Y5297666D02*
X22872190Y5297666D01*
X22872190Y5297666D02*
X22967428Y5250047D01*
X22967428Y5250047D02*
X23015047Y5202428D01*
X23015047Y5202428D02*
X23062666Y5107190D01*
X23062666Y5107190D02*
X23062666Y4869095D01*
X23062666Y4869095D02*
X23015047Y4773857D01*
X23015047Y4773857D02*
X22967428Y4726238D01*
X22967428Y4726238D02*
X22872190Y4678619D01*
X22872190Y4678619D02*
X22586476Y4678619D01*
X22586476Y4678619D02*
X22491238Y4726238D01*
X22491238Y4726238D02*
X22443619Y4773857D01*
%TO.C,NT2*%
X6723143Y-4247380D02*
X6723143Y-3247380D01*
X6723143Y-3247380D02*
X7294571Y-4247380D01*
X7294571Y-4247380D02*
X7294571Y-3247380D01*
X7627905Y-3247380D02*
X8199333Y-3247380D01*
X7913619Y-4247380D02*
X7913619Y-3247380D01*
X8485048Y-3342619D02*
X8532667Y-3295000D01*
X8532667Y-3295000D02*
X8627905Y-3247380D01*
X8627905Y-3247380D02*
X8866000Y-3247380D01*
X8866000Y-3247380D02*
X8961238Y-3295000D01*
X8961238Y-3295000D02*
X9008857Y-3342619D01*
X9008857Y-3342619D02*
X9056476Y-3437857D01*
X9056476Y-3437857D02*
X9056476Y-3533095D01*
X9056476Y-3533095D02*
X9008857Y-3675952D01*
X9008857Y-3675952D02*
X8437429Y-4247380D01*
X8437429Y-4247380D02*
X9056476Y-4247380D01*
%TO.C,R15*%
X9517142Y-5225380D02*
X9183809Y-4749190D01*
X8945714Y-5225380D02*
X8945714Y-4225380D01*
X8945714Y-4225380D02*
X9326666Y-4225380D01*
X9326666Y-4225380D02*
X9421904Y-4273000D01*
X9421904Y-4273000D02*
X9469523Y-4320619D01*
X9469523Y-4320619D02*
X9517142Y-4415857D01*
X9517142Y-4415857D02*
X9517142Y-4558714D01*
X9517142Y-4558714D02*
X9469523Y-4653952D01*
X9469523Y-4653952D02*
X9421904Y-4701571D01*
X9421904Y-4701571D02*
X9326666Y-4749190D01*
X9326666Y-4749190D02*
X8945714Y-4749190D01*
X10469523Y-5225380D02*
X9898095Y-5225380D01*
X10183809Y-5225380D02*
X10183809Y-4225380D01*
X10183809Y-4225380D02*
X10088571Y-4368238D01*
X10088571Y-4368238D02*
X9993333Y-4463476D01*
X9993333Y-4463476D02*
X9898095Y-4511095D01*
X11374285Y-4225380D02*
X10898095Y-4225380D01*
X10898095Y-4225380D02*
X10850476Y-4701571D01*
X10850476Y-4701571D02*
X10898095Y-4653952D01*
X10898095Y-4653952D02*
X10993333Y-4606333D01*
X10993333Y-4606333D02*
X11231428Y-4606333D01*
X11231428Y-4606333D02*
X11326666Y-4653952D01*
X11326666Y-4653952D02*
X11374285Y-4701571D01*
X11374285Y-4701571D02*
X11421904Y-4796809D01*
X11421904Y-4796809D02*
X11421904Y-5034904D01*
X11421904Y-5034904D02*
X11374285Y-5130142D01*
X11374285Y-5130142D02*
X11326666Y-5177761D01*
X11326666Y-5177761D02*
X11231428Y-5225380D01*
X11231428Y-5225380D02*
X10993333Y-5225380D01*
X10993333Y-5225380D02*
X10898095Y-5177761D01*
X10898095Y-5177761D02*
X10850476Y-5130142D01*
%TO.C,R14*%
X9517142Y-1082380D02*
X9183809Y-606190D01*
X8945714Y-1082380D02*
X8945714Y-82380D01*
X8945714Y-82380D02*
X9326666Y-82380D01*
X9326666Y-82380D02*
X9421904Y-130000D01*
X9421904Y-130000D02*
X9469523Y-177619D01*
X9469523Y-177619D02*
X9517142Y-272857D01*
X9517142Y-272857D02*
X9517142Y-415714D01*
X9517142Y-415714D02*
X9469523Y-510952D01*
X9469523Y-510952D02*
X9421904Y-558571D01*
X9421904Y-558571D02*
X9326666Y-606190D01*
X9326666Y-606190D02*
X8945714Y-606190D01*
X10469523Y-1082380D02*
X9898095Y-1082380D01*
X10183809Y-1082380D02*
X10183809Y-82380D01*
X10183809Y-82380D02*
X10088571Y-225238D01*
X10088571Y-225238D02*
X9993333Y-320476D01*
X9993333Y-320476D02*
X9898095Y-368095D01*
X11326666Y-415714D02*
X11326666Y-1082380D01*
X11088571Y-34761D02*
X10850476Y-749047D01*
X10850476Y-749047D02*
X11469523Y-749047D01*
%TO.C,R29*%
X-26142619Y-6992857D02*
X-26618809Y-7326190D01*
X-26142619Y-7564285D02*
X-27142619Y-7564285D01*
X-27142619Y-7564285D02*
X-27142619Y-7183333D01*
X-27142619Y-7183333D02*
X-27095000Y-7088095D01*
X-27095000Y-7088095D02*
X-27047380Y-7040476D01*
X-27047380Y-7040476D02*
X-26952142Y-6992857D01*
X-26952142Y-6992857D02*
X-26809285Y-6992857D01*
X-26809285Y-6992857D02*
X-26714047Y-7040476D01*
X-26714047Y-7040476D02*
X-26666428Y-7088095D01*
X-26666428Y-7088095D02*
X-26618809Y-7183333D01*
X-26618809Y-7183333D02*
X-26618809Y-7564285D01*
X-27047380Y-6611904D02*
X-27095000Y-6564285D01*
X-27095000Y-6564285D02*
X-27142619Y-6469047D01*
X-27142619Y-6469047D02*
X-27142619Y-6230952D01*
X-27142619Y-6230952D02*
X-27095000Y-6135714D01*
X-27095000Y-6135714D02*
X-27047380Y-6088095D01*
X-27047380Y-6088095D02*
X-26952142Y-6040476D01*
X-26952142Y-6040476D02*
X-26856904Y-6040476D01*
X-26856904Y-6040476D02*
X-26714047Y-6088095D01*
X-26714047Y-6088095D02*
X-26142619Y-6659523D01*
X-26142619Y-6659523D02*
X-26142619Y-6040476D01*
X-26142619Y-5564285D02*
X-26142619Y-5373809D01*
X-26142619Y-5373809D02*
X-26190238Y-5278571D01*
X-26190238Y-5278571D02*
X-26237857Y-5230952D01*
X-26237857Y-5230952D02*
X-26380714Y-5135714D01*
X-26380714Y-5135714D02*
X-26571190Y-5088095D01*
X-26571190Y-5088095D02*
X-26952142Y-5088095D01*
X-26952142Y-5088095D02*
X-27047380Y-5135714D01*
X-27047380Y-5135714D02*
X-27095000Y-5183333D01*
X-27095000Y-5183333D02*
X-27142619Y-5278571D01*
X-27142619Y-5278571D02*
X-27142619Y-5469047D01*
X-27142619Y-5469047D02*
X-27095000Y-5564285D01*
X-27095000Y-5564285D02*
X-27047380Y-5611904D01*
X-27047380Y-5611904D02*
X-26952142Y-5659523D01*
X-26952142Y-5659523D02*
X-26714047Y-5659523D01*
X-26714047Y-5659523D02*
X-26618809Y-5611904D01*
X-26618809Y-5611904D02*
X-26571190Y-5564285D01*
X-26571190Y-5564285D02*
X-26523571Y-5469047D01*
X-26523571Y-5469047D02*
X-26523571Y-5278571D01*
X-26523571Y-5278571D02*
X-26571190Y-5183333D01*
X-26571190Y-5183333D02*
X-26618809Y-5135714D01*
X-26618809Y-5135714D02*
X-26714047Y-5088095D01*
%TO.C,R27*%
X-27478619Y-3944857D02*
X-27954809Y-4278190D01*
X-27478619Y-4516285D02*
X-28478619Y-4516285D01*
X-28478619Y-4516285D02*
X-28478619Y-4135333D01*
X-28478619Y-4135333D02*
X-28431000Y-4040095D01*
X-28431000Y-4040095D02*
X-28383380Y-3992476D01*
X-28383380Y-3992476D02*
X-28288142Y-3944857D01*
X-28288142Y-3944857D02*
X-28145285Y-3944857D01*
X-28145285Y-3944857D02*
X-28050047Y-3992476D01*
X-28050047Y-3992476D02*
X-28002428Y-4040095D01*
X-28002428Y-4040095D02*
X-27954809Y-4135333D01*
X-27954809Y-4135333D02*
X-27954809Y-4516285D01*
X-28383380Y-3563904D02*
X-28431000Y-3516285D01*
X-28431000Y-3516285D02*
X-28478619Y-3421047D01*
X-28478619Y-3421047D02*
X-28478619Y-3182952D01*
X-28478619Y-3182952D02*
X-28431000Y-3087714D01*
X-28431000Y-3087714D02*
X-28383380Y-3040095D01*
X-28383380Y-3040095D02*
X-28288142Y-2992476D01*
X-28288142Y-2992476D02*
X-28192904Y-2992476D01*
X-28192904Y-2992476D02*
X-28050047Y-3040095D01*
X-28050047Y-3040095D02*
X-27478619Y-3611523D01*
X-27478619Y-3611523D02*
X-27478619Y-2992476D01*
X-28478619Y-2659142D02*
X-28478619Y-1992476D01*
X-28478619Y-1992476D02*
X-27478619Y-2421047D01*
%TO.C,R26*%
X-26142619Y-3944857D02*
X-26618809Y-4278190D01*
X-26142619Y-4516285D02*
X-27142619Y-4516285D01*
X-27142619Y-4516285D02*
X-27142619Y-4135333D01*
X-27142619Y-4135333D02*
X-27095000Y-4040095D01*
X-27095000Y-4040095D02*
X-27047380Y-3992476D01*
X-27047380Y-3992476D02*
X-26952142Y-3944857D01*
X-26952142Y-3944857D02*
X-26809285Y-3944857D01*
X-26809285Y-3944857D02*
X-26714047Y-3992476D01*
X-26714047Y-3992476D02*
X-26666428Y-4040095D01*
X-26666428Y-4040095D02*
X-26618809Y-4135333D01*
X-26618809Y-4135333D02*
X-26618809Y-4516285D01*
X-27047380Y-3563904D02*
X-27095000Y-3516285D01*
X-27095000Y-3516285D02*
X-27142619Y-3421047D01*
X-27142619Y-3421047D02*
X-27142619Y-3182952D01*
X-27142619Y-3182952D02*
X-27095000Y-3087714D01*
X-27095000Y-3087714D02*
X-27047380Y-3040095D01*
X-27047380Y-3040095D02*
X-26952142Y-2992476D01*
X-26952142Y-2992476D02*
X-26856904Y-2992476D01*
X-26856904Y-2992476D02*
X-26714047Y-3040095D01*
X-26714047Y-3040095D02*
X-26142619Y-3611523D01*
X-26142619Y-3611523D02*
X-26142619Y-2992476D01*
X-27142619Y-2135333D02*
X-27142619Y-2325809D01*
X-27142619Y-2325809D02*
X-27095000Y-2421047D01*
X-27095000Y-2421047D02*
X-27047380Y-2468666D01*
X-27047380Y-2468666D02*
X-26904523Y-2563904D01*
X-26904523Y-2563904D02*
X-26714047Y-2611523D01*
X-26714047Y-2611523D02*
X-26333095Y-2611523D01*
X-26333095Y-2611523D02*
X-26237857Y-2563904D01*
X-26237857Y-2563904D02*
X-26190238Y-2516285D01*
X-26190238Y-2516285D02*
X-26142619Y-2421047D01*
X-26142619Y-2421047D02*
X-26142619Y-2230571D01*
X-26142619Y-2230571D02*
X-26190238Y-2135333D01*
X-26190238Y-2135333D02*
X-26237857Y-2087714D01*
X-26237857Y-2087714D02*
X-26333095Y-2040095D01*
X-26333095Y-2040095D02*
X-26571190Y-2040095D01*
X-26571190Y-2040095D02*
X-26666428Y-2087714D01*
X-26666428Y-2087714D02*
X-26714047Y-2135333D01*
X-26714047Y-2135333D02*
X-26761666Y-2230571D01*
X-26761666Y-2230571D02*
X-26761666Y-2421047D01*
X-26761666Y-2421047D02*
X-26714047Y-2516285D01*
X-26714047Y-2516285D02*
X-26666428Y-2563904D01*
X-26666428Y-2563904D02*
X-26571190Y-2611523D01*
%TO.C,R24*%
X-25954619Y-6992857D02*
X-26430809Y-7326190D01*
X-25954619Y-7564285D02*
X-26954619Y-7564285D01*
X-26954619Y-7564285D02*
X-26954619Y-7183333D01*
X-26954619Y-7183333D02*
X-26907000Y-7088095D01*
X-26907000Y-7088095D02*
X-26859380Y-7040476D01*
X-26859380Y-7040476D02*
X-26764142Y-6992857D01*
X-26764142Y-6992857D02*
X-26621285Y-6992857D01*
X-26621285Y-6992857D02*
X-26526047Y-7040476D01*
X-26526047Y-7040476D02*
X-26478428Y-7088095D01*
X-26478428Y-7088095D02*
X-26430809Y-7183333D01*
X-26430809Y-7183333D02*
X-26430809Y-7564285D01*
X-26859380Y-6611904D02*
X-26907000Y-6564285D01*
X-26907000Y-6564285D02*
X-26954619Y-6469047D01*
X-26954619Y-6469047D02*
X-26954619Y-6230952D01*
X-26954619Y-6230952D02*
X-26907000Y-6135714D01*
X-26907000Y-6135714D02*
X-26859380Y-6088095D01*
X-26859380Y-6088095D02*
X-26764142Y-6040476D01*
X-26764142Y-6040476D02*
X-26668904Y-6040476D01*
X-26668904Y-6040476D02*
X-26526047Y-6088095D01*
X-26526047Y-6088095D02*
X-25954619Y-6659523D01*
X-25954619Y-6659523D02*
X-25954619Y-6040476D01*
X-26621285Y-5183333D02*
X-25954619Y-5183333D01*
X-27002238Y-5421428D02*
X-26287952Y-5659523D01*
X-26287952Y-5659523D02*
X-26287952Y-5040476D01*
%TO.C,R23*%
X-25954619Y-3944857D02*
X-26430809Y-4278190D01*
X-25954619Y-4516285D02*
X-26954619Y-4516285D01*
X-26954619Y-4516285D02*
X-26954619Y-4135333D01*
X-26954619Y-4135333D02*
X-26907000Y-4040095D01*
X-26907000Y-4040095D02*
X-26859380Y-3992476D01*
X-26859380Y-3992476D02*
X-26764142Y-3944857D01*
X-26764142Y-3944857D02*
X-26621285Y-3944857D01*
X-26621285Y-3944857D02*
X-26526047Y-3992476D01*
X-26526047Y-3992476D02*
X-26478428Y-4040095D01*
X-26478428Y-4040095D02*
X-26430809Y-4135333D01*
X-26430809Y-4135333D02*
X-26430809Y-4516285D01*
X-26859380Y-3563904D02*
X-26907000Y-3516285D01*
X-26907000Y-3516285D02*
X-26954619Y-3421047D01*
X-26954619Y-3421047D02*
X-26954619Y-3182952D01*
X-26954619Y-3182952D02*
X-26907000Y-3087714D01*
X-26907000Y-3087714D02*
X-26859380Y-3040095D01*
X-26859380Y-3040095D02*
X-26764142Y-2992476D01*
X-26764142Y-2992476D02*
X-26668904Y-2992476D01*
X-26668904Y-2992476D02*
X-26526047Y-3040095D01*
X-26526047Y-3040095D02*
X-25954619Y-3611523D01*
X-25954619Y-3611523D02*
X-25954619Y-2992476D01*
X-26954619Y-2659142D02*
X-26954619Y-2040095D01*
X-26954619Y-2040095D02*
X-26573666Y-2373428D01*
X-26573666Y-2373428D02*
X-26573666Y-2230571D01*
X-26573666Y-2230571D02*
X-26526047Y-2135333D01*
X-26526047Y-2135333D02*
X-26478428Y-2087714D01*
X-26478428Y-2087714D02*
X-26383190Y-2040095D01*
X-26383190Y-2040095D02*
X-26145095Y-2040095D01*
X-26145095Y-2040095D02*
X-26049857Y-2087714D01*
X-26049857Y-2087714D02*
X-26002238Y-2135333D01*
X-26002238Y-2135333D02*
X-25954619Y-2230571D01*
X-25954619Y-2230571D02*
X-25954619Y-2516285D01*
X-25954619Y-2516285D02*
X-26002238Y-2611523D01*
X-26002238Y-2611523D02*
X-26049857Y-2659142D01*
%TO.C,R20*%
X5453142Y15032619D02*
X5119809Y15508809D01*
X4881714Y15032619D02*
X4881714Y16032619D01*
X4881714Y16032619D02*
X5262666Y16032619D01*
X5262666Y16032619D02*
X5357904Y15985000D01*
X5357904Y15985000D02*
X5405523Y15937380D01*
X5405523Y15937380D02*
X5453142Y15842142D01*
X5453142Y15842142D02*
X5453142Y15699285D01*
X5453142Y15699285D02*
X5405523Y15604047D01*
X5405523Y15604047D02*
X5357904Y15556428D01*
X5357904Y15556428D02*
X5262666Y15508809D01*
X5262666Y15508809D02*
X4881714Y15508809D01*
X5834095Y15937380D02*
X5881714Y15985000D01*
X5881714Y15985000D02*
X5976952Y16032619D01*
X5976952Y16032619D02*
X6215047Y16032619D01*
X6215047Y16032619D02*
X6310285Y15985000D01*
X6310285Y15985000D02*
X6357904Y15937380D01*
X6357904Y15937380D02*
X6405523Y15842142D01*
X6405523Y15842142D02*
X6405523Y15746904D01*
X6405523Y15746904D02*
X6357904Y15604047D01*
X6357904Y15604047D02*
X5786476Y15032619D01*
X5786476Y15032619D02*
X6405523Y15032619D01*
X7024571Y16032619D02*
X7119809Y16032619D01*
X7119809Y16032619D02*
X7215047Y15985000D01*
X7215047Y15985000D02*
X7262666Y15937380D01*
X7262666Y15937380D02*
X7310285Y15842142D01*
X7310285Y15842142D02*
X7357904Y15651666D01*
X7357904Y15651666D02*
X7357904Y15413571D01*
X7357904Y15413571D02*
X7310285Y15223095D01*
X7310285Y15223095D02*
X7262666Y15127857D01*
X7262666Y15127857D02*
X7215047Y15080238D01*
X7215047Y15080238D02*
X7119809Y15032619D01*
X7119809Y15032619D02*
X7024571Y15032619D01*
X7024571Y15032619D02*
X6929333Y15080238D01*
X6929333Y15080238D02*
X6881714Y15127857D01*
X6881714Y15127857D02*
X6834095Y15223095D01*
X6834095Y15223095D02*
X6786476Y15413571D01*
X6786476Y15413571D02*
X6786476Y15651666D01*
X6786476Y15651666D02*
X6834095Y15842142D01*
X6834095Y15842142D02*
X6881714Y15937380D01*
X6881714Y15937380D02*
X6929333Y15985000D01*
X6929333Y15985000D02*
X7024571Y16032619D01*
%TO.C,R19*%
X-4262857Y15032619D02*
X-4596190Y15508809D01*
X-4834285Y15032619D02*
X-4834285Y16032619D01*
X-4834285Y16032619D02*
X-4453333Y16032619D01*
X-4453333Y16032619D02*
X-4358095Y15985000D01*
X-4358095Y15985000D02*
X-4310476Y15937380D01*
X-4310476Y15937380D02*
X-4262857Y15842142D01*
X-4262857Y15842142D02*
X-4262857Y15699285D01*
X-4262857Y15699285D02*
X-4310476Y15604047D01*
X-4310476Y15604047D02*
X-4358095Y15556428D01*
X-4358095Y15556428D02*
X-4453333Y15508809D01*
X-4453333Y15508809D02*
X-4834285Y15508809D01*
X-3310476Y15032619D02*
X-3881904Y15032619D01*
X-3596190Y15032619D02*
X-3596190Y16032619D01*
X-3596190Y16032619D02*
X-3691428Y15889761D01*
X-3691428Y15889761D02*
X-3786666Y15794523D01*
X-3786666Y15794523D02*
X-3881904Y15746904D01*
X-2834285Y15032619D02*
X-2643809Y15032619D01*
X-2643809Y15032619D02*
X-2548571Y15080238D01*
X-2548571Y15080238D02*
X-2500952Y15127857D01*
X-2500952Y15127857D02*
X-2405714Y15270714D01*
X-2405714Y15270714D02*
X-2358095Y15461190D01*
X-2358095Y15461190D02*
X-2358095Y15842142D01*
X-2358095Y15842142D02*
X-2405714Y15937380D01*
X-2405714Y15937380D02*
X-2453333Y15985000D01*
X-2453333Y15985000D02*
X-2548571Y16032619D01*
X-2548571Y16032619D02*
X-2739047Y16032619D01*
X-2739047Y16032619D02*
X-2834285Y15985000D01*
X-2834285Y15985000D02*
X-2881904Y15937380D01*
X-2881904Y15937380D02*
X-2929523Y15842142D01*
X-2929523Y15842142D02*
X-2929523Y15604047D01*
X-2929523Y15604047D02*
X-2881904Y15508809D01*
X-2881904Y15508809D02*
X-2834285Y15461190D01*
X-2834285Y15461190D02*
X-2739047Y15413571D01*
X-2739047Y15413571D02*
X-2548571Y15413571D01*
X-2548571Y15413571D02*
X-2453333Y15461190D01*
X-2453333Y15461190D02*
X-2405714Y15508809D01*
X-2405714Y15508809D02*
X-2358095Y15604047D01*
%TO.C,R18*%
X1833142Y12172619D02*
X1499809Y12648809D01*
X1261714Y12172619D02*
X1261714Y13172619D01*
X1261714Y13172619D02*
X1642666Y13172619D01*
X1642666Y13172619D02*
X1737904Y13125000D01*
X1737904Y13125000D02*
X1785523Y13077380D01*
X1785523Y13077380D02*
X1833142Y12982142D01*
X1833142Y12982142D02*
X1833142Y12839285D01*
X1833142Y12839285D02*
X1785523Y12744047D01*
X1785523Y12744047D02*
X1737904Y12696428D01*
X1737904Y12696428D02*
X1642666Y12648809D01*
X1642666Y12648809D02*
X1261714Y12648809D01*
X2785523Y12172619D02*
X2214095Y12172619D01*
X2499809Y12172619D02*
X2499809Y13172619D01*
X2499809Y13172619D02*
X2404571Y13029761D01*
X2404571Y13029761D02*
X2309333Y12934523D01*
X2309333Y12934523D02*
X2214095Y12886904D01*
X3356952Y12744047D02*
X3261714Y12791666D01*
X3261714Y12791666D02*
X3214095Y12839285D01*
X3214095Y12839285D02*
X3166476Y12934523D01*
X3166476Y12934523D02*
X3166476Y12982142D01*
X3166476Y12982142D02*
X3214095Y13077380D01*
X3214095Y13077380D02*
X3261714Y13125000D01*
X3261714Y13125000D02*
X3356952Y13172619D01*
X3356952Y13172619D02*
X3547428Y13172619D01*
X3547428Y13172619D02*
X3642666Y13125000D01*
X3642666Y13125000D02*
X3690285Y13077380D01*
X3690285Y13077380D02*
X3737904Y12982142D01*
X3737904Y12982142D02*
X3737904Y12934523D01*
X3737904Y12934523D02*
X3690285Y12839285D01*
X3690285Y12839285D02*
X3642666Y12791666D01*
X3642666Y12791666D02*
X3547428Y12744047D01*
X3547428Y12744047D02*
X3356952Y12744047D01*
X3356952Y12744047D02*
X3261714Y12696428D01*
X3261714Y12696428D02*
X3214095Y12648809D01*
X3214095Y12648809D02*
X3166476Y12553571D01*
X3166476Y12553571D02*
X3166476Y12363095D01*
X3166476Y12363095D02*
X3214095Y12267857D01*
X3214095Y12267857D02*
X3261714Y12220238D01*
X3261714Y12220238D02*
X3356952Y12172619D01*
X3356952Y12172619D02*
X3547428Y12172619D01*
X3547428Y12172619D02*
X3642666Y12220238D01*
X3642666Y12220238D02*
X3690285Y12267857D01*
X3690285Y12267857D02*
X3737904Y12363095D01*
X3737904Y12363095D02*
X3737904Y12553571D01*
X3737904Y12553571D02*
X3690285Y12648809D01*
X3690285Y12648809D02*
X3642666Y12696428D01*
X3642666Y12696428D02*
X3547428Y12744047D01*
%TO.C,R17*%
X-7627857Y12172619D02*
X-7961190Y12648809D01*
X-8199285Y12172619D02*
X-8199285Y13172619D01*
X-8199285Y13172619D02*
X-7818333Y13172619D01*
X-7818333Y13172619D02*
X-7723095Y13125000D01*
X-7723095Y13125000D02*
X-7675476Y13077380D01*
X-7675476Y13077380D02*
X-7627857Y12982142D01*
X-7627857Y12982142D02*
X-7627857Y12839285D01*
X-7627857Y12839285D02*
X-7675476Y12744047D01*
X-7675476Y12744047D02*
X-7723095Y12696428D01*
X-7723095Y12696428D02*
X-7818333Y12648809D01*
X-7818333Y12648809D02*
X-8199285Y12648809D01*
X-6675476Y12172619D02*
X-7246904Y12172619D01*
X-6961190Y12172619D02*
X-6961190Y13172619D01*
X-6961190Y13172619D02*
X-7056428Y13029761D01*
X-7056428Y13029761D02*
X-7151666Y12934523D01*
X-7151666Y12934523D02*
X-7246904Y12886904D01*
X-6342142Y13172619D02*
X-5675476Y13172619D01*
X-5675476Y13172619D02*
X-6104047Y12172619D01*
%TO.C,R12*%
X3367142Y5132619D02*
X3033809Y5608809D01*
X2795714Y5132619D02*
X2795714Y6132619D01*
X2795714Y6132619D02*
X3176666Y6132619D01*
X3176666Y6132619D02*
X3271904Y6085000D01*
X3271904Y6085000D02*
X3319523Y6037380D01*
X3319523Y6037380D02*
X3367142Y5942142D01*
X3367142Y5942142D02*
X3367142Y5799285D01*
X3367142Y5799285D02*
X3319523Y5704047D01*
X3319523Y5704047D02*
X3271904Y5656428D01*
X3271904Y5656428D02*
X3176666Y5608809D01*
X3176666Y5608809D02*
X2795714Y5608809D01*
X4319523Y5132619D02*
X3748095Y5132619D01*
X4033809Y5132619D02*
X4033809Y6132619D01*
X4033809Y6132619D02*
X3938571Y5989761D01*
X3938571Y5989761D02*
X3843333Y5894523D01*
X3843333Y5894523D02*
X3748095Y5846904D01*
X4700476Y6037380D02*
X4748095Y6085000D01*
X4748095Y6085000D02*
X4843333Y6132619D01*
X4843333Y6132619D02*
X5081428Y6132619D01*
X5081428Y6132619D02*
X5176666Y6085000D01*
X5176666Y6085000D02*
X5224285Y6037380D01*
X5224285Y6037380D02*
X5271904Y5942142D01*
X5271904Y5942142D02*
X5271904Y5846904D01*
X5271904Y5846904D02*
X5224285Y5704047D01*
X5224285Y5704047D02*
X4652857Y5132619D01*
X4652857Y5132619D02*
X5271904Y5132619D01*
%TO.C,R11*%
X-4642857Y4872619D02*
X-4976190Y5348809D01*
X-5214285Y4872619D02*
X-5214285Y5872619D01*
X-5214285Y5872619D02*
X-4833333Y5872619D01*
X-4833333Y5872619D02*
X-4738095Y5825000D01*
X-4738095Y5825000D02*
X-4690476Y5777380D01*
X-4690476Y5777380D02*
X-4642857Y5682142D01*
X-4642857Y5682142D02*
X-4642857Y5539285D01*
X-4642857Y5539285D02*
X-4690476Y5444047D01*
X-4690476Y5444047D02*
X-4738095Y5396428D01*
X-4738095Y5396428D02*
X-4833333Y5348809D01*
X-4833333Y5348809D02*
X-5214285Y5348809D01*
X-3690476Y4872619D02*
X-4261904Y4872619D01*
X-3976190Y4872619D02*
X-3976190Y5872619D01*
X-3976190Y5872619D02*
X-4071428Y5729761D01*
X-4071428Y5729761D02*
X-4166666Y5634523D01*
X-4166666Y5634523D02*
X-4261904Y5586904D01*
X-2738095Y4872619D02*
X-3309523Y4872619D01*
X-3023809Y4872619D02*
X-3023809Y5872619D01*
X-3023809Y5872619D02*
X-3119047Y5729761D01*
X-3119047Y5729761D02*
X-3214285Y5634523D01*
X-3214285Y5634523D02*
X-3309523Y5586904D01*
%TO.C,R4*%
X468333Y2012619D02*
X135000Y2488809D01*
X-103094Y2012619D02*
X-103094Y3012619D01*
X-103094Y3012619D02*
X277857Y3012619D01*
X277857Y3012619D02*
X373095Y2965000D01*
X373095Y2965000D02*
X420714Y2917380D01*
X420714Y2917380D02*
X468333Y2822142D01*
X468333Y2822142D02*
X468333Y2679285D01*
X468333Y2679285D02*
X420714Y2584047D01*
X420714Y2584047D02*
X373095Y2536428D01*
X373095Y2536428D02*
X277857Y2488809D01*
X277857Y2488809D02*
X-103094Y2488809D01*
X1325476Y2679285D02*
X1325476Y2012619D01*
X1087381Y3060238D02*
X849286Y2345952D01*
X849286Y2345952D02*
X1468333Y2345952D01*
%TO.C,R1*%
X-7786666Y2012619D02*
X-8119999Y2488809D01*
X-8358094Y2012619D02*
X-8358094Y3012619D01*
X-8358094Y3012619D02*
X-7977142Y3012619D01*
X-7977142Y3012619D02*
X-7881904Y2965000D01*
X-7881904Y2965000D02*
X-7834285Y2917380D01*
X-7834285Y2917380D02*
X-7786666Y2822142D01*
X-7786666Y2822142D02*
X-7786666Y2679285D01*
X-7786666Y2679285D02*
X-7834285Y2584047D01*
X-7834285Y2584047D02*
X-7881904Y2536428D01*
X-7881904Y2536428D02*
X-7977142Y2488809D01*
X-7977142Y2488809D02*
X-8358094Y2488809D01*
X-6834285Y2012619D02*
X-7405713Y2012619D01*
X-7119999Y2012619D02*
X-7119999Y3012619D01*
X-7119999Y3012619D02*
X-7215237Y2869761D01*
X-7215237Y2869761D02*
X-7310475Y2774523D01*
X-7310475Y2774523D02*
X-7405713Y2726904D01*
%TO.C,Q6*%
X2444761Y6062380D02*
X2349523Y6110000D01*
X2349523Y6110000D02*
X2254285Y6205238D01*
X2254285Y6205238D02*
X2111428Y6348095D01*
X2111428Y6348095D02*
X2016190Y6395714D01*
X2016190Y6395714D02*
X1920952Y6395714D01*
X1968571Y6157619D02*
X1873333Y6205238D01*
X1873333Y6205238D02*
X1778095Y6300476D01*
X1778095Y6300476D02*
X1730476Y6490952D01*
X1730476Y6490952D02*
X1730476Y6824285D01*
X1730476Y6824285D02*
X1778095Y7014761D01*
X1778095Y7014761D02*
X1873333Y7110000D01*
X1873333Y7110000D02*
X1968571Y7157619D01*
X1968571Y7157619D02*
X2159047Y7157619D01*
X2159047Y7157619D02*
X2254285Y7110000D01*
X2254285Y7110000D02*
X2349523Y7014761D01*
X2349523Y7014761D02*
X2397142Y6824285D01*
X2397142Y6824285D02*
X2397142Y6490952D01*
X2397142Y6490952D02*
X2349523Y6300476D01*
X2349523Y6300476D02*
X2254285Y6205238D01*
X2254285Y6205238D02*
X2159047Y6157619D01*
X2159047Y6157619D02*
X1968571Y6157619D01*
X3254285Y7157619D02*
X3063809Y7157619D01*
X3063809Y7157619D02*
X2968571Y7110000D01*
X2968571Y7110000D02*
X2920952Y7062380D01*
X2920952Y7062380D02*
X2825714Y6919523D01*
X2825714Y6919523D02*
X2778095Y6729047D01*
X2778095Y6729047D02*
X2778095Y6348095D01*
X2778095Y6348095D02*
X2825714Y6252857D01*
X2825714Y6252857D02*
X2873333Y6205238D01*
X2873333Y6205238D02*
X2968571Y6157619D01*
X2968571Y6157619D02*
X3159047Y6157619D01*
X3159047Y6157619D02*
X3254285Y6205238D01*
X3254285Y6205238D02*
X3301904Y6252857D01*
X3301904Y6252857D02*
X3349523Y6348095D01*
X3349523Y6348095D02*
X3349523Y6586190D01*
X3349523Y6586190D02*
X3301904Y6681428D01*
X3301904Y6681428D02*
X3254285Y6729047D01*
X3254285Y6729047D02*
X3159047Y6776666D01*
X3159047Y6776666D02*
X2968571Y6776666D01*
X2968571Y6776666D02*
X2873333Y6729047D01*
X2873333Y6729047D02*
X2825714Y6681428D01*
X2825714Y6681428D02*
X2778095Y6586190D01*
%TO.C,Q5*%
X-7699238Y6062380D02*
X-7794476Y6110000D01*
X-7794476Y6110000D02*
X-7889714Y6205238D01*
X-7889714Y6205238D02*
X-8032571Y6348095D01*
X-8032571Y6348095D02*
X-8127809Y6395714D01*
X-8127809Y6395714D02*
X-8223047Y6395714D01*
X-8175428Y6157619D02*
X-8270666Y6205238D01*
X-8270666Y6205238D02*
X-8365904Y6300476D01*
X-8365904Y6300476D02*
X-8413523Y6490952D01*
X-8413523Y6490952D02*
X-8413523Y6824285D01*
X-8413523Y6824285D02*
X-8365904Y7014761D01*
X-8365904Y7014761D02*
X-8270666Y7110000D01*
X-8270666Y7110000D02*
X-8175428Y7157619D01*
X-8175428Y7157619D02*
X-7984952Y7157619D01*
X-7984952Y7157619D02*
X-7889714Y7110000D01*
X-7889714Y7110000D02*
X-7794476Y7014761D01*
X-7794476Y7014761D02*
X-7746857Y6824285D01*
X-7746857Y6824285D02*
X-7746857Y6490952D01*
X-7746857Y6490952D02*
X-7794476Y6300476D01*
X-7794476Y6300476D02*
X-7889714Y6205238D01*
X-7889714Y6205238D02*
X-7984952Y6157619D01*
X-7984952Y6157619D02*
X-8175428Y6157619D01*
X-6842095Y7157619D02*
X-7318285Y7157619D01*
X-7318285Y7157619D02*
X-7365904Y6681428D01*
X-7365904Y6681428D02*
X-7318285Y6729047D01*
X-7318285Y6729047D02*
X-7223047Y6776666D01*
X-7223047Y6776666D02*
X-6984952Y6776666D01*
X-6984952Y6776666D02*
X-6889714Y6729047D01*
X-6889714Y6729047D02*
X-6842095Y6681428D01*
X-6842095Y6681428D02*
X-6794476Y6586190D01*
X-6794476Y6586190D02*
X-6794476Y6348095D01*
X-6794476Y6348095D02*
X-6842095Y6252857D01*
X-6842095Y6252857D02*
X-6889714Y6205238D01*
X-6889714Y6205238D02*
X-6984952Y6157619D01*
X-6984952Y6157619D02*
X-7223047Y6157619D01*
X-7223047Y6157619D02*
X-7318285Y6205238D01*
X-7318285Y6205238D02*
X-7365904Y6252857D01*
%TO.C,Q4*%
X2476761Y-4192619D02*
X2381523Y-4145000D01*
X2381523Y-4145000D02*
X2286285Y-4049761D01*
X2286285Y-4049761D02*
X2143428Y-3906904D01*
X2143428Y-3906904D02*
X2048190Y-3859285D01*
X2048190Y-3859285D02*
X1952952Y-3859285D01*
X2000571Y-4097380D02*
X1905333Y-4049761D01*
X1905333Y-4049761D02*
X1810095Y-3954523D01*
X1810095Y-3954523D02*
X1762476Y-3764047D01*
X1762476Y-3764047D02*
X1762476Y-3430714D01*
X1762476Y-3430714D02*
X1810095Y-3240238D01*
X1810095Y-3240238D02*
X1905333Y-3145000D01*
X1905333Y-3145000D02*
X2000571Y-3097380D01*
X2000571Y-3097380D02*
X2191047Y-3097380D01*
X2191047Y-3097380D02*
X2286285Y-3145000D01*
X2286285Y-3145000D02*
X2381523Y-3240238D01*
X2381523Y-3240238D02*
X2429142Y-3430714D01*
X2429142Y-3430714D02*
X2429142Y-3764047D01*
X2429142Y-3764047D02*
X2381523Y-3954523D01*
X2381523Y-3954523D02*
X2286285Y-4049761D01*
X2286285Y-4049761D02*
X2191047Y-4097380D01*
X2191047Y-4097380D02*
X2000571Y-4097380D01*
X3286285Y-3430714D02*
X3286285Y-4097380D01*
X3048190Y-3049761D02*
X2810095Y-3764047D01*
X2810095Y-3764047D02*
X3429142Y-3764047D01*
%TO.C,Q3*%
X-7683238Y-4097619D02*
X-7778476Y-4050000D01*
X-7778476Y-4050000D02*
X-7873714Y-3954761D01*
X-7873714Y-3954761D02*
X-8016571Y-3811904D01*
X-8016571Y-3811904D02*
X-8111809Y-3764285D01*
X-8111809Y-3764285D02*
X-8207047Y-3764285D01*
X-8159428Y-4002380D02*
X-8254666Y-3954761D01*
X-8254666Y-3954761D02*
X-8349904Y-3859523D01*
X-8349904Y-3859523D02*
X-8397523Y-3669047D01*
X-8397523Y-3669047D02*
X-8397523Y-3335714D01*
X-8397523Y-3335714D02*
X-8349904Y-3145238D01*
X-8349904Y-3145238D02*
X-8254666Y-3050000D01*
X-8254666Y-3050000D02*
X-8159428Y-3002380D01*
X-8159428Y-3002380D02*
X-7968952Y-3002380D01*
X-7968952Y-3002380D02*
X-7873714Y-3050000D01*
X-7873714Y-3050000D02*
X-7778476Y-3145238D01*
X-7778476Y-3145238D02*
X-7730857Y-3335714D01*
X-7730857Y-3335714D02*
X-7730857Y-3669047D01*
X-7730857Y-3669047D02*
X-7778476Y-3859523D01*
X-7778476Y-3859523D02*
X-7873714Y-3954761D01*
X-7873714Y-3954761D02*
X-7968952Y-4002380D01*
X-7968952Y-4002380D02*
X-8159428Y-4002380D01*
X-7397523Y-3002380D02*
X-6778476Y-3002380D01*
X-6778476Y-3002380D02*
X-7111809Y-3383333D01*
X-7111809Y-3383333D02*
X-6968952Y-3383333D01*
X-6968952Y-3383333D02*
X-6873714Y-3430952D01*
X-6873714Y-3430952D02*
X-6826095Y-3478571D01*
X-6826095Y-3478571D02*
X-6778476Y-3573809D01*
X-6778476Y-3573809D02*
X-6778476Y-3811904D01*
X-6778476Y-3811904D02*
X-6826095Y-3907142D01*
X-6826095Y-3907142D02*
X-6873714Y-3954761D01*
X-6873714Y-3954761D02*
X-6968952Y-4002380D01*
X-6968952Y-4002380D02*
X-7254666Y-4002380D01*
X-7254666Y-4002380D02*
X-7349904Y-3954761D01*
X-7349904Y-3954761D02*
X-7397523Y-3907142D01*
%TO.C,D12*%
X1261714Y17357619D02*
X1261714Y18357619D01*
X1261714Y18357619D02*
X1499809Y18357619D01*
X1499809Y18357619D02*
X1642666Y18310000D01*
X1642666Y18310000D02*
X1737904Y18214761D01*
X1737904Y18214761D02*
X1785523Y18119523D01*
X1785523Y18119523D02*
X1833142Y17929047D01*
X1833142Y17929047D02*
X1833142Y17786190D01*
X1833142Y17786190D02*
X1785523Y17595714D01*
X1785523Y17595714D02*
X1737904Y17500476D01*
X1737904Y17500476D02*
X1642666Y17405238D01*
X1642666Y17405238D02*
X1499809Y17357619D01*
X1499809Y17357619D02*
X1261714Y17357619D01*
X2785523Y17357619D02*
X2214095Y17357619D01*
X2499809Y17357619D02*
X2499809Y18357619D01*
X2499809Y18357619D02*
X2404571Y18214761D01*
X2404571Y18214761D02*
X2309333Y18119523D01*
X2309333Y18119523D02*
X2214095Y18071904D01*
X3166476Y18262380D02*
X3214095Y18310000D01*
X3214095Y18310000D02*
X3309333Y18357619D01*
X3309333Y18357619D02*
X3547428Y18357619D01*
X3547428Y18357619D02*
X3642666Y18310000D01*
X3642666Y18310000D02*
X3690285Y18262380D01*
X3690285Y18262380D02*
X3737904Y18167142D01*
X3737904Y18167142D02*
X3737904Y18071904D01*
X3737904Y18071904D02*
X3690285Y17929047D01*
X3690285Y17929047D02*
X3118857Y17357619D01*
X3118857Y17357619D02*
X3737904Y17357619D01*
%TO.C,D11*%
X-8199285Y17357619D02*
X-8199285Y18357619D01*
X-8199285Y18357619D02*
X-7961190Y18357619D01*
X-7961190Y18357619D02*
X-7818333Y18310000D01*
X-7818333Y18310000D02*
X-7723095Y18214761D01*
X-7723095Y18214761D02*
X-7675476Y18119523D01*
X-7675476Y18119523D02*
X-7627857Y17929047D01*
X-7627857Y17929047D02*
X-7627857Y17786190D01*
X-7627857Y17786190D02*
X-7675476Y17595714D01*
X-7675476Y17595714D02*
X-7723095Y17500476D01*
X-7723095Y17500476D02*
X-7818333Y17405238D01*
X-7818333Y17405238D02*
X-7961190Y17357619D01*
X-7961190Y17357619D02*
X-8199285Y17357619D01*
X-6675476Y17357619D02*
X-7246904Y17357619D01*
X-6961190Y17357619D02*
X-6961190Y18357619D01*
X-6961190Y18357619D02*
X-7056428Y18214761D01*
X-7056428Y18214761D02*
X-7151666Y18119523D01*
X-7151666Y18119523D02*
X-7246904Y18071904D01*
X-5723095Y17357619D02*
X-6294523Y17357619D01*
X-6008809Y17357619D02*
X-6008809Y18357619D01*
X-6008809Y18357619D02*
X-6104047Y18214761D01*
X-6104047Y18214761D02*
X-6199285Y18119523D01*
X-6199285Y18119523D02*
X-6294523Y18071904D01*
%TO.C,D10*%
X-579285Y7197619D02*
X-579285Y8197619D01*
X-579285Y8197619D02*
X-341190Y8197619D01*
X-341190Y8197619D02*
X-198333Y8150000D01*
X-198333Y8150000D02*
X-103095Y8054761D01*
X-103095Y8054761D02*
X-55476Y7959523D01*
X-55476Y7959523D02*
X-7857Y7769047D01*
X-7857Y7769047D02*
X-7857Y7626190D01*
X-7857Y7626190D02*
X-55476Y7435714D01*
X-55476Y7435714D02*
X-103095Y7340476D01*
X-103095Y7340476D02*
X-198333Y7245238D01*
X-198333Y7245238D02*
X-341190Y7197619D01*
X-341190Y7197619D02*
X-579285Y7197619D01*
X944523Y7197619D02*
X373095Y7197619D01*
X658809Y7197619D02*
X658809Y8197619D01*
X658809Y8197619D02*
X563571Y8054761D01*
X563571Y8054761D02*
X468333Y7959523D01*
X468333Y7959523D02*
X373095Y7911904D01*
X1563571Y8197619D02*
X1658809Y8197619D01*
X1658809Y8197619D02*
X1754047Y8150000D01*
X1754047Y8150000D02*
X1801666Y8102380D01*
X1801666Y8102380D02*
X1849285Y8007142D01*
X1849285Y8007142D02*
X1896904Y7816666D01*
X1896904Y7816666D02*
X1896904Y7578571D01*
X1896904Y7578571D02*
X1849285Y7388095D01*
X1849285Y7388095D02*
X1801666Y7292857D01*
X1801666Y7292857D02*
X1754047Y7245238D01*
X1754047Y7245238D02*
X1658809Y7197619D01*
X1658809Y7197619D02*
X1563571Y7197619D01*
X1563571Y7197619D02*
X1468333Y7245238D01*
X1468333Y7245238D02*
X1420714Y7292857D01*
X1420714Y7292857D02*
X1373095Y7388095D01*
X1373095Y7388095D02*
X1325476Y7578571D01*
X1325476Y7578571D02*
X1325476Y7816666D01*
X1325476Y7816666D02*
X1373095Y8007142D01*
X1373095Y8007142D02*
X1420714Y8102380D01*
X1420714Y8102380D02*
X1468333Y8150000D01*
X1468333Y8150000D02*
X1563571Y8197619D01*
%TO.C,D1*%
X-8358094Y7197619D02*
X-8358094Y8197619D01*
X-8358094Y8197619D02*
X-8119999Y8197619D01*
X-8119999Y8197619D02*
X-7977142Y8150000D01*
X-7977142Y8150000D02*
X-7881904Y8054761D01*
X-7881904Y8054761D02*
X-7834285Y7959523D01*
X-7834285Y7959523D02*
X-7786666Y7769047D01*
X-7786666Y7769047D02*
X-7786666Y7626190D01*
X-7786666Y7626190D02*
X-7834285Y7435714D01*
X-7834285Y7435714D02*
X-7881904Y7340476D01*
X-7881904Y7340476D02*
X-7977142Y7245238D01*
X-7977142Y7245238D02*
X-8119999Y7197619D01*
X-8119999Y7197619D02*
X-8358094Y7197619D01*
X-6834285Y7197619D02*
X-7405713Y7197619D01*
X-7119999Y7197619D02*
X-7119999Y8197619D01*
X-7119999Y8197619D02*
X-7215237Y8054761D01*
X-7215237Y8054761D02*
X-7310475Y7959523D01*
X-7310475Y7959523D02*
X-7405713Y7911904D01*
%TO.C,C29*%
X-24713857Y-6992857D02*
X-24666238Y-7040476D01*
X-24666238Y-7040476D02*
X-24618619Y-7183333D01*
X-24618619Y-7183333D02*
X-24618619Y-7278571D01*
X-24618619Y-7278571D02*
X-24666238Y-7421428D01*
X-24666238Y-7421428D02*
X-24761476Y-7516666D01*
X-24761476Y-7516666D02*
X-24856714Y-7564285D01*
X-24856714Y-7564285D02*
X-25047190Y-7611904D01*
X-25047190Y-7611904D02*
X-25190047Y-7611904D01*
X-25190047Y-7611904D02*
X-25380523Y-7564285D01*
X-25380523Y-7564285D02*
X-25475761Y-7516666D01*
X-25475761Y-7516666D02*
X-25571000Y-7421428D01*
X-25571000Y-7421428D02*
X-25618619Y-7278571D01*
X-25618619Y-7278571D02*
X-25618619Y-7183333D01*
X-25618619Y-7183333D02*
X-25571000Y-7040476D01*
X-25571000Y-7040476D02*
X-25523380Y-6992857D01*
X-25523380Y-6611904D02*
X-25571000Y-6564285D01*
X-25571000Y-6564285D02*
X-25618619Y-6469047D01*
X-25618619Y-6469047D02*
X-25618619Y-6230952D01*
X-25618619Y-6230952D02*
X-25571000Y-6135714D01*
X-25571000Y-6135714D02*
X-25523380Y-6088095D01*
X-25523380Y-6088095D02*
X-25428142Y-6040476D01*
X-25428142Y-6040476D02*
X-25332904Y-6040476D01*
X-25332904Y-6040476D02*
X-25190047Y-6088095D01*
X-25190047Y-6088095D02*
X-24618619Y-6659523D01*
X-24618619Y-6659523D02*
X-24618619Y-6040476D01*
X-24618619Y-5564285D02*
X-24618619Y-5373809D01*
X-24618619Y-5373809D02*
X-24666238Y-5278571D01*
X-24666238Y-5278571D02*
X-24713857Y-5230952D01*
X-24713857Y-5230952D02*
X-24856714Y-5135714D01*
X-24856714Y-5135714D02*
X-25047190Y-5088095D01*
X-25047190Y-5088095D02*
X-25428142Y-5088095D01*
X-25428142Y-5088095D02*
X-25523380Y-5135714D01*
X-25523380Y-5135714D02*
X-25571000Y-5183333D01*
X-25571000Y-5183333D02*
X-25618619Y-5278571D01*
X-25618619Y-5278571D02*
X-25618619Y-5469047D01*
X-25618619Y-5469047D02*
X-25571000Y-5564285D01*
X-25571000Y-5564285D02*
X-25523380Y-5611904D01*
X-25523380Y-5611904D02*
X-25428142Y-5659523D01*
X-25428142Y-5659523D02*
X-25190047Y-5659523D01*
X-25190047Y-5659523D02*
X-25094809Y-5611904D01*
X-25094809Y-5611904D02*
X-25047190Y-5564285D01*
X-25047190Y-5564285D02*
X-24999571Y-5469047D01*
X-24999571Y-5469047D02*
X-24999571Y-5278571D01*
X-24999571Y-5278571D02*
X-25047190Y-5183333D01*
X-25047190Y-5183333D02*
X-25094809Y-5135714D01*
X-25094809Y-5135714D02*
X-25190047Y-5088095D01*
%TO.C,C28*%
X6016142Y19423142D02*
X6063761Y19375523D01*
X6063761Y19375523D02*
X6111380Y19232666D01*
X6111380Y19232666D02*
X6111380Y19137428D01*
X6111380Y19137428D02*
X6063761Y18994571D01*
X6063761Y18994571D02*
X5968523Y18899333D01*
X5968523Y18899333D02*
X5873285Y18851714D01*
X5873285Y18851714D02*
X5682809Y18804095D01*
X5682809Y18804095D02*
X5539952Y18804095D01*
X5539952Y18804095D02*
X5349476Y18851714D01*
X5349476Y18851714D02*
X5254238Y18899333D01*
X5254238Y18899333D02*
X5159000Y18994571D01*
X5159000Y18994571D02*
X5111380Y19137428D01*
X5111380Y19137428D02*
X5111380Y19232666D01*
X5111380Y19232666D02*
X5159000Y19375523D01*
X5159000Y19375523D02*
X5206619Y19423142D01*
X5206619Y19804095D02*
X5159000Y19851714D01*
X5159000Y19851714D02*
X5111380Y19946952D01*
X5111380Y19946952D02*
X5111380Y20185047D01*
X5111380Y20185047D02*
X5159000Y20280285D01*
X5159000Y20280285D02*
X5206619Y20327904D01*
X5206619Y20327904D02*
X5301857Y20375523D01*
X5301857Y20375523D02*
X5397095Y20375523D01*
X5397095Y20375523D02*
X5539952Y20327904D01*
X5539952Y20327904D02*
X6111380Y19756476D01*
X6111380Y19756476D02*
X6111380Y20375523D01*
X5539952Y20946952D02*
X5492333Y20851714D01*
X5492333Y20851714D02*
X5444714Y20804095D01*
X5444714Y20804095D02*
X5349476Y20756476D01*
X5349476Y20756476D02*
X5301857Y20756476D01*
X5301857Y20756476D02*
X5206619Y20804095D01*
X5206619Y20804095D02*
X5159000Y20851714D01*
X5159000Y20851714D02*
X5111380Y20946952D01*
X5111380Y20946952D02*
X5111380Y21137428D01*
X5111380Y21137428D02*
X5159000Y21232666D01*
X5159000Y21232666D02*
X5206619Y21280285D01*
X5206619Y21280285D02*
X5301857Y21327904D01*
X5301857Y21327904D02*
X5349476Y21327904D01*
X5349476Y21327904D02*
X5444714Y21280285D01*
X5444714Y21280285D02*
X5492333Y21232666D01*
X5492333Y21232666D02*
X5539952Y21137428D01*
X5539952Y21137428D02*
X5539952Y20946952D01*
X5539952Y20946952D02*
X5587571Y20851714D01*
X5587571Y20851714D02*
X5635190Y20804095D01*
X5635190Y20804095D02*
X5730428Y20756476D01*
X5730428Y20756476D02*
X5920904Y20756476D01*
X5920904Y20756476D02*
X6016142Y20804095D01*
X6016142Y20804095D02*
X6063761Y20851714D01*
X6063761Y20851714D02*
X6111380Y20946952D01*
X6111380Y20946952D02*
X6111380Y21137428D01*
X6111380Y21137428D02*
X6063761Y21232666D01*
X6063761Y21232666D02*
X6016142Y21280285D01*
X6016142Y21280285D02*
X5920904Y21327904D01*
X5920904Y21327904D02*
X5730428Y21327904D01*
X5730428Y21327904D02*
X5635190Y21280285D01*
X5635190Y21280285D02*
X5587571Y21232666D01*
X5587571Y21232666D02*
X5539952Y21137428D01*
%TO.C,C27*%
X-45346857Y899857D02*
X-45394476Y852238D01*
X-45394476Y852238D02*
X-45537333Y804619D01*
X-45537333Y804619D02*
X-45632571Y804619D01*
X-45632571Y804619D02*
X-45775428Y852238D01*
X-45775428Y852238D02*
X-45870666Y947476D01*
X-45870666Y947476D02*
X-45918285Y1042714D01*
X-45918285Y1042714D02*
X-45965904Y1233190D01*
X-45965904Y1233190D02*
X-45965904Y1376047D01*
X-45965904Y1376047D02*
X-45918285Y1566523D01*
X-45918285Y1566523D02*
X-45870666Y1661761D01*
X-45870666Y1661761D02*
X-45775428Y1757000D01*
X-45775428Y1757000D02*
X-45632571Y1804619D01*
X-45632571Y1804619D02*
X-45537333Y1804619D01*
X-45537333Y1804619D02*
X-45394476Y1757000D01*
X-45394476Y1757000D02*
X-45346857Y1709380D01*
X-44965904Y1709380D02*
X-44918285Y1757000D01*
X-44918285Y1757000D02*
X-44823047Y1804619D01*
X-44823047Y1804619D02*
X-44584952Y1804619D01*
X-44584952Y1804619D02*
X-44489714Y1757000D01*
X-44489714Y1757000D02*
X-44442095Y1709380D01*
X-44442095Y1709380D02*
X-44394476Y1614142D01*
X-44394476Y1614142D02*
X-44394476Y1518904D01*
X-44394476Y1518904D02*
X-44442095Y1376047D01*
X-44442095Y1376047D02*
X-45013523Y804619D01*
X-45013523Y804619D02*
X-44394476Y804619D01*
X-44061142Y1804619D02*
X-43394476Y1804619D01*
X-43394476Y1804619D02*
X-43823047Y804619D01*
%TO.C,C26*%
X4244142Y19684394D02*
X4291761Y19636775D01*
X4291761Y19636775D02*
X4339380Y19493918D01*
X4339380Y19493918D02*
X4339380Y19398680D01*
X4339380Y19398680D02*
X4291761Y19255823D01*
X4291761Y19255823D02*
X4196523Y19160585D01*
X4196523Y19160585D02*
X4101285Y19112966D01*
X4101285Y19112966D02*
X3910809Y19065347D01*
X3910809Y19065347D02*
X3767952Y19065347D01*
X3767952Y19065347D02*
X3577476Y19112966D01*
X3577476Y19112966D02*
X3482238Y19160585D01*
X3482238Y19160585D02*
X3387000Y19255823D01*
X3387000Y19255823D02*
X3339380Y19398680D01*
X3339380Y19398680D02*
X3339380Y19493918D01*
X3339380Y19493918D02*
X3387000Y19636775D01*
X3387000Y19636775D02*
X3434619Y19684394D01*
X3434619Y20065347D02*
X3387000Y20112966D01*
X3387000Y20112966D02*
X3339380Y20208204D01*
X3339380Y20208204D02*
X3339380Y20446299D01*
X3339380Y20446299D02*
X3387000Y20541537D01*
X3387000Y20541537D02*
X3434619Y20589156D01*
X3434619Y20589156D02*
X3529857Y20636775D01*
X3529857Y20636775D02*
X3625095Y20636775D01*
X3625095Y20636775D02*
X3767952Y20589156D01*
X3767952Y20589156D02*
X4339380Y20017728D01*
X4339380Y20017728D02*
X4339380Y20636775D01*
X3339380Y21493918D02*
X3339380Y21303442D01*
X3339380Y21303442D02*
X3387000Y21208204D01*
X3387000Y21208204D02*
X3434619Y21160585D01*
X3434619Y21160585D02*
X3577476Y21065347D01*
X3577476Y21065347D02*
X3767952Y21017728D01*
X3767952Y21017728D02*
X4148904Y21017728D01*
X4148904Y21017728D02*
X4244142Y21065347D01*
X4244142Y21065347D02*
X4291761Y21112966D01*
X4291761Y21112966D02*
X4339380Y21208204D01*
X4339380Y21208204D02*
X4339380Y21398680D01*
X4339380Y21398680D02*
X4291761Y21493918D01*
X4291761Y21493918D02*
X4244142Y21541537D01*
X4244142Y21541537D02*
X4148904Y21589156D01*
X4148904Y21589156D02*
X3910809Y21589156D01*
X3910809Y21589156D02*
X3815571Y21541537D01*
X3815571Y21541537D02*
X3767952Y21493918D01*
X3767952Y21493918D02*
X3720333Y21398680D01*
X3720333Y21398680D02*
X3720333Y21208204D01*
X3720333Y21208204D02*
X3767952Y21112966D01*
X3767952Y21112966D02*
X3815571Y21065347D01*
X3815571Y21065347D02*
X3910809Y21017728D01*
%TO.C,C24*%
X-45346857Y3947857D02*
X-45394476Y3900238D01*
X-45394476Y3900238D02*
X-45537333Y3852619D01*
X-45537333Y3852619D02*
X-45632571Y3852619D01*
X-45632571Y3852619D02*
X-45775428Y3900238D01*
X-45775428Y3900238D02*
X-45870666Y3995476D01*
X-45870666Y3995476D02*
X-45918285Y4090714D01*
X-45918285Y4090714D02*
X-45965904Y4281190D01*
X-45965904Y4281190D02*
X-45965904Y4424047D01*
X-45965904Y4424047D02*
X-45918285Y4614523D01*
X-45918285Y4614523D02*
X-45870666Y4709761D01*
X-45870666Y4709761D02*
X-45775428Y4805000D01*
X-45775428Y4805000D02*
X-45632571Y4852619D01*
X-45632571Y4852619D02*
X-45537333Y4852619D01*
X-45537333Y4852619D02*
X-45394476Y4805000D01*
X-45394476Y4805000D02*
X-45346857Y4757380D01*
X-44965904Y4757380D02*
X-44918285Y4805000D01*
X-44918285Y4805000D02*
X-44823047Y4852619D01*
X-44823047Y4852619D02*
X-44584952Y4852619D01*
X-44584952Y4852619D02*
X-44489714Y4805000D01*
X-44489714Y4805000D02*
X-44442095Y4757380D01*
X-44442095Y4757380D02*
X-44394476Y4662142D01*
X-44394476Y4662142D02*
X-44394476Y4566904D01*
X-44394476Y4566904D02*
X-44442095Y4424047D01*
X-44442095Y4424047D02*
X-45013523Y3852619D01*
X-45013523Y3852619D02*
X-44394476Y3852619D01*
X-43537333Y4519285D02*
X-43537333Y3852619D01*
X-43775428Y4900238D02*
X-44013523Y4185952D01*
X-44013523Y4185952D02*
X-43394476Y4185952D01*
%TO.C,R10*%
X9340142Y-15156380D02*
X9006809Y-14680190D01*
X8768714Y-15156380D02*
X8768714Y-14156380D01*
X8768714Y-14156380D02*
X9149666Y-14156380D01*
X9149666Y-14156380D02*
X9244904Y-14204000D01*
X9244904Y-14204000D02*
X9292523Y-14251619D01*
X9292523Y-14251619D02*
X9340142Y-14346857D01*
X9340142Y-14346857D02*
X9340142Y-14489714D01*
X9340142Y-14489714D02*
X9292523Y-14584952D01*
X9292523Y-14584952D02*
X9244904Y-14632571D01*
X9244904Y-14632571D02*
X9149666Y-14680190D01*
X9149666Y-14680190D02*
X8768714Y-14680190D01*
X10292523Y-15156380D02*
X9721095Y-15156380D01*
X10006809Y-15156380D02*
X10006809Y-14156380D01*
X10006809Y-14156380D02*
X9911571Y-14299238D01*
X9911571Y-14299238D02*
X9816333Y-14394476D01*
X9816333Y-14394476D02*
X9721095Y-14442095D01*
X10911571Y-14156380D02*
X11006809Y-14156380D01*
X11006809Y-14156380D02*
X11102047Y-14204000D01*
X11102047Y-14204000D02*
X11149666Y-14251619D01*
X11149666Y-14251619D02*
X11197285Y-14346857D01*
X11197285Y-14346857D02*
X11244904Y-14537333D01*
X11244904Y-14537333D02*
X11244904Y-14775428D01*
X11244904Y-14775428D02*
X11197285Y-14965904D01*
X11197285Y-14965904D02*
X11149666Y-15061142D01*
X11149666Y-15061142D02*
X11102047Y-15108761D01*
X11102047Y-15108761D02*
X11006809Y-15156380D01*
X11006809Y-15156380D02*
X10911571Y-15156380D01*
X10911571Y-15156380D02*
X10816333Y-15108761D01*
X10816333Y-15108761D02*
X10768714Y-15061142D01*
X10768714Y-15061142D02*
X10721095Y-14965904D01*
X10721095Y-14965904D02*
X10673476Y-14775428D01*
X10673476Y-14775428D02*
X10673476Y-14537333D01*
X10673476Y-14537333D02*
X10721095Y-14346857D01*
X10721095Y-14346857D02*
X10768714Y-14251619D01*
X10768714Y-14251619D02*
X10816333Y-14204000D01*
X10816333Y-14204000D02*
X10911571Y-14156380D01*
%TO.C,J4*%
X-16633333Y14659619D02*
X-16633333Y13945333D01*
X-16633333Y13945333D02*
X-16680952Y13802476D01*
X-16680952Y13802476D02*
X-16776190Y13707238D01*
X-16776190Y13707238D02*
X-16919047Y13659619D01*
X-16919047Y13659619D02*
X-17014285Y13659619D01*
X-15728571Y14326285D02*
X-15728571Y13659619D01*
X-15966666Y14707238D02*
X-16204761Y13992952D01*
X-16204761Y13992952D02*
X-15585714Y13992952D01*
%TO.C,Q1*%
X-7715238Y-14424619D02*
X-7810476Y-14377000D01*
X-7810476Y-14377000D02*
X-7905714Y-14281761D01*
X-7905714Y-14281761D02*
X-8048571Y-14138904D01*
X-8048571Y-14138904D02*
X-8143809Y-14091285D01*
X-8143809Y-14091285D02*
X-8239047Y-14091285D01*
X-8191428Y-14329380D02*
X-8286666Y-14281761D01*
X-8286666Y-14281761D02*
X-8381904Y-14186523D01*
X-8381904Y-14186523D02*
X-8429523Y-13996047D01*
X-8429523Y-13996047D02*
X-8429523Y-13662714D01*
X-8429523Y-13662714D02*
X-8381904Y-13472238D01*
X-8381904Y-13472238D02*
X-8286666Y-13377000D01*
X-8286666Y-13377000D02*
X-8191428Y-13329380D01*
X-8191428Y-13329380D02*
X-8000952Y-13329380D01*
X-8000952Y-13329380D02*
X-7905714Y-13377000D01*
X-7905714Y-13377000D02*
X-7810476Y-13472238D01*
X-7810476Y-13472238D02*
X-7762857Y-13662714D01*
X-7762857Y-13662714D02*
X-7762857Y-13996047D01*
X-7762857Y-13996047D02*
X-7810476Y-14186523D01*
X-7810476Y-14186523D02*
X-7905714Y-14281761D01*
X-7905714Y-14281761D02*
X-8000952Y-14329380D01*
X-8000952Y-14329380D02*
X-8191428Y-14329380D01*
X-6810476Y-14329380D02*
X-7381904Y-14329380D01*
X-7096190Y-14329380D02*
X-7096190Y-13329380D01*
X-7096190Y-13329380D02*
X-7191428Y-13472238D01*
X-7191428Y-13472238D02*
X-7286666Y-13567476D01*
X-7286666Y-13567476D02*
X-7381904Y-13615095D01*
%TO.C,R13*%
X-7360857Y-8124380D02*
X-7694190Y-7648190D01*
X-7932285Y-8124380D02*
X-7932285Y-7124380D01*
X-7932285Y-7124380D02*
X-7551333Y-7124380D01*
X-7551333Y-7124380D02*
X-7456095Y-7172000D01*
X-7456095Y-7172000D02*
X-7408476Y-7219619D01*
X-7408476Y-7219619D02*
X-7360857Y-7314857D01*
X-7360857Y-7314857D02*
X-7360857Y-7457714D01*
X-7360857Y-7457714D02*
X-7408476Y-7552952D01*
X-7408476Y-7552952D02*
X-7456095Y-7600571D01*
X-7456095Y-7600571D02*
X-7551333Y-7648190D01*
X-7551333Y-7648190D02*
X-7932285Y-7648190D01*
X-6408476Y-8124380D02*
X-6979904Y-8124380D01*
X-6694190Y-8124380D02*
X-6694190Y-7124380D01*
X-6694190Y-7124380D02*
X-6789428Y-7267238D01*
X-6789428Y-7267238D02*
X-6884666Y-7362476D01*
X-6884666Y-7362476D02*
X-6979904Y-7410095D01*
X-6075142Y-7124380D02*
X-5456095Y-7124380D01*
X-5456095Y-7124380D02*
X-5789428Y-7505333D01*
X-5789428Y-7505333D02*
X-5646571Y-7505333D01*
X-5646571Y-7505333D02*
X-5551333Y-7552952D01*
X-5551333Y-7552952D02*
X-5503714Y-7600571D01*
X-5503714Y-7600571D02*
X-5456095Y-7695809D01*
X-5456095Y-7695809D02*
X-5456095Y-7933904D01*
X-5456095Y-7933904D02*
X-5503714Y-8029142D01*
X-5503714Y-8029142D02*
X-5551333Y-8076761D01*
X-5551333Y-8076761D02*
X-5646571Y-8124380D01*
X-5646571Y-8124380D02*
X-5932285Y-8124380D01*
X-5932285Y-8124380D02*
X-6027523Y-8076761D01*
X-6027523Y-8076761D02*
X-6075142Y-8029142D01*
%TO.C,R50*%
X-25954619Y-883857D02*
X-26430809Y-1217190D01*
X-25954619Y-1455285D02*
X-26954619Y-1455285D01*
X-26954619Y-1455285D02*
X-26954619Y-1074333D01*
X-26954619Y-1074333D02*
X-26907000Y-979095D01*
X-26907000Y-979095D02*
X-26859380Y-931476D01*
X-26859380Y-931476D02*
X-26764142Y-883857D01*
X-26764142Y-883857D02*
X-26621285Y-883857D01*
X-26621285Y-883857D02*
X-26526047Y-931476D01*
X-26526047Y-931476D02*
X-26478428Y-979095D01*
X-26478428Y-979095D02*
X-26430809Y-1074333D01*
X-26430809Y-1074333D02*
X-26430809Y-1455285D01*
X-26954619Y20904D02*
X-26954619Y-455285D01*
X-26954619Y-455285D02*
X-26478428Y-502904D01*
X-26478428Y-502904D02*
X-26526047Y-455285D01*
X-26526047Y-455285D02*
X-26573666Y-360047D01*
X-26573666Y-360047D02*
X-26573666Y-121952D01*
X-26573666Y-121952D02*
X-26526047Y-26714D01*
X-26526047Y-26714D02*
X-26478428Y20904D01*
X-26478428Y20904D02*
X-26383190Y68523D01*
X-26383190Y68523D02*
X-26145095Y68523D01*
X-26145095Y68523D02*
X-26049857Y20904D01*
X-26049857Y20904D02*
X-26002238Y-26714D01*
X-26002238Y-26714D02*
X-25954619Y-121952D01*
X-25954619Y-121952D02*
X-25954619Y-360047D01*
X-25954619Y-360047D02*
X-26002238Y-455285D01*
X-26002238Y-455285D02*
X-26049857Y-502904D01*
X-26954619Y687571D02*
X-26954619Y782809D01*
X-26954619Y782809D02*
X-26907000Y878047D01*
X-26907000Y878047D02*
X-26859380Y925666D01*
X-26859380Y925666D02*
X-26764142Y973285D01*
X-26764142Y973285D02*
X-26573666Y1020904D01*
X-26573666Y1020904D02*
X-26335571Y1020904D01*
X-26335571Y1020904D02*
X-26145095Y973285D01*
X-26145095Y973285D02*
X-26049857Y925666D01*
X-26049857Y925666D02*
X-26002238Y878047D01*
X-26002238Y878047D02*
X-25954619Y782809D01*
X-25954619Y782809D02*
X-25954619Y687571D01*
X-25954619Y687571D02*
X-26002238Y592333D01*
X-26002238Y592333D02*
X-26049857Y544714D01*
X-26049857Y544714D02*
X-26145095Y497095D01*
X-26145095Y497095D02*
X-26335571Y449476D01*
X-26335571Y449476D02*
X-26573666Y449476D01*
X-26573666Y449476D02*
X-26764142Y497095D01*
X-26764142Y497095D02*
X-26859380Y544714D01*
X-26859380Y544714D02*
X-26907000Y592333D01*
X-26907000Y592333D02*
X-26954619Y687571D01*
%TO.C,C31*%
X-17862857Y4179857D02*
X-17910476Y4132238D01*
X-17910476Y4132238D02*
X-18053333Y4084619D01*
X-18053333Y4084619D02*
X-18148571Y4084619D01*
X-18148571Y4084619D02*
X-18291428Y4132238D01*
X-18291428Y4132238D02*
X-18386666Y4227476D01*
X-18386666Y4227476D02*
X-18434285Y4322714D01*
X-18434285Y4322714D02*
X-18481904Y4513190D01*
X-18481904Y4513190D02*
X-18481904Y4656047D01*
X-18481904Y4656047D02*
X-18434285Y4846523D01*
X-18434285Y4846523D02*
X-18386666Y4941761D01*
X-18386666Y4941761D02*
X-18291428Y5037000D01*
X-18291428Y5037000D02*
X-18148571Y5084619D01*
X-18148571Y5084619D02*
X-18053333Y5084619D01*
X-18053333Y5084619D02*
X-17910476Y5037000D01*
X-17910476Y5037000D02*
X-17862857Y4989380D01*
X-17529523Y5084619D02*
X-16910476Y5084619D01*
X-16910476Y5084619D02*
X-17243809Y4703666D01*
X-17243809Y4703666D02*
X-17100952Y4703666D01*
X-17100952Y4703666D02*
X-17005714Y4656047D01*
X-17005714Y4656047D02*
X-16958095Y4608428D01*
X-16958095Y4608428D02*
X-16910476Y4513190D01*
X-16910476Y4513190D02*
X-16910476Y4275095D01*
X-16910476Y4275095D02*
X-16958095Y4179857D01*
X-16958095Y4179857D02*
X-17005714Y4132238D01*
X-17005714Y4132238D02*
X-17100952Y4084619D01*
X-17100952Y4084619D02*
X-17386666Y4084619D01*
X-17386666Y4084619D02*
X-17481904Y4132238D01*
X-17481904Y4132238D02*
X-17529523Y4179857D01*
X-15958095Y4084619D02*
X-16529523Y4084619D01*
X-16243809Y4084619D02*
X-16243809Y5084619D01*
X-16243809Y5084619D02*
X-16339047Y4941761D01*
X-16339047Y4941761D02*
X-16434285Y4846523D01*
X-16434285Y4846523D02*
X-16529523Y4798904D01*
%TO.C,D5*%
X-41248619Y13231905D02*
X-42248619Y13231905D01*
X-42248619Y13231905D02*
X-42248619Y13470000D01*
X-42248619Y13470000D02*
X-42201000Y13612857D01*
X-42201000Y13612857D02*
X-42105761Y13708095D01*
X-42105761Y13708095D02*
X-42010523Y13755714D01*
X-42010523Y13755714D02*
X-41820047Y13803333D01*
X-41820047Y13803333D02*
X-41677190Y13803333D01*
X-41677190Y13803333D02*
X-41486714Y13755714D01*
X-41486714Y13755714D02*
X-41391476Y13708095D01*
X-41391476Y13708095D02*
X-41296238Y13612857D01*
X-41296238Y13612857D02*
X-41248619Y13470000D01*
X-41248619Y13470000D02*
X-41248619Y13231905D01*
X-42248619Y14708095D02*
X-42248619Y14231905D01*
X-42248619Y14231905D02*
X-41772428Y14184286D01*
X-41772428Y14184286D02*
X-41820047Y14231905D01*
X-41820047Y14231905D02*
X-41867666Y14327143D01*
X-41867666Y14327143D02*
X-41867666Y14565238D01*
X-41867666Y14565238D02*
X-41820047Y14660476D01*
X-41820047Y14660476D02*
X-41772428Y14708095D01*
X-41772428Y14708095D02*
X-41677190Y14755714D01*
X-41677190Y14755714D02*
X-41439095Y14755714D01*
X-41439095Y14755714D02*
X-41343857Y14708095D01*
X-41343857Y14708095D02*
X-41296238Y14660476D01*
X-41296238Y14660476D02*
X-41248619Y14565238D01*
X-41248619Y14565238D02*
X-41248619Y14327143D01*
X-41248619Y14327143D02*
X-41296238Y14231905D01*
X-41296238Y14231905D02*
X-41343857Y14184286D01*
%TO.C,J2*%
X-47827619Y21281666D02*
X-47113333Y21281666D01*
X-47113333Y21281666D02*
X-46970476Y21234047D01*
X-46970476Y21234047D02*
X-46875238Y21138809D01*
X-46875238Y21138809D02*
X-46827619Y20995952D01*
X-46827619Y20995952D02*
X-46827619Y20900714D01*
X-47732380Y21710238D02*
X-47780000Y21757857D01*
X-47780000Y21757857D02*
X-47827619Y21853095D01*
X-47827619Y21853095D02*
X-47827619Y22091190D01*
X-47827619Y22091190D02*
X-47780000Y22186428D01*
X-47780000Y22186428D02*
X-47732380Y22234047D01*
X-47732380Y22234047D02*
X-47637142Y22281666D01*
X-47637142Y22281666D02*
X-47541904Y22281666D01*
X-47541904Y22281666D02*
X-47399047Y22234047D01*
X-47399047Y22234047D02*
X-46827619Y21662619D01*
X-46827619Y21662619D02*
X-46827619Y22281666D01*
%TO.C,C18*%
X-25287857Y5961142D02*
X-25240238Y5913523D01*
X-25240238Y5913523D02*
X-25192619Y5770666D01*
X-25192619Y5770666D02*
X-25192619Y5675428D01*
X-25192619Y5675428D02*
X-25240238Y5532571D01*
X-25240238Y5532571D02*
X-25335476Y5437333D01*
X-25335476Y5437333D02*
X-25430714Y5389714D01*
X-25430714Y5389714D02*
X-25621190Y5342095D01*
X-25621190Y5342095D02*
X-25764047Y5342095D01*
X-25764047Y5342095D02*
X-25954523Y5389714D01*
X-25954523Y5389714D02*
X-26049761Y5437333D01*
X-26049761Y5437333D02*
X-26145000Y5532571D01*
X-26145000Y5532571D02*
X-26192619Y5675428D01*
X-26192619Y5675428D02*
X-26192619Y5770666D01*
X-26192619Y5770666D02*
X-26145000Y5913523D01*
X-26145000Y5913523D02*
X-26097380Y5961142D01*
X-25192619Y6913523D02*
X-25192619Y6342095D01*
X-25192619Y6627809D02*
X-26192619Y6627809D01*
X-26192619Y6627809D02*
X-26049761Y6532571D01*
X-26049761Y6532571D02*
X-25954523Y6437333D01*
X-25954523Y6437333D02*
X-25906904Y6342095D01*
X-25764047Y7484952D02*
X-25811666Y7389714D01*
X-25811666Y7389714D02*
X-25859285Y7342095D01*
X-25859285Y7342095D02*
X-25954523Y7294476D01*
X-25954523Y7294476D02*
X-26002142Y7294476D01*
X-26002142Y7294476D02*
X-26097380Y7342095D01*
X-26097380Y7342095D02*
X-26145000Y7389714D01*
X-26145000Y7389714D02*
X-26192619Y7484952D01*
X-26192619Y7484952D02*
X-26192619Y7675428D01*
X-26192619Y7675428D02*
X-26145000Y7770666D01*
X-26145000Y7770666D02*
X-26097380Y7818285D01*
X-26097380Y7818285D02*
X-26002142Y7865904D01*
X-26002142Y7865904D02*
X-25954523Y7865904D01*
X-25954523Y7865904D02*
X-25859285Y7818285D01*
X-25859285Y7818285D02*
X-25811666Y7770666D01*
X-25811666Y7770666D02*
X-25764047Y7675428D01*
X-25764047Y7675428D02*
X-25764047Y7484952D01*
X-25764047Y7484952D02*
X-25716428Y7389714D01*
X-25716428Y7389714D02*
X-25668809Y7342095D01*
X-25668809Y7342095D02*
X-25573571Y7294476D01*
X-25573571Y7294476D02*
X-25383095Y7294476D01*
X-25383095Y7294476D02*
X-25287857Y7342095D01*
X-25287857Y7342095D02*
X-25240238Y7389714D01*
X-25240238Y7389714D02*
X-25192619Y7484952D01*
X-25192619Y7484952D02*
X-25192619Y7675428D01*
X-25192619Y7675428D02*
X-25240238Y7770666D01*
X-25240238Y7770666D02*
X-25287857Y7818285D01*
X-25287857Y7818285D02*
X-25383095Y7865904D01*
X-25383095Y7865904D02*
X-25573571Y7865904D01*
X-25573571Y7865904D02*
X-25668809Y7818285D01*
X-25668809Y7818285D02*
X-25716428Y7770666D01*
X-25716428Y7770666D02*
X-25764047Y7675428D01*
%TO.C,C1*%
X-27507857Y6564333D02*
X-27460238Y6516714D01*
X-27460238Y6516714D02*
X-27412619Y6373857D01*
X-27412619Y6373857D02*
X-27412619Y6278619D01*
X-27412619Y6278619D02*
X-27460238Y6135762D01*
X-27460238Y6135762D02*
X-27555476Y6040524D01*
X-27555476Y6040524D02*
X-27650714Y5992905D01*
X-27650714Y5992905D02*
X-27841190Y5945286D01*
X-27841190Y5945286D02*
X-27984047Y5945286D01*
X-27984047Y5945286D02*
X-28174523Y5992905D01*
X-28174523Y5992905D02*
X-28269761Y6040524D01*
X-28269761Y6040524D02*
X-28365000Y6135762D01*
X-28365000Y6135762D02*
X-28412619Y6278619D01*
X-28412619Y6278619D02*
X-28412619Y6373857D01*
X-28412619Y6373857D02*
X-28365000Y6516714D01*
X-28365000Y6516714D02*
X-28317380Y6564333D01*
X-27412619Y7516714D02*
X-27412619Y6945286D01*
X-27412619Y7231000D02*
X-28412619Y7231000D01*
X-28412619Y7231000D02*
X-28269761Y7135762D01*
X-28269761Y7135762D02*
X-28174523Y7040524D01*
X-28174523Y7040524D02*
X-28126904Y6945286D01*
%TO.C,C15*%
X-47759857Y7822857D02*
X-47807476Y7775238D01*
X-47807476Y7775238D02*
X-47950333Y7727619D01*
X-47950333Y7727619D02*
X-48045571Y7727619D01*
X-48045571Y7727619D02*
X-48188428Y7775238D01*
X-48188428Y7775238D02*
X-48283666Y7870476D01*
X-48283666Y7870476D02*
X-48331285Y7965714D01*
X-48331285Y7965714D02*
X-48378904Y8156190D01*
X-48378904Y8156190D02*
X-48378904Y8299047D01*
X-48378904Y8299047D02*
X-48331285Y8489523D01*
X-48331285Y8489523D02*
X-48283666Y8584761D01*
X-48283666Y8584761D02*
X-48188428Y8680000D01*
X-48188428Y8680000D02*
X-48045571Y8727619D01*
X-48045571Y8727619D02*
X-47950333Y8727619D01*
X-47950333Y8727619D02*
X-47807476Y8680000D01*
X-47807476Y8680000D02*
X-47759857Y8632380D01*
X-46807476Y7727619D02*
X-47378904Y7727619D01*
X-47093190Y7727619D02*
X-47093190Y8727619D01*
X-47093190Y8727619D02*
X-47188428Y8584761D01*
X-47188428Y8584761D02*
X-47283666Y8489523D01*
X-47283666Y8489523D02*
X-47378904Y8441904D01*
X-45902714Y8727619D02*
X-46378904Y8727619D01*
X-46378904Y8727619D02*
X-46426523Y8251428D01*
X-46426523Y8251428D02*
X-46378904Y8299047D01*
X-46378904Y8299047D02*
X-46283666Y8346666D01*
X-46283666Y8346666D02*
X-46045571Y8346666D01*
X-46045571Y8346666D02*
X-45950333Y8299047D01*
X-45950333Y8299047D02*
X-45902714Y8251428D01*
X-45902714Y8251428D02*
X-45855095Y8156190D01*
X-45855095Y8156190D02*
X-45855095Y7918095D01*
X-45855095Y7918095D02*
X-45902714Y7822857D01*
X-45902714Y7822857D02*
X-45950333Y7775238D01*
X-45950333Y7775238D02*
X-46045571Y7727619D01*
X-46045571Y7727619D02*
X-46283666Y7727619D01*
X-46283666Y7727619D02*
X-46378904Y7775238D01*
X-46378904Y7775238D02*
X-46426523Y7822857D01*
%TO.C,C6*%
X-30011666Y11567857D02*
X-30059285Y11520238D01*
X-30059285Y11520238D02*
X-30202142Y11472619D01*
X-30202142Y11472619D02*
X-30297380Y11472619D01*
X-30297380Y11472619D02*
X-30440237Y11520238D01*
X-30440237Y11520238D02*
X-30535475Y11615476D01*
X-30535475Y11615476D02*
X-30583094Y11710714D01*
X-30583094Y11710714D02*
X-30630713Y11901190D01*
X-30630713Y11901190D02*
X-30630713Y12044047D01*
X-30630713Y12044047D02*
X-30583094Y12234523D01*
X-30583094Y12234523D02*
X-30535475Y12329761D01*
X-30535475Y12329761D02*
X-30440237Y12425000D01*
X-30440237Y12425000D02*
X-30297380Y12472619D01*
X-30297380Y12472619D02*
X-30202142Y12472619D01*
X-30202142Y12472619D02*
X-30059285Y12425000D01*
X-30059285Y12425000D02*
X-30011666Y12377380D01*
X-29154523Y12472619D02*
X-29344999Y12472619D01*
X-29344999Y12472619D02*
X-29440237Y12425000D01*
X-29440237Y12425000D02*
X-29487856Y12377380D01*
X-29487856Y12377380D02*
X-29583094Y12234523D01*
X-29583094Y12234523D02*
X-29630713Y12044047D01*
X-29630713Y12044047D02*
X-29630713Y11663095D01*
X-29630713Y11663095D02*
X-29583094Y11567857D01*
X-29583094Y11567857D02*
X-29535475Y11520238D01*
X-29535475Y11520238D02*
X-29440237Y11472619D01*
X-29440237Y11472619D02*
X-29249761Y11472619D01*
X-29249761Y11472619D02*
X-29154523Y11520238D01*
X-29154523Y11520238D02*
X-29106904Y11567857D01*
X-29106904Y11567857D02*
X-29059285Y11663095D01*
X-29059285Y11663095D02*
X-29059285Y11901190D01*
X-29059285Y11901190D02*
X-29106904Y11996428D01*
X-29106904Y11996428D02*
X-29154523Y12044047D01*
X-29154523Y12044047D02*
X-29249761Y12091666D01*
X-29249761Y12091666D02*
X-29440237Y12091666D01*
X-29440237Y12091666D02*
X-29535475Y12044047D01*
X-29535475Y12044047D02*
X-29583094Y11996428D01*
X-29583094Y11996428D02*
X-29630713Y11901190D01*
%TO.C,C13*%
X1952142Y19423142D02*
X1999761Y19375523D01*
X1999761Y19375523D02*
X2047380Y19232666D01*
X2047380Y19232666D02*
X2047380Y19137428D01*
X2047380Y19137428D02*
X1999761Y18994571D01*
X1999761Y18994571D02*
X1904523Y18899333D01*
X1904523Y18899333D02*
X1809285Y18851714D01*
X1809285Y18851714D02*
X1618809Y18804095D01*
X1618809Y18804095D02*
X1475952Y18804095D01*
X1475952Y18804095D02*
X1285476Y18851714D01*
X1285476Y18851714D02*
X1190238Y18899333D01*
X1190238Y18899333D02*
X1095000Y18994571D01*
X1095000Y18994571D02*
X1047380Y19137428D01*
X1047380Y19137428D02*
X1047380Y19232666D01*
X1047380Y19232666D02*
X1095000Y19375523D01*
X1095000Y19375523D02*
X1142619Y19423142D01*
X2047380Y20375523D02*
X2047380Y19804095D01*
X2047380Y20089809D02*
X1047380Y20089809D01*
X1047380Y20089809D02*
X1190238Y19994571D01*
X1190238Y19994571D02*
X1285476Y19899333D01*
X1285476Y19899333D02*
X1333095Y19804095D01*
X1047380Y20708857D02*
X1047380Y21327904D01*
X1047380Y21327904D02*
X1428333Y20994571D01*
X1428333Y20994571D02*
X1428333Y21137428D01*
X1428333Y21137428D02*
X1475952Y21232666D01*
X1475952Y21232666D02*
X1523571Y21280285D01*
X1523571Y21280285D02*
X1618809Y21327904D01*
X1618809Y21327904D02*
X1856904Y21327904D01*
X1856904Y21327904D02*
X1952142Y21280285D01*
X1952142Y21280285D02*
X1999761Y21232666D01*
X1999761Y21232666D02*
X2047380Y21137428D01*
X2047380Y21137428D02*
X2047380Y20851714D01*
X2047380Y20851714D02*
X1999761Y20756476D01*
X1999761Y20756476D02*
X1952142Y20708857D01*
%TO.C,R47*%
X-27478619Y2164142D02*
X-27954809Y1830809D01*
X-27478619Y1592714D02*
X-28478619Y1592714D01*
X-28478619Y1592714D02*
X-28478619Y1973666D01*
X-28478619Y1973666D02*
X-28431000Y2068904D01*
X-28431000Y2068904D02*
X-28383380Y2116523D01*
X-28383380Y2116523D02*
X-28288142Y2164142D01*
X-28288142Y2164142D02*
X-28145285Y2164142D01*
X-28145285Y2164142D02*
X-28050047Y2116523D01*
X-28050047Y2116523D02*
X-28002428Y2068904D01*
X-28002428Y2068904D02*
X-27954809Y1973666D01*
X-27954809Y1973666D02*
X-27954809Y1592714D01*
X-28145285Y3021285D02*
X-27478619Y3021285D01*
X-28526238Y2783190D02*
X-27811952Y2545095D01*
X-27811952Y2545095D02*
X-27811952Y3164142D01*
X-28478619Y3449857D02*
X-28478619Y4116523D01*
X-28478619Y4116523D02*
X-27478619Y3687952D01*
%TO.C,C23*%
X-17103857Y-16346142D02*
X-17151476Y-16393761D01*
X-17151476Y-16393761D02*
X-17294333Y-16441380D01*
X-17294333Y-16441380D02*
X-17389571Y-16441380D01*
X-17389571Y-16441380D02*
X-17532428Y-16393761D01*
X-17532428Y-16393761D02*
X-17627666Y-16298523D01*
X-17627666Y-16298523D02*
X-17675285Y-16203285D01*
X-17675285Y-16203285D02*
X-17722904Y-16012809D01*
X-17722904Y-16012809D02*
X-17722904Y-15869952D01*
X-17722904Y-15869952D02*
X-17675285Y-15679476D01*
X-17675285Y-15679476D02*
X-17627666Y-15584238D01*
X-17627666Y-15584238D02*
X-17532428Y-15489000D01*
X-17532428Y-15489000D02*
X-17389571Y-15441380D01*
X-17389571Y-15441380D02*
X-17294333Y-15441380D01*
X-17294333Y-15441380D02*
X-17151476Y-15489000D01*
X-17151476Y-15489000D02*
X-17103857Y-15536619D01*
X-16722904Y-15536619D02*
X-16675285Y-15489000D01*
X-16675285Y-15489000D02*
X-16580047Y-15441380D01*
X-16580047Y-15441380D02*
X-16341952Y-15441380D01*
X-16341952Y-15441380D02*
X-16246714Y-15489000D01*
X-16246714Y-15489000D02*
X-16199095Y-15536619D01*
X-16199095Y-15536619D02*
X-16151476Y-15631857D01*
X-16151476Y-15631857D02*
X-16151476Y-15727095D01*
X-16151476Y-15727095D02*
X-16199095Y-15869952D01*
X-16199095Y-15869952D02*
X-16770523Y-16441380D01*
X-16770523Y-16441380D02*
X-16151476Y-16441380D01*
X-15818142Y-15441380D02*
X-15199095Y-15441380D01*
X-15199095Y-15441380D02*
X-15532428Y-15822333D01*
X-15532428Y-15822333D02*
X-15389571Y-15822333D01*
X-15389571Y-15822333D02*
X-15294333Y-15869952D01*
X-15294333Y-15869952D02*
X-15246714Y-15917571D01*
X-15246714Y-15917571D02*
X-15199095Y-16012809D01*
X-15199095Y-16012809D02*
X-15199095Y-16250904D01*
X-15199095Y-16250904D02*
X-15246714Y-16346142D01*
X-15246714Y-16346142D02*
X-15294333Y-16393761D01*
X-15294333Y-16393761D02*
X-15389571Y-16441380D01*
X-15389571Y-16441380D02*
X-15675285Y-16441380D01*
X-15675285Y-16441380D02*
X-15770523Y-16393761D01*
X-15770523Y-16393761D02*
X-15818142Y-16346142D01*
%TO.C,R8*%
X-47537666Y18334619D02*
X-47870999Y18810809D01*
X-48109094Y18334619D02*
X-48109094Y19334619D01*
X-48109094Y19334619D02*
X-47728142Y19334619D01*
X-47728142Y19334619D02*
X-47632904Y19287000D01*
X-47632904Y19287000D02*
X-47585285Y19239380D01*
X-47585285Y19239380D02*
X-47537666Y19144142D01*
X-47537666Y19144142D02*
X-47537666Y19001285D01*
X-47537666Y19001285D02*
X-47585285Y18906047D01*
X-47585285Y18906047D02*
X-47632904Y18858428D01*
X-47632904Y18858428D02*
X-47728142Y18810809D01*
X-47728142Y18810809D02*
X-48109094Y18810809D01*
X-46966237Y18906047D02*
X-47061475Y18953666D01*
X-47061475Y18953666D02*
X-47109094Y19001285D01*
X-47109094Y19001285D02*
X-47156713Y19096523D01*
X-47156713Y19096523D02*
X-47156713Y19144142D01*
X-47156713Y19144142D02*
X-47109094Y19239380D01*
X-47109094Y19239380D02*
X-47061475Y19287000D01*
X-47061475Y19287000D02*
X-46966237Y19334619D01*
X-46966237Y19334619D02*
X-46775761Y19334619D01*
X-46775761Y19334619D02*
X-46680523Y19287000D01*
X-46680523Y19287000D02*
X-46632904Y19239380D01*
X-46632904Y19239380D02*
X-46585285Y19144142D01*
X-46585285Y19144142D02*
X-46585285Y19096523D01*
X-46585285Y19096523D02*
X-46632904Y19001285D01*
X-46632904Y19001285D02*
X-46680523Y18953666D01*
X-46680523Y18953666D02*
X-46775761Y18906047D01*
X-46775761Y18906047D02*
X-46966237Y18906047D01*
X-46966237Y18906047D02*
X-47061475Y18858428D01*
X-47061475Y18858428D02*
X-47109094Y18810809D01*
X-47109094Y18810809D02*
X-47156713Y18715571D01*
X-47156713Y18715571D02*
X-47156713Y18525095D01*
X-47156713Y18525095D02*
X-47109094Y18429857D01*
X-47109094Y18429857D02*
X-47061475Y18382238D01*
X-47061475Y18382238D02*
X-46966237Y18334619D01*
X-46966237Y18334619D02*
X-46775761Y18334619D01*
X-46775761Y18334619D02*
X-46680523Y18382238D01*
X-46680523Y18382238D02*
X-46632904Y18429857D01*
X-46632904Y18429857D02*
X-46585285Y18525095D01*
X-46585285Y18525095D02*
X-46585285Y18715571D01*
X-46585285Y18715571D02*
X-46632904Y18810809D01*
X-46632904Y18810809D02*
X-46680523Y18858428D01*
X-46680523Y18858428D02*
X-46775761Y18906047D01*
%TO.C,R25*%
X563142Y-8147380D02*
X229809Y-7671190D01*
X-8285Y-8147380D02*
X-8285Y-7147380D01*
X-8285Y-7147380D02*
X372666Y-7147380D01*
X372666Y-7147380D02*
X467904Y-7195000D01*
X467904Y-7195000D02*
X515523Y-7242619D01*
X515523Y-7242619D02*
X563142Y-7337857D01*
X563142Y-7337857D02*
X563142Y-7480714D01*
X563142Y-7480714D02*
X515523Y-7575952D01*
X515523Y-7575952D02*
X467904Y-7623571D01*
X467904Y-7623571D02*
X372666Y-7671190D01*
X372666Y-7671190D02*
X-8285Y-7671190D01*
X944095Y-7242619D02*
X991714Y-7195000D01*
X991714Y-7195000D02*
X1086952Y-7147380D01*
X1086952Y-7147380D02*
X1325047Y-7147380D01*
X1325047Y-7147380D02*
X1420285Y-7195000D01*
X1420285Y-7195000D02*
X1467904Y-7242619D01*
X1467904Y-7242619D02*
X1515523Y-7337857D01*
X1515523Y-7337857D02*
X1515523Y-7433095D01*
X1515523Y-7433095D02*
X1467904Y-7575952D01*
X1467904Y-7575952D02*
X896476Y-8147380D01*
X896476Y-8147380D02*
X1515523Y-8147380D01*
X2420285Y-7147380D02*
X1944095Y-7147380D01*
X1944095Y-7147380D02*
X1896476Y-7623571D01*
X1896476Y-7623571D02*
X1944095Y-7575952D01*
X1944095Y-7575952D02*
X2039333Y-7528333D01*
X2039333Y-7528333D02*
X2277428Y-7528333D01*
X2277428Y-7528333D02*
X2372666Y-7575952D01*
X2372666Y-7575952D02*
X2420285Y-7623571D01*
X2420285Y-7623571D02*
X2467904Y-7718809D01*
X2467904Y-7718809D02*
X2467904Y-7956904D01*
X2467904Y-7956904D02*
X2420285Y-8052142D01*
X2420285Y-8052142D02*
X2372666Y-8099761D01*
X2372666Y-8099761D02*
X2277428Y-8147380D01*
X2277428Y-8147380D02*
X2039333Y-8147380D01*
X2039333Y-8147380D02*
X1944095Y-8099761D01*
X1944095Y-8099761D02*
X1896476Y-8052142D01*
%TO.C,D8*%
X-32348094Y-12335380D02*
X-32348094Y-11335380D01*
X-32348094Y-11335380D02*
X-32109999Y-11335380D01*
X-32109999Y-11335380D02*
X-31967142Y-11383000D01*
X-31967142Y-11383000D02*
X-31871904Y-11478238D01*
X-31871904Y-11478238D02*
X-31824285Y-11573476D01*
X-31824285Y-11573476D02*
X-31776666Y-11763952D01*
X-31776666Y-11763952D02*
X-31776666Y-11906809D01*
X-31776666Y-11906809D02*
X-31824285Y-12097285D01*
X-31824285Y-12097285D02*
X-31871904Y-12192523D01*
X-31871904Y-12192523D02*
X-31967142Y-12287761D01*
X-31967142Y-12287761D02*
X-32109999Y-12335380D01*
X-32109999Y-12335380D02*
X-32348094Y-12335380D01*
X-31205237Y-11763952D02*
X-31300475Y-11716333D01*
X-31300475Y-11716333D02*
X-31348094Y-11668714D01*
X-31348094Y-11668714D02*
X-31395713Y-11573476D01*
X-31395713Y-11573476D02*
X-31395713Y-11525857D01*
X-31395713Y-11525857D02*
X-31348094Y-11430619D01*
X-31348094Y-11430619D02*
X-31300475Y-11383000D01*
X-31300475Y-11383000D02*
X-31205237Y-11335380D01*
X-31205237Y-11335380D02*
X-31014761Y-11335380D01*
X-31014761Y-11335380D02*
X-30919523Y-11383000D01*
X-30919523Y-11383000D02*
X-30871904Y-11430619D01*
X-30871904Y-11430619D02*
X-30824285Y-11525857D01*
X-30824285Y-11525857D02*
X-30824285Y-11573476D01*
X-30824285Y-11573476D02*
X-30871904Y-11668714D01*
X-30871904Y-11668714D02*
X-30919523Y-11716333D01*
X-30919523Y-11716333D02*
X-31014761Y-11763952D01*
X-31014761Y-11763952D02*
X-31205237Y-11763952D01*
X-31205237Y-11763952D02*
X-31300475Y-11811571D01*
X-31300475Y-11811571D02*
X-31348094Y-11859190D01*
X-31348094Y-11859190D02*
X-31395713Y-11954428D01*
X-31395713Y-11954428D02*
X-31395713Y-12144904D01*
X-31395713Y-12144904D02*
X-31348094Y-12240142D01*
X-31348094Y-12240142D02*
X-31300475Y-12287761D01*
X-31300475Y-12287761D02*
X-31205237Y-12335380D01*
X-31205237Y-12335380D02*
X-31014761Y-12335380D01*
X-31014761Y-12335380D02*
X-30919523Y-12287761D01*
X-30919523Y-12287761D02*
X-30871904Y-12240142D01*
X-30871904Y-12240142D02*
X-30824285Y-12144904D01*
X-30824285Y-12144904D02*
X-30824285Y-11954428D01*
X-30824285Y-11954428D02*
X-30871904Y-11859190D01*
X-30871904Y-11859190D02*
X-30919523Y-11811571D01*
X-30919523Y-11811571D02*
X-31014761Y-11763952D01*
%TO.C,C9*%
X-31825857Y-4090666D02*
X-31778238Y-4138285D01*
X-31778238Y-4138285D02*
X-31730619Y-4281142D01*
X-31730619Y-4281142D02*
X-31730619Y-4376380D01*
X-31730619Y-4376380D02*
X-31778238Y-4519237D01*
X-31778238Y-4519237D02*
X-31873476Y-4614475D01*
X-31873476Y-4614475D02*
X-31968714Y-4662094D01*
X-31968714Y-4662094D02*
X-32159190Y-4709713D01*
X-32159190Y-4709713D02*
X-32302047Y-4709713D01*
X-32302047Y-4709713D02*
X-32492523Y-4662094D01*
X-32492523Y-4662094D02*
X-32587761Y-4614475D01*
X-32587761Y-4614475D02*
X-32683000Y-4519237D01*
X-32683000Y-4519237D02*
X-32730619Y-4376380D01*
X-32730619Y-4376380D02*
X-32730619Y-4281142D01*
X-32730619Y-4281142D02*
X-32683000Y-4138285D01*
X-32683000Y-4138285D02*
X-32635380Y-4090666D01*
X-31730619Y-3614475D02*
X-31730619Y-3423999D01*
X-31730619Y-3423999D02*
X-31778238Y-3328761D01*
X-31778238Y-3328761D02*
X-31825857Y-3281142D01*
X-31825857Y-3281142D02*
X-31968714Y-3185904D01*
X-31968714Y-3185904D02*
X-32159190Y-3138285D01*
X-32159190Y-3138285D02*
X-32540142Y-3138285D01*
X-32540142Y-3138285D02*
X-32635380Y-3185904D01*
X-32635380Y-3185904D02*
X-32683000Y-3233523D01*
X-32683000Y-3233523D02*
X-32730619Y-3328761D01*
X-32730619Y-3328761D02*
X-32730619Y-3519237D01*
X-32730619Y-3519237D02*
X-32683000Y-3614475D01*
X-32683000Y-3614475D02*
X-32635380Y-3662094D01*
X-32635380Y-3662094D02*
X-32540142Y-3709713D01*
X-32540142Y-3709713D02*
X-32302047Y-3709713D01*
X-32302047Y-3709713D02*
X-32206809Y-3662094D01*
X-32206809Y-3662094D02*
X-32159190Y-3614475D01*
X-32159190Y-3614475D02*
X-32111571Y-3519237D01*
X-32111571Y-3519237D02*
X-32111571Y-3328761D01*
X-32111571Y-3328761D02*
X-32159190Y-3233523D01*
X-32159190Y-3233523D02*
X-32206809Y-3185904D01*
X-32206809Y-3185904D02*
X-32302047Y-3138285D01*
%TO.C,C2*%
X-32337857Y5294333D02*
X-32290238Y5246714D01*
X-32290238Y5246714D02*
X-32242619Y5103857D01*
X-32242619Y5103857D02*
X-32242619Y5008619D01*
X-32242619Y5008619D02*
X-32290238Y4865762D01*
X-32290238Y4865762D02*
X-32385476Y4770524D01*
X-32385476Y4770524D02*
X-32480714Y4722905D01*
X-32480714Y4722905D02*
X-32671190Y4675286D01*
X-32671190Y4675286D02*
X-32814047Y4675286D01*
X-32814047Y4675286D02*
X-33004523Y4722905D01*
X-33004523Y4722905D02*
X-33099761Y4770524D01*
X-33099761Y4770524D02*
X-33195000Y4865762D01*
X-33195000Y4865762D02*
X-33242619Y5008619D01*
X-33242619Y5008619D02*
X-33242619Y5103857D01*
X-33242619Y5103857D02*
X-33195000Y5246714D01*
X-33195000Y5246714D02*
X-33147380Y5294333D01*
X-33147380Y5675286D02*
X-33195000Y5722905D01*
X-33195000Y5722905D02*
X-33242619Y5818143D01*
X-33242619Y5818143D02*
X-33242619Y6056238D01*
X-33242619Y6056238D02*
X-33195000Y6151476D01*
X-33195000Y6151476D02*
X-33147380Y6199095D01*
X-33147380Y6199095D02*
X-33052142Y6246714D01*
X-33052142Y6246714D02*
X-32956904Y6246714D01*
X-32956904Y6246714D02*
X-32814047Y6199095D01*
X-32814047Y6199095D02*
X-32242619Y5627667D01*
X-32242619Y5627667D02*
X-32242619Y6246714D01*
%TO.C,C12*%
X-30809857Y6469142D02*
X-30762238Y6421523D01*
X-30762238Y6421523D02*
X-30714619Y6278666D01*
X-30714619Y6278666D02*
X-30714619Y6183428D01*
X-30714619Y6183428D02*
X-30762238Y6040571D01*
X-30762238Y6040571D02*
X-30857476Y5945333D01*
X-30857476Y5945333D02*
X-30952714Y5897714D01*
X-30952714Y5897714D02*
X-31143190Y5850095D01*
X-31143190Y5850095D02*
X-31286047Y5850095D01*
X-31286047Y5850095D02*
X-31476523Y5897714D01*
X-31476523Y5897714D02*
X-31571761Y5945333D01*
X-31571761Y5945333D02*
X-31667000Y6040571D01*
X-31667000Y6040571D02*
X-31714619Y6183428D01*
X-31714619Y6183428D02*
X-31714619Y6278666D01*
X-31714619Y6278666D02*
X-31667000Y6421523D01*
X-31667000Y6421523D02*
X-31619380Y6469142D01*
X-30714619Y7421523D02*
X-30714619Y6850095D01*
X-30714619Y7135809D02*
X-31714619Y7135809D01*
X-31714619Y7135809D02*
X-31571761Y7040571D01*
X-31571761Y7040571D02*
X-31476523Y6945333D01*
X-31476523Y6945333D02*
X-31428904Y6850095D01*
X-31619380Y7802476D02*
X-31667000Y7850095D01*
X-31667000Y7850095D02*
X-31714619Y7945333D01*
X-31714619Y7945333D02*
X-31714619Y8183428D01*
X-31714619Y8183428D02*
X-31667000Y8278666D01*
X-31667000Y8278666D02*
X-31619380Y8326285D01*
X-31619380Y8326285D02*
X-31524142Y8373904D01*
X-31524142Y8373904D02*
X-31428904Y8373904D01*
X-31428904Y8373904D02*
X-31286047Y8326285D01*
X-31286047Y8326285D02*
X-30714619Y7754857D01*
X-30714619Y7754857D02*
X-30714619Y8373904D01*
%TO.C,C$1*%
X-30109857Y14851142D02*
X-30062238Y14803523D01*
X-30062238Y14803523D02*
X-30014619Y14660666D01*
X-30014619Y14660666D02*
X-30014619Y14565428D01*
X-30014619Y14565428D02*
X-30062238Y14422571D01*
X-30062238Y14422571D02*
X-30157476Y14327333D01*
X-30157476Y14327333D02*
X-30252714Y14279714D01*
X-30252714Y14279714D02*
X-30443190Y14232095D01*
X-30443190Y14232095D02*
X-30586047Y14232095D01*
X-30586047Y14232095D02*
X-30776523Y14279714D01*
X-30776523Y14279714D02*
X-30871761Y14327333D01*
X-30871761Y14327333D02*
X-30967000Y14422571D01*
X-30967000Y14422571D02*
X-31014619Y14565428D01*
X-31014619Y14565428D02*
X-31014619Y14660666D01*
X-31014619Y14660666D02*
X-30967000Y14803523D01*
X-30967000Y14803523D02*
X-30919380Y14851142D01*
X-30062238Y15232095D02*
X-30014619Y15374952D01*
X-30014619Y15374952D02*
X-30014619Y15613047D01*
X-30014619Y15613047D02*
X-30062238Y15708285D01*
X-30062238Y15708285D02*
X-30109857Y15755904D01*
X-30109857Y15755904D02*
X-30205095Y15803523D01*
X-30205095Y15803523D02*
X-30300333Y15803523D01*
X-30300333Y15803523D02*
X-30395571Y15755904D01*
X-30395571Y15755904D02*
X-30443190Y15708285D01*
X-30443190Y15708285D02*
X-30490809Y15613047D01*
X-30490809Y15613047D02*
X-30538428Y15422571D01*
X-30538428Y15422571D02*
X-30586047Y15327333D01*
X-30586047Y15327333D02*
X-30633666Y15279714D01*
X-30633666Y15279714D02*
X-30728904Y15232095D01*
X-30728904Y15232095D02*
X-30824142Y15232095D01*
X-30824142Y15232095D02*
X-30919380Y15279714D01*
X-30919380Y15279714D02*
X-30967000Y15327333D01*
X-30967000Y15327333D02*
X-31014619Y15422571D01*
X-31014619Y15422571D02*
X-31014619Y15660666D01*
X-31014619Y15660666D02*
X-30967000Y15803523D01*
X-31157476Y15517809D02*
X-29871761Y15517809D01*
X-30014619Y16755904D02*
X-30014619Y16184476D01*
X-30014619Y16470190D02*
X-31014619Y16470190D01*
X-31014619Y16470190D02*
X-30871761Y16374952D01*
X-30871761Y16374952D02*
X-30776523Y16279714D01*
X-30776523Y16279714D02*
X-30728904Y16184476D01*
%TO.C,D7*%
X-7519094Y-3066380D02*
X-7519094Y-2066380D01*
X-7519094Y-2066380D02*
X-7280999Y-2066380D01*
X-7280999Y-2066380D02*
X-7138142Y-2114000D01*
X-7138142Y-2114000D02*
X-7042904Y-2209238D01*
X-7042904Y-2209238D02*
X-6995285Y-2304476D01*
X-6995285Y-2304476D02*
X-6947666Y-2494952D01*
X-6947666Y-2494952D02*
X-6947666Y-2637809D01*
X-6947666Y-2637809D02*
X-6995285Y-2828285D01*
X-6995285Y-2828285D02*
X-7042904Y-2923523D01*
X-7042904Y-2923523D02*
X-7138142Y-3018761D01*
X-7138142Y-3018761D02*
X-7280999Y-3066380D01*
X-7280999Y-3066380D02*
X-7519094Y-3066380D01*
X-6614332Y-2066380D02*
X-5947666Y-2066380D01*
X-5947666Y-2066380D02*
X-6376237Y-3066380D01*
%TO.C,Q2*%
X2292761Y-14424619D02*
X2197523Y-14377000D01*
X2197523Y-14377000D02*
X2102285Y-14281761D01*
X2102285Y-14281761D02*
X1959428Y-14138904D01*
X1959428Y-14138904D02*
X1864190Y-14091285D01*
X1864190Y-14091285D02*
X1768952Y-14091285D01*
X1816571Y-14329380D02*
X1721333Y-14281761D01*
X1721333Y-14281761D02*
X1626095Y-14186523D01*
X1626095Y-14186523D02*
X1578476Y-13996047D01*
X1578476Y-13996047D02*
X1578476Y-13662714D01*
X1578476Y-13662714D02*
X1626095Y-13472238D01*
X1626095Y-13472238D02*
X1721333Y-13377000D01*
X1721333Y-13377000D02*
X1816571Y-13329380D01*
X1816571Y-13329380D02*
X2007047Y-13329380D01*
X2007047Y-13329380D02*
X2102285Y-13377000D01*
X2102285Y-13377000D02*
X2197523Y-13472238D01*
X2197523Y-13472238D02*
X2245142Y-13662714D01*
X2245142Y-13662714D02*
X2245142Y-13996047D01*
X2245142Y-13996047D02*
X2197523Y-14186523D01*
X2197523Y-14186523D02*
X2102285Y-14281761D01*
X2102285Y-14281761D02*
X2007047Y-14329380D01*
X2007047Y-14329380D02*
X1816571Y-14329380D01*
X2626095Y-13424619D02*
X2673714Y-13377000D01*
X2673714Y-13377000D02*
X2768952Y-13329380D01*
X2768952Y-13329380D02*
X3007047Y-13329380D01*
X3007047Y-13329380D02*
X3102285Y-13377000D01*
X3102285Y-13377000D02*
X3149904Y-13424619D01*
X3149904Y-13424619D02*
X3197523Y-13519857D01*
X3197523Y-13519857D02*
X3197523Y-13615095D01*
X3197523Y-13615095D02*
X3149904Y-13757952D01*
X3149904Y-13757952D02*
X2578476Y-14329380D01*
X2578476Y-14329380D02*
X3197523Y-14329380D01*
%TO.C,C19*%
X-32138857Y-11034142D02*
X-32186476Y-11081761D01*
X-32186476Y-11081761D02*
X-32329333Y-11129380D01*
X-32329333Y-11129380D02*
X-32424571Y-11129380D01*
X-32424571Y-11129380D02*
X-32567428Y-11081761D01*
X-32567428Y-11081761D02*
X-32662666Y-10986523D01*
X-32662666Y-10986523D02*
X-32710285Y-10891285D01*
X-32710285Y-10891285D02*
X-32757904Y-10700809D01*
X-32757904Y-10700809D02*
X-32757904Y-10557952D01*
X-32757904Y-10557952D02*
X-32710285Y-10367476D01*
X-32710285Y-10367476D02*
X-32662666Y-10272238D01*
X-32662666Y-10272238D02*
X-32567428Y-10177000D01*
X-32567428Y-10177000D02*
X-32424571Y-10129380D01*
X-32424571Y-10129380D02*
X-32329333Y-10129380D01*
X-32329333Y-10129380D02*
X-32186476Y-10177000D01*
X-32186476Y-10177000D02*
X-32138857Y-10224619D01*
X-31186476Y-11129380D02*
X-31757904Y-11129380D01*
X-31472190Y-11129380D02*
X-31472190Y-10129380D01*
X-31472190Y-10129380D02*
X-31567428Y-10272238D01*
X-31567428Y-10272238D02*
X-31662666Y-10367476D01*
X-31662666Y-10367476D02*
X-31757904Y-10415095D01*
X-30710285Y-11129380D02*
X-30519809Y-11129380D01*
X-30519809Y-11129380D02*
X-30424571Y-11081761D01*
X-30424571Y-11081761D02*
X-30376952Y-11034142D01*
X-30376952Y-11034142D02*
X-30281714Y-10891285D01*
X-30281714Y-10891285D02*
X-30234095Y-10700809D01*
X-30234095Y-10700809D02*
X-30234095Y-10319857D01*
X-30234095Y-10319857D02*
X-30281714Y-10224619D01*
X-30281714Y-10224619D02*
X-30329333Y-10177000D01*
X-30329333Y-10177000D02*
X-30424571Y-10129380D01*
X-30424571Y-10129380D02*
X-30615047Y-10129380D01*
X-30615047Y-10129380D02*
X-30710285Y-10177000D01*
X-30710285Y-10177000D02*
X-30757904Y-10224619D01*
X-30757904Y-10224619D02*
X-30805523Y-10319857D01*
X-30805523Y-10319857D02*
X-30805523Y-10557952D01*
X-30805523Y-10557952D02*
X-30757904Y-10653190D01*
X-30757904Y-10653190D02*
X-30710285Y-10700809D01*
X-30710285Y-10700809D02*
X-30615047Y-10748428D01*
X-30615047Y-10748428D02*
X-30424571Y-10748428D01*
X-30424571Y-10748428D02*
X-30329333Y-10700809D01*
X-30329333Y-10700809D02*
X-30281714Y-10653190D01*
X-30281714Y-10653190D02*
X-30234095Y-10557952D01*
%TO.C,D4*%
X-48236094Y-14996380D02*
X-48236094Y-13996380D01*
X-48236094Y-13996380D02*
X-47997999Y-13996380D01*
X-47997999Y-13996380D02*
X-47855142Y-14044000D01*
X-47855142Y-14044000D02*
X-47759904Y-14139238D01*
X-47759904Y-14139238D02*
X-47712285Y-14234476D01*
X-47712285Y-14234476D02*
X-47664666Y-14424952D01*
X-47664666Y-14424952D02*
X-47664666Y-14567809D01*
X-47664666Y-14567809D02*
X-47712285Y-14758285D01*
X-47712285Y-14758285D02*
X-47759904Y-14853523D01*
X-47759904Y-14853523D02*
X-47855142Y-14948761D01*
X-47855142Y-14948761D02*
X-47997999Y-14996380D01*
X-47997999Y-14996380D02*
X-48236094Y-14996380D01*
X-46807523Y-14329714D02*
X-46807523Y-14996380D01*
X-47045618Y-13948761D02*
X-47283713Y-14663047D01*
X-47283713Y-14663047D02*
X-46664666Y-14663047D01*
%TO.C,NT1*%
X7239143Y-14407380D02*
X7239143Y-13407380D01*
X7239143Y-13407380D02*
X7810571Y-14407380D01*
X7810571Y-14407380D02*
X7810571Y-13407380D01*
X8143905Y-13407380D02*
X8715333Y-13407380D01*
X8429619Y-14407380D02*
X8429619Y-13407380D01*
X9572476Y-14407380D02*
X9001048Y-14407380D01*
X9286762Y-14407380D02*
X9286762Y-13407380D01*
X9286762Y-13407380D02*
X9191524Y-13550238D01*
X9191524Y-13550238D02*
X9096286Y-13645476D01*
X9096286Y-13645476D02*
X9001048Y-13693095D01*
%TO.C,C7*%
X-29285857Y6945333D02*
X-29238238Y6897714D01*
X-29238238Y6897714D02*
X-29190619Y6754857D01*
X-29190619Y6754857D02*
X-29190619Y6659619D01*
X-29190619Y6659619D02*
X-29238238Y6516762D01*
X-29238238Y6516762D02*
X-29333476Y6421524D01*
X-29333476Y6421524D02*
X-29428714Y6373905D01*
X-29428714Y6373905D02*
X-29619190Y6326286D01*
X-29619190Y6326286D02*
X-29762047Y6326286D01*
X-29762047Y6326286D02*
X-29952523Y6373905D01*
X-29952523Y6373905D02*
X-30047761Y6421524D01*
X-30047761Y6421524D02*
X-30143000Y6516762D01*
X-30143000Y6516762D02*
X-30190619Y6659619D01*
X-30190619Y6659619D02*
X-30190619Y6754857D01*
X-30190619Y6754857D02*
X-30143000Y6897714D01*
X-30143000Y6897714D02*
X-30095380Y6945333D01*
X-30190619Y7278667D02*
X-30190619Y7945333D01*
X-30190619Y7945333D02*
X-29190619Y7516762D01*
%TO.C,C10*%
X-37540857Y-4566857D02*
X-37493238Y-4614476D01*
X-37493238Y-4614476D02*
X-37445619Y-4757333D01*
X-37445619Y-4757333D02*
X-37445619Y-4852571D01*
X-37445619Y-4852571D02*
X-37493238Y-4995428D01*
X-37493238Y-4995428D02*
X-37588476Y-5090666D01*
X-37588476Y-5090666D02*
X-37683714Y-5138285D01*
X-37683714Y-5138285D02*
X-37874190Y-5185904D01*
X-37874190Y-5185904D02*
X-38017047Y-5185904D01*
X-38017047Y-5185904D02*
X-38207523Y-5138285D01*
X-38207523Y-5138285D02*
X-38302761Y-5090666D01*
X-38302761Y-5090666D02*
X-38398000Y-4995428D01*
X-38398000Y-4995428D02*
X-38445619Y-4852571D01*
X-38445619Y-4852571D02*
X-38445619Y-4757333D01*
X-38445619Y-4757333D02*
X-38398000Y-4614476D01*
X-38398000Y-4614476D02*
X-38350380Y-4566857D01*
X-37445619Y-3614476D02*
X-37445619Y-4185904D01*
X-37445619Y-3900190D02*
X-38445619Y-3900190D01*
X-38445619Y-3900190D02*
X-38302761Y-3995428D01*
X-38302761Y-3995428D02*
X-38207523Y-4090666D01*
X-38207523Y-4090666D02*
X-38159904Y-4185904D01*
X-38445619Y-2995428D02*
X-38445619Y-2900190D01*
X-38445619Y-2900190D02*
X-38398000Y-2804952D01*
X-38398000Y-2804952D02*
X-38350380Y-2757333D01*
X-38350380Y-2757333D02*
X-38255142Y-2709714D01*
X-38255142Y-2709714D02*
X-38064666Y-2662095D01*
X-38064666Y-2662095D02*
X-37826571Y-2662095D01*
X-37826571Y-2662095D02*
X-37636095Y-2709714D01*
X-37636095Y-2709714D02*
X-37540857Y-2757333D01*
X-37540857Y-2757333D02*
X-37493238Y-2804952D01*
X-37493238Y-2804952D02*
X-37445619Y-2900190D01*
X-37445619Y-2900190D02*
X-37445619Y-2995428D01*
X-37445619Y-2995428D02*
X-37493238Y-3090666D01*
X-37493238Y-3090666D02*
X-37540857Y-3138285D01*
X-37540857Y-3138285D02*
X-37636095Y-3185904D01*
X-37636095Y-3185904D02*
X-37826571Y-3233523D01*
X-37826571Y-3233523D02*
X-38064666Y-3233523D01*
X-38064666Y-3233523D02*
X-38255142Y-3185904D01*
X-38255142Y-3185904D02*
X-38350380Y-3138285D01*
X-38350380Y-3138285D02*
X-38398000Y-3090666D01*
X-38398000Y-3090666D02*
X-38445619Y-2995428D01*
%TO.C,SW1*%
X-49524238Y12128667D02*
X-49476619Y12271524D01*
X-49476619Y12271524D02*
X-49476619Y12509619D01*
X-49476619Y12509619D02*
X-49524238Y12604857D01*
X-49524238Y12604857D02*
X-49571857Y12652476D01*
X-49571857Y12652476D02*
X-49667095Y12700095D01*
X-49667095Y12700095D02*
X-49762333Y12700095D01*
X-49762333Y12700095D02*
X-49857571Y12652476D01*
X-49857571Y12652476D02*
X-49905190Y12604857D01*
X-49905190Y12604857D02*
X-49952809Y12509619D01*
X-49952809Y12509619D02*
X-50000428Y12319143D01*
X-50000428Y12319143D02*
X-50048047Y12223905D01*
X-50048047Y12223905D02*
X-50095666Y12176286D01*
X-50095666Y12176286D02*
X-50190904Y12128667D01*
X-50190904Y12128667D02*
X-50286142Y12128667D01*
X-50286142Y12128667D02*
X-50381380Y12176286D01*
X-50381380Y12176286D02*
X-50429000Y12223905D01*
X-50429000Y12223905D02*
X-50476619Y12319143D01*
X-50476619Y12319143D02*
X-50476619Y12557238D01*
X-50476619Y12557238D02*
X-50429000Y12700095D01*
X-50476619Y13033429D02*
X-49476619Y13271524D01*
X-49476619Y13271524D02*
X-50190904Y13462000D01*
X-50190904Y13462000D02*
X-49476619Y13652476D01*
X-49476619Y13652476D02*
X-50476619Y13890572D01*
X-49476619Y14795333D02*
X-49476619Y14223905D01*
X-49476619Y14509619D02*
X-50476619Y14509619D01*
X-50476619Y14509619D02*
X-50333761Y14414381D01*
X-50333761Y14414381D02*
X-50238523Y14319143D01*
X-50238523Y14319143D02*
X-50190904Y14223905D01*
%TO.C,D3*%
X-48236094Y-17028380D02*
X-48236094Y-16028380D01*
X-48236094Y-16028380D02*
X-47997999Y-16028380D01*
X-47997999Y-16028380D02*
X-47855142Y-16076000D01*
X-47855142Y-16076000D02*
X-47759904Y-16171238D01*
X-47759904Y-16171238D02*
X-47712285Y-16266476D01*
X-47712285Y-16266476D02*
X-47664666Y-16456952D01*
X-47664666Y-16456952D02*
X-47664666Y-16599809D01*
X-47664666Y-16599809D02*
X-47712285Y-16790285D01*
X-47712285Y-16790285D02*
X-47759904Y-16885523D01*
X-47759904Y-16885523D02*
X-47855142Y-16980761D01*
X-47855142Y-16980761D02*
X-47997999Y-17028380D01*
X-47997999Y-17028380D02*
X-48236094Y-17028380D01*
X-47331332Y-16028380D02*
X-46712285Y-16028380D01*
X-46712285Y-16028380D02*
X-47045618Y-16409333D01*
X-47045618Y-16409333D02*
X-46902761Y-16409333D01*
X-46902761Y-16409333D02*
X-46807523Y-16456952D01*
X-46807523Y-16456952D02*
X-46759904Y-16504571D01*
X-46759904Y-16504571D02*
X-46712285Y-16599809D01*
X-46712285Y-16599809D02*
X-46712285Y-16837904D01*
X-46712285Y-16837904D02*
X-46759904Y-16933142D01*
X-46759904Y-16933142D02*
X-46807523Y-16980761D01*
X-46807523Y-16980761D02*
X-46902761Y-17028380D01*
X-46902761Y-17028380D02*
X-47188475Y-17028380D01*
X-47188475Y-17028380D02*
X-47283713Y-16980761D01*
X-47283713Y-16980761D02*
X-47331332Y-16933142D01*
%TO.C,R41*%
X-26142619Y2164142D02*
X-26618809Y1830809D01*
X-26142619Y1592714D02*
X-27142619Y1592714D01*
X-27142619Y1592714D02*
X-27142619Y1973666D01*
X-27142619Y1973666D02*
X-27095000Y2068904D01*
X-27095000Y2068904D02*
X-27047380Y2116523D01*
X-27047380Y2116523D02*
X-26952142Y2164142D01*
X-26952142Y2164142D02*
X-26809285Y2164142D01*
X-26809285Y2164142D02*
X-26714047Y2116523D01*
X-26714047Y2116523D02*
X-26666428Y2068904D01*
X-26666428Y2068904D02*
X-26618809Y1973666D01*
X-26618809Y1973666D02*
X-26618809Y1592714D01*
X-26809285Y3021285D02*
X-26142619Y3021285D01*
X-27190238Y2783190D02*
X-26475952Y2545095D01*
X-26475952Y2545095D02*
X-26475952Y3164142D01*
X-26142619Y4068904D02*
X-26142619Y3497476D01*
X-26142619Y3783190D02*
X-27142619Y3783190D01*
X-27142619Y3783190D02*
X-26999761Y3687952D01*
X-26999761Y3687952D02*
X-26904523Y3592714D01*
X-26904523Y3592714D02*
X-26856904Y3497476D01*
%TO.C,R6*%
X-44362666Y-11916380D02*
X-44695999Y-11440190D01*
X-44934094Y-11916380D02*
X-44934094Y-10916380D01*
X-44934094Y-10916380D02*
X-44553142Y-10916380D01*
X-44553142Y-10916380D02*
X-44457904Y-10964000D01*
X-44457904Y-10964000D02*
X-44410285Y-11011619D01*
X-44410285Y-11011619D02*
X-44362666Y-11106857D01*
X-44362666Y-11106857D02*
X-44362666Y-11249714D01*
X-44362666Y-11249714D02*
X-44410285Y-11344952D01*
X-44410285Y-11344952D02*
X-44457904Y-11392571D01*
X-44457904Y-11392571D02*
X-44553142Y-11440190D01*
X-44553142Y-11440190D02*
X-44934094Y-11440190D01*
X-43505523Y-10916380D02*
X-43695999Y-10916380D01*
X-43695999Y-10916380D02*
X-43791237Y-10964000D01*
X-43791237Y-10964000D02*
X-43838856Y-11011619D01*
X-43838856Y-11011619D02*
X-43934094Y-11154476D01*
X-43934094Y-11154476D02*
X-43981713Y-11344952D01*
X-43981713Y-11344952D02*
X-43981713Y-11725904D01*
X-43981713Y-11725904D02*
X-43934094Y-11821142D01*
X-43934094Y-11821142D02*
X-43886475Y-11868761D01*
X-43886475Y-11868761D02*
X-43791237Y-11916380D01*
X-43791237Y-11916380D02*
X-43600761Y-11916380D01*
X-43600761Y-11916380D02*
X-43505523Y-11868761D01*
X-43505523Y-11868761D02*
X-43457904Y-11821142D01*
X-43457904Y-11821142D02*
X-43410285Y-11725904D01*
X-43410285Y-11725904D02*
X-43410285Y-11487809D01*
X-43410285Y-11487809D02*
X-43457904Y-11392571D01*
X-43457904Y-11392571D02*
X-43505523Y-11344952D01*
X-43505523Y-11344952D02*
X-43600761Y-11297333D01*
X-43600761Y-11297333D02*
X-43791237Y-11297333D01*
X-43791237Y-11297333D02*
X-43886475Y-11344952D01*
X-43886475Y-11344952D02*
X-43934094Y-11392571D01*
X-43934094Y-11392571D02*
X-43981713Y-11487809D01*
%TO.C,R37*%
X-35173857Y-9605380D02*
X-35507190Y-9129190D01*
X-35745285Y-9605380D02*
X-35745285Y-8605380D01*
X-35745285Y-8605380D02*
X-35364333Y-8605380D01*
X-35364333Y-8605380D02*
X-35269095Y-8653000D01*
X-35269095Y-8653000D02*
X-35221476Y-8700619D01*
X-35221476Y-8700619D02*
X-35173857Y-8795857D01*
X-35173857Y-8795857D02*
X-35173857Y-8938714D01*
X-35173857Y-8938714D02*
X-35221476Y-9033952D01*
X-35221476Y-9033952D02*
X-35269095Y-9081571D01*
X-35269095Y-9081571D02*
X-35364333Y-9129190D01*
X-35364333Y-9129190D02*
X-35745285Y-9129190D01*
X-34840523Y-8605380D02*
X-34221476Y-8605380D01*
X-34221476Y-8605380D02*
X-34554809Y-8986333D01*
X-34554809Y-8986333D02*
X-34411952Y-8986333D01*
X-34411952Y-8986333D02*
X-34316714Y-9033952D01*
X-34316714Y-9033952D02*
X-34269095Y-9081571D01*
X-34269095Y-9081571D02*
X-34221476Y-9176809D01*
X-34221476Y-9176809D02*
X-34221476Y-9414904D01*
X-34221476Y-9414904D02*
X-34269095Y-9510142D01*
X-34269095Y-9510142D02*
X-34316714Y-9557761D01*
X-34316714Y-9557761D02*
X-34411952Y-9605380D01*
X-34411952Y-9605380D02*
X-34697666Y-9605380D01*
X-34697666Y-9605380D02*
X-34792904Y-9557761D01*
X-34792904Y-9557761D02*
X-34840523Y-9510142D01*
X-33888142Y-8605380D02*
X-33221476Y-8605380D01*
X-33221476Y-8605380D02*
X-33650047Y-9605380D01*
%TO.C,R44*%
X-25954619Y2164142D02*
X-26430809Y1830809D01*
X-25954619Y1592714D02*
X-26954619Y1592714D01*
X-26954619Y1592714D02*
X-26954619Y1973666D01*
X-26954619Y1973666D02*
X-26907000Y2068904D01*
X-26907000Y2068904D02*
X-26859380Y2116523D01*
X-26859380Y2116523D02*
X-26764142Y2164142D01*
X-26764142Y2164142D02*
X-26621285Y2164142D01*
X-26621285Y2164142D02*
X-26526047Y2116523D01*
X-26526047Y2116523D02*
X-26478428Y2068904D01*
X-26478428Y2068904D02*
X-26430809Y1973666D01*
X-26430809Y1973666D02*
X-26430809Y1592714D01*
X-26621285Y3021285D02*
X-25954619Y3021285D01*
X-27002238Y2783190D02*
X-26287952Y2545095D01*
X-26287952Y2545095D02*
X-26287952Y3164142D01*
X-26621285Y3973666D02*
X-25954619Y3973666D01*
X-27002238Y3735571D02*
X-26287952Y3497476D01*
X-26287952Y3497476D02*
X-26287952Y4116523D01*
%TO.C,C22*%
X-26237857Y-883857D02*
X-26190238Y-931476D01*
X-26190238Y-931476D02*
X-26142619Y-1074333D01*
X-26142619Y-1074333D02*
X-26142619Y-1169571D01*
X-26142619Y-1169571D02*
X-26190238Y-1312428D01*
X-26190238Y-1312428D02*
X-26285476Y-1407666D01*
X-26285476Y-1407666D02*
X-26380714Y-1455285D01*
X-26380714Y-1455285D02*
X-26571190Y-1502904D01*
X-26571190Y-1502904D02*
X-26714047Y-1502904D01*
X-26714047Y-1502904D02*
X-26904523Y-1455285D01*
X-26904523Y-1455285D02*
X-26999761Y-1407666D01*
X-26999761Y-1407666D02*
X-27095000Y-1312428D01*
X-27095000Y-1312428D02*
X-27142619Y-1169571D01*
X-27142619Y-1169571D02*
X-27142619Y-1074333D01*
X-27142619Y-1074333D02*
X-27095000Y-931476D01*
X-27095000Y-931476D02*
X-27047380Y-883857D01*
X-27047380Y-502904D02*
X-27095000Y-455285D01*
X-27095000Y-455285D02*
X-27142619Y-360047D01*
X-27142619Y-360047D02*
X-27142619Y-121952D01*
X-27142619Y-121952D02*
X-27095000Y-26714D01*
X-27095000Y-26714D02*
X-27047380Y20904D01*
X-27047380Y20904D02*
X-26952142Y68523D01*
X-26952142Y68523D02*
X-26856904Y68523D01*
X-26856904Y68523D02*
X-26714047Y20904D01*
X-26714047Y20904D02*
X-26142619Y-550523D01*
X-26142619Y-550523D02*
X-26142619Y68523D01*
X-27047380Y449476D02*
X-27095000Y497095D01*
X-27095000Y497095D02*
X-27142619Y592333D01*
X-27142619Y592333D02*
X-27142619Y830428D01*
X-27142619Y830428D02*
X-27095000Y925666D01*
X-27095000Y925666D02*
X-27047380Y973285D01*
X-27047380Y973285D02*
X-26952142Y1020904D01*
X-26952142Y1020904D02*
X-26856904Y1020904D01*
X-26856904Y1020904D02*
X-26714047Y973285D01*
X-26714047Y973285D02*
X-26142619Y401857D01*
X-26142619Y401857D02*
X-26142619Y1020904D01*
%TO.C,C21*%
X-6657857Y19931142D02*
X-6610238Y19883523D01*
X-6610238Y19883523D02*
X-6562619Y19740666D01*
X-6562619Y19740666D02*
X-6562619Y19645428D01*
X-6562619Y19645428D02*
X-6610238Y19502571D01*
X-6610238Y19502571D02*
X-6705476Y19407333D01*
X-6705476Y19407333D02*
X-6800714Y19359714D01*
X-6800714Y19359714D02*
X-6991190Y19312095D01*
X-6991190Y19312095D02*
X-7134047Y19312095D01*
X-7134047Y19312095D02*
X-7324523Y19359714D01*
X-7324523Y19359714D02*
X-7419761Y19407333D01*
X-7419761Y19407333D02*
X-7515000Y19502571D01*
X-7515000Y19502571D02*
X-7562619Y19645428D01*
X-7562619Y19645428D02*
X-7562619Y19740666D01*
X-7562619Y19740666D02*
X-7515000Y19883523D01*
X-7515000Y19883523D02*
X-7467380Y19931142D01*
X-7467380Y20312095D02*
X-7515000Y20359714D01*
X-7515000Y20359714D02*
X-7562619Y20454952D01*
X-7562619Y20454952D02*
X-7562619Y20693047D01*
X-7562619Y20693047D02*
X-7515000Y20788285D01*
X-7515000Y20788285D02*
X-7467380Y20835904D01*
X-7467380Y20835904D02*
X-7372142Y20883523D01*
X-7372142Y20883523D02*
X-7276904Y20883523D01*
X-7276904Y20883523D02*
X-7134047Y20835904D01*
X-7134047Y20835904D02*
X-6562619Y20264476D01*
X-6562619Y20264476D02*
X-6562619Y20883523D01*
X-6562619Y21835904D02*
X-6562619Y21264476D01*
X-6562619Y21550190D02*
X-7562619Y21550190D01*
X-7562619Y21550190D02*
X-7419761Y21454952D01*
X-7419761Y21454952D02*
X-7324523Y21359714D01*
X-7324523Y21359714D02*
X-7276904Y21264476D01*
%TO.C,Y3*%
X-29228809Y6254809D02*
X-28752619Y6254809D01*
X-29752619Y5921476D02*
X-29228809Y6254809D01*
X-29228809Y6254809D02*
X-29752619Y6588142D01*
X-29752619Y6826238D02*
X-29752619Y7445285D01*
X-29752619Y7445285D02*
X-29371666Y7111952D01*
X-29371666Y7111952D02*
X-29371666Y7254809D01*
X-29371666Y7254809D02*
X-29324047Y7350047D01*
X-29324047Y7350047D02*
X-29276428Y7397666D01*
X-29276428Y7397666D02*
X-29181190Y7445285D01*
X-29181190Y7445285D02*
X-28943095Y7445285D01*
X-28943095Y7445285D02*
X-28847857Y7397666D01*
X-28847857Y7397666D02*
X-28800238Y7350047D01*
X-28800238Y7350047D02*
X-28752619Y7254809D01*
X-28752619Y7254809D02*
X-28752619Y6969095D01*
X-28752619Y6969095D02*
X-28800238Y6873857D01*
X-28800238Y6873857D02*
X-28847857Y6826238D01*
%TO.C,R39*%
X-35173857Y-13989380D02*
X-35507190Y-13513190D01*
X-35745285Y-13989380D02*
X-35745285Y-12989380D01*
X-35745285Y-12989380D02*
X-35364333Y-12989380D01*
X-35364333Y-12989380D02*
X-35269095Y-13037000D01*
X-35269095Y-13037000D02*
X-35221476Y-13084619D01*
X-35221476Y-13084619D02*
X-35173857Y-13179857D01*
X-35173857Y-13179857D02*
X-35173857Y-13322714D01*
X-35173857Y-13322714D02*
X-35221476Y-13417952D01*
X-35221476Y-13417952D02*
X-35269095Y-13465571D01*
X-35269095Y-13465571D02*
X-35364333Y-13513190D01*
X-35364333Y-13513190D02*
X-35745285Y-13513190D01*
X-34840523Y-12989380D02*
X-34221476Y-12989380D01*
X-34221476Y-12989380D02*
X-34554809Y-13370333D01*
X-34554809Y-13370333D02*
X-34411952Y-13370333D01*
X-34411952Y-13370333D02*
X-34316714Y-13417952D01*
X-34316714Y-13417952D02*
X-34269095Y-13465571D01*
X-34269095Y-13465571D02*
X-34221476Y-13560809D01*
X-34221476Y-13560809D02*
X-34221476Y-13798904D01*
X-34221476Y-13798904D02*
X-34269095Y-13894142D01*
X-34269095Y-13894142D02*
X-34316714Y-13941761D01*
X-34316714Y-13941761D02*
X-34411952Y-13989380D01*
X-34411952Y-13989380D02*
X-34697666Y-13989380D01*
X-34697666Y-13989380D02*
X-34792904Y-13941761D01*
X-34792904Y-13941761D02*
X-34840523Y-13894142D01*
X-33745285Y-13989380D02*
X-33554809Y-13989380D01*
X-33554809Y-13989380D02*
X-33459571Y-13941761D01*
X-33459571Y-13941761D02*
X-33411952Y-13894142D01*
X-33411952Y-13894142D02*
X-33316714Y-13751285D01*
X-33316714Y-13751285D02*
X-33269095Y-13560809D01*
X-33269095Y-13560809D02*
X-33269095Y-13179857D01*
X-33269095Y-13179857D02*
X-33316714Y-13084619D01*
X-33316714Y-13084619D02*
X-33364333Y-13037000D01*
X-33364333Y-13037000D02*
X-33459571Y-12989380D01*
X-33459571Y-12989380D02*
X-33650047Y-12989380D01*
X-33650047Y-12989380D02*
X-33745285Y-13037000D01*
X-33745285Y-13037000D02*
X-33792904Y-13084619D01*
X-33792904Y-13084619D02*
X-33840523Y-13179857D01*
X-33840523Y-13179857D02*
X-33840523Y-13417952D01*
X-33840523Y-13417952D02*
X-33792904Y-13513190D01*
X-33792904Y-13513190D02*
X-33745285Y-13560809D01*
X-33745285Y-13560809D02*
X-33650047Y-13608428D01*
X-33650047Y-13608428D02*
X-33459571Y-13608428D01*
X-33459571Y-13608428D02*
X-33364333Y-13560809D01*
X-33364333Y-13560809D02*
X-33316714Y-13513190D01*
X-33316714Y-13513190D02*
X-33269095Y-13417952D01*
%TO.C,C5*%
X-17311666Y-4710142D02*
X-17359285Y-4757761D01*
X-17359285Y-4757761D02*
X-17502142Y-4805380D01*
X-17502142Y-4805380D02*
X-17597380Y-4805380D01*
X-17597380Y-4805380D02*
X-17740237Y-4757761D01*
X-17740237Y-4757761D02*
X-17835475Y-4662523D01*
X-17835475Y-4662523D02*
X-17883094Y-4567285D01*
X-17883094Y-4567285D02*
X-17930713Y-4376809D01*
X-17930713Y-4376809D02*
X-17930713Y-4233952D01*
X-17930713Y-4233952D02*
X-17883094Y-4043476D01*
X-17883094Y-4043476D02*
X-17835475Y-3948238D01*
X-17835475Y-3948238D02*
X-17740237Y-3853000D01*
X-17740237Y-3853000D02*
X-17597380Y-3805380D01*
X-17597380Y-3805380D02*
X-17502142Y-3805380D01*
X-17502142Y-3805380D02*
X-17359285Y-3853000D01*
X-17359285Y-3853000D02*
X-17311666Y-3900619D01*
X-16406904Y-3805380D02*
X-16883094Y-3805380D01*
X-16883094Y-3805380D02*
X-16930713Y-4281571D01*
X-16930713Y-4281571D02*
X-16883094Y-4233952D01*
X-16883094Y-4233952D02*
X-16787856Y-4186333D01*
X-16787856Y-4186333D02*
X-16549761Y-4186333D01*
X-16549761Y-4186333D02*
X-16454523Y-4233952D01*
X-16454523Y-4233952D02*
X-16406904Y-4281571D01*
X-16406904Y-4281571D02*
X-16359285Y-4376809D01*
X-16359285Y-4376809D02*
X-16359285Y-4614904D01*
X-16359285Y-4614904D02*
X-16406904Y-4710142D01*
X-16406904Y-4710142D02*
X-16454523Y-4757761D01*
X-16454523Y-4757761D02*
X-16549761Y-4805380D01*
X-16549761Y-4805380D02*
X-16787856Y-4805380D01*
X-16787856Y-4805380D02*
X-16883094Y-4757761D01*
X-16883094Y-4757761D02*
X-16930713Y-4710142D01*
%TO.C,C8*%
X-33476857Y-4090666D02*
X-33429238Y-4138285D01*
X-33429238Y-4138285D02*
X-33381619Y-4281142D01*
X-33381619Y-4281142D02*
X-33381619Y-4376380D01*
X-33381619Y-4376380D02*
X-33429238Y-4519237D01*
X-33429238Y-4519237D02*
X-33524476Y-4614475D01*
X-33524476Y-4614475D02*
X-33619714Y-4662094D01*
X-33619714Y-4662094D02*
X-33810190Y-4709713D01*
X-33810190Y-4709713D02*
X-33953047Y-4709713D01*
X-33953047Y-4709713D02*
X-34143523Y-4662094D01*
X-34143523Y-4662094D02*
X-34238761Y-4614475D01*
X-34238761Y-4614475D02*
X-34334000Y-4519237D01*
X-34334000Y-4519237D02*
X-34381619Y-4376380D01*
X-34381619Y-4376380D02*
X-34381619Y-4281142D01*
X-34381619Y-4281142D02*
X-34334000Y-4138285D01*
X-34334000Y-4138285D02*
X-34286380Y-4090666D01*
X-33953047Y-3519237D02*
X-34000666Y-3614475D01*
X-34000666Y-3614475D02*
X-34048285Y-3662094D01*
X-34048285Y-3662094D02*
X-34143523Y-3709713D01*
X-34143523Y-3709713D02*
X-34191142Y-3709713D01*
X-34191142Y-3709713D02*
X-34286380Y-3662094D01*
X-34286380Y-3662094D02*
X-34334000Y-3614475D01*
X-34334000Y-3614475D02*
X-34381619Y-3519237D01*
X-34381619Y-3519237D02*
X-34381619Y-3328761D01*
X-34381619Y-3328761D02*
X-34334000Y-3233523D01*
X-34334000Y-3233523D02*
X-34286380Y-3185904D01*
X-34286380Y-3185904D02*
X-34191142Y-3138285D01*
X-34191142Y-3138285D02*
X-34143523Y-3138285D01*
X-34143523Y-3138285D02*
X-34048285Y-3185904D01*
X-34048285Y-3185904D02*
X-34000666Y-3233523D01*
X-34000666Y-3233523D02*
X-33953047Y-3328761D01*
X-33953047Y-3328761D02*
X-33953047Y-3519237D01*
X-33953047Y-3519237D02*
X-33905428Y-3614475D01*
X-33905428Y-3614475D02*
X-33857809Y-3662094D01*
X-33857809Y-3662094D02*
X-33762571Y-3709713D01*
X-33762571Y-3709713D02*
X-33572095Y-3709713D01*
X-33572095Y-3709713D02*
X-33476857Y-3662094D01*
X-33476857Y-3662094D02*
X-33429238Y-3614475D01*
X-33429238Y-3614475D02*
X-33381619Y-3519237D01*
X-33381619Y-3519237D02*
X-33381619Y-3328761D01*
X-33381619Y-3328761D02*
X-33429238Y-3233523D01*
X-33429238Y-3233523D02*
X-33476857Y-3185904D01*
X-33476857Y-3185904D02*
X-33572095Y-3138285D01*
X-33572095Y-3138285D02*
X-33762571Y-3138285D01*
X-33762571Y-3138285D02*
X-33857809Y-3185904D01*
X-33857809Y-3185904D02*
X-33905428Y-3233523D01*
X-33905428Y-3233523D02*
X-33953047Y-3328761D01*
%TO.C,R7*%
X-44362666Y-9884380D02*
X-44695999Y-9408190D01*
X-44934094Y-9884380D02*
X-44934094Y-8884380D01*
X-44934094Y-8884380D02*
X-44553142Y-8884380D01*
X-44553142Y-8884380D02*
X-44457904Y-8932000D01*
X-44457904Y-8932000D02*
X-44410285Y-8979619D01*
X-44410285Y-8979619D02*
X-44362666Y-9074857D01*
X-44362666Y-9074857D02*
X-44362666Y-9217714D01*
X-44362666Y-9217714D02*
X-44410285Y-9312952D01*
X-44410285Y-9312952D02*
X-44457904Y-9360571D01*
X-44457904Y-9360571D02*
X-44553142Y-9408190D01*
X-44553142Y-9408190D02*
X-44934094Y-9408190D01*
X-44029332Y-8884380D02*
X-43362666Y-8884380D01*
X-43362666Y-8884380D02*
X-43791237Y-9884380D01*
%TO.C,R53*%
X-24618619Y-883857D02*
X-25094809Y-1217190D01*
X-24618619Y-1455285D02*
X-25618619Y-1455285D01*
X-25618619Y-1455285D02*
X-25618619Y-1074333D01*
X-25618619Y-1074333D02*
X-25571000Y-979095D01*
X-25571000Y-979095D02*
X-25523380Y-931476D01*
X-25523380Y-931476D02*
X-25428142Y-883857D01*
X-25428142Y-883857D02*
X-25285285Y-883857D01*
X-25285285Y-883857D02*
X-25190047Y-931476D01*
X-25190047Y-931476D02*
X-25142428Y-979095D01*
X-25142428Y-979095D02*
X-25094809Y-1074333D01*
X-25094809Y-1074333D02*
X-25094809Y-1455285D01*
X-25618619Y20904D02*
X-25618619Y-455285D01*
X-25618619Y-455285D02*
X-25142428Y-502904D01*
X-25142428Y-502904D02*
X-25190047Y-455285D01*
X-25190047Y-455285D02*
X-25237666Y-360047D01*
X-25237666Y-360047D02*
X-25237666Y-121952D01*
X-25237666Y-121952D02*
X-25190047Y-26714D01*
X-25190047Y-26714D02*
X-25142428Y20904D01*
X-25142428Y20904D02*
X-25047190Y68523D01*
X-25047190Y68523D02*
X-24809095Y68523D01*
X-24809095Y68523D02*
X-24713857Y20904D01*
X-24713857Y20904D02*
X-24666238Y-26714D01*
X-24666238Y-26714D02*
X-24618619Y-121952D01*
X-24618619Y-121952D02*
X-24618619Y-360047D01*
X-24618619Y-360047D02*
X-24666238Y-455285D01*
X-24666238Y-455285D02*
X-24713857Y-502904D01*
X-25618619Y401857D02*
X-25618619Y1020904D01*
X-25618619Y1020904D02*
X-25237666Y687571D01*
X-25237666Y687571D02*
X-25237666Y830428D01*
X-25237666Y830428D02*
X-25190047Y925666D01*
X-25190047Y925666D02*
X-25142428Y973285D01*
X-25142428Y973285D02*
X-25047190Y1020904D01*
X-25047190Y1020904D02*
X-24809095Y1020904D01*
X-24809095Y1020904D02*
X-24713857Y973285D01*
X-24713857Y973285D02*
X-24666238Y925666D01*
X-24666238Y925666D02*
X-24618619Y830428D01*
X-24618619Y830428D02*
X-24618619Y544714D01*
X-24618619Y544714D02*
X-24666238Y449476D01*
X-24666238Y449476D02*
X-24713857Y401857D01*
%TO.C,L2*%
X-29160619Y14883333D02*
X-29160619Y14407143D01*
X-29160619Y14407143D02*
X-30160619Y14407143D01*
X-30065380Y15169048D02*
X-30113000Y15216667D01*
X-30113000Y15216667D02*
X-30160619Y15311905D01*
X-30160619Y15311905D02*
X-30160619Y15550000D01*
X-30160619Y15550000D02*
X-30113000Y15645238D01*
X-30113000Y15645238D02*
X-30065380Y15692857D01*
X-30065380Y15692857D02*
X-29970142Y15740476D01*
X-29970142Y15740476D02*
X-29874904Y15740476D01*
X-29874904Y15740476D02*
X-29732047Y15692857D01*
X-29732047Y15692857D02*
X-29160619Y15121429D01*
X-29160619Y15121429D02*
X-29160619Y15740476D01*
%TO.C,R9*%
X9816333Y-11092380D02*
X9483000Y-10616190D01*
X9244905Y-11092380D02*
X9244905Y-10092380D01*
X9244905Y-10092380D02*
X9625857Y-10092380D01*
X9625857Y-10092380D02*
X9721095Y-10140000D01*
X9721095Y-10140000D02*
X9768714Y-10187619D01*
X9768714Y-10187619D02*
X9816333Y-10282857D01*
X9816333Y-10282857D02*
X9816333Y-10425714D01*
X9816333Y-10425714D02*
X9768714Y-10520952D01*
X9768714Y-10520952D02*
X9721095Y-10568571D01*
X9721095Y-10568571D02*
X9625857Y-10616190D01*
X9625857Y-10616190D02*
X9244905Y-10616190D01*
X10292524Y-11092380D02*
X10483000Y-11092380D01*
X10483000Y-11092380D02*
X10578238Y-11044761D01*
X10578238Y-11044761D02*
X10625857Y-10997142D01*
X10625857Y-10997142D02*
X10721095Y-10854285D01*
X10721095Y-10854285D02*
X10768714Y-10663809D01*
X10768714Y-10663809D02*
X10768714Y-10282857D01*
X10768714Y-10282857D02*
X10721095Y-10187619D01*
X10721095Y-10187619D02*
X10673476Y-10140000D01*
X10673476Y-10140000D02*
X10578238Y-10092380D01*
X10578238Y-10092380D02*
X10387762Y-10092380D01*
X10387762Y-10092380D02*
X10292524Y-10140000D01*
X10292524Y-10140000D02*
X10244905Y-10187619D01*
X10244905Y-10187619D02*
X10197286Y-10282857D01*
X10197286Y-10282857D02*
X10197286Y-10520952D01*
X10197286Y-10520952D02*
X10244905Y-10616190D01*
X10244905Y-10616190D02*
X10292524Y-10663809D01*
X10292524Y-10663809D02*
X10387762Y-10711428D01*
X10387762Y-10711428D02*
X10578238Y-10711428D01*
X10578238Y-10711428D02*
X10673476Y-10663809D01*
X10673476Y-10663809D02*
X10721095Y-10616190D01*
X10721095Y-10616190D02*
X10768714Y-10520952D01*
%TO.C,C16*%
X-45346857Y6995857D02*
X-45394476Y6948238D01*
X-45394476Y6948238D02*
X-45537333Y6900619D01*
X-45537333Y6900619D02*
X-45632571Y6900619D01*
X-45632571Y6900619D02*
X-45775428Y6948238D01*
X-45775428Y6948238D02*
X-45870666Y7043476D01*
X-45870666Y7043476D02*
X-45918285Y7138714D01*
X-45918285Y7138714D02*
X-45965904Y7329190D01*
X-45965904Y7329190D02*
X-45965904Y7472047D01*
X-45965904Y7472047D02*
X-45918285Y7662523D01*
X-45918285Y7662523D02*
X-45870666Y7757761D01*
X-45870666Y7757761D02*
X-45775428Y7853000D01*
X-45775428Y7853000D02*
X-45632571Y7900619D01*
X-45632571Y7900619D02*
X-45537333Y7900619D01*
X-45537333Y7900619D02*
X-45394476Y7853000D01*
X-45394476Y7853000D02*
X-45346857Y7805380D01*
X-44394476Y6900619D02*
X-44965904Y6900619D01*
X-44680190Y6900619D02*
X-44680190Y7900619D01*
X-44680190Y7900619D02*
X-44775428Y7757761D01*
X-44775428Y7757761D02*
X-44870666Y7662523D01*
X-44870666Y7662523D02*
X-44965904Y7614904D01*
X-43537333Y7900619D02*
X-43727809Y7900619D01*
X-43727809Y7900619D02*
X-43823047Y7853000D01*
X-43823047Y7853000D02*
X-43870666Y7805380D01*
X-43870666Y7805380D02*
X-43965904Y7662523D01*
X-43965904Y7662523D02*
X-44013523Y7472047D01*
X-44013523Y7472047D02*
X-44013523Y7091095D01*
X-44013523Y7091095D02*
X-43965904Y6995857D01*
X-43965904Y6995857D02*
X-43918285Y6948238D01*
X-43918285Y6948238D02*
X-43823047Y6900619D01*
X-43823047Y6900619D02*
X-43632571Y6900619D01*
X-43632571Y6900619D02*
X-43537333Y6948238D01*
X-43537333Y6948238D02*
X-43489714Y6995857D01*
X-43489714Y6995857D02*
X-43442095Y7091095D01*
X-43442095Y7091095D02*
X-43442095Y7329190D01*
X-43442095Y7329190D02*
X-43489714Y7424428D01*
X-43489714Y7424428D02*
X-43537333Y7472047D01*
X-43537333Y7472047D02*
X-43632571Y7519666D01*
X-43632571Y7519666D02*
X-43823047Y7519666D01*
X-43823047Y7519666D02*
X-43918285Y7472047D01*
X-43918285Y7472047D02*
X-43965904Y7424428D01*
X-43965904Y7424428D02*
X-44013523Y7329190D01*
%TO.C,D6*%
X-48236094Y-12939380D02*
X-48236094Y-11939380D01*
X-48236094Y-11939380D02*
X-47997999Y-11939380D01*
X-47997999Y-11939380D02*
X-47855142Y-11987000D01*
X-47855142Y-11987000D02*
X-47759904Y-12082238D01*
X-47759904Y-12082238D02*
X-47712285Y-12177476D01*
X-47712285Y-12177476D02*
X-47664666Y-12367952D01*
X-47664666Y-12367952D02*
X-47664666Y-12510809D01*
X-47664666Y-12510809D02*
X-47712285Y-12701285D01*
X-47712285Y-12701285D02*
X-47759904Y-12796523D01*
X-47759904Y-12796523D02*
X-47855142Y-12891761D01*
X-47855142Y-12891761D02*
X-47997999Y-12939380D01*
X-47997999Y-12939380D02*
X-48236094Y-12939380D01*
X-46807523Y-11939380D02*
X-46997999Y-11939380D01*
X-46997999Y-11939380D02*
X-47093237Y-11987000D01*
X-47093237Y-11987000D02*
X-47140856Y-12034619D01*
X-47140856Y-12034619D02*
X-47236094Y-12177476D01*
X-47236094Y-12177476D02*
X-47283713Y-12367952D01*
X-47283713Y-12367952D02*
X-47283713Y-12748904D01*
X-47283713Y-12748904D02*
X-47236094Y-12844142D01*
X-47236094Y-12844142D02*
X-47188475Y-12891761D01*
X-47188475Y-12891761D02*
X-47093237Y-12939380D01*
X-47093237Y-12939380D02*
X-46902761Y-12939380D01*
X-46902761Y-12939380D02*
X-46807523Y-12891761D01*
X-46807523Y-12891761D02*
X-46759904Y-12844142D01*
X-46759904Y-12844142D02*
X-46712285Y-12748904D01*
X-46712285Y-12748904D02*
X-46712285Y-12510809D01*
X-46712285Y-12510809D02*
X-46759904Y-12415571D01*
X-46759904Y-12415571D02*
X-46807523Y-12367952D01*
X-46807523Y-12367952D02*
X-46902761Y-12320333D01*
X-46902761Y-12320333D02*
X-47093237Y-12320333D01*
X-47093237Y-12320333D02*
X-47188475Y-12367952D01*
X-47188475Y-12367952D02*
X-47236094Y-12415571D01*
X-47236094Y-12415571D02*
X-47283713Y-12510809D01*
%TO.C,C11*%
X-36016857Y-4566857D02*
X-35969238Y-4614476D01*
X-35969238Y-4614476D02*
X-35921619Y-4757333D01*
X-35921619Y-4757333D02*
X-35921619Y-4852571D01*
X-35921619Y-4852571D02*
X-35969238Y-4995428D01*
X-35969238Y-4995428D02*
X-36064476Y-5090666D01*
X-36064476Y-5090666D02*
X-36159714Y-5138285D01*
X-36159714Y-5138285D02*
X-36350190Y-5185904D01*
X-36350190Y-5185904D02*
X-36493047Y-5185904D01*
X-36493047Y-5185904D02*
X-36683523Y-5138285D01*
X-36683523Y-5138285D02*
X-36778761Y-5090666D01*
X-36778761Y-5090666D02*
X-36874000Y-4995428D01*
X-36874000Y-4995428D02*
X-36921619Y-4852571D01*
X-36921619Y-4852571D02*
X-36921619Y-4757333D01*
X-36921619Y-4757333D02*
X-36874000Y-4614476D01*
X-36874000Y-4614476D02*
X-36826380Y-4566857D01*
X-35921619Y-3614476D02*
X-35921619Y-4185904D01*
X-35921619Y-3900190D02*
X-36921619Y-3900190D01*
X-36921619Y-3900190D02*
X-36778761Y-3995428D01*
X-36778761Y-3995428D02*
X-36683523Y-4090666D01*
X-36683523Y-4090666D02*
X-36635904Y-4185904D01*
X-35921619Y-2662095D02*
X-35921619Y-3233523D01*
X-35921619Y-2947809D02*
X-36921619Y-2947809D01*
X-36921619Y-2947809D02*
X-36778761Y-3043047D01*
X-36778761Y-3043047D02*
X-36683523Y-3138285D01*
X-36683523Y-3138285D02*
X-36635904Y-3233523D01*
%TO.C,D2*%
X467905Y-3089380D02*
X467905Y-2089380D01*
X467905Y-2089380D02*
X706000Y-2089380D01*
X706000Y-2089380D02*
X848857Y-2137000D01*
X848857Y-2137000D02*
X944095Y-2232238D01*
X944095Y-2232238D02*
X991714Y-2327476D01*
X991714Y-2327476D02*
X1039333Y-2517952D01*
X1039333Y-2517952D02*
X1039333Y-2660809D01*
X1039333Y-2660809D02*
X991714Y-2851285D01*
X991714Y-2851285D02*
X944095Y-2946523D01*
X944095Y-2946523D02*
X848857Y-3041761D01*
X848857Y-3041761D02*
X706000Y-3089380D01*
X706000Y-3089380D02*
X467905Y-3089380D01*
X1420286Y-2184619D02*
X1467905Y-2137000D01*
X1467905Y-2137000D02*
X1563143Y-2089380D01*
X1563143Y-2089380D02*
X1801238Y-2089380D01*
X1801238Y-2089380D02*
X1896476Y-2137000D01*
X1896476Y-2137000D02*
X1944095Y-2184619D01*
X1944095Y-2184619D02*
X1991714Y-2279857D01*
X1991714Y-2279857D02*
X1991714Y-2375095D01*
X1991714Y-2375095D02*
X1944095Y-2517952D01*
X1944095Y-2517952D02*
X1372667Y-3089380D01*
X1372667Y-3089380D02*
X1991714Y-3089380D01*
%TO.C,R16*%
X-4121857Y-5264380D02*
X-4455190Y-4788190D01*
X-4693285Y-5264380D02*
X-4693285Y-4264380D01*
X-4693285Y-4264380D02*
X-4312333Y-4264380D01*
X-4312333Y-4264380D02*
X-4217095Y-4312000D01*
X-4217095Y-4312000D02*
X-4169476Y-4359619D01*
X-4169476Y-4359619D02*
X-4121857Y-4454857D01*
X-4121857Y-4454857D02*
X-4121857Y-4597714D01*
X-4121857Y-4597714D02*
X-4169476Y-4692952D01*
X-4169476Y-4692952D02*
X-4217095Y-4740571D01*
X-4217095Y-4740571D02*
X-4312333Y-4788190D01*
X-4312333Y-4788190D02*
X-4693285Y-4788190D01*
X-3169476Y-5264380D02*
X-3740904Y-5264380D01*
X-3455190Y-5264380D02*
X-3455190Y-4264380D01*
X-3455190Y-4264380D02*
X-3550428Y-4407238D01*
X-3550428Y-4407238D02*
X-3645666Y-4502476D01*
X-3645666Y-4502476D02*
X-3740904Y-4550095D01*
X-2312333Y-4264380D02*
X-2502809Y-4264380D01*
X-2502809Y-4264380D02*
X-2598047Y-4312000D01*
X-2598047Y-4312000D02*
X-2645666Y-4359619D01*
X-2645666Y-4359619D02*
X-2740904Y-4502476D01*
X-2740904Y-4502476D02*
X-2788523Y-4692952D01*
X-2788523Y-4692952D02*
X-2788523Y-5073904D01*
X-2788523Y-5073904D02*
X-2740904Y-5169142D01*
X-2740904Y-5169142D02*
X-2693285Y-5216761D01*
X-2693285Y-5216761D02*
X-2598047Y-5264380D01*
X-2598047Y-5264380D02*
X-2407571Y-5264380D01*
X-2407571Y-5264380D02*
X-2312333Y-5216761D01*
X-2312333Y-5216761D02*
X-2264714Y-5169142D01*
X-2264714Y-5169142D02*
X-2217095Y-5073904D01*
X-2217095Y-5073904D02*
X-2217095Y-4835809D01*
X-2217095Y-4835809D02*
X-2264714Y-4740571D01*
X-2264714Y-4740571D02*
X-2312333Y-4692952D01*
X-2312333Y-4692952D02*
X-2407571Y-4645333D01*
X-2407571Y-4645333D02*
X-2598047Y-4645333D01*
X-2598047Y-4645333D02*
X-2693285Y-4692952D01*
X-2693285Y-4692952D02*
X-2740904Y-4740571D01*
X-2740904Y-4740571D02*
X-2788523Y-4835809D01*
%TO.C,C20*%
X-4117857Y19931142D02*
X-4070238Y19883523D01*
X-4070238Y19883523D02*
X-4022619Y19740666D01*
X-4022619Y19740666D02*
X-4022619Y19645428D01*
X-4022619Y19645428D02*
X-4070238Y19502571D01*
X-4070238Y19502571D02*
X-4165476Y19407333D01*
X-4165476Y19407333D02*
X-4260714Y19359714D01*
X-4260714Y19359714D02*
X-4451190Y19312095D01*
X-4451190Y19312095D02*
X-4594047Y19312095D01*
X-4594047Y19312095D02*
X-4784523Y19359714D01*
X-4784523Y19359714D02*
X-4879761Y19407333D01*
X-4879761Y19407333D02*
X-4975000Y19502571D01*
X-4975000Y19502571D02*
X-5022619Y19645428D01*
X-5022619Y19645428D02*
X-5022619Y19740666D01*
X-5022619Y19740666D02*
X-4975000Y19883523D01*
X-4975000Y19883523D02*
X-4927380Y19931142D01*
X-4927380Y20312095D02*
X-4975000Y20359714D01*
X-4975000Y20359714D02*
X-5022619Y20454952D01*
X-5022619Y20454952D02*
X-5022619Y20693047D01*
X-5022619Y20693047D02*
X-4975000Y20788285D01*
X-4975000Y20788285D02*
X-4927380Y20835904D01*
X-4927380Y20835904D02*
X-4832142Y20883523D01*
X-4832142Y20883523D02*
X-4736904Y20883523D01*
X-4736904Y20883523D02*
X-4594047Y20835904D01*
X-4594047Y20835904D02*
X-4022619Y20264476D01*
X-4022619Y20264476D02*
X-4022619Y20883523D01*
X-5022619Y21502571D02*
X-5022619Y21597809D01*
X-5022619Y21597809D02*
X-4975000Y21693047D01*
X-4975000Y21693047D02*
X-4927380Y21740666D01*
X-4927380Y21740666D02*
X-4832142Y21788285D01*
X-4832142Y21788285D02*
X-4641666Y21835904D01*
X-4641666Y21835904D02*
X-4403571Y21835904D01*
X-4403571Y21835904D02*
X-4213095Y21788285D01*
X-4213095Y21788285D02*
X-4117857Y21740666D01*
X-4117857Y21740666D02*
X-4070238Y21693047D01*
X-4070238Y21693047D02*
X-4022619Y21597809D01*
X-4022619Y21597809D02*
X-4022619Y21502571D01*
X-4022619Y21502571D02*
X-4070238Y21407333D01*
X-4070238Y21407333D02*
X-4117857Y21359714D01*
X-4117857Y21359714D02*
X-4213095Y21312095D01*
X-4213095Y21312095D02*
X-4403571Y21264476D01*
X-4403571Y21264476D02*
X-4641666Y21264476D01*
X-4641666Y21264476D02*
X-4832142Y21312095D01*
X-4832142Y21312095D02*
X-4927380Y21359714D01*
X-4927380Y21359714D02*
X-4975000Y21407333D01*
X-4975000Y21407333D02*
X-5022619Y21502571D01*
%TO.C,R28*%
X3802142Y-5287380D02*
X3468809Y-4811190D01*
X3230714Y-5287380D02*
X3230714Y-4287380D01*
X3230714Y-4287380D02*
X3611666Y-4287380D01*
X3611666Y-4287380D02*
X3706904Y-4335000D01*
X3706904Y-4335000D02*
X3754523Y-4382619D01*
X3754523Y-4382619D02*
X3802142Y-4477857D01*
X3802142Y-4477857D02*
X3802142Y-4620714D01*
X3802142Y-4620714D02*
X3754523Y-4715952D01*
X3754523Y-4715952D02*
X3706904Y-4763571D01*
X3706904Y-4763571D02*
X3611666Y-4811190D01*
X3611666Y-4811190D02*
X3230714Y-4811190D01*
X4183095Y-4382619D02*
X4230714Y-4335000D01*
X4230714Y-4335000D02*
X4325952Y-4287380D01*
X4325952Y-4287380D02*
X4564047Y-4287380D01*
X4564047Y-4287380D02*
X4659285Y-4335000D01*
X4659285Y-4335000D02*
X4706904Y-4382619D01*
X4706904Y-4382619D02*
X4754523Y-4477857D01*
X4754523Y-4477857D02*
X4754523Y-4573095D01*
X4754523Y-4573095D02*
X4706904Y-4715952D01*
X4706904Y-4715952D02*
X4135476Y-5287380D01*
X4135476Y-5287380D02*
X4754523Y-5287380D01*
X5325952Y-4715952D02*
X5230714Y-4668333D01*
X5230714Y-4668333D02*
X5183095Y-4620714D01*
X5183095Y-4620714D02*
X5135476Y-4525476D01*
X5135476Y-4525476D02*
X5135476Y-4477857D01*
X5135476Y-4477857D02*
X5183095Y-4382619D01*
X5183095Y-4382619D02*
X5230714Y-4335000D01*
X5230714Y-4335000D02*
X5325952Y-4287380D01*
X5325952Y-4287380D02*
X5516428Y-4287380D01*
X5516428Y-4287380D02*
X5611666Y-4335000D01*
X5611666Y-4335000D02*
X5659285Y-4382619D01*
X5659285Y-4382619D02*
X5706904Y-4477857D01*
X5706904Y-4477857D02*
X5706904Y-4525476D01*
X5706904Y-4525476D02*
X5659285Y-4620714D01*
X5659285Y-4620714D02*
X5611666Y-4668333D01*
X5611666Y-4668333D02*
X5516428Y-4715952D01*
X5516428Y-4715952D02*
X5325952Y-4715952D01*
X5325952Y-4715952D02*
X5230714Y-4763571D01*
X5230714Y-4763571D02*
X5183095Y-4811190D01*
X5183095Y-4811190D02*
X5135476Y-4906428D01*
X5135476Y-4906428D02*
X5135476Y-5096904D01*
X5135476Y-5096904D02*
X5183095Y-5192142D01*
X5183095Y-5192142D02*
X5230714Y-5239761D01*
X5230714Y-5239761D02*
X5325952Y-5287380D01*
X5325952Y-5287380D02*
X5516428Y-5287380D01*
X5516428Y-5287380D02*
X5611666Y-5239761D01*
X5611666Y-5239761D02*
X5659285Y-5192142D01*
X5659285Y-5192142D02*
X5706904Y-5096904D01*
X5706904Y-5096904D02*
X5706904Y-4906428D01*
X5706904Y-4906428D02*
X5659285Y-4811190D01*
X5659285Y-4811190D02*
X5611666Y-4763571D01*
X5611666Y-4763571D02*
X5516428Y-4715952D01*
%TO.C,C4*%
X-17386666Y-13600142D02*
X-17434285Y-13647761D01*
X-17434285Y-13647761D02*
X-17577142Y-13695380D01*
X-17577142Y-13695380D02*
X-17672380Y-13695380D01*
X-17672380Y-13695380D02*
X-17815237Y-13647761D01*
X-17815237Y-13647761D02*
X-17910475Y-13552523D01*
X-17910475Y-13552523D02*
X-17958094Y-13457285D01*
X-17958094Y-13457285D02*
X-18005713Y-13266809D01*
X-18005713Y-13266809D02*
X-18005713Y-13123952D01*
X-18005713Y-13123952D02*
X-17958094Y-12933476D01*
X-17958094Y-12933476D02*
X-17910475Y-12838238D01*
X-17910475Y-12838238D02*
X-17815237Y-12743000D01*
X-17815237Y-12743000D02*
X-17672380Y-12695380D01*
X-17672380Y-12695380D02*
X-17577142Y-12695380D01*
X-17577142Y-12695380D02*
X-17434285Y-12743000D01*
X-17434285Y-12743000D02*
X-17386666Y-12790619D01*
X-16529523Y-13028714D02*
X-16529523Y-13695380D01*
X-16767618Y-12647761D02*
X-17005713Y-13362047D01*
X-17005713Y-13362047D02*
X-16386666Y-13362047D01*
%TO.C,R5*%
X-44362666Y-13948380D02*
X-44695999Y-13472190D01*
X-44934094Y-13948380D02*
X-44934094Y-12948380D01*
X-44934094Y-12948380D02*
X-44553142Y-12948380D01*
X-44553142Y-12948380D02*
X-44457904Y-12996000D01*
X-44457904Y-12996000D02*
X-44410285Y-13043619D01*
X-44410285Y-13043619D02*
X-44362666Y-13138857D01*
X-44362666Y-13138857D02*
X-44362666Y-13281714D01*
X-44362666Y-13281714D02*
X-44410285Y-13376952D01*
X-44410285Y-13376952D02*
X-44457904Y-13424571D01*
X-44457904Y-13424571D02*
X-44553142Y-13472190D01*
X-44553142Y-13472190D02*
X-44934094Y-13472190D01*
X-43457904Y-12948380D02*
X-43934094Y-12948380D01*
X-43934094Y-12948380D02*
X-43981713Y-13424571D01*
X-43981713Y-13424571D02*
X-43934094Y-13376952D01*
X-43934094Y-13376952D02*
X-43838856Y-13329333D01*
X-43838856Y-13329333D02*
X-43600761Y-13329333D01*
X-43600761Y-13329333D02*
X-43505523Y-13376952D01*
X-43505523Y-13376952D02*
X-43457904Y-13424571D01*
X-43457904Y-13424571D02*
X-43410285Y-13519809D01*
X-43410285Y-13519809D02*
X-43410285Y-13757904D01*
X-43410285Y-13757904D02*
X-43457904Y-13853142D01*
X-43457904Y-13853142D02*
X-43505523Y-13900761D01*
X-43505523Y-13900761D02*
X-43600761Y-13948380D01*
X-43600761Y-13948380D02*
X-43838856Y-13948380D01*
X-43838856Y-13948380D02*
X-43934094Y-13900761D01*
X-43934094Y-13900761D02*
X-43981713Y-13853142D01*
D11*
%TO.C,J7*%
X-52065000Y11998000D02*
X-50735000Y11998000D01*
X-55935000Y11998000D02*
X-55935000Y9338000D01*
X-53335000Y11998000D02*
X-55935000Y11998000D01*
X-53335000Y11998000D02*
X-53335000Y9338000D01*
X-50735000Y11998000D02*
X-50735000Y10668000D01*
X-53335000Y9338000D02*
X-55935000Y9338000D01*
%TO.C,U3*%
X-59090000Y1270000D02*
X-59090000Y-1490000D01*
X-52670000Y1270000D02*
X-52670000Y-1490000D01*
X-52670000Y4030000D02*
X-53095000Y4030000D01*
X-52670000Y1270000D02*
X-52670000Y4030000D01*
X-58665000Y-1490000D02*
X-58665000Y-3030000D01*
X-59090000Y4030000D02*
X-58665000Y4030000D01*
X-59090000Y-1490000D02*
X-58665000Y-1490000D01*
X-52670000Y-1490000D02*
X-53095000Y-1490000D01*
X-59090000Y1270000D02*
X-59090000Y4030000D01*
%TO.C,TP4*%
X-55180000Y-6350000D02*
G75*
G03*
X-55180000Y-6350000I-700000J0D01*
G01*
%TO.C,TP3*%
X-57720000Y-6350000D02*
G75*
G03*
X-57720000Y-6350000I-700000J0D01*
G01*
%TO.C,C14*%
X-58312267Y8130000D02*
X-58019733Y8130000D01*
X-58312267Y7110000D02*
X-58019733Y7110000D01*
%TO.C,R3*%
X-42434742Y12206500D02*
X-42909258Y12206500D01*
X-42434742Y11161500D02*
X-42909258Y11161500D01*
%TO.C,R2*%
X-42909258Y9129500D02*
X-42434742Y9129500D01*
X-42909258Y10174500D02*
X-42434742Y10174500D01*
%TO.C,J6*%
X-35814000Y-13402000D02*
X-28134000Y-13402000D01*
X-37084000Y-16062000D02*
X-38414000Y-16062000D01*
X-28134000Y-16062000D02*
X-28134000Y-13402000D01*
X-35814000Y-16062000D02*
X-35814000Y-13402000D01*
X-38414000Y-16062000D02*
X-38414000Y-14732000D01*
X-35814000Y-16062000D02*
X-28134000Y-16062000D01*
%TO.C,R15*%
X12337064Y-528000D02*
X7982936Y-528000D01*
X12337064Y-3948000D02*
X7982936Y-3948000D01*
%TO.C,R14*%
X12337064Y195000D02*
X7982936Y195000D01*
X12337064Y3615000D02*
X7982936Y3615000D01*
%TO.C,R29*%
X-28462500Y-6112742D02*
X-28462500Y-6587258D01*
X-27417500Y-6112742D02*
X-27417500Y-6587258D01*
%TO.C,R27*%
X-25893500Y-3539258D02*
X-25893500Y-3064742D01*
X-26938500Y-3539258D02*
X-26938500Y-3064742D01*
%TO.C,R26*%
X-28462500Y-3064742D02*
X-28462500Y-3539258D01*
X-27417500Y-3064742D02*
X-27417500Y-3539258D01*
%TO.C,R24*%
X-25414500Y-6587258D02*
X-25414500Y-6112742D01*
X-24369500Y-6587258D02*
X-24369500Y-6112742D01*
%TO.C,R23*%
X-24369500Y-3539258D02*
X-24369500Y-3064742D01*
X-25414500Y-3539258D02*
X-25414500Y-3064742D01*
%TO.C,R20*%
X5858742Y14492500D02*
X6333258Y14492500D01*
X5858742Y13447500D02*
X6333258Y13447500D01*
%TO.C,R19*%
X-3857258Y13447500D02*
X-3382742Y13447500D01*
X-3857258Y14492500D02*
X-3382742Y14492500D01*
%TO.C,R18*%
X2713258Y14492500D02*
X2238742Y14492500D01*
X2713258Y13447500D02*
X2238742Y13447500D01*
%TO.C,R17*%
X-6747742Y14492500D02*
X-7222258Y14492500D01*
X-6747742Y13447500D02*
X-7222258Y13447500D01*
%TO.C,R12*%
X3572742Y4332500D02*
X4047258Y4332500D01*
X3572742Y3287500D02*
X4047258Y3287500D01*
%TO.C,R11*%
X-4237258Y3287500D02*
X-3762742Y3287500D01*
X-4237258Y4332500D02*
X-3762742Y4332500D01*
%TO.C,R4*%
X872258Y3287500D02*
X397742Y3287500D01*
X872258Y4332500D02*
X397742Y4332500D01*
%TO.C,R1*%
X-7382742Y4332500D02*
X-7857258Y4332500D01*
X-7382742Y3287500D02*
X-7857258Y3287500D01*
%TO.C,Q6*%
X5540000Y12625000D02*
X-460000Y12625000D01*
X2540000Y7425000D02*
X-460000Y7425000D01*
%TO.C,Q5*%
X-7604000Y7425000D02*
X-10604000Y7425000D01*
X-4604000Y12625000D02*
X-10604000Y12625000D01*
%TO.C,Q4*%
X5572000Y2370000D02*
X-428000Y2370000D01*
X2572000Y-2830000D02*
X-428000Y-2830000D01*
%TO.C,Q3*%
X-7588000Y-2735000D02*
X-10588000Y-2735000D01*
X-4588000Y2465000D02*
X-10588000Y2465000D01*
%TO.C,D12*%
X976000Y16725000D02*
X976000Y15025000D01*
X976000Y15025000D02*
X3526000Y15025000D01*
X976000Y16725000D02*
X3526000Y16725000D01*
%TO.C,D11*%
X-8485000Y16725000D02*
X-8485000Y15025000D01*
X-8485000Y15025000D02*
X-5935000Y15025000D01*
X-8485000Y16725000D02*
X-5935000Y16725000D01*
%TO.C,D10*%
X-865000Y6565000D02*
X1685000Y6565000D01*
X-865000Y4865000D02*
X1685000Y4865000D01*
X-865000Y6565000D02*
X-865000Y4865000D01*
%TO.C,D1*%
X-9120000Y6565000D02*
X-9120000Y4865000D01*
X-9120000Y4865000D02*
X-6570000Y4865000D01*
X-9120000Y6565000D02*
X-6570000Y6565000D01*
%TO.C,C29*%
X-26926000Y-6209420D02*
X-26926000Y-6490580D01*
X-25906000Y-6209420D02*
X-25906000Y-6490580D01*
%TO.C,C28*%
X3329000Y20327252D02*
X3329000Y19804748D01*
X4799000Y20327252D02*
X4799000Y19804748D01*
%TO.C,C27*%
X-44965252Y-1243000D02*
X-44442748Y-1243000D01*
X-44965252Y227000D02*
X-44442748Y227000D01*
%TO.C,C26*%
X1297000Y20327252D02*
X1297000Y19804748D01*
X2767000Y20327252D02*
X2767000Y19804748D01*
%TO.C,C24*%
X-44965252Y1805000D02*
X-44442748Y1805000D01*
X-44965252Y3275000D02*
X-44442748Y3275000D01*
%TO.C,R10*%
X12160064Y-13879000D02*
X7805936Y-13879000D01*
X12160064Y-10459000D02*
X7805936Y-10459000D01*
%TO.C,J4*%
X-8450000Y17727000D02*
X-8450000Y20877000D01*
X-8450000Y20877000D02*
X-11300000Y23477000D01*
X-11300000Y15177000D02*
X-8450000Y17727000D01*
X-11300000Y23477000D02*
X-24150000Y23477000D01*
X-24150000Y15177000D02*
X-11300000Y15177000D01*
X-24150000Y23477000D02*
X-24150000Y15177000D01*
%TO.C,Q1*%
X-4620000Y-7862000D02*
X-10620000Y-7862000D01*
X-7620000Y-13062000D02*
X-10620000Y-13062000D01*
%TO.C,R13*%
X-6480742Y-6849500D02*
X-6955258Y-6849500D01*
X-6480742Y-5804500D02*
X-6955258Y-5804500D01*
%TO.C,R50*%
X-25414500Y-478258D02*
X-25414500Y-3742D01*
X-24369500Y-478258D02*
X-24369500Y-3742D01*
%TO.C,C31*%
X-11720000Y7142000D02*
X-12720000Y7142000D01*
X-12220000Y6642000D02*
X-12220000Y7642000D01*
X-12960000Y6456437D02*
X-12960000Y8142000D01*
X-12960000Y6456437D02*
X-14024437Y5392000D01*
X-12960000Y12847563D02*
X-12960000Y11162000D01*
X-12960000Y12847563D02*
X-14024437Y13912000D01*
X-14024437Y5392000D02*
X-21480000Y5392000D01*
X-14024437Y13912000D02*
X-21480000Y13912000D01*
X-21480000Y5392000D02*
X-21480000Y8142000D01*
X-21480000Y13912000D02*
X-21480000Y11162000D01*
%TO.C,D5*%
X-40766000Y10570000D02*
X-37466000Y10570000D01*
X-40766000Y10570000D02*
X-40766000Y15970000D01*
X-37466000Y10570000D02*
X-37466000Y15970000D01*
%TO.C,J2*%
X-43155000Y20285000D02*
X-30395000Y20285000D01*
X-43155000Y20285000D02*
X-43155000Y22945000D01*
X-30395000Y20285000D02*
X-30395000Y22945000D01*
X-45755000Y21615000D02*
X-45755000Y22945000D01*
X-45755000Y22945000D02*
X-44425000Y22945000D01*
X-43155000Y22945000D02*
X-30395000Y22945000D01*
%TO.C,C18*%
X-24640000Y6463420D02*
X-24640000Y6744580D01*
X-23620000Y6463420D02*
X-23620000Y6744580D01*
%TO.C,C1*%
X-28700000Y6871580D02*
X-28700000Y6590420D01*
X-29720000Y6871580D02*
X-29720000Y6590420D01*
%TO.C,C15*%
X-46976420Y9015000D02*
X-47257580Y9015000D01*
X-46976420Y10035000D02*
X-47257580Y10035000D01*
%TO.C,C6*%
X-30106252Y10895000D02*
X-29583748Y10895000D01*
X-30106252Y9425000D02*
X-29583748Y9425000D01*
%TO.C,C13*%
X735000Y20327252D02*
X735000Y19804748D01*
X-735000Y20327252D02*
X-735000Y19804748D01*
%TO.C,R47*%
X-26938500Y2569742D02*
X-26938500Y3044258D01*
X-25893500Y2569742D02*
X-25893500Y3044258D01*
%TO.C,C23*%
X-15749748Y-15134000D02*
X-17172252Y-15134000D01*
X-15749748Y-13314000D02*
X-17172252Y-13314000D01*
%TO.C,R8*%
X-47608258Y17794500D02*
X-47133742Y17794500D01*
X-47608258Y16749500D02*
X-47133742Y16749500D01*
%TO.C,R25*%
X1443258Y-6872500D02*
X968742Y-6872500D01*
X1443258Y-5827500D02*
X968742Y-5827500D01*
%TO.C,D8*%
X-30460000Y-11268000D02*
X-30460000Y-10068000D01*
X-32310000Y-11268000D02*
X-30460000Y-11268000D01*
X-32310000Y-10068000D02*
X-30460000Y-10068000D01*
%TO.C,C9*%
X-33018000Y-3783420D02*
X-33018000Y-4064580D01*
X-34038000Y-3783420D02*
X-34038000Y-4064580D01*
%TO.C,C2*%
X-33555000Y5722252D02*
X-33555000Y5199748D01*
X-35025000Y5722252D02*
X-35025000Y5199748D01*
%TO.C,C12*%
X-32002000Y7252580D02*
X-32002000Y6971420D01*
X-33022000Y7252580D02*
X-33022000Y6971420D01*
%TO.C,C$1*%
X-29437000Y15232748D02*
X-29437000Y15755252D01*
X-27967000Y15232748D02*
X-27967000Y15755252D01*
%TO.C,D7*%
X-8281000Y-3699000D02*
X-8281000Y-5399000D01*
X-8281000Y-3699000D02*
X-5731000Y-3699000D01*
X-8281000Y-5399000D02*
X-5731000Y-5399000D01*
%TO.C,Q2*%
X5388000Y-7862000D02*
X-612000Y-7862000D01*
X2388000Y-13062000D02*
X-612000Y-13062000D01*
%TO.C,C19*%
X-31636580Y-11682000D02*
X-31355420Y-11682000D01*
X-31636580Y-12702000D02*
X-31355420Y-12702000D01*
%TO.C,D4*%
X-45813000Y-13939000D02*
X-45813000Y-12019000D01*
X-45813000Y-12019000D02*
X-48498000Y-12019000D01*
X-48498000Y-13939000D02*
X-45813000Y-13939000D01*
%TO.C,C7*%
X-31498000Y7252580D02*
X-31498000Y6971420D01*
X-30478000Y7252580D02*
X-30478000Y6971420D01*
%TO.C,C10*%
X-38733000Y-3783420D02*
X-38733000Y-4064580D01*
X-39753000Y-3783420D02*
X-39753000Y-4064580D01*
%TO.C,SW1*%
X-48944000Y11262000D02*
X-48824000Y11262000D01*
X-47814000Y11262000D02*
X-46674000Y11262000D01*
X-45664000Y11262000D02*
X-45544000Y11262000D01*
X-45544000Y11262000D02*
X-45544000Y15662000D01*
X-48944000Y15662000D02*
X-48944000Y11262000D01*
X-48824000Y15662000D02*
X-48944000Y15662000D01*
X-46674000Y15662000D02*
X-47814000Y15662000D01*
X-45544000Y15662000D02*
X-45664000Y15662000D01*
%TO.C,D3*%
X-45813000Y-15971000D02*
X-45813000Y-14051000D01*
X-45813000Y-14051000D02*
X-48498000Y-14051000D01*
X-48498000Y-15971000D02*
X-45813000Y-15971000D01*
%TO.C,R41*%
X-27417500Y3044258D02*
X-27417500Y2569742D01*
X-28462500Y3044258D02*
X-28462500Y2569742D01*
%TO.C,R6*%
X-44433258Y-12456500D02*
X-43958742Y-12456500D01*
X-44433258Y-13501500D02*
X-43958742Y-13501500D01*
%TO.C,R37*%
X-34768258Y-10145500D02*
X-34293742Y-10145500D01*
X-34768258Y-11190500D02*
X-34293742Y-11190500D01*
%TO.C,R44*%
X-25414500Y2569742D02*
X-25414500Y3044258D01*
X-24369500Y2569742D02*
X-24369500Y3044258D01*
%TO.C,C22*%
X-27430000Y-100420D02*
X-27430000Y-381580D01*
X-28450000Y-100420D02*
X-28450000Y-381580D01*
%TO.C,C21*%
X-5990000Y19862748D02*
X-5990000Y21285252D01*
X-4170000Y19862748D02*
X-4170000Y21285252D01*
%TO.C,Y3*%
X-28320000Y4731000D02*
X-25020000Y4731000D01*
X-25020000Y4731000D02*
X-25020000Y8731000D01*
%TO.C,R39*%
X-34293742Y-12714500D02*
X-34768258Y-12714500D01*
X-34293742Y-11669500D02*
X-34768258Y-11669500D01*
%TO.C,C5*%
X-11645000Y-1748000D02*
X-12645000Y-1748000D01*
X-12145000Y-2248000D02*
X-12145000Y-1248000D01*
X-12885000Y-2433563D02*
X-12885000Y-748000D01*
X-12885000Y-2433563D02*
X-13949437Y-3498000D01*
X-12885000Y3957563D02*
X-12885000Y2272000D01*
X-12885000Y3957563D02*
X-13949437Y5022000D01*
X-13949437Y-3498000D02*
X-21405000Y-3498000D01*
X-13949437Y5022000D02*
X-21405000Y5022000D01*
X-21405000Y-3498000D02*
X-21405000Y-748000D01*
X-21405000Y5022000D02*
X-21405000Y2272000D01*
%TO.C,C8*%
X-34669000Y-3783420D02*
X-34669000Y-4064580D01*
X-35689000Y-3783420D02*
X-35689000Y-4064580D01*
%TO.C,R7*%
X-44433258Y-10424500D02*
X-43958742Y-10424500D01*
X-44433258Y-11469500D02*
X-43958742Y-11469500D01*
%TO.C,R53*%
X-25893500Y-3742D02*
X-25893500Y-478258D01*
X-26938500Y-3742D02*
X-26938500Y-478258D01*
%TO.C,L2*%
X-36728000Y11650000D02*
X-35528000Y11650000D01*
X-36728000Y11650000D02*
X-36728000Y13050000D01*
X-30328000Y11650000D02*
X-31528000Y11650000D01*
X-30328000Y11650000D02*
X-30328000Y13050000D01*
X-36728000Y18450000D02*
X-36728000Y17050000D01*
X-36728000Y18450000D02*
X-35528000Y18450000D01*
X-30328000Y18450000D02*
X-30328000Y17050000D01*
X-30328000Y18450000D02*
X-31528000Y18450000D01*
%TO.C,R9*%
X12160064Y-9815000D02*
X7805936Y-9815000D01*
X12160064Y-6395000D02*
X7805936Y-6395000D01*
%TO.C,C16*%
X-44965252Y6323000D02*
X-44442748Y6323000D01*
X-44965252Y4853000D02*
X-44442748Y4853000D01*
%TO.C,D6*%
X-45813000Y-11882000D02*
X-45813000Y-9962000D01*
X-45813000Y-9962000D02*
X-48498000Y-9962000D01*
X-48498000Y-11882000D02*
X-45813000Y-11882000D01*
%TO.C,C11*%
X-37209000Y-3783420D02*
X-37209000Y-4064580D01*
X-38229000Y-3783420D02*
X-38229000Y-4064580D01*
%TO.C,D2*%
X-294000Y-3722000D02*
X-294000Y-5422000D01*
X-294000Y-3722000D02*
X2256000Y-3722000D01*
X-294000Y-5422000D02*
X2256000Y-5422000D01*
%TO.C,R16*%
X-3716258Y-5804500D02*
X-3241742Y-5804500D01*
X-3716258Y-6849500D02*
X-3241742Y-6849500D01*
%TO.C,C20*%
X-3450000Y19862748D02*
X-3450000Y21285252D01*
X-1630000Y19862748D02*
X-1630000Y21285252D01*
%TO.C,R28*%
X4207742Y-5827500D02*
X4682258Y-5827500D01*
X4207742Y-6872500D02*
X4682258Y-6872500D01*
%TO.C,C4*%
X-11720000Y-10638000D02*
X-12720000Y-10638000D01*
X-12220000Y-11138000D02*
X-12220000Y-10138000D01*
X-12960000Y-11323563D02*
X-12960000Y-9638000D01*
X-12960000Y-11323563D02*
X-14024437Y-12388000D01*
X-12960000Y-4932437D02*
X-12960000Y-6618000D01*
X-12960000Y-4932437D02*
X-14024437Y-3868000D01*
X-14024437Y-12388000D02*
X-21480000Y-12388000D01*
X-14024437Y-3868000D02*
X-21480000Y-3868000D01*
X-21480000Y-12388000D02*
X-21480000Y-9638000D01*
X-21480000Y-3868000D02*
X-21480000Y-6618000D01*
%TO.C,R5*%
X-44433258Y-14488500D02*
X-43958742Y-14488500D01*
X-44433258Y-15533500D02*
X-43958742Y-15533500D01*
%TD*%
%LPC*%
D12*
%TO.C,J7*%
X-52064999Y10667999D03*
D13*
X-54604999Y10667999D03*
%TD*%
D14*
%TO.C,U3*%
X-58155000Y-2142500D03*
X-57505000Y-2142500D03*
X-56855000Y-2142500D03*
X-56205000Y-2142500D03*
X-55555000Y-2142500D03*
X-54905000Y-2142500D03*
X-54255000Y-2142500D03*
X-53605000Y-2142500D03*
X-53605000Y4682500D03*
X-54255000Y4682500D03*
X-54905000Y4682500D03*
X-55555000Y4682500D03*
X-56205000Y4682500D03*
X-56855000Y4682500D03*
X-57505000Y4682500D03*
X-58155000Y4682500D03*
%TD*%
D15*
%TO.C,TP4*%
X-55880000Y-6350000D03*
%TD*%
%TO.C,TP3*%
X-58420000Y-6350000D03*
%TD*%
D16*
%TO.C,C14*%
X-59028500Y7620000D03*
X-57303500Y7620000D03*
%TD*%
D17*
%TO.C,R3*%
X-41847000Y11684000D03*
X-43497000Y11684000D03*
%TD*%
D18*
%TO.C,R2*%
X-43497000Y9652000D03*
X-41847000Y9652000D03*
%TD*%
D12*
%TO.C,J6*%
X-37083999Y-14731999D03*
D13*
X-34543999Y-14731999D03*
X-32003999Y-14731999D03*
X-29463999Y-14731999D03*
%TD*%
D19*
%TO.C,J8*%
X18542000Y10160000D03*
%TD*%
%TO.C,J9*%
X18288000Y-10414000D03*
%TD*%
%TO.C,J3*%
X18796000Y-254000D03*
%TD*%
D20*
%TO.C,R15*%
X7197500Y-2238000D03*
X13122500Y-2238000D03*
%TD*%
%TO.C,R14*%
X13122500Y1905000D03*
X7197500Y1905000D03*
%TD*%
D21*
%TO.C,R29*%
X-27940000Y-5525000D03*
X-27940000Y-7175000D03*
%TD*%
D22*
%TO.C,R27*%
X-26416000Y-4127000D03*
X-26416000Y-2477000D03*
%TD*%
D21*
%TO.C,R26*%
X-27940000Y-2477000D03*
X-27940000Y-4127000D03*
%TD*%
D22*
%TO.C,R24*%
X-24892000Y-5525000D03*
X-24892000Y-7175000D03*
%TD*%
%TO.C,R23*%
X-24892000Y-4127000D03*
X-24892000Y-2477000D03*
%TD*%
D18*
%TO.C,R20*%
X6921000Y13970000D03*
X5271000Y13970000D03*
%TD*%
%TO.C,R19*%
X-4445000Y13970000D03*
X-2795000Y13970000D03*
%TD*%
D17*
%TO.C,R18*%
X3301000Y13970000D03*
X1651000Y13970000D03*
%TD*%
%TO.C,R17*%
X-6160000Y13970000D03*
X-7810000Y13970000D03*
%TD*%
D18*
%TO.C,R12*%
X4635000Y3810000D03*
X2985000Y3810000D03*
%TD*%
%TO.C,R11*%
X-4825000Y3810000D03*
X-3175000Y3810000D03*
%TD*%
D17*
%TO.C,R4*%
X-190000Y3810000D03*
X1460000Y3810000D03*
%TD*%
%TO.C,R1*%
X-6795000Y3810000D03*
X-8445000Y3810000D03*
%TD*%
D23*
%TO.C,Q6*%
X5439999Y11929999D03*
D24*
X2007999Y10024999D03*
D23*
X-359999Y8119999D03*
X-359999Y9389999D03*
X-359999Y10659999D03*
X-359999Y11929999D03*
X5439999Y8119999D03*
X5439999Y9389999D03*
X5439999Y10659999D03*
%TD*%
%TO.C,Q5*%
X-4703999Y10659999D03*
X-4703999Y9389999D03*
X-4703999Y8119999D03*
X-10503999Y11929999D03*
X-10503999Y10659999D03*
X-10503999Y9389999D03*
X-10503999Y8119999D03*
D24*
X-8135999Y10024999D03*
D23*
X-4703999Y11929999D03*
%TD*%
%TO.C,Q4*%
X5471999Y1674999D03*
D24*
X2039999Y-229999D03*
D23*
X-327999Y-2134999D03*
X-327999Y-864999D03*
X-327999Y404999D03*
X-327999Y1674999D03*
X5471999Y-2134999D03*
X5471999Y-864999D03*
X5471999Y404999D03*
%TD*%
%TO.C,Q3*%
X-4687999Y499999D03*
X-4687999Y-769999D03*
X-4687999Y-2039999D03*
X-10487999Y1769999D03*
X-10487999Y499999D03*
X-10487999Y-769999D03*
X-10487999Y-2039999D03*
D24*
X-8119999Y-134999D03*
D23*
X-4687999Y1769999D03*
%TD*%
D25*
%TO.C,D12*%
X1425999Y15874999D03*
X3525999Y15874999D03*
%TD*%
%TO.C,D11*%
X-8034999Y15874999D03*
X-5934999Y15874999D03*
%TD*%
%TO.C,D10*%
X1684999Y5714999D03*
X-414999Y5714999D03*
%TD*%
%TO.C,D1*%
X-8669999Y5714999D03*
X-6569999Y5714999D03*
%TD*%
D26*
%TO.C,C29*%
X-26416000Y-5575000D03*
X-26416000Y-7125000D03*
%TD*%
D27*
%TO.C,C28*%
X4064000Y21016000D03*
X4064000Y19116000D03*
%TD*%
D28*
%TO.C,C27*%
X-45654000Y-508000D03*
X-43754000Y-508000D03*
%TD*%
D27*
%TO.C,C26*%
X2032000Y21016000D03*
X2032000Y19116000D03*
%TD*%
D28*
%TO.C,C24*%
X-45654000Y2540000D03*
X-43754000Y2540000D03*
%TD*%
D20*
%TO.C,R10*%
X12945500Y-12169000D03*
X7020500Y-12169000D03*
%TD*%
D29*
%TO.C,J4*%
X-12700000Y19327000D03*
D30*
X-19900000Y19327000D03*
%TD*%
D23*
%TO.C,Q1*%
X-4719999Y-8556999D03*
D24*
X-8151999Y-10461999D03*
D23*
X-10519999Y-12366999D03*
X-10519999Y-11096999D03*
X-10519999Y-9826999D03*
X-10519999Y-8556999D03*
X-4719999Y-12366999D03*
X-4719999Y-11096999D03*
X-4719999Y-9826999D03*
%TD*%
D17*
%TO.C,R13*%
X-5893000Y-6327000D03*
X-7543000Y-6327000D03*
%TD*%
D22*
%TO.C,R50*%
X-24892000Y-1066000D03*
X-24892000Y584000D03*
%TD*%
D31*
%TO.C,C31*%
X-13970000Y9652000D03*
X-20470000Y9652000D03*
%TD*%
D32*
%TO.C,D5*%
X-39115999Y11969999D03*
X-39115999Y15969999D03*
%TD*%
D12*
%TO.C,J2*%
X-44424999Y21614999D03*
D13*
X-41884999Y21614999D03*
X-39344999Y21614999D03*
X-36804999Y21614999D03*
X-34264999Y21614999D03*
X-31724999Y21614999D03*
%TD*%
D33*
%TO.C,C18*%
X-24130000Y5829000D03*
X-24130000Y7379000D03*
%TD*%
D26*
%TO.C,C1*%
X-29210000Y7506000D03*
X-29210000Y5956000D03*
%TD*%
D34*
%TO.C,C15*%
X-46342000Y9525000D03*
X-47892000Y9525000D03*
%TD*%
D28*
%TO.C,C6*%
X-30795000Y10160000D03*
X-28895000Y10160000D03*
%TD*%
D27*
%TO.C,C13*%
X0Y21016000D03*
X0Y19116000D03*
%TD*%
D22*
%TO.C,R47*%
X-26416000Y1982000D03*
X-26416000Y3632000D03*
%TD*%
D35*
%TO.C,C23*%
X-14986000Y-14224000D03*
X-17936000Y-14224000D03*
%TD*%
D18*
%TO.C,R8*%
X-48196000Y17272000D03*
X-46546000Y17272000D03*
%TD*%
D17*
%TO.C,R25*%
X2031000Y-6350000D03*
X381000Y-6350000D03*
%TD*%
D36*
%TO.C,D8*%
X-30909999Y-10667999D03*
X-32309999Y-10667999D03*
%TD*%
D26*
%TO.C,C9*%
X-33528000Y-3149000D03*
X-33528000Y-4699000D03*
%TD*%
D27*
%TO.C,C2*%
X-34290000Y6411000D03*
X-34290000Y4511000D03*
%TD*%
D26*
%TO.C,C12*%
X-32512000Y7887000D03*
X-32512000Y6337000D03*
%TD*%
D37*
%TO.C,C$1*%
X-28702000Y14544000D03*
X-28702000Y16444000D03*
%TD*%
D25*
%TO.C,D7*%
X-7830999Y-4548999D03*
X-5730999Y-4548999D03*
%TD*%
D23*
%TO.C,Q2*%
X5287999Y-8556999D03*
D24*
X1855999Y-10461999D03*
D23*
X-511999Y-12366999D03*
X-511999Y-11096999D03*
X-511999Y-9826999D03*
X-511999Y-8556999D03*
X5287999Y-12366999D03*
X5287999Y-11096999D03*
X5287999Y-9826999D03*
%TD*%
D38*
%TO.C,C19*%
X-32271000Y-12192000D03*
X-30721000Y-12192000D03*
%TD*%
D39*
%TO.C,D4*%
X-46560500Y-12979000D03*
X-48435500Y-12979000D03*
%TD*%
D26*
%TO.C,C7*%
X-30988000Y6337000D03*
X-30988000Y7887000D03*
%TD*%
%TO.C,C10*%
X-39243000Y-3149000D03*
X-39243000Y-4699000D03*
%TD*%
D40*
%TO.C,SW1*%
X-48318999Y11386999D03*
X-48318999Y15536999D03*
X-46168999Y11386999D03*
X-46168999Y15536999D03*
%TD*%
D39*
%TO.C,D3*%
X-46560500Y-15011000D03*
X-48435500Y-15011000D03*
%TD*%
D21*
%TO.C,R41*%
X-27940000Y3632000D03*
X-27940000Y1982000D03*
%TD*%
D18*
%TO.C,R6*%
X-45021000Y-12979000D03*
X-43371000Y-12979000D03*
%TD*%
%TO.C,R37*%
X-35356000Y-10668000D03*
X-33706000Y-10668000D03*
%TD*%
D22*
%TO.C,R44*%
X-24892000Y1982000D03*
X-24892000Y3632000D03*
%TD*%
D26*
%TO.C,C22*%
X-27940000Y534000D03*
X-27940000Y-1016000D03*
%TD*%
D41*
%TO.C,C21*%
X-5080000Y19099000D03*
X-5080000Y22049000D03*
%TD*%
D42*
%TO.C,Y3*%
X-25819999Y5630999D03*
X-25819999Y7830999D03*
X-27519999Y7830999D03*
X-27519999Y5630999D03*
%TD*%
D17*
%TO.C,R39*%
X-33706000Y-12192000D03*
X-35356000Y-12192000D03*
%TD*%
D31*
%TO.C,C5*%
X-13895000Y762000D03*
X-20395000Y762000D03*
%TD*%
D26*
%TO.C,C8*%
X-35179000Y-3149000D03*
X-35179000Y-4699000D03*
%TD*%
D18*
%TO.C,R7*%
X-45021000Y-10947000D03*
X-43371000Y-10947000D03*
%TD*%
D21*
%TO.C,R53*%
X-26416000Y584000D03*
X-26416000Y-1066000D03*
%TD*%
D43*
%TO.C,L2*%
X-33527999Y12699999D03*
X-33527999Y17399999D03*
%TD*%
D20*
%TO.C,R9*%
X12945500Y-8105000D03*
X7020500Y-8105000D03*
%TD*%
D28*
%TO.C,C16*%
X-45654000Y5588000D03*
X-43754000Y5588000D03*
%TD*%
D39*
%TO.C,D6*%
X-46560500Y-10922000D03*
X-48435500Y-10922000D03*
%TD*%
D26*
%TO.C,C11*%
X-37719000Y-3149000D03*
X-37719000Y-4699000D03*
%TD*%
D25*
%TO.C,D2*%
X155999Y-4571999D03*
X2255999Y-4571999D03*
%TD*%
D18*
%TO.C,R16*%
X-4304000Y-6327000D03*
X-2654000Y-6327000D03*
%TD*%
D41*
%TO.C,C20*%
X-2540000Y19099000D03*
X-2540000Y22049000D03*
%TD*%
D18*
%TO.C,R28*%
X3620000Y-6350000D03*
X5270000Y-6350000D03*
%TD*%
D31*
%TO.C,C4*%
X-13970000Y-8128000D03*
X-20470000Y-8128000D03*
%TD*%
D18*
%TO.C,R5*%
X-45021000Y-15011000D03*
X-43371000Y-15011000D03*
%TD*%
M02*
