M48
; DRILL file {KiCad 6.99.0-unknown-f8b157a1fb~149~ubuntu22.04.1} date Sat 15 Oct 2022 12:14:30 PM AEDT
; FORMAT={-:-/ absolute / inch / decimal}
; #@! TF.CreationDate,2022-10-15T12:14:30+11:00
; #@! TF.GenerationSoftware,Kicad,Pcbnew,6.99.0-unknown-f8b157a1fb~149~ubuntu22.04.1
; #@! TF.FileFunction,Plated,1,4,PTH
FMAT,2
INCH
; #@! TA.AperFunction,Plated,PTH,ViaDrill
T1C0.0157
; #@! TA.AperFunction,Plated,PTH,ComponentDrill
T2C0.0394
; #@! TA.AperFunction,Plated,PTH,ComponentDrill
T3C0.1575
; #@! TA.AperFunction,Plated,PTH,ComponentDrill
T4C0.1772
%
G90
G05
T1
X-2.33Y0.18
X-2.11Y-0.18
X-1.89Y0.75
X-1.8727Y-0.5587
X-1.86Y0.04
X-1.79Y0.28
X-1.79Y0.15
X-1.76Y0.38
X-1.76Y0.06
X-1.75Y-0.32
X-1.73Y0.16
X-1.71Y-0.11
X-1.69Y0.59
X-1.68Y0.0885
X-1.68Y-0.02
X-1.67Y0.19
X-1.64Y0.42
X-1.6332Y-0.1064
X-1.63Y0.26
X-1.62Y-0.17
X-1.61Y-0.39
X-1.6033Y-0.1321
X-1.59Y-0.61
X-1.5615Y0.715
X-1.56Y-0.42
X-1.55Y-0.3
X-1.54Y-0.24
X-1.5045Y0.715
X-1.481Y0.4664
X-1.47Y0.09
X-1.47Y-0.44
X-1.4604Y0.4204
X-1.42Y0.59
X-1.41Y-0.24
X-1.37Y-0.31
X-1.345Y0.2959
X-1.3136Y0.42
X-1.31Y-0.3
X-1.3055Y0.375
X-1.28Y0.2908
X-1.2685Y-0.3106
X-1.22Y0.3171
X-1.2085Y-0.1636
X-1.18Y0.1615
X-1.18Y-0.21
X-1.17Y0.0
X-1.17Y-0.28
X-1.15Y0.53
X-1.1482Y0.0327
X-1.14Y-0.48
X-1.08Y0.31
X-1.07Y-0.0236
X-1.0627Y0.3918
X-1.02Y0.21
X-1.0Y0.38
X-0.99Y0.79
X-0.95Y0.34
X-0.93Y0.0436
X-0.93Y-0.56
X-0.92Y-0.18
X-0.92Y-0.28
X-0.917Y-0.03
X-0.89Y0.16
X-0.87Y-0.24
X-0.84Y0.53
X-0.84Y-0.41
X-0.84Y-0.5
X-0.8Y0.58
X-0.8Y0.48
X-0.8Y0.29
X-0.8Y0.2
X-0.77Y0.53
X-0.75Y-0.41
X-0.75Y-0.5
X-0.74Y0.58
X-0.74Y0.48
X-0.72Y0.53
X-0.72Y0.3
X-0.7Y0.18
X-0.6Y-0.48
X-0.5Y0.26
X-0.42Y0.22
X-0.41Y-0.18
X-0.38Y0.56
X-0.18Y0.26
X-0.125Y0.475
X-0.125Y0.425
X-0.125Y0.375
X-0.125Y0.325
X-0.125Y0.075
X-0.125Y0.025
X-0.125Y-0.025
X-0.125Y-0.075
X-0.125Y-0.35
X-0.125Y-0.4
X-0.125Y-0.45
X-0.125Y-0.5
X-0.1Y0.45
X-0.1Y0.4
X-0.1Y0.35
X-0.1Y0.05
X-0.1Y0.0
X-0.1Y-0.05
X-0.1Y-0.375
X-0.1Y-0.425
X-0.1Y-0.475
X-0.075Y0.475
X-0.075Y0.425
X-0.075Y0.375
X-0.075Y0.325
X-0.075Y0.075
X-0.075Y0.025
X-0.075Y-0.025
X-0.075Y-0.075
X-0.075Y-0.35
X-0.075Y-0.4
X-0.075Y-0.45
X-0.075Y-0.5
X-0.05Y0.15
X-0.04Y-0.17
X0.0Y0.56
X0.19Y-0.19
X0.24Y-0.6
X0.26Y-0.2
X0.35Y0.9
X0.35Y0.8
X0.35Y0.7
X0.4Y0.85
X0.4Y0.75
X0.4Y0.65
X0.43Y0.2
X0.44Y0.9
X0.44Y0.8
X0.44Y0.7
X0.48Y-0.61
X0.49Y-0.21
X0.5Y0.85
X0.5Y0.75
X0.5Y0.65
X0.52Y0.2
X0.55Y0.9
X0.55Y0.8
X0.55Y0.7
X0.58Y-0.21
X0.58Y-0.61
X0.6Y0.85
X0.6Y0.75
X0.6Y0.65
X0.64Y0.9
X0.64Y0.8
X0.64Y0.7
X0.68Y-0.61
X0.7Y0.85
X0.7Y0.75
X0.7Y0.65
X0.75Y0.9
X0.75Y0.8
X0.75Y0.7
X0.8Y0.85
X0.8Y0.75
X0.8Y0.65
X0.84Y0.9
X0.84Y0.8
X0.84Y0.7
X0.86Y-0.21
T2
X-2.1498Y0.42
X-2.0498Y0.42
X-1.749Y0.851
X-1.649Y0.851
X-1.549Y0.851
X-1.46Y-0.58
X-1.449Y0.851
X-1.36Y-0.58
X-1.349Y0.851
X-1.26Y-0.58
X-1.249Y0.851
X-1.16Y-0.58
T3
X0.72Y-0.41
X0.73Y0.4
X0.74Y-0.01
T4
X-0.7835Y0.7609
X-0.5Y0.7609
T0
M30
